<?xml version="1.0" encoding="UTF-8"?>
<svg id="Layer_1" data-name="Layer 1" xmlns="http://www.w3.org/2000/svg" viewBox="0 0 608.59 288.38">
  <defs>
    <style>
      .cls-1 {
        fill: #018aab;
      }

      .cls-2 {
        fill: #008aab;
      }

      .cls-3 {
        fill: #fff;
      }

      .cls-4 {
        opacity: .2;
      }
    </style>
  </defs>
  <g>
    <path class="cls-2" d="M525.11,246.51h-4.01l-2.24-4.53c-.26-.52-.72-.79-1.39-.79h-1.11l-.4,5.32h-3.65l1.11-14.21h6.91c1.49,0,2.65,.38,3.49,1.14,.83,.76,1.25,1.77,1.25,3.03s-.3,2.28-.9,3.02c-.6,.74-1.53,1.22-2.79,1.43,.39,.11,.71,.29,.98,.54,.26,.26,.5,.59,.71,1.01l2.04,4.03Zm-5.52-8.1c.66,0,1.16-.15,1.5-.44,.34-.3,.51-.72,.51-1.27s-.14-.94-.43-1.2c-.29-.26-.74-.39-1.34-.39h-3l-.24,3.3h3Z"/>
    <path class="cls-2" d="M534.31,237.61c.81,.83,1.22,2.02,1.22,3.57,0,.35-.02,.71-.06,1.07h-6.11c.16,1.21,.89,1.81,2.2,1.81,.95,0,1.88-.31,2.78-.93l.73,2.36c-.44,.38-1,.67-1.66,.88-.66,.21-1.37,.31-2.11,.31-1.06,0-2-.2-2.81-.6-.81-.4-1.44-.97-1.89-1.7-.45-.73-.67-1.59-.67-2.57,0-1.05,.22-1.98,.67-2.81s1.06-1.47,1.83-1.93,1.64-.7,2.59-.7c1.38,0,2.48,.42,3.29,1.25Zm-4.31,1.58c-.29,.28-.49,.73-.59,1.36h3.2c-.04-1.18-.53-1.77-1.47-1.77-.47,0-.85,.14-1.14,.41Z"/>
    <path class="cls-2" d="M538.45,246.38c-.77-.19-1.53-.49-2.28-.9l1.11-2.44c.55,.35,1.16,.63,1.83,.84,.67,.21,1.32,.31,1.93,.31,.42,0,.72-.05,.92-.16,.2-.11,.29-.24,.29-.4,0-.21-.13-.38-.4-.5-.27-.12-.71-.27-1.31-.44-.71-.19-1.31-.38-1.79-.58-.48-.2-.9-.5-1.26-.9-.36-.4-.53-.92-.53-1.56s.19-1.22,.56-1.71c.38-.5,.91-.88,1.59-1.16,.68-.27,1.47-.41,2.36-.41,.77,0,1.52,.1,2.27,.31,.75,.21,1.38,.5,1.9,.88l-1.09,2.34c-.5-.34-1.02-.59-1.56-.78-.54-.18-1.08-.27-1.6-.27-.43,0-.75,.05-.97,.15-.21,.1-.32,.24-.32,.41,0,.21,.14,.39,.41,.52,.27,.13,.71,.28,1.32,.44,.73,.2,1.33,.4,1.8,.6,.48,.2,.89,.5,1.25,.9,.36,.4,.53,.92,.53,1.56,0,1.02-.4,1.82-1.2,2.39-.8,.57-1.88,.86-3.25,.86-.91,0-1.75-.1-2.52-.29Z"/>
    <path class="cls-2" d="M557.41,236.6l-.79,9.91h-3.49l.1-1.13c-.35,.4-.79,.72-1.33,.95-.54,.23-1.12,.34-1.75,.34-1.07,0-1.89-.31-2.46-.92-.56-.61-.85-1.5-.85-2.67,0-.15,.01-.38,.04-.71l.44-5.78h3.59l-.44,5.58-.02,.3c0,.47,.11,.83,.32,1.08,.21,.25,.53,.37,.95,.37,.5,0,.89-.17,1.17-.51,.28-.34,.44-.8,.48-1.38l.44-5.44h3.59Z"/>
    <path class="cls-2" d="M559.87,232.31h3.59l-1.13,14.21h-3.59l1.13-14.21Z"/>
    <path class="cls-2" d="M569.17,242.5l-.02,.28c0,.87,.48,1.31,1.43,1.31,.23,0,.54-.02,.93-.06l-.38,2.54c-.42,.07-.82,.1-1.21,.1-2.9,0-4.35-1.2-4.35-3.61,0-.25,0-.45,.02-.58l.26-3.24h-1.85l.2-2.64h1.85l.22-2.88h3.59l-.22,2.88h2.38l-.2,2.64h-2.38l-.26,3.26Z"/>
  </g>
  <g>
    <g>
      <path class="cls-2" d="M93,157.29h-.04c-.32,0-.64,0-.96,0v-1c.33,0,.65,0,.96,0l.04,1Zm3.02-.07l-.05-1c.33-.02,.66-.03,.99-.05l.06,1c-.33,.02-.67,.04-1.01,.06Zm-7.05-.05c-.34-.02-.67-.04-1-.07l.08-1c.33,.03,.66,.05,.99,.07l-.06,1Zm11.06-.26l-.11-.99c.33-.04,.66-.07,.98-.12l.12,.99c-.33,.04-.67,.08-1,.12Zm-15.07-.11c-.33-.04-.67-.08-1-.13l.14-.99c.33,.05,.65,.09,.98,.13l-.12,.99Zm19.06-.46l-.17-.99c.33-.06,.65-.12,.98-.18l.19,.98c-.33,.06-.66,.12-.99,.18Zm-23.04-.16c-.33-.06-.66-.13-.99-.19l.2-.98c.32,.07,.65,.13,.97,.19l-.19,.98Zm26.98-.65l-.23-.97c.32-.08,.64-.16,.96-.24l.25,.97c-.32,.08-.65,.16-.98,.24Zm-30.91-.22c-.33-.08-.65-.17-.97-.26l.26-.96c.32,.09,.64,.17,.96,.25l-.25,.97Zm34.8-.84l-.29-.96c.32-.1,.63-.2,.95-.3l.31,.95c-.32,.1-.64,.21-.96,.3Zm-38.67-.28c-.32-.1-.64-.21-.96-.32l.32-.95c.31,.11,.63,.21,.94,.31l-.31,.95Zm42.48-1.03l-.35-.93c.31-.12,.62-.24,.92-.36l.37,.93c-.31,.12-.62,.25-.94,.36Zm-46.28-.34c-.31-.12-.63-.25-.94-.38l.38-.92c.31,.13,.61,.25,.92,.37l-.37,.93Zm49.99-1.21l-.41-.91c.3-.14,.6-.27,.9-.41l.43,.9c-.3,.14-.61,.28-.91,.42Zm-53.7-.4c-.3-.14-.61-.29-.91-.44l.44-.9c.3,.15,.6,.29,.9,.43l-.43,.91Zm57.31-1.38l-.47-.88c.29-.15,.58-.31,.87-.47l.48,.88c-.29,.16-.59,.32-.88,.48Zm-60.9-.46c-.29-.16-.59-.33-.88-.49l.5-.87c.29,.16,.58,.33,.87,.49l-.48,.88Zm64.39-1.54l-.52-.85c.28-.17,.56-.35,.84-.52l.54,.84c-.28,.18-.57,.36-.85,.53Zm-67.86-.52c-.28-.18-.57-.36-.85-.55l.55-.84c.28,.18,.55,.36,.83,.54l-.54,.84Zm71.22-1.7l-.58-.82c.27-.19,.54-.38,.8-.58l.59,.81c-.27,.2-.54,.39-.82,.58Zm-74.56-.57c-.27-.2-.54-.4-.81-.6l.6-.8c.26,.2,.53,.4,.8,.59l-.59,.81Zm77.77-1.85l-.62-.78c.26-.21,.51-.42,.77-.63l.64,.77c-.26,.21-.52,.43-.78,.64Zm-80.96-.63c-.26-.21-.52-.43-.77-.65l.65-.76c.25,.22,.5,.43,.76,.64l-.64,.77Zm84.02-1.99l-.67-.74c.24-.22,.49-.45,.73-.67l.68,.73c-.24,.23-.49,.46-.74,.68Zm-87.04-.67c-.24-.23-.49-.46-.73-.7l.7-.72c.24,.23,.48,.46,.72,.68l-.68,.73Zm89.93-2.13l-.72-.7c.23-.24,.46-.48,.68-.72l.73,.68c-.23,.24-.46,.49-.7,.73Zm-92.78-.72c-.23-.24-.46-.49-.68-.74l.74-.67c.22,.24,.45,.49,.67,.73l-.73,.68Zm95.49-2.26l-.76-.65c.21-.25,.43-.5,.64-.76l.77,.64c-.21,.26-.43,.52-.65,.77Zm-98.16-.76c-.21-.26-.43-.52-.64-.78l.78-.63c.21,.26,.42,.51,.63,.77l-.77,.64Zm100.68-2.38l-.8-.6c.2-.26,.4-.53,.59-.8l.81,.59c-.2,.27-.4,.54-.6,.81Zm-103.15-.79c-.2-.27-.39-.54-.59-.82l.82-.58c.19,.27,.38,.54,.58,.8l-.81,.59Zm105.47-2.5l-.83-.55c.18-.28,.36-.55,.54-.83l.84,.54c-.18,.28-.36,.57-.55,.85Zm-107.74-.82c-.18-.28-.36-.57-.53-.85l.85-.52c.17,.28,.35,.56,.52,.84l-.84,.54Zm109.85-2.62l-.87-.5c.16-.29,.33-.58,.49-.87l.88,.48c-.16,.29-.33,.59-.49,.88Zm-111.9-.84c-.16-.29-.32-.59-.48-.88l.88-.47c.15,.29,.31,.58,.47,.87l-.88,.48Zm113.79-2.72l-.9-.44c.15-.3,.29-.6,.43-.9l.9,.43c-.14,.3-.29,.61-.44,.91Zm-115.62-.86c-.14-.3-.28-.61-.42-.91l.91-.41c.14,.3,.27,.6,.42,.9l-.9,.43Zm117.29-2.82l-.92-.38c.13-.31,.25-.61,.37-.92l.93,.37c-.12,.31-.25,.63-.38,.94Zm-118.89-.87c-.12-.31-.25-.62-.36-.94l.93-.36c.12,.31,.24,.62,.36,.92l-.93,.37Zm120.32-2.91l-.95-.32c.11-.31,.21-.63,.31-.94l.95,.31c-.1,.32-.21,.64-.32,.96Zm-121.69-.88c-.1-.32-.21-.64-.3-.96l.96-.3c.1,.32,.2,.63,.3,.95l-.95,.31Zm122.87-2.98l-.96-.26c.09-.32,.17-.64,.25-.96l.97,.25c-.08,.33-.17,.65-.26,.98Zm-124-.89c-.08-.32-.16-.65-.24-.98l.97-.23c.08,.32,.16,.64,.24,.96l-.97,.25Zm124.93-3.03l-.98-.2c.07-.32,.13-.65,.19-.97l.98,.19c-.06,.33-.13,.66-.2,.99Zm-125.81-.9c-.06-.33-.12-.66-.18-.99l.99-.17c.06,.33,.12,.65,.18,.97l-.98,.19Zm126.5-3.07l-.99-.14c.05-.33,.09-.65,.13-.98l.99,.12c-.04,.33-.09,.67-.13,1Zm-127.13-.91c-.04-.33-.08-.67-.12-1l.99-.11c.04,.33,.08,.66,.12,.98l-.99,.12Zm127.57-3.09l-1-.08c.03-.33,.05-.66,.07-.99l1,.06c-.02,.34-.04,.67-.07,1.01Zm-127.95-.92c-.02-.33-.04-.67-.06-1.01l1-.05c.02,.33,.03,.66,.05,.99l-1,.06Zm128.13-3.1l-1-.02c0-.33,0-.66,0-.99v-.17s1,0,1,0v.17c0,.34,0,.68,0,1.01Zm-128.26-.92v-.09c0-.31,0-.61,0-.92h1c0,.32,0,.62,0,.92l-1,.09Zm127.2-3.23c-.02-.33-.03-.66-.06-.99l1-.06c.02,.33,.04,.67,.06,1.01l-1,.05Zm-126.08-.73l-1-.06c.02-.34,.04-.67,.07-1.01l1,.08c-.03,.33-.05,.66-.07,.99Zm125.76-3.22c-.04-.33-.08-.66-.12-.98l.99-.13c.04,.33,.08,.67,.12,1l-.99,.11Zm-125.4-.73l-.99-.12c.04-.33,.08-.67,.13-1l.99,.14c-.05,.33-.09,.65-.13,.98Zm124.83-3.2c-.06-.33-.12-.65-.18-.97l.98-.19c.06,.33,.12,.66,.18,.99l-.99,.17Zm-124.22-.72l-.98-.18c.06-.33,.13-.66,.19-.99l.98,.2c-.07,.32-.13,.65-.19,.97Zm123.41-3.16c-.08-.32-.16-.64-.24-.96l.97-.25c.08,.33,.17,.65,.24,.98l-.97,.23Zm-122.56-.71l-.97-.25c.08-.33,.17-.65,.26-.98l.96,.26c-.09,.32-.17,.64-.25,.96Zm121.5-3.11c-.1-.32-.2-.63-.3-.94l.95-.31c.1,.32,.21,.64,.31,.96l-.96,.3Zm-120.41-.7l-.95-.31c.1-.32,.21-.64,.32-.96l.95,.32c-.11,.31-.21,.63-.31,.95Zm119.11-3.05c-.12-.31-.24-.62-.36-.92l.93-.37c.12,.31,.25,.62,.37,.94l-.93,.36Zm-117.77-.7l-.93-.37c.12-.31,.25-.63,.38-.94l.92,.38c-.13,.31-.25,.61-.37,.92Zm116.25-2.96c-.14-.3-.28-.6-.42-.9l.9-.43c.14,.3,.28,.61,.42,.91l-.91,.42Zm-114.67-.69l-.91-.43c.14-.3,.29-.61,.44-.91l.9,.44c-.15,.3-.29,.6-.43,.9Zm112.92-2.86c-.15-.29-.31-.58-.47-.87l.88-.48c.16,.29,.32,.59,.48,.88l-.88,.47Zm-111.12-.68l-.88-.48c.16-.29,.33-.59,.49-.88l.87,.5c-.16,.29-.33,.58-.48,.87Zm109.15-2.75c-.17-.28-.35-.56-.53-.84l.84-.54c.18,.28,.36,.57,.53,.85l-.85,.53Zm-107.13-.67l-.84-.54c.18-.28,.36-.57,.55-.85l.84,.55c-.18,.28-.36,.55-.54,.83Zm104.94-2.64c-.19-.27-.38-.54-.58-.8l.81-.59c.2,.27,.39,.54,.59,.82l-.82,.58Zm-102.71-.65l-.81-.59c.2-.27,.4-.54,.6-.81l.8,.6c-.2,.26-.4,.53-.59,.8Zm100.32-2.51c-.21-.26-.42-.51-.63-.77l.77-.64c.21,.26,.43,.52,.64,.78l-.78,.63Zm-97.9-.62l-.77-.64c.21-.26,.43-.52,.65-.77l.76,.65c-.21,.25-.43,.51-.64,.76Zm95.31-2.39c-.22-.24-.45-.49-.67-.73l.73-.69c.23,.24,.46,.49,.68,.74l-.74,.67Zm-92.69-.59l-.73-.68c.23-.25,.46-.49,.7-.73l.72,.7c-.23,.24-.46,.48-.68,.72Zm89.93-2.25c-.24-.23-.48-.46-.72-.68l.68-.73c.25,.23,.49,.46,.73,.69l-.7,.72Zm-87.13-.56l-.69-.73c.24-.23,.49-.46,.74-.68l.67,.74c-.24,.22-.49,.45-.73,.67Zm84.19-2.11c-.25-.21-.51-.43-.76-.64l.64-.77c.26,.21,.52,.43,.77,.65l-.65,.76Zm-81.22-.52l-.64-.77c.26-.21,.52-.43,.78-.64l.63,.78c-.26,.21-.51,.42-.77,.63Zm78.12-1.96c-.26-.2-.53-.39-.8-.59l.59-.81c.27,.2,.54,.4,.81,.6l-.6,.8Zm-75-.48l-.59-.81c.27-.2,.54-.39,.82-.59l.58,.82c-.27,.19-.54,.38-.8,.58Zm71.75-1.8c-.28-.18-.56-.36-.84-.54l.54-.84c.28,.18,.57,.36,.85,.55l-.55,.84Zm-68.48-.43l-.54-.84c.28-.18,.57-.36,.85-.53l.52,.85c-.28,.17-.56,.35-.84,.53Zm65.09-1.64c-.29-.16-.58-.33-.87-.48l.48-.88c.3,.16,.59,.33,.88,.49l-.5,.87Zm-61.69-.38l-.48-.88c.29-.16,.59-.32,.88-.48l.47,.88c-.29,.15-.58,.31-.87,.47Zm58.18-1.47c-.3-.15-.6-.29-.9-.43l.42-.91c.31,.14,.61,.29,.91,.44l-.44,.9Zm-54.65-.33l-.43-.9c.3-.14,.61-.28,.91-.42l.41,.91c-.3,.14-.6,.27-.9,.42Zm51.03-1.3c-.31-.13-.61-.25-.92-.37l.37-.93c.31,.12,.63,.25,.94,.38l-.38,.92Zm-47.41-.28l-.37-.93c.31-.12,.62-.25,.94-.37l.36,.93c-.31,.12-.62,.24-.92,.36Zm43.68-1.12c-.31-.11-.63-.21-.94-.31l.31-.95c.32,.1,.64,.21,.96,.32l-.32,.95Zm-39.96-.23l-.31-.95c.32-.1,.64-.21,.96-.31l.29,.96c-.32,.1-.63,.2-.94,.3Zm36.16-.92c-.32-.09-.64-.17-.96-.25l.25-.97c.33,.08,.65,.17,.97,.26l-.26,.96Zm-32.36-.19l-.25-.97c.32-.08,.65-.16,.98-.24l.24,.97c-.32,.08-.64,.16-.96,.24Zm28.5-.73c-.32-.07-.65-.13-.97-.19l.18-.98c.33,.06,.66,.13,.99,.19l-.2,.98Zm-24.63-.14l-.19-.98c.33-.06,.66-.12,.99-.18l.17,.98c-.33,.06-.65,.12-.98,.18Zm20.72-.53c-.33-.05-.65-.09-.98-.13l.12-.99c.33,.04,.67,.08,1,.13l-.14,.99Zm-16.81-.1l-.13-.99c.33-.04,.67-.08,1-.12l.11,.99c-.33,.04-.66,.08-.98,.12Zm12.86-.32c-.33-.03-.66-.05-.99-.07l.06-1c.34,.02,.67,.04,1.01,.07l-.08,1Zm-8.92-.05l-.06-1c.33-.02,.67-.04,1-.06l.05,1c-.33,.02-.66,.03-.99,.06Zm4.96-.12c-.29,0-.58,0-.86,0h-.13v-1h.13c.29,0,.58,0,.88,0v1Z"/>
      <g>
        <g>
          <path class="cls-2" d="M77.4,45.14l-.12,1.47h3.32l-.12,1.55h-3.32l-.13,1.61h3.55l-.13,1.56h-5.51l.62-7.75h5.52l-.13,1.56h-3.54Z"/>
          <path class="cls-2" d="M89.03,43.58l-.62,7.75h-1.51l-3.16-4.36-.36,4.36h-1.88l.62-7.75h1.47l3.19,4.38,.35-4.38h1.89Z"/>
          <path class="cls-2" d="M92.06,45.22h-2.33l.13-1.64h6.69l-.13,1.64h-2.32l-.47,6.12h-2.05l.48-6.12Z"/>
          <path class="cls-2" d="M97.38,43.58h2.02l-.6,7.75h-2.02l.6-7.75Z"/>
          <path class="cls-2" d="M102.44,45.22h-2.33l.13-1.64h6.69l-.13,1.64h-2.32l-.47,6.12h-2.05l.48-6.12Z"/>
          <path class="cls-2" d="M111.57,47.88l-.27,3.45h-2.02l.27-3.46-2.93-4.29h2.24l1.79,2.68,2.2-2.68h2.32l-3.61,4.3Z"/>
        </g>
        <g>
          <g>
            <path class="cls-2" d="M112.51,82.43h-34.63c-1.71,0-3.11-1.39-3.11-3.11v-16.74c0-1.71,1.39-3.11,3.11-3.11h34.63c1.71,0,3.11,1.39,3.11,3.11v16.74c0,1.71-1.39,3.11-3.11,3.11Zm-34.63-21.85c-1.1,0-2,.9-2,2v16.74c0,1.1,.9,2,2,2h34.63c1.1,0,2-.9,2-2v-16.74c0-1.1-.9-2-2-2h-34.63Z"/>
            <path class="cls-2" d="M112.51,83.43h-34.63c-2.27,0-4.11-1.84-4.11-4.11v-16.74c0-2.27,1.84-4.11,4.11-4.11h34.63c2.27,0,4.11,1.84,4.11,4.11v16.74c0,2.26-1.84,4.11-4.11,4.11Zm-34.63-21.85c-.55,0-1,.45-1,1v16.74c0,.55,.45,1,1,1h34.63c.55,0,1-.45,1-1v-16.74c0-.55-.45-1-1-1h-34.63Z"/>
          </g>
          <g>
            <rect class="cls-2" x="95.5" y="81.81" width="1.11" height="6.1"/>
            <rect class="cls-2" x="94.5" y="80.81" width="3.11" height="8.1"/>
          </g>
          <g>
            <rect class="cls-2" x="75.6" y="87.39" width="41.4" height="1.11"/>
            <rect class="cls-2" x="74.6" y="86.39" width="43.4" height="3.11"/>
          </g>
          <g>
            <g>
              <rect class="cls-2" x="75.53" y="87.42" width="1.11" height="6.23"/>
              <rect class="cls-2" x="74.53" y="86.42" width="3.11" height="8.23"/>
            </g>
            <g>
              <path class="cls-2" d="M88.29,108.8h-24.91c-1.51,0-2.74-1.23-2.74-2.74v-9.73c0-1.51,1.23-2.74,2.74-2.74h24.91c1.51,0,2.74,1.23,2.74,2.74v9.73c0,1.51-1.23,2.74-2.74,2.74Zm-24.91-14.1c-.9,0-1.63,.73-1.63,1.63v9.73c0,.9,.73,1.63,1.63,1.63h24.91c.9,0,1.63-.73,1.63-1.63v-9.73c0-.9-.73-1.63-1.63-1.63h-24.91Z"/>
              <path class="cls-2" d="M88.29,109.18h-24.91c-1.72,0-3.12-1.4-3.12-3.12v-9.73c0-1.72,1.4-3.12,3.12-3.12h24.91c1.72,0,3.12,1.4,3.12,3.12v9.73c0,1.72-1.4,3.12-3.12,3.12Zm-24.91-15.22c-1.31,0-2.37,1.06-2.37,2.37v9.73c0,1.31,1.06,2.37,2.37,2.37h24.91c1.31,0,2.37-1.06,2.37-2.37v-9.73c0-1.31-1.06-2.37-2.37-2.37h-24.91Zm24.91,14.1h-24.91c-1.11,0-2.01-.9-2.01-2.01v-9.73c0-1.11,.9-2.01,2.01-2.01h24.91c1.11,0,2.01,.9,2.01,2.01v9.73c0,1.11-.9,2.01-2.01,2.01Zm-24.91-12.99c-.69,0-1.26,.56-1.26,1.26v9.73c0,.69,.56,1.26,1.26,1.26h24.91c.69,0,1.26-.56,1.26-1.26v-9.73c0-.69-.56-1.26-1.26-1.26h-24.91Z"/>
            </g>
            <g>
              <rect class="cls-2" x="75.3" y="108.25" width="1.11" height="3.69"/>
              <path class="cls-2" d="M76.66,112.19h-1.61v-4.19h1.61v4.19Zm-1.11-.5h.61v-3.19h-.61v3.19Z"/>
            </g>
            <g>
              <rect class="cls-2" x="64.85" y="111.39" width="22.32" height="1.11"/>
              <path class="cls-2" d="M87.43,112.75h-22.82v-1.61h22.82v1.61Zm-22.32-.5h21.82v-.61h-21.82v.61Z"/>
            </g>
            <g>
              <g>
                <path class="cls-2" d="M71.69,123.42h-12.82c-1.11,0-2.02-.9-2.02-2.02v-4.66c0-1.11,.9-2.02,2.02-2.02h12.82c1.11,0,2.02,.9,2.02,2.02v4.66c0,1.11-.9,2.02-2.02,2.02Zm-12.82-7.58c-.5,0-.91,.41-.91,.91v4.66c0,.5,.41,.91,.91,.91h12.82c.5,0,.91-.41,.91-.91v-4.66c0-.5-.41-.91-.91-.91h-12.82Z"/>
                <path class="cls-2" d="M71.69,123.67h-12.82c-1.25,0-2.27-1.02-2.27-2.27v-4.66c0-1.25,1.02-2.27,2.27-2.27h12.82c1.25,0,2.27,1.02,2.27,2.27v4.66c0,1.25-1.02,2.27-2.27,2.27Zm-12.82-8.69c-.97,0-1.77,.79-1.77,1.77v4.66c0,.97,.79,1.77,1.77,1.77h12.82c.97,0,1.77-.79,1.77-1.77v-4.66c0-.97-.79-1.77-1.77-1.77h-12.82Zm12.82,7.58h-12.82c-.64,0-1.16-.52-1.16-1.16v-4.66c0-.64,.52-1.16,1.16-1.16h12.82c.64,0,1.16,.52,1.16,1.16v4.66c0,.64-.52,1.16-1.16,1.16Zm-12.82-6.47c-.36,0-.66,.29-.66,.66v4.66c0,.36,.29,.66,.66,.66h12.82c.36,0,.66-.29,.66-.66v-4.66c0-.36-.29-.66-.66-.66h-12.82Z"/>
              </g>
              <g>
                <rect class="cls-2" x="64.86" y="111.94" width="1.11" height="3.35"/>
                <path class="cls-2" d="M66.23,115.54h-1.61v-3.85h1.61v3.85Zm-1.11-.5h.61v-2.85h-.61v2.85Z"/>
              </g>
            </g>
            <g>
              <rect class="cls-2" x="86.06" y="111.94" width="1.11" height="3.35"/>
              <path class="cls-2" d="M87.43,115.54h-1.61v-3.85h1.61v3.85Zm-1.11-.5h.61v-2.85h-.61v2.85Z"/>
            </g>
            <g>
              <path class="cls-2" d="M93.17,123.42h-12.82c-1.11,0-2.02-.9-2.02-2.02v-4.66c0-1.11,.9-2.02,2.02-2.02h12.82c1.11,0,2.02,.9,2.02,2.02v4.66c0,1.11-.9,2.02-2.02,2.02Zm-12.82-7.58c-.5,0-.91,.41-.91,.91v4.66c0,.5,.41,.91,.91,.91h12.82c.5,0,.91-.41,.91-.91v-4.66c0-.5-.41-.91-.91-.91h-12.82Z"/>
              <path class="cls-2" d="M93.17,123.67h-12.82c-1.25,0-2.27-1.02-2.27-2.27v-4.66c0-1.25,1.02-2.27,2.27-2.27h12.82c1.25,0,2.27,1.02,2.27,2.27v4.66c0,1.25-1.02,2.27-2.27,2.27Zm-12.82-8.69c-.97,0-1.77,.79-1.77,1.77v4.66c0,.97,.79,1.77,1.77,1.77h12.82c.97,0,1.77-.79,1.77-1.77v-4.66c0-.97-.79-1.77-1.77-1.77h-12.82Zm12.82,7.58h-12.82c-.64,0-1.16-.52-1.16-1.16v-4.66c0-.64,.52-1.16,1.16-1.16h12.82c.64,0,1.16,.52,1.16,1.16v4.66c0,.64-.52,1.16-1.16,1.16Zm-12.82-6.47c-.36,0-.66,.29-.66,.66v4.66c0,.36,.29,.66,.66,.66h12.82c.36,0,.66-.29,.66-.66v-4.66c0-.36-.29-.66-.66-.66h-12.82Z"/>
            </g>
          </g>
          <rect class="cls-2" x="64.85" y="122.87" width="1.11" height="3.35"/>
          <rect class="cls-2" x="59.27" y="125.67" width="12.46" height="1.11"/>
          <g>
            <rect class="cls-2" x="59.22" y="126.22" width="1.11" height="2.92"/>
            <g>
              <rect class="cls-3" x="55.46" y="129.14" width="8.49" height="4.09" rx="1.86" ry="1.86"/>
              <path class="cls-2" d="M62.93,133.79h-6.45c-.87,0-1.58-.71-1.58-1.58v-2.05c0-.87,.71-1.58,1.58-1.58h6.45c.87,0,1.58,.71,1.58,1.58v2.05c0,.87-.71,1.58-1.58,1.58Zm-6.45-4.09c-.26,0-.46,.21-.46,.46v2.05c0,.26,.21,.46,.46,.46h6.45c.26,0,.46-.21,.46-.46v-2.05c0-.26-.21-.46-.46-.46h-6.45Z"/>
            </g>
          </g>
          <g>
            <rect class="cls-2" x="70.65" y="126.53" width="1.11" height="2.61"/>
            <g>
              <rect class="cls-3" x="66.89" y="129.14" width="8.49" height="4.09" rx="1.86" ry="1.86"/>
              <path class="cls-2" d="M74.36,133.79h-6.45c-.87,0-1.58-.71-1.58-1.58v-2.05c0-.87,.71-1.58,1.58-1.58h6.45c.87,0,1.58,.71,1.58,1.58v2.05c0,.87-.71,1.58-1.58,1.58Zm-6.45-4.09c-.26,0-.47,.21-.47,.47v2.05c0,.26,.21,.47,.47,.47h6.45c.26,0,.47-.21,.47-.47v-2.05c0-.26-.21-.47-.47-.47h-6.45Z"/>
            </g>
          </g>
        </g>
      </g>
      <g>
        <g>
          <rect class="cls-2" x="116.01" y="87.61" width="1.11" height="6.23"/>
          <rect class="cls-2" x="115.01" y="86.61" width="3.11" height="8.23"/>
        </g>
        <g>
          <path class="cls-2" d="M128.77,109h-24.91c-1.51,0-2.74-1.23-2.74-2.74v-9.73c0-1.51,1.23-2.74,2.74-2.74h24.91c1.51,0,2.74,1.23,2.74,2.74v9.73c0,1.51-1.23,2.74-2.74,2.74Zm-24.91-14.1c-.9,0-1.63,.73-1.63,1.63v9.73c0,.9,.73,1.63,1.63,1.63h24.91c.9,0,1.63-.73,1.63-1.63v-9.73c0-.9-.73-1.63-1.63-1.63h-24.91Z"/>
          <path class="cls-2" d="M128.77,109.37h-24.91c-1.72,0-3.12-1.4-3.12-3.12v-9.73c0-1.72,1.4-3.12,3.12-3.12h24.91c1.72,0,3.12,1.4,3.12,3.12v9.73c0,1.72-1.4,3.12-3.12,3.12Zm-24.91-15.22c-1.31,0-2.37,1.06-2.37,2.37v9.73c0,1.31,1.06,2.37,2.37,2.37h24.91c1.31,0,2.37-1.06,2.37-2.37v-9.73c0-1.31-1.06-2.37-2.37-2.37h-24.91Zm24.91,14.1h-24.91c-1.11,0-2.01-.9-2.01-2.01v-9.73c0-1.11,.9-2.01,2.01-2.01h24.91c1.11,0,2.01,.9,2.01,2.01v9.73c0,1.11-.9,2.01-2.01,2.01Zm-24.91-12.99c-.69,0-1.26,.56-1.26,1.26v9.73c0,.69,.56,1.26,1.26,1.26h24.91c.69,0,1.26-.56,1.26-1.26v-9.73c0-.69-.56-1.26-1.26-1.26h-24.91Z"/>
        </g>
        <g>
          <rect class="cls-2" x="115.78" y="108.44" width="1.11" height="3.69"/>
          <path class="cls-2" d="M117.14,112.38h-1.61v-4.19h1.61v4.19Zm-1.11-.5h.61v-3.19h-.61v3.19Z"/>
        </g>
        <g>
          <rect class="cls-2" x="105.33" y="111.58" width="22.32" height="1.11"/>
          <path class="cls-2" d="M127.9,112.94h-22.82v-1.61h22.82v1.61Zm-22.32-.5h21.82v-.61h-21.82v.61Z"/>
        </g>
        <g>
          <g>
            <path class="cls-2" d="M112.17,123.62h-12.82c-1.11,0-2.02-.9-2.02-2.02v-4.66c0-1.11,.9-2.02,2.02-2.02h12.82c1.11,0,2.02,.9,2.02,2.02v4.66c0,1.11-.9,2.02-2.02,2.02Zm-12.82-7.58c-.5,0-.91,.41-.91,.91v4.66c0,.5,.41,.91,.91,.91h12.82c.5,0,.91-.41,.91-.91v-4.66c0-.5-.41-.91-.91-.91h-12.82Z"/>
            <path class="cls-2" d="M112.17,123.87h-12.82c-1.25,0-2.27-1.02-2.27-2.27v-4.66c0-1.25,1.02-2.27,2.27-2.27h12.82c1.25,0,2.27,1.02,2.27,2.27v4.66c0,1.25-1.02,2.27-2.27,2.27Zm-12.82-8.69c-.97,0-1.77,.79-1.77,1.77v4.66c0,.97,.79,1.77,1.77,1.77h12.82c.97,0,1.77-.79,1.77-1.77v-4.66c0-.97-.79-1.77-1.77-1.77h-12.82Zm12.82,7.58h-12.82c-.64,0-1.16-.52-1.16-1.16v-4.66c0-.64,.52-1.16,1.16-1.16h12.82c.64,0,1.16,.52,1.16,1.16v4.66c0,.64-.52,1.16-1.16,1.16Zm-12.82-6.47c-.36,0-.66,.29-.66,.66v4.66c0,.36,.29,.66,.66,.66h12.82c.36,0,.66-.29,.66-.66v-4.66c0-.36-.29-.66-.66-.66h-12.82Z"/>
          </g>
          <g>
            <rect class="cls-2" x="105.34" y="112.13" width="1.11" height="3.35"/>
            <path class="cls-2" d="M106.7,115.73h-1.61v-3.85h1.61v3.85Zm-1.11-.5h.61v-2.85h-.61v2.85Z"/>
          </g>
        </g>
        <g>
          <rect class="cls-2" x="126.54" y="112.13" width="1.11" height="3.35"/>
          <path class="cls-2" d="M127.9,115.73h-1.61v-3.85h1.61v3.85Zm-1.11-.5h.61v-2.85h-.61v2.85Z"/>
        </g>
        <g>
          <path class="cls-2" d="M133.65,123.62h-12.82c-1.11,0-2.02-.9-2.02-2.02v-4.66c0-1.11,.9-2.02,2.02-2.02h12.82c1.11,0,2.02,.9,2.02,2.02v4.66c0,1.11-.9,2.02-2.02,2.02Zm-12.82-7.58c-.5,0-.91,.41-.91,.91v4.66c0,.5,.41,.91,.91,.91h12.82c.5,0,.91-.41,.91-.91v-4.66c0-.5-.41-.91-.91-.91h-12.82Z"/>
          <path class="cls-2" d="M133.65,123.87h-12.82c-1.25,0-2.27-1.02-2.27-2.27v-4.66c0-1.25,1.02-2.27,2.27-2.27h12.82c1.25,0,2.27,1.02,2.27,2.27v4.66c0,1.25-1.02,2.27-2.27,2.27Zm-12.82-8.69c-.97,0-1.77,.79-1.77,1.77v4.66c0,.97,.79,1.77,1.77,1.77h12.82c.97,0,1.77-.79,1.77-1.77v-4.66c0-.97-.79-1.77-1.77-1.77h-12.82Zm12.82,7.58h-12.82c-.64,0-1.16-.52-1.16-1.16v-4.66c0-.64,.52-1.16,1.16-1.16h12.82c.64,0,1.16,.52,1.16,1.16v4.66c0,.64-.52,1.16-1.16,1.16Zm-12.82-6.47c-.36,0-.66,.29-.66,.66v4.66c0,.36,.29,.66,.66,.66h12.82c.36,0,.66-.29,.66-.66v-4.66c0-.36-.29-.66-.66-.66h-12.82Z"/>
        </g>
      </g>
    </g>
    <g>
      <path class="cls-2" d="M68.17,196.38h2.87c.71,0,1.32,.13,1.84,.41,.52,.27,.93,.65,1.21,1.15,.29,.5,.43,1.08,.43,1.75,0,.79-.16,1.46-.47,2.02-.31,.56-.76,.99-1.35,1.28-.59,.29-1.3,.44-2.12,.44h-2.96l.55-7.05Zm2.24,5.57c.78,0,1.36-.18,1.73-.54,.37-.36,.56-.94,.56-1.72,0-.59-.16-1.04-.49-1.36-.33-.31-.8-.46-1.42-.46h-.9l-.32,4.09h.84Z"/>
      <path class="cls-2" d="M77.61,197.82l-.1,1.3h2.89l-.11,1.44h-2.9l-.23,2.87h-1.81l.56-7.05h4.9l-.11,1.44h-3.09Z"/>
      <path class="cls-2" d="M82.11,203.31c-.51-.14-.96-.33-1.33-.56l.68-1.3c.71,.44,1.48,.66,2.31,.66,.38,0,.67-.05,.87-.15,.2-.1,.3-.25,.3-.44,0-.21-.11-.37-.33-.48-.22-.12-.56-.24-1.02-.38-.49-.15-.9-.29-1.21-.43-.31-.14-.58-.35-.81-.62-.23-.28-.34-.63-.34-1.08s.12-.84,.38-1.18,.61-.6,1.07-.79c.46-.18,1-.27,1.61-.27,.51,0,1,.07,1.47,.21,.47,.14,.84,.33,1.12,.56l-.66,1.3c-.29-.21-.61-.37-.96-.48-.35-.12-.69-.18-1.03-.18-.36,0-.64,.06-.85,.18-.21,.12-.32,.28-.32,.48s.11,.38,.33,.49,.56,.24,1.04,.38c.49,.15,.88,.29,1.2,.42,.31,.14,.58,.34,.8,.61s.34,.62,.34,1.05c0,.71-.27,1.25-.8,1.63-.53,.38-1.29,.58-2.27,.58-.54,0-1.07-.07-1.58-.21Z"/>
      <path class="cls-2" d="M91.61,203.31c-.51-.14-.96-.33-1.33-.56l.68-1.3c.71,.44,1.48,.66,2.31,.66,.38,0,.67-.05,.87-.15,.2-.1,.3-.25,.3-.44,0-.21-.11-.37-.33-.48-.22-.12-.56-.24-1.02-.38-.49-.15-.9-.29-1.21-.43-.31-.14-.58-.35-.81-.62-.23-.28-.34-.63-.34-1.08s.12-.84,.38-1.18,.61-.6,1.07-.79c.46-.18,1-.27,1.61-.27,.51,0,1,.07,1.47,.21,.47,.14,.84,.33,1.12,.56l-.66,1.3c-.29-.21-.61-.37-.96-.48-.35-.12-.69-.18-1.03-.18-.36,0-.64,.06-.85,.18-.21,.12-.32,.28-.32,.48s.11,.38,.33,.49,.56,.24,1.04,.38c.49,.15,.88,.29,1.2,.42,.31,.14,.58,.34,.8,.61s.34,.62,.34,1.05c0,.71-.27,1.25-.8,1.63-.53,.38-1.29,.58-2.27,.58-.54,0-1.07-.07-1.58-.21Z"/>
      <path class="cls-2" d="M98.84,203.1c-.52-.28-.91-.67-1.19-1.18s-.42-1.11-.42-1.8c0-.77,.16-1.44,.47-2.02s.75-1.03,1.33-1.34,1.23-.47,1.99-.47c.47,0,.92,.07,1.33,.2,.42,.13,.79,.32,1.1,.57l-.67,1.31c-.29-.21-.56-.37-.83-.47-.27-.1-.55-.15-.84-.15-.64,0-1.13,.21-1.48,.63s-.52,1-.52,1.74c0,.63,.14,1.11,.41,1.44s.68,.5,1.21,.5,1.13-.2,1.82-.61l.47,1.3c-.24,.23-.58,.42-1,.56-.43,.14-.88,.21-1.33,.21-.71,0-1.32-.14-1.84-.42Z"/>
      <path class="cls-2" d="M108.73,201.97h-3.13l-.74,1.46h-1.88l3.84-7.05h1.46l2.75,7.05h-1.78l-.52-1.46Zm-.48-1.38l-.81-2.26-1.14,2.26h1.95Z"/>
      <path class="cls-2" d="M118.29,196.38l-.56,7.05h-1.37l-2.87-3.96-.33,3.96h-1.71l.56-7.05h1.34l2.9,3.98,.32-3.98h1.72Z"/>
    </g>
    <g class="cls-4">
      <g>
        <polygon class="cls-2" points="129.02 173.37 129.02 173.37 121.45 170.14 121.45 178.49 121.94 178.7 121.45 178.49 121.45 186.53 129.63 182.04 129.68 182.06 138.3 177.33 129.02 173.37"/>
        <path class="cls-2" d="M121.35,186.69v-16.69l17.17,7.32-8.83,4.85-.05-.02-8.28,4.55Zm.19-8.06v7.74l8.09-4.44,.05,.02,8.41-4.62-9.06-3.87h0s-.04-.01-.04-.01l-7.44-3.17v8.14l.44,.19-.07,.17-.36-.16Z"/>
      </g>
      <path class="cls-2" d="M112.83,104.99H47.61c-2.13,0-3.85-1.72-3.85-3.85s1.72-3.85,3.85-3.85H112.83c2.13,0,3.85,1.72,3.85,3.85s-1.72,3.85-3.85,3.85Z"/>
      <path class="cls-2" d="M136.09,120.43h-7.7c0-8.52-6.94-15.45-15.48-15.45v-7.7c12.78,0,23.17,10.38,23.17,23.14Z"/>
      <path class="cls-2" d="M112.91,143.45v-7.7c8.53,0,15.48-6.93,15.48-15.45h7.7c0,12.76-10.4,23.14-23.17,23.14Z"/>
      <rect class="cls-2" x="70" y="135.73" width="43.12" height="7.7"/>
      <rect class="cls-2" x="71.1" y="174.21" width="51.47" height="7.7"/>
      <path class="cls-2" d="M71.01,181.9c-12.78,0-23.17-10.38-23.17-23.14h7.7c0,8.52,6.94,15.45,15.48,15.45v7.7Z"/>
      <path class="cls-2" d="M55.55,158.88h-7.7c0-12.76,10.4-23.14,23.17-23.14v7.7c-8.53,0-15.48,6.93-15.48,15.45Z"/>
    </g>
  </g>
  <g>
    <g>
      <path class="cls-2" d="M380.45,157.29c-.32,0-.62,0-.93,0v-1c.33,0,.65,0,.96,0l.03,.72v.28h-.07Zm3.1-.07l-.05-1c.33-.02,.66-.03,.99-.05l.06,1c-.33,.02-.67,.04-1.01,.06Zm-7.05-.05c-.34-.02-.67-.04-1-.07l.08-1c.33,.03,.66,.05,.99,.07l-.06,1Zm11.06-.26l-.11-.99c.33-.04,.66-.07,.98-.12l.12,.99c-.33,.04-.67,.08-1,.12Zm-15.07-.11c-.33-.04-.67-.08-1-.13l.14-.99c.33,.05,.65,.09,.98,.13l-.12,.99Zm19.06-.46l-.17-.99c.33-.06,.65-.12,.98-.18l.19,.98c-.33,.06-.66,.12-.99,.18Zm-23.04-.16c-.33-.06-.66-.13-.99-.19l.2-.98c.32,.07,.65,.13,.97,.19l-.19,.98Zm26.98-.65l-.23-.97c.32-.08,.64-.16,.96-.24l.25,.97c-.32,.08-.65,.16-.98,.24Zm-30.91-.22c-.33-.08-.65-.17-.97-.26l.26-.96c.32,.09,.64,.17,.96,.25l-.25,.97Zm34.8-.84l-.29-.96c.32-.1,.63-.2,.94-.3l.31,.95c-.32,.1-.64,.21-.96,.3Zm-38.67-.28c-.32-.1-.64-.21-.96-.32l.32-.95c.31,.11,.63,.21,.94,.31l-.31,.95Zm42.48-1.03l-.35-.94c.31-.12,.62-.24,.93-.36l.37,.93c-.31,.12-.62,.25-.94,.36Zm-46.28-.34c-.31-.12-.63-.25-.94-.38l.38-.92c.31,.13,.61,.25,.92,.37l-.37,.93Zm49.99-1.21l-.41-.91c.3-.14,.6-.27,.9-.41l.43,.9c-.3,.14-.61,.28-.91,.42Zm-53.7-.4c-.3-.14-.61-.29-.91-.44l.44-.9c.3,.15,.6,.29,.9,.43l-.43,.91Zm57.31-1.38l-.47-.88c.29-.15,.58-.31,.87-.47l.48,.88c-.29,.16-.59,.32-.88,.48Zm-60.9-.46c-.29-.16-.59-.33-.88-.49l.5-.87c.29,.16,.58,.33,.87,.49l-.48,.88Zm64.39-1.54l-.52-.85c.28-.17,.56-.35,.84-.52l.54,.84c-.28,.18-.57,.36-.85,.53Zm-67.86-.52c-.28-.18-.57-.36-.85-.55l.55-.84c.28,.18,.55,.36,.83,.54l-.54,.84Zm71.22-1.69l-.57-.82c.27-.19,.54-.38,.8-.58l.59,.81c-.27,.2-.54,.39-.82,.59Zm-74.56-.57c-.27-.2-.54-.4-.81-.6l.6-.8c.26,.2,.53,.4,.8,.59l-.59,.81Zm77.77-1.85l-.62-.78c.26-.21,.51-.42,.77-.63l.64,.77c-.26,.21-.52,.43-.78,.64Zm-80.96-.63c-.26-.21-.52-.43-.77-.65l.65-.76c.25,.22,.5,.43,.76,.64l-.64,.77Zm84.02-1.99l-.67-.74c.24-.22,.49-.45,.73-.67l.68,.73c-.25,.23-.49,.46-.74,.68Zm-87.04-.67c-.24-.23-.49-.46-.73-.7l.7-.72c.24,.23,.48,.46,.72,.68l-.68,.73Zm89.93-2.13l-.72-.7c.23-.24,.46-.48,.69-.72l.73,.69c-.23,.24-.46,.49-.7,.73Zm-92.78-.72c-.23-.24-.46-.49-.68-.74l.74-.67c.22,.24,.45,.49,.67,.73l-.73,.68Zm95.49-2.26l-.76-.65c.21-.25,.43-.5,.64-.76l.77,.64c-.21,.26-.43,.52-.65,.77Zm-98.16-.76c-.21-.26-.43-.52-.64-.78l.78-.63c.21,.26,.42,.51,.63,.77l-.77,.64Zm100.68-2.38l-.8-.6c.2-.26,.4-.53,.59-.8l.81,.59c-.2,.27-.4,.54-.6,.81Zm-103.15-.79c-.2-.27-.39-.54-.59-.82l.82-.58c.19,.27,.38,.54,.58,.8l-.81,.59Zm105.47-2.5l-.83-.55c.18-.28,.36-.55,.54-.83l.84,.54c-.18,.28-.36,.57-.55,.85Zm-107.74-.82c-.18-.28-.36-.57-.53-.85l.85-.52c.17,.28,.35,.56,.52,.84l-.84,.54Zm109.85-2.61l-.87-.5c.16-.29,.33-.58,.49-.87l.88,.48c-.16,.29-.33,.59-.49,.88Zm-111.9-.84c-.16-.29-.32-.59-.48-.88l.88-.47c.15,.29,.31,.58,.47,.87l-.88,.48Zm113.79-2.72l-.9-.44c.15-.3,.29-.6,.43-.9l.9,.43c-.14,.3-.29,.61-.44,.91Zm-115.62-.86c-.14-.3-.28-.61-.42-.91l.91-.41c.14,.3,.27,.6,.42,.9l-.9,.43Zm117.29-2.82l-.92-.38c.13-.31,.25-.61,.37-.92l.93,.37c-.12,.31-.25,.62-.38,.94Zm-118.89-.86c-.12-.31-.25-.62-.36-.94l.93-.36c.12,.31,.24,.62,.36,.92l-.93,.37Zm120.32-2.91l-.95-.32c.11-.31,.21-.63,.31-.94l.95,.31c-.1,.32-.21,.64-.32,.96Zm-121.69-.88c-.1-.32-.21-.64-.3-.96l.96-.3c.1,.32,.2,.63,.3,.95l-.95,.31Zm122.87-2.98l-.96-.26c.09-.32,.17-.64,.25-.96l.97,.25c-.08,.33-.17,.65-.26,.97Zm-124-.89c-.08-.32-.16-.65-.24-.98l.97-.23c.08,.32,.16,.64,.24,.96l-.97,.25Zm124.93-3.03l-.98-.2c.07-.32,.13-.65,.19-.97l.98,.19c-.06,.33-.13,.66-.2,.99Zm-125.81-.9c-.06-.33-.12-.66-.18-.99l.99-.17c.06,.33,.12,.65,.18,.97l-.98,.19Zm126.5-3.06l-.99-.14c.05-.33,.09-.65,.13-.98l.99,.12c-.04,.33-.09,.67-.13,1Zm-127.13-.91c-.04-.33-.08-.67-.12-1l.99-.11c.04,.33,.08,.66,.12,.98l-.99,.12Zm127.57-3.09l-1-.08c.02-.33,.05-.66,.07-.99l1,.06c-.02,.34-.04,.67-.07,1Zm-127.95-.92c-.02-.33-.04-.67-.06-1.01l1-.05c.02,.33,.03,.66,.05,.99l-1,.06Zm128.13-3.11h-1c0-.34,0-.68,0-1.01v-.17s1,0,1,0v.16c0,.34,0,.68,0,1.02Zm-128.26-.92v-.09c0-.31,0-.61,0-.92h1c0,.32,0,.62,0,.92l-1,.09Zm127.19-3.23c-.02-.33-.04-.66-.06-.99l1-.06c.02,.33,.04,.67,.06,1l-1,.05Zm-126.08-.74l-1-.06c.02-.34,.04-.67,.07-1.01l1,.08c-.03,.33-.05,.66-.07,.99Zm125.76-3.22c-.04-.33-.08-.66-.12-.98l.99-.13c.04,.33,.08,.67,.12,1l-.99,.11Zm-125.4-.73l-.99-.12c.04-.33,.08-.67,.13-1l.99,.14c-.05,.33-.09,.65-.13,.98Zm124.83-3.19c-.06-.33-.12-.65-.18-.98l.98-.19c.06,.33,.12,.66,.18,.99l-.98,.17Zm-124.22-.72l-.98-.18c.06-.33,.13-.66,.19-.99l.98,.2c-.07,.32-.13,.65-.19,.97Zm123.41-3.16c-.08-.32-.16-.64-.24-.96l.97-.25c.08,.32,.17,.65,.24,.98l-.97,.23Zm-122.56-.71l-.97-.25c.08-.33,.17-.65,.26-.97l.96,.26c-.09,.32-.17,.64-.25,.96Zm121.5-3.11c-.1-.32-.2-.63-.3-.94l.95-.31c.1,.32,.21,.64,.31,.96l-.96,.3Zm-120.41-.7l-.95-.31c.1-.32,.21-.64,.32-.96l.95,.32c-.11,.31-.21,.63-.31,.95Zm119.11-3.05c-.12-.31-.24-.62-.36-.92l.93-.37c.12,.31,.25,.62,.37,.94l-.93,.36Zm-117.77-.7l-.93-.37c.12-.31,.25-.63,.38-.94l.92,.38c-.13,.31-.25,.61-.37,.92Zm116.25-2.96c-.14-.3-.28-.6-.42-.9l.9-.43c.14,.3,.29,.61,.42,.91l-.91,.42Zm-114.67-.69l-.91-.43c.14-.3,.29-.61,.44-.91l.9,.44c-.15,.3-.29,.6-.43,.9Zm112.92-2.86c-.16-.29-.31-.58-.47-.87l.88-.49c.16,.29,.32,.59,.48,.88l-.88,.47Zm-111.12-.68l-.88-.48c.16-.29,.33-.59,.49-.88l.87,.5c-.16,.29-.33,.58-.48,.87Zm109.15-2.75c-.17-.28-.35-.56-.53-.84l.84-.54c.18,.28,.36,.57,.53,.85l-.85,.53Zm-107.13-.67l-.84-.54c.18-.28,.36-.57,.55-.85l.84,.55c-.18,.28-.36,.55-.54,.83Zm104.94-2.63c-.19-.27-.38-.54-.58-.8l.81-.59c.2,.27,.39,.54,.59,.82l-.82,.58Zm-102.71-.65l-.81-.59c.2-.27,.4-.54,.6-.81l.8,.6c-.2,.26-.4,.53-.59,.8Zm100.32-2.51c-.21-.26-.42-.51-.63-.77l.77-.64c.21,.26,.43,.52,.64,.78l-.78,.63Zm-97.89-.62l-.77-.64c.21-.26,.43-.52,.65-.77l.76,.65c-.21,.25-.43,.51-.64,.76Zm95.31-2.38c-.22-.24-.45-.49-.67-.73l.73-.69c.23,.24,.46,.49,.69,.74l-.74,.67Zm-92.69-.59l-.73-.68c.23-.25,.46-.49,.7-.73l.72,.7c-.23,.24-.46,.48-.68,.72Zm89.93-2.25c-.24-.23-.48-.46-.72-.68l.68-.73c.25,.23,.49,.46,.73,.69l-.7,.72Zm-87.13-.56l-.69-.73c.24-.23,.49-.46,.74-.68l.67,.74c-.24,.22-.49,.45-.73,.67Zm84.19-2.11c-.25-.21-.51-.43-.76-.64l.64-.77c.26,.21,.52,.43,.77,.65l-.65,.76Zm-81.22-.52l-.64-.77c.26-.21,.52-.43,.78-.64l.63,.78c-.26,.21-.51,.42-.77,.63Zm78.12-1.96c-.26-.2-.53-.4-.8-.59l.59-.81c.27,.2,.54,.4,.81,.6l-.6,.8Zm-75-.48l-.59-.81c.27-.2,.54-.39,.82-.59l.58,.82c-.27,.19-.54,.38-.8,.58Zm71.75-1.8c-.28-.18-.55-.36-.83-.54l.54-.84c.28,.18,.57,.36,.85,.55l-.55,.84Zm-68.48-.43l-.54-.84c.28-.18,.57-.36,.85-.53l.52,.85c-.28,.17-.56,.35-.84,.53Zm65.09-1.64c-.29-.16-.58-.33-.87-.48l.48-.88c.3,.16,.59,.33,.88,.49l-.5,.87Zm-61.69-.38l-.48-.88c.29-.16,.59-.32,.88-.48l.47,.88c-.29,.15-.58,.31-.87,.47Zm58.17-1.47c-.3-.15-.6-.29-.9-.43l.43-.91c.3,.14,.61,.29,.91,.44l-.44,.9Zm-54.65-.33l-.43-.9c.3-.14,.61-.28,.91-.42l.41,.91c-.3,.14-.6,.27-.9,.42Zm51.03-1.3c-.31-.13-.61-.25-.92-.37l.37-.93c.31,.12,.63,.25,.94,.38l-.38,.92Zm-47.4-.28l-.37-.93c.31-.12,.62-.25,.94-.37l.36,.93c-.31,.12-.62,.24-.92,.36Zm43.68-1.12c-.31-.11-.63-.21-.95-.31l.31-.95c.32,.1,.64,.21,.96,.32l-.32,.95Zm-39.96-.23l-.31-.95c.32-.1,.64-.21,.96-.31l.29,.96c-.32,.1-.63,.2-.94,.3Zm36.16-.92c-.32-.09-.64-.17-.96-.25l.25-.97c.33,.08,.65,.17,.97,.26l-.26,.96Zm-32.35-.19l-.25-.97c.32-.08,.65-.16,.98-.24l.24,.97c-.32,.08-.64,.16-.96,.24Zm28.5-.73c-.32-.07-.65-.13-.97-.19l.18-.98c.33,.06,.66,.13,.99,.19l-.2,.98Zm-24.63-.14l-.19-.98c.33-.06,.66-.12,.99-.18l.17,.98c-.33,.06-.65,.12-.98,.18Zm20.72-.53c-.33-.05-.65-.09-.98-.13l.12-.99c.33,.04,.67,.08,1,.13l-.14,.99Zm-16.81-.1l-.13-.99c.33-.04,.67-.08,1-.12l.11,.99c-.33,.04-.66,.08-.98,.12Zm12.86-.32c-.33-.03-.66-.05-.99-.07l.06-1c.34,.02,.67,.04,1.01,.07l-.08,1Zm-8.92-.05l-.06-1c.33-.02,.67-.04,1-.06l.05,1c-.33,.02-.66,.03-.99,.06Zm4.96-.12c-.29,0-.58,0-.86,0h-.13v-1h.13c.29,0,.58,0,.88,0v1Z"/>
      <g>
        <g>
          <path class="cls-2" d="M364.92,45.14l-.12,1.47h3.32l-.12,1.55h-3.32l-.13,1.61h3.55l-.13,1.56h-5.51l.62-7.75h5.52l-.13,1.56h-3.54Z"/>
          <path class="cls-2" d="M376.55,43.58l-.62,7.75h-1.51l-3.16-4.36-.36,4.36h-1.88l.62-7.75h1.47l3.19,4.38,.35-4.38h1.89Z"/>
          <path class="cls-2" d="M379.58,45.22h-2.33l.13-1.64h6.69l-.13,1.64h-2.32l-.47,6.12h-2.05l.48-6.12Z"/>
          <path class="cls-2" d="M384.91,43.58h2.02l-.61,7.75h-2.02l.6-7.75Z"/>
          <path class="cls-2" d="M389.97,45.22h-2.33l.13-1.64h6.69l-.13,1.64h-2.32l-.47,6.12h-2.05l.48-6.12Z"/>
          <path class="cls-2" d="M399.1,47.88l-.27,3.45h-2.02l.28-3.46-2.93-4.29h2.24l1.79,2.68,2.2-2.68h2.32l-3.61,4.3Z"/>
        </g>
        <g>
          <g>
            <path class="cls-2" d="M400.03,82.43h-34.63c-1.71,0-3.11-1.39-3.11-3.11v-16.74c0-1.71,1.39-3.11,3.11-3.11h34.63c1.71,0,3.11,1.39,3.11,3.11v16.74c0,1.71-1.39,3.11-3.11,3.11Zm-34.63-21.85c-1.1,0-2,.9-2,2v16.74c0,1.1,.9,2,2,2h34.63c1.1,0,2-.9,2-2v-16.74c0-1.1-.9-2-2-2h-34.63Z"/>
            <path class="cls-2" d="M400.03,83.43h-34.63c-2.27,0-4.11-1.84-4.11-4.11v-16.74c0-2.27,1.84-4.11,4.11-4.11h34.63c2.26,0,4.11,1.84,4.11,4.11v16.74c0,2.26-1.84,4.11-4.11,4.11Zm-34.63-21.85c-.55,0-1,.45-1,1v16.74c0,.55,.45,1,1,1h34.63c.55,0,1-.45,1-1v-16.74c0-.55-.45-1-1-1h-34.63Z"/>
          </g>
          <g>
            <rect class="cls-2" x="383.03" y="81.81" width="1.11" height="6.1"/>
            <rect class="cls-2" x="382.03" y="80.81" width="3.11" height="8.1"/>
          </g>
          <g>
            <rect class="cls-2" x="363.13" y="87.39" width="41.4" height="1.11"/>
            <rect class="cls-2" x="362.13" y="86.39" width="43.4" height="3.11"/>
          </g>
          <g>
            <g>
              <rect class="cls-2" x="363.06" y="87.42" width="1.11" height="6.23"/>
              <rect class="cls-2" x="362.06" y="86.42" width="3.11" height="8.23"/>
            </g>
            <g>
              <path class="cls-2" d="M375.82,108.8h-24.91c-1.51,0-2.74-1.23-2.74-2.74v-9.73c0-1.51,1.23-2.74,2.74-2.74h24.91c1.51,0,2.74,1.23,2.74,2.74v9.73c0,1.51-1.23,2.74-2.74,2.74Zm-24.91-14.1c-.9,0-1.63,.73-1.63,1.63v9.73c0,.9,.73,1.63,1.63,1.63h24.91c.9,0,1.63-.73,1.63-1.63v-9.73c0-.9-.73-1.63-1.63-1.63h-24.91Z"/>
              <path class="cls-2" d="M375.82,109.18h-24.91c-1.72,0-3.12-1.4-3.12-3.12v-9.73c0-1.72,1.4-3.12,3.12-3.12h24.91c1.72,0,3.12,1.4,3.12,3.12v9.73c0,1.72-1.4,3.12-3.12,3.12Zm-24.91-15.22c-1.31,0-2.37,1.06-2.37,2.37v9.73c0,1.31,1.06,2.37,2.37,2.37h24.91c1.31,0,2.37-1.06,2.37-2.37v-9.73c0-1.31-1.06-2.37-2.37-2.37h-24.91Zm24.91,14.1h-24.91c-1.11,0-2.01-.9-2.01-2.01v-9.73c0-1.11,.9-2.01,2.01-2.01h24.91c1.11,0,2.01,.9,2.01,2.01v9.73c0,1.11-.9,2.01-2.01,2.01Zm-24.91-12.99c-.69,0-1.26,.56-1.26,1.26v9.73c0,.69,.56,1.26,1.26,1.26h24.91c.69,0,1.26-.56,1.26-1.26v-9.73c0-.69-.56-1.26-1.26-1.26h-24.91Z"/>
            </g>
            <g>
              <rect class="cls-2" x="362.83" y="108.25" width="1.11" height="3.69"/>
              <path class="cls-2" d="M364.19,112.19h-1.61v-4.19h1.61v4.19Zm-1.11-.5h.61v-3.19h-.61v3.19Z"/>
            </g>
            <g>
              <rect class="cls-2" x="352.38" y="111.39" width="22.32" height="1.11"/>
              <path class="cls-2" d="M374.95,112.75h-22.82v-1.61h22.82v1.61Zm-22.32-.5h21.82v-.61h-21.82v.61Z"/>
            </g>
            <g>
              <g>
                <path class="cls-2" d="M359.22,123.42h-12.82c-1.11,0-2.02-.9-2.02-2.02v-4.66c0-1.11,.9-2.02,2.02-2.02h12.82c1.11,0,2.02,.9,2.02,2.02v4.66c0,1.11-.9,2.02-2.02,2.02Zm-12.82-7.58c-.5,0-.91,.41-.91,.91v4.66c0,.5,.41,.91,.91,.91h12.82c.5,0,.91-.41,.91-.91v-4.66c0-.5-.41-.91-.91-.91h-12.82Z"/>
                <path class="cls-2" d="M359.22,123.67h-12.82c-1.25,0-2.27-1.02-2.27-2.27v-4.66c0-1.25,1.02-2.27,2.27-2.27h12.82c1.25,0,2.27,1.02,2.27,2.27v4.66c0,1.25-1.02,2.27-2.27,2.27Zm-12.82-8.69c-.97,0-1.77,.79-1.77,1.77v4.66c0,.97,.79,1.77,1.77,1.77h12.82c.97,0,1.77-.79,1.77-1.77v-4.66c0-.97-.79-1.77-1.77-1.77h-12.82Zm12.82,7.58h-12.82c-.64,0-1.16-.52-1.16-1.16v-4.66c0-.64,.52-1.16,1.16-1.16h12.82c.64,0,1.16,.52,1.16,1.16v4.66c0,.64-.52,1.16-1.16,1.16Zm-12.82-6.47c-.36,0-.66,.29-.66,.66v4.66c0,.36,.29,.66,.66,.66h12.82c.36,0,.66-.29,.66-.66v-4.66c0-.36-.29-.66-.66-.66h-12.82Z"/>
              </g>
              <g>
                <rect class="cls-2" x="352.39" y="111.94" width="1.11" height="3.35"/>
                <path class="cls-2" d="M353.75,115.54h-1.61v-3.85h1.61v3.85Zm-1.11-.5h.61v-2.85h-.61v2.85Z"/>
              </g>
            </g>
            <g>
              <rect class="cls-2" x="373.59" y="111.94" width="1.11" height="3.35"/>
              <path class="cls-2" d="M374.95,115.54h-1.61v-3.85h1.61v3.85Zm-1.11-.5h.61v-2.85h-.61v2.85Z"/>
            </g>
            <g>
              <path class="cls-2" d="M380.7,123.42h-12.82c-1.11,0-2.02-.9-2.02-2.02v-4.66c0-1.11,.9-2.02,2.02-2.02h12.82c1.11,0,2.02,.9,2.02,2.02v4.66c0,1.11-.9,2.02-2.02,2.02Zm-12.82-7.58c-.5,0-.91,.41-.91,.91v4.66c0,.5,.41,.91,.91,.91h12.82c.5,0,.91-.41,.91-.91v-4.66c0-.5-.41-.91-.91-.91h-12.82Z"/>
              <path class="cls-2" d="M380.7,123.67h-12.82c-1.25,0-2.27-1.02-2.27-2.27v-4.66c0-1.25,1.02-2.27,2.27-2.27h12.82c1.25,0,2.27,1.02,2.27,2.27v4.66c0,1.25-1.02,2.27-2.27,2.27Zm-12.82-8.69c-.97,0-1.77,.79-1.77,1.77v4.66c0,.97,.79,1.77,1.77,1.77h12.82c.98,0,1.77-.79,1.77-1.77v-4.66c0-.97-.79-1.77-1.77-1.77h-12.82Zm12.82,7.58h-12.82c-.64,0-1.16-.52-1.16-1.16v-4.66c0-.64,.52-1.16,1.16-1.16h12.82c.64,0,1.16,.52,1.16,1.16v4.66c0,.64-.52,1.16-1.16,1.16Zm-12.82-6.47c-.36,0-.66,.29-.66,.66v4.66c0,.36,.29,.66,.66,.66h12.82c.36,0,.66-.29,.66-.66v-4.66c0-.36-.29-.66-.66-.66h-12.82Z"/>
            </g>
          </g>
          <rect class="cls-2" x="352.37" y="122.87" width="1.11" height="3.35"/>
          <rect class="cls-2" x="346.79" y="125.67" width="12.46" height="1.11"/>
          <g>
            <rect class="cls-2" x="346.74" y="126.22" width="1.11" height="2.92"/>
            <g>
              <rect class="cls-3" x="342.98" y="129.14" width="8.49" height="4.09" rx="1.86" ry="1.86"/>
              <path class="cls-2" d="M350.45,133.79h-6.45c-.87,0-1.58-.71-1.58-1.58v-2.05c0-.87,.71-1.58,1.58-1.58h6.45c.87,0,1.58,.71,1.58,1.58v2.05c0,.87-.71,1.58-1.58,1.58Zm-6.45-4.09c-.26,0-.46,.21-.46,.46v2.05c0,.26,.21,.46,.46,.46h6.45c.26,0,.46-.21,.46-.46v-2.05c0-.26-.21-.46-.46-.46h-6.45Z"/>
            </g>
          </g>
          <g>
            <rect class="cls-2" x="358.18" y="126.53" width="1.11" height="2.61"/>
            <g>
              <rect class="cls-3" x="354.42" y="129.14" width="8.49" height="4.09" rx="1.86" ry="1.86"/>
              <path class="cls-2" d="M361.89,133.79h-6.45c-.87,0-1.58-.71-1.58-1.58v-2.05c0-.87,.71-1.58,1.58-1.58h6.45c.87,0,1.58,.71,1.58,1.58v2.05c0,.87-.71,1.58-1.58,1.58Zm-6.45-4.09c-.26,0-.47,.21-.47,.47v2.05c0,.26,.21,.47,.47,.47h6.45c.26,0,.47-.21,.47-.47v-2.05c0-.26-.21-.47-.47-.47h-6.45Z"/>
            </g>
          </g>
        </g>
      </g>
      <g>
        <g>
          <rect class="cls-2" x="403.53" y="87.61" width="1.11" height="6.23"/>
          <rect class="cls-2" x="402.53" y="86.61" width="3.11" height="8.23"/>
        </g>
        <g>
          <path class="cls-2" d="M416.29,109h-24.91c-1.51,0-2.74-1.23-2.74-2.74v-9.73c0-1.51,1.23-2.74,2.74-2.74h24.91c1.51,0,2.74,1.23,2.74,2.74v9.73c0,1.51-1.23,2.74-2.74,2.74Zm-24.91-14.1c-.9,0-1.63,.73-1.63,1.63v9.73c0,.9,.73,1.63,1.63,1.63h24.91c.9,0,1.63-.73,1.63-1.63v-9.73c0-.9-.73-1.63-1.63-1.63h-24.91Z"/>
          <path class="cls-2" d="M416.29,109.37h-24.91c-1.72,0-3.12-1.4-3.12-3.12v-9.73c0-1.72,1.4-3.12,3.12-3.12h24.91c1.72,0,3.12,1.4,3.12,3.12v9.73c0,1.72-1.4,3.12-3.12,3.12Zm-24.91-15.22c-1.31,0-2.37,1.06-2.37,2.37v9.73c0,1.31,1.06,2.37,2.37,2.37h24.91c1.31,0,2.37-1.06,2.37-2.37v-9.73c0-1.31-1.06-2.37-2.37-2.37h-24.91Zm24.91,14.1h-24.91c-1.11,0-2.01-.9-2.01-2.01v-9.73c0-1.11,.9-2.01,2.01-2.01h24.91c1.11,0,2.01,.9,2.01,2.01v9.73c0,1.11-.9,2.01-2.01,2.01Zm-24.91-12.99c-.69,0-1.26,.56-1.26,1.26v9.73c0,.69,.56,1.26,1.26,1.26h24.91c.69,0,1.26-.56,1.26-1.26v-9.73c0-.69-.56-1.26-1.26-1.26h-24.91Z"/>
        </g>
        <g>
          <rect class="cls-2" x="403.3" y="108.44" width="1.11" height="3.69"/>
          <path class="cls-2" d="M404.67,112.38h-1.61v-4.19h1.61v4.19Zm-1.11-.5h.61v-3.19h-.61v3.19Z"/>
        </g>
        <g>
          <rect class="cls-2" x="392.85" y="111.58" width="22.32" height="1.11"/>
          <path class="cls-2" d="M415.43,112.94h-22.83v-1.61h22.83v1.61Zm-22.33-.5h21.83v-.61h-21.83v.61Z"/>
        </g>
        <g>
          <g>
            <path class="cls-2" d="M399.7,123.62h-12.82c-1.11,0-2.02-.9-2.02-2.02v-4.66c0-1.11,.9-2.02,2.02-2.02h12.82c1.11,0,2.02,.9,2.02,2.02v4.66c0,1.11-.9,2.02-2.02,2.02Zm-12.82-7.58c-.5,0-.91,.41-.91,.91v4.66c0,.5,.41,.91,.91,.91h12.82c.5,0,.91-.41,.91-.91v-4.66c0-.5-.41-.91-.91-.91h-12.82Z"/>
            <path class="cls-2" d="M399.7,123.87h-12.82c-1.25,0-2.27-1.02-2.27-2.27v-4.66c0-1.25,1.02-2.27,2.27-2.27h12.82c1.25,0,2.27,1.02,2.27,2.27v4.66c0,1.25-1.02,2.27-2.27,2.27Zm-12.82-8.69c-.97,0-1.77,.79-1.77,1.77v4.66c0,.97,.79,1.77,1.77,1.77h12.82c.97,0,1.77-.79,1.77-1.77v-4.66c0-.97-.79-1.77-1.77-1.77h-12.82Zm12.82,7.58h-12.82c-.64,0-1.16-.52-1.16-1.16v-4.66c0-.64,.52-1.16,1.16-1.16h12.82c.64,0,1.16,.52,1.16,1.16v4.66c0,.64-.52,1.16-1.16,1.16Zm-12.82-6.47c-.36,0-.66,.29-.66,.66v4.66c0,.36,.29,.66,.66,.66h12.82c.36,0,.66-.29,.66-.66v-4.66c0-.36-.29-.66-.66-.66h-12.82Z"/>
          </g>
          <g>
            <rect class="cls-2" x="392.87" y="112.13" width="1.11" height="3.35"/>
            <path class="cls-2" d="M394.23,115.73h-1.61v-3.85h1.61v3.85Zm-1.11-.5h.61v-2.85h-.61v2.85Z"/>
          </g>
        </g>
        <g>
          <rect class="cls-2" x="414.07" y="112.13" width="1.11" height="3.35"/>
          <path class="cls-2" d="M415.43,115.73h-1.61v-3.85h1.61v3.85Zm-1.11-.5h.61v-2.85h-.61v2.85Z"/>
        </g>
        <g>
          <path class="cls-2" d="M421.18,123.62h-12.82c-1.11,0-2.02-.9-2.02-2.02v-4.66c0-1.11,.9-2.02,2.02-2.02h12.82c1.11,0,2.02,.9,2.02,2.02v4.66c0,1.11-.9,2.02-2.02,2.02Zm-12.82-7.58c-.5,0-.91,.41-.91,.91v4.66c0,.5,.41,.91,.91,.91h12.82c.5,0,.91-.41,.91-.91v-4.66c0-.5-.41-.91-.91-.91h-12.82Z"/>
          <path class="cls-2" d="M421.18,123.87h-12.82c-1.25,0-2.27-1.02-2.27-2.27v-4.66c0-1.25,1.02-2.27,2.27-2.27h12.82c1.25,0,2.27,1.02,2.27,2.27v4.66c0,1.25-1.02,2.27-2.27,2.27Zm-12.82-8.69c-.97,0-1.77,.79-1.77,1.77v4.66c0,.97,.79,1.77,1.77,1.77h12.82c.97,0,1.77-.79,1.77-1.77v-4.66c0-.97-.79-1.77-1.77-1.77h-12.82Zm12.82,7.58h-12.82c-.64,0-1.16-.52-1.16-1.16v-4.66c0-.64,.52-1.16,1.16-1.16h12.82c.64,0,1.16,.52,1.16,1.16v4.66c0,.64-.52,1.16-1.16,1.16Zm-12.82-6.47c-.36,0-.66,.29-.66,.66v4.66c0,.36,.29,.66,.66,.66h12.82c.36,0,.66-.29,.66-.66v-4.66c0-.36-.29-.66-.66-.66h-12.82Z"/>
        </g>
      </g>
    </g>
    <g>
      <path class="cls-2" d="M355.7,196.38h2.87c.71,0,1.32,.13,1.84,.41,.52,.27,.93,.65,1.21,1.15,.29,.5,.43,1.08,.43,1.75,0,.79-.16,1.46-.47,2.02-.31,.56-.76,.99-1.35,1.28-.59,.29-1.3,.44-2.12,.44h-2.96l.55-7.05Zm2.24,5.57c.78,0,1.36-.18,1.73-.54,.37-.36,.56-.94,.56-1.72,0-.59-.16-1.04-.49-1.36-.33-.31-.8-.46-1.42-.46h-.9l-.32,4.09h.84Z"/>
      <path class="cls-2" d="M365.14,197.82l-.1,1.3h2.89l-.11,1.44h-2.9l-.23,2.87h-1.81l.56-7.05h4.9l-.11,1.44h-3.09Z"/>
      <path class="cls-2" d="M369.64,203.31c-.51-.14-.96-.33-1.33-.56l.68-1.3c.71,.44,1.48,.66,2.31,.66,.38,0,.67-.05,.87-.15,.2-.1,.3-.25,.3-.44,0-.21-.11-.37-.33-.48-.22-.12-.56-.24-1.02-.38-.49-.15-.9-.29-1.21-.43-.31-.14-.58-.35-.81-.62-.23-.28-.34-.63-.34-1.08s.12-.84,.38-1.18,.61-.6,1.07-.79c.46-.18,1-.27,1.61-.27,.51,0,1,.07,1.47,.21,.47,.14,.84,.33,1.12,.56l-.66,1.3c-.29-.21-.61-.37-.96-.48-.35-.12-.69-.18-1.03-.18-.36,0-.64,.06-.85,.18-.21,.12-.32,.28-.32,.48s.11,.38,.33,.49,.56,.24,1.04,.38c.49,.15,.88,.29,1.2,.42,.31,.14,.58,.34,.8,.61s.34,.62,.34,1.05c0,.71-.27,1.25-.8,1.63-.53,.38-1.29,.58-2.27,.58-.54,0-1.07-.07-1.58-.21Z"/>
      <path class="cls-2" d="M379.14,203.31c-.51-.14-.96-.33-1.33-.56l.68-1.3c.71,.44,1.48,.66,2.31,.66,.38,0,.67-.05,.87-.15,.2-.1,.3-.25,.3-.44,0-.21-.11-.37-.33-.48-.22-.12-.56-.24-1.02-.38-.49-.15-.9-.29-1.21-.43-.31-.14-.58-.35-.81-.62-.23-.28-.34-.63-.34-1.08s.12-.84,.38-1.18,.61-.6,1.07-.79c.46-.18,1-.27,1.61-.27,.51,0,1,.07,1.47,.21,.47,.14,.84,.33,1.12,.56l-.66,1.3c-.29-.21-.61-.37-.96-.48-.35-.12-.69-.18-1.03-.18-.36,0-.64,.06-.85,.18-.21,.12-.32,.28-.32,.48s.11,.38,.33,.49,.56,.24,1.04,.38c.49,.15,.88,.29,1.2,.42,.31,.14,.58,.34,.8,.61s.34,.62,.34,1.05c0,.71-.27,1.25-.8,1.63-.53,.38-1.29,.58-2.27,.58-.54,0-1.07-.07-1.58-.21Z"/>
      <path class="cls-2" d="M386.36,203.1c-.52-.28-.91-.67-1.19-1.18s-.42-1.11-.42-1.8c0-.77,.16-1.44,.47-2.02s.75-1.03,1.33-1.34,1.23-.47,1.99-.47c.47,0,.92,.07,1.33,.2,.42,.13,.79,.32,1.1,.57l-.67,1.31c-.29-.21-.56-.37-.83-.47-.27-.1-.55-.15-.84-.15-.64,0-1.13,.21-1.48,.63s-.52,1-.52,1.74c0,.63,.14,1.11,.41,1.44,.27,.33,.68,.5,1.21,.5s1.13-.2,1.82-.61l.47,1.3c-.24,.23-.58,.42-1,.56-.43,.14-.88,.21-1.33,.21-.71,0-1.32-.14-1.84-.42Z"/>
      <path class="cls-2" d="M396.26,201.97h-3.13l-.74,1.46h-1.88l3.84-7.05h1.46l2.75,7.05h-1.78l-.52-1.46Zm-.48-1.38l-.81-2.26-1.14,2.26h1.95Z"/>
      <path class="cls-2" d="M405.82,196.38l-.56,7.05h-1.37l-2.87-3.96-.33,3.96h-1.71l.56-7.05h1.34l2.9,3.98,.32-3.98h1.72Z"/>
    </g>
    <g class="cls-4">
      <g>
        <polygon class="cls-2" points="416.55 173.37 416.54 173.37 408.97 170.14 408.97 178.49 409.47 178.7 408.97 178.49 408.97 186.53 417.16 182.04 417.21 182.06 425.83 177.33 416.55 173.37"/>
        <path class="cls-2" d="M408.88,186.69v-16.69l.13,.06,17.04,7.26-8.83,4.85-.05-.02-8.28,4.55Zm.19-8.06v7.74l8.09-4.44,.05,.02,8.41-4.62-9.06-3.87h0s-.04-.01-.04-.01l-7.44-3.17v8.14l.44,.19-.07,.17-.36-.16Z"/>
      </g>
      <path class="cls-2" d="M400.35,104.99h-65.22c-2.13,0-3.85-1.72-3.85-3.85s1.72-3.85,3.85-3.85h65.22c2.13,0,3.85,1.72,3.85,3.85s-1.72,3.85-3.85,3.85Z"/>
      <path class="cls-2" d="M423.62,120.43h-7.7c0-8.52-6.94-15.45-15.48-15.45v-7.7c12.78,0,23.17,10.38,23.17,23.14Z"/>
      <path class="cls-2" d="M400.43,143.45v-7.7c8.53,0,15.48-6.93,15.48-15.45h7.7c0,12.76-10.4,23.14-23.17,23.14Z"/>
      <rect class="cls-2" x="357.53" y="135.73" width="43.12" height="7.7"/>
      <rect class="cls-2" x="358.63" y="174.21" width="51.47" height="7.7"/>
      <path class="cls-2" d="M358.54,181.9c-12.78,0-23.17-10.38-23.17-23.14h7.7c0,8.52,6.94,15.45,15.48,15.45v7.7Z"/>
      <path class="cls-2" d="M343.07,158.88h-7.7c0-12.76,10.4-23.14,23.17-23.14v7.7c-8.53,0-15.48,6.93-15.48,15.45Z"/>
    </g>
  </g>
  <g>
    <g>
      <polygon class="cls-2" points="483.83 234.03 483.82 234.04 471.67 228.85 471.67 242.25 472.46 242.6 471.67 242.26 471.67 255.16 484.81 247.95 484.89 247.99 498.73 240.39 483.83 234.03"/>
      <path class="cls-1" d="M471.57,255.32v-26.62l.13,.06,27.24,11.61-14.05,7.71-.08-.03-13.24,7.27Zm.19-12.92v12.61l13.04-7.16,.08,.03,13.63-7.48-14.68-6.26h-.01s-.04-.01-.04-.01l-12.02-5.13v13.2l.74,.32-.07,.17-.67-.28Z"/>
    </g>
    <rect class="cls-1" x="390.84" y="237.71" width="82.63" height="7.7"/>
    <path class="cls-1" d="M390.69,245.41c-19.23,0-34.87-15.62-34.87-34.83h7.7c0,14.96,12.19,27.13,27.18,27.13v7.7Z"/>
  </g>
  <g>
    <g>
      <polygon class="cls-2" points="195.78 234.03 195.77 234.04 183.62 228.85 183.62 242.25 184.41 242.6 183.62 242.26 183.62 255.16 196.76 247.95 196.84 247.99 210.68 240.39 195.78 234.03"/>
      <path class="cls-1" d="M183.52,255.32v-26.62l27.37,11.67-.17,.09-13.88,7.62-.08-.03-13.24,7.27Zm.19-12.92v12.61l13.04-7.16,.08,.03,13.63-7.48-14.68-6.26h-.01s-.04-.01-.04-.01l-12.02-5.13v13.2l.74,.32-.08,.17-.66-.28Z"/>
    </g>
    <rect class="cls-1" x="102.79" y="237.71" width="82.64" height="7.7"/>
    <path class="cls-1" d="M102.64,245.41c-19.23,0-34.87-15.62-34.87-34.83h7.7c0,14.96,12.19,27.13,27.18,27.13v7.7Z"/>
  </g>
  <g>
    <g>
      <polygon class="cls-2" points="339.61 234.03 339.6 234.04 327.44 228.85 327.44 242.25 328.24 242.6 327.44 242.26 327.44 255.16 340.59 247.95 340.67 247.99 354.51 240.39 339.61 234.03"/>
      <path class="cls-1" d="M327.35,255.32v-26.62l27.37,11.67-.17,.09-13.88,7.62-.08-.03-13.24,7.27Zm.19-12.92v12.61l13.04-7.16,.08,.03,13.63-7.48-14.68-6.26h-.01s-.04-.01-.04-.01l-12.02-5.13v13.2l.74,.32-.07,.17-.66-.28Z"/>
    </g>
    <rect class="cls-1" x="246.62" y="237.71" width="82.64" height="7.7"/>
    <path class="cls-1" d="M246.47,245.41c-19.23,0-34.87-15.62-34.87-34.83h7.7c0,14.96,12.19,27.13,27.18,27.13v7.7Z"/>
  </g>
  <g>
    <g>
      <path class="cls-2" d="M236.77,156.86h-.04c-.32,0-.64,0-.96,0v-1c.33,0,.65,0,.96,0l.04,1Zm3.02-.07l-.05-1c.33-.02,.66-.03,.99-.05l.06,1c-.33,.02-.67,.04-1.01,.06Zm-7.05-.05c-.34-.02-.67-.04-1-.07l.08-1c.33,.03,.66,.05,.99,.07l-.06,1Zm11.06-.26l-.11-.99c.33-.04,.66-.07,.98-.12l.12,.99c-.33,.04-.67,.08-1,.12Zm-15.07-.11c-.33-.04-.67-.08-1-.13l.14-.99c.33,.05,.65,.09,.98,.13l-.12,.99Zm19.06-.46l-.17-.99c.33-.06,.65-.12,.98-.18l.19,.98c-.33,.06-.66,.12-.99,.18Zm-23.04-.16c-.33-.06-.66-.13-.99-.19l.2-.98c.32,.07,.65,.13,.97,.19l-.19,.98Zm26.98-.65l-.23-.97c.32-.08,.64-.16,.96-.24l.25,.97c-.32,.08-.65,.16-.98,.24Zm-30.92-.22c-.33-.08-.65-.17-.97-.26l.26-.96c.32,.09,.64,.17,.96,.25l-.25,.97Zm34.8-.84l-.29-.96c.32-.1,.63-.2,.95-.3l.31,.95c-.32,.1-.64,.21-.96,.3Zm-38.67-.28c-.32-.1-.64-.21-.96-.32l.32-.95c.31,.11,.63,.21,.94,.31l-.31,.95Zm42.48-1.03l-.35-.93c.31-.12,.62-.24,.92-.36l.37,.93c-.31,.12-.62,.25-.94,.36Zm-46.28-.34c-.31-.12-.63-.25-.94-.38l.38-.92c.31,.13,.61,.25,.92,.37l-.37,.93Zm49.99-1.21l-.41-.91c.3-.14,.6-.27,.9-.41l.43,.9c-.3,.14-.61,.28-.91,.42Zm-53.7-.4c-.3-.14-.61-.29-.91-.44l.44-.9c.3,.15,.6,.29,.9,.43l-.43,.91Zm57.3-1.38l-.47-.88c.29-.15,.58-.31,.87-.47l.48,.88c-.29,.16-.59,.32-.88,.48Zm-60.9-.46c-.29-.16-.59-.33-.88-.49l.5-.87c.29,.16,.58,.33,.87,.49l-.48,.88Zm64.39-1.54l-.52-.85c.28-.17,.56-.35,.84-.52l.54,.84c-.28,.18-.57,.36-.85,.53Zm-67.86-.52c-.28-.18-.57-.36-.85-.55l.55-.84c.28,.18,.55,.36,.83,.54l-.54,.84Zm71.22-1.7l-.58-.82c.27-.19,.54-.38,.8-.58l.59,.81c-.27,.2-.54,.39-.82,.58Zm-74.56-.57c-.27-.2-.54-.4-.81-.6l.6-.8c.26,.2,.53,.4,.8,.59l-.59,.81Zm77.77-1.85l-.62-.78c.26-.21,.51-.42,.77-.63l.64,.77c-.26,.21-.52,.43-.78,.64Zm-80.96-.62c-.26-.21-.52-.43-.77-.65l.65-.76c.25,.22,.5,.43,.76,.64l-.64,.77Zm84.02-1.99l-.67-.74c.24-.22,.49-.45,.73-.67l.68,.73c-.24,.23-.49,.46-.74,.68Zm-87.04-.67c-.24-.23-.49-.46-.73-.7l.7-.72c.24,.23,.48,.46,.72,.68l-.68,.73Zm89.93-2.13l-.72-.7c.23-.24,.46-.48,.68-.72l.73,.68c-.23,.24-.46,.49-.7,.73Zm-92.78-.72c-.23-.24-.46-.49-.68-.74l.74-.67c.22,.24,.45,.49,.67,.73l-.73,.68Zm95.49-2.26l-.76-.65c.21-.25,.43-.5,.64-.76l.77,.64c-.21,.26-.43,.52-.65,.77Zm-98.16-.76c-.21-.26-.43-.52-.64-.78l.78-.63c.21,.26,.42,.51,.63,.77l-.77,.64Zm100.68-2.38l-.8-.6c.2-.26,.4-.53,.59-.8l.81,.59c-.2,.27-.4,.54-.6,.81Zm-103.15-.79c-.2-.27-.39-.54-.59-.82l.82-.58c.19,.27,.38,.54,.58,.8l-.81,.59Zm105.47-2.5l-.83-.55c.18-.28,.36-.55,.54-.83l.84,.54c-.18,.28-.36,.57-.55,.85Zm-107.74-.82c-.18-.28-.36-.57-.53-.85l.85-.52c.17,.28,.35,.56,.52,.84l-.84,.54Zm109.85-2.62l-.87-.5c.16-.29,.33-.58,.49-.87l.88,.48c-.16,.29-.33,.59-.49,.88Zm-111.9-.84c-.16-.29-.32-.59-.48-.88l.88-.47c.15,.29,.31,.58,.47,.87l-.88,.48Zm113.79-2.72l-.9-.44c.15-.3,.29-.6,.43-.9l.9,.43c-.14,.3-.29,.61-.44,.91Zm-115.62-.86c-.14-.3-.28-.61-.42-.91l.91-.41c.14,.3,.27,.6,.42,.9l-.9,.43Zm117.29-2.82l-.92-.38c.13-.31,.25-.61,.37-.92l.93,.37c-.12,.31-.25,.63-.38,.94Zm-118.89-.87c-.12-.31-.25-.62-.37-.94l.93-.36c.12,.31,.24,.62,.36,.92l-.93,.37Zm120.32-2.91l-.95-.32c.11-.31,.21-.63,.31-.94l.95,.31c-.1,.32-.21,.64-.32,.96Zm-121.69-.88c-.1-.32-.21-.64-.3-.96l.96-.3c.1,.32,.2,.63,.3,.95l-.95,.31Zm122.87-2.98l-.96-.26c.09-.32,.17-.64,.25-.96l.97,.25c-.08,.33-.17,.65-.26,.98Zm-124-.89c-.08-.32-.16-.65-.24-.98l.97-.23c.08,.32,.16,.64,.24,.96l-.97,.25Zm124.93-3.03l-.98-.2c.07-.32,.13-.65,.19-.97l.98,.19c-.06,.33-.13,.66-.2,.99Zm-125.81-.9c-.06-.33-.12-.66-.18-.99l.99-.17c.06,.33,.12,.65,.18,.97l-.98,.19Zm126.5-3.07l-.99-.14c.05-.33,.09-.65,.13-.98l.99,.12c-.04,.33-.09,.67-.13,1Zm-127.13-.91c-.04-.33-.08-.67-.12-1l.99-.11c.04,.33,.08,.66,.12,.98l-.99,.12Zm127.57-3.09l-1-.08c.03-.33,.05-.66,.07-.99l1,.06c-.02,.34-.04,.67-.07,1.01Zm-127.95-.92c-.02-.33-.04-.67-.06-1.01l1-.05c.02,.33,.03,.66,.05,.99l-1,.06Zm128.13-3.11l-1-.02c0-.33,0-.66,0-.99v-.17h1v.17c0,.34,0,.67,0,1.01Zm-127.94-.95l-.32-.05c0-.32,0-.62,0-.93h1c0,.32,0,.62,0,.92l-.68,.06Zm126.87-3.2c-.02-.33-.03-.66-.06-.99l1-.06c.02,.33,.04,.67,.06,1.01l-1,.05Zm-126.08-.73l-1-.06c.02-.34,.04-.67,.07-1.01l1,.08c-.03,.33-.05,.66-.07,.99Zm125.76-3.22c-.04-.33-.08-.66-.12-.98l.99-.13c.04,.33,.08,.67,.12,1l-.99,.11Zm-125.4-.73l-.99-.12c.04-.33,.08-.67,.13-1l.99,.14c-.05,.33-.09,.65-.13,.98Zm124.83-3.2c-.06-.33-.12-.65-.18-.97l.98-.19c.06,.33,.12,.66,.18,.99l-.99,.17Zm-124.22-.72l-.98-.18c.06-.33,.13-.66,.19-.99l.98,.2c-.07,.32-.13,.65-.19,.97Zm123.41-3.16c-.08-.32-.16-.64-.24-.96l.97-.25c.08,.33,.17,.65,.24,.98l-.97,.23Zm-122.56-.71l-.97-.25c.08-.33,.17-.65,.26-.98l.96,.26c-.09,.32-.17,.64-.25,.96Zm121.5-3.11c-.1-.32-.2-.63-.3-.95l.95-.31c.1,.32,.21,.64,.31,.96l-.96,.3Zm-120.41-.7l-.95-.31c.1-.32,.21-.64,.32-.96l.95,.32c-.11,.31-.21,.63-.31,.95Zm119.11-3.05c-.12-.31-.24-.62-.36-.92l.93-.37c.12,.31,.25,.62,.37,.94l-.93,.36Zm-117.77-.69l-.93-.37c.12-.31,.25-.63,.38-.94l.92,.38c-.13,.31-.25,.61-.37,.92Zm116.25-2.96c-.14-.3-.28-.6-.42-.9l.9-.43c.14,.3,.28,.61,.42,.91l-.91,.42Zm-114.67-.69l-.91-.43c.14-.3,.29-.61,.44-.91l.9,.44c-.15,.3-.29,.6-.43,.9Zm112.92-2.86c-.15-.29-.31-.58-.47-.87l.88-.48c.16,.29,.32,.59,.48,.88l-.88,.47Zm-111.12-.68l-.88-.48c.16-.29,.33-.59,.49-.88l.87,.5c-.16,.29-.33,.58-.48,.87Zm109.15-2.75c-.17-.28-.35-.56-.53-.84l.84-.54c.18,.28,.36,.57,.53,.85l-.85,.53Zm-107.13-.67l-.84-.54c.18-.28,.36-.57,.55-.85l.84,.55c-.18,.28-.36,.55-.54,.83Zm104.94-2.64c-.19-.27-.38-.54-.58-.8l.81-.59c.2,.27,.39,.54,.59,.82l-.82,.58Zm-102.71-.65l-.81-.59c.2-.27,.4-.54,.6-.81l.8,.6c-.2,.26-.4,.53-.59,.8Zm100.32-2.51c-.21-.26-.42-.51-.63-.77l.77-.64c.21,.26,.43,.52,.64,.78l-.78,.63Zm-97.9-.62l-.77-.64c.21-.26,.43-.52,.65-.77l.76,.65c-.21,.25-.43,.51-.64,.76Zm95.31-2.39c-.22-.24-.45-.49-.67-.73l.73-.69c.23,.24,.46,.49,.68,.74l-.74,.67Zm-92.69-.59l-.73-.68c.23-.25,.46-.49,.7-.73l.72,.7c-.23,.24-.46,.48-.68,.72Zm89.93-2.25c-.24-.23-.48-.46-.72-.68l.68-.73c.25,.23,.49,.46,.73,.69l-.7,.72Zm-87.13-.56l-.69-.73c.24-.23,.49-.46,.74-.68l.67,.74c-.24,.22-.49,.45-.73,.67Zm84.19-2.11c-.25-.21-.51-.43-.76-.64l.64-.77c.26,.21,.52,.43,.77,.65l-.65,.76Zm-81.22-.52l-.64-.77c.26-.21,.52-.43,.78-.64l.63,.78c-.26,.21-.51,.42-.77,.63Zm78.12-1.96c-.26-.2-.53-.39-.8-.59l.59-.81c.27,.2,.54,.4,.81,.6l-.6,.8Zm-75-.48l-.59-.81c.27-.2,.54-.39,.82-.59l.58,.82c-.27,.19-.54,.38-.8,.58Zm71.75-1.8c-.28-.18-.56-.36-.84-.54l.54-.84c.28,.18,.57,.36,.85,.55l-.55,.84Zm-68.48-.43l-.54-.84c.28-.18,.57-.36,.85-.53l.52,.85c-.28,.17-.56,.35-.84,.53Zm65.09-1.64c-.29-.16-.58-.33-.87-.48l.48-.88c.3,.16,.59,.33,.88,.49l-.5,.87Zm-61.69-.38l-.48-.88c.29-.16,.59-.32,.88-.48l.47,.88c-.29,.15-.58,.31-.87,.47Zm58.17-1.47c-.3-.15-.6-.29-.9-.43l.42-.91c.31,.14,.61,.29,.91,.44l-.44,.9Zm-54.65-.33l-.43-.9c.3-.14,.61-.28,.91-.42l.41,.91c-.3,.14-.6,.27-.9,.42Zm51.03-1.3c-.31-.13-.61-.25-.92-.37l.37-.93c.31,.12,.63,.25,.94,.38l-.38,.92Zm-47.41-.28l-.37-.93c.31-.12,.62-.25,.94-.37l.36,.93c-.31,.12-.62,.24-.92,.36Zm43.68-1.12c-.31-.11-.63-.21-.94-.31l.31-.95c.32,.1,.64,.21,.96,.32l-.32,.95Zm-39.96-.23l-.31-.95c.32-.1,.64-.21,.96-.31l.29,.96c-.32,.1-.63,.2-.94,.3Zm36.16-.92c-.32-.09-.64-.17-.96-.25l.25-.97c.33,.08,.65,.17,.97,.26l-.26,.96Zm-32.35-.19l-.25-.97c.32-.08,.65-.16,.98-.24l.24,.97c-.32,.08-.64,.16-.96,.24Zm28.5-.73c-.32-.07-.65-.13-.97-.19l.18-.98c.33,.06,.66,.13,.99,.19l-.2,.98Zm-24.63-.14l-.19-.98c.33-.06,.66-.12,.99-.18l.17,.98c-.33,.06-.65,.12-.98,.18Zm20.72-.53c-.33-.05-.65-.09-.98-.13l.12-.99c.33,.04,.67,.08,1,.13l-.14,.99Zm-16.81-.1l-.13-.99c.33-.04,.67-.08,1-.12l.11,.99c-.33,.04-.66,.08-.98,.12Zm12.86-.33c-.33-.03-.66-.05-.99-.07l.06-1c.34,.02,.67,.04,1.01,.07l-.08,1Zm-8.92-.05l-.06-1c.33-.02,.67-.04,1.01-.06l.05,1c-.33,.02-.66,.03-.99,.06Zm4.96-.12c-.29,0-.57,0-.86,0h-.13v-1h.13c.29,0,.58,0,.88,0v1Z"/>
      <g>
        <g>
          <path class="cls-2" d="M221.16,44.7l-.12,1.47h3.32l-.12,1.55h-3.32l-.13,1.61h3.55l-.13,1.56h-5.51l.62-7.75h5.52l-.13,1.56h-3.54Z"/>
          <path class="cls-2" d="M232.79,43.14l-.62,7.75h-1.51l-3.16-4.36-.36,4.36h-1.88l.62-7.75h1.47l3.19,4.38,.35-4.38h1.89Z"/>
          <path class="cls-2" d="M235.82,44.78h-2.33l.13-1.64h6.69l-.13,1.64h-2.32l-.47,6.12h-2.05l.48-6.12Z"/>
          <path class="cls-2" d="M241.15,43.14h2.02l-.6,7.75h-2.02l.6-7.75Z"/>
          <path class="cls-2" d="M246.21,44.78h-2.33l.13-1.64h6.69l-.13,1.64h-2.32l-.47,6.12h-2.05l.48-6.12Z"/>
          <path class="cls-2" d="M255.34,47.44l-.27,3.45h-2.02l.27-3.46-2.93-4.29h2.24l1.79,2.68,2.2-2.68h2.32l-3.61,4.3Z"/>
        </g>
        <g>
          <g>
            <path class="cls-2" d="M256.27,81.99h-34.63c-1.71,0-3.11-1.39-3.11-3.11v-16.74c0-1.71,1.39-3.11,3.11-3.11h34.63c1.71,0,3.11,1.39,3.11,3.11v16.74c0,1.71-1.39,3.11-3.11,3.11Zm-34.63-21.85c-1.1,0-2,.9-2,2v16.74c0,1.1,.9,2,2,2h34.63c1.1,0,2-.9,2-2v-16.74c0-1.1-.9-2-2-2h-34.63Z"/>
            <path class="cls-2" d="M256.27,82.99h-34.63c-2.27,0-4.11-1.84-4.11-4.11v-16.74c0-2.27,1.84-4.11,4.11-4.11h34.63c2.26,0,4.11,1.84,4.11,4.11v16.74c0,2.27-1.84,4.11-4.11,4.11Zm-34.63-21.85c-.55,0-1,.45-1,1v16.74c0,.55,.45,1,1,1h34.63c.55,0,1-.45,1-1v-16.74c0-.55-.45-1-1-1h-34.63Z"/>
          </g>
          <g>
            <rect class="cls-2" x="239.27" y="81.38" width="1.11" height="6.1"/>
            <rect class="cls-2" x="238.27" y="80.38" width="3.11" height="8.1"/>
          </g>
          <g>
            <rect class="cls-2" x="219.37" y="86.95" width="41.4" height="1.11"/>
            <rect class="cls-2" x="218.37" y="85.95" width="43.4" height="3.11"/>
          </g>
          <g>
            <g>
              <rect class="cls-2" x="219.29" y="86.98" width="1.11" height="6.23"/>
              <rect class="cls-2" x="218.29" y="85.98" width="3.11" height="8.23"/>
            </g>
            <g>
              <path class="cls-2" d="M232.06,108.37h-24.91c-1.51,0-2.74-1.23-2.74-2.74v-9.73c0-1.51,1.23-2.74,2.74-2.74h24.91c1.51,0,2.74,1.23,2.74,2.74v9.73c0,1.51-1.23,2.74-2.74,2.74Zm-24.91-14.1c-.9,0-1.63,.73-1.63,1.63v9.73c0,.9,.73,1.63,1.63,1.63h24.91c.9,0,1.63-.73,1.63-1.63v-9.73c0-.9-.73-1.63-1.63-1.63h-24.91Z"/>
              <path class="cls-2" d="M232.06,108.74h-24.91c-1.72,0-3.12-1.4-3.12-3.12v-9.73c0-1.72,1.4-3.12,3.12-3.12h24.91c1.72,0,3.12,1.4,3.12,3.12v9.73c0,1.72-1.4,3.12-3.12,3.12Zm-24.91-15.22c-1.31,0-2.37,1.06-2.37,2.37v9.73c0,1.31,1.06,2.37,2.37,2.37h24.91c1.31,0,2.37-1.06,2.37-2.37v-9.73c0-1.31-1.06-2.37-2.37-2.37h-24.91Zm24.91,14.1h-24.91c-1.11,0-2.01-.9-2.01-2.01v-9.73c0-1.11,.9-2.01,2.01-2.01h24.91c1.11,0,2.01,.9,2.01,2.01v9.73c0,1.11-.9,2.01-2.01,2.01Zm-24.91-12.99c-.69,0-1.26,.56-1.26,1.26v9.73c0,.69,.56,1.26,1.26,1.26h24.91c.69,0,1.26-.56,1.26-1.26v-9.73c0-.69-.56-1.26-1.26-1.26h-24.91Z"/>
            </g>
            <g>
              <rect class="cls-2" x="219.06" y="107.81" width="1.11" height="3.69"/>
              <path class="cls-2" d="M220.43,111.75h-1.61v-4.19h1.61v4.19Zm-1.11-.5h.61v-3.19h-.61v3.19Z"/>
            </g>
            <g>
              <rect class="cls-2" x="208.61" y="110.95" width="22.32" height="1.11"/>
              <path class="cls-2" d="M231.19,112.31h-22.82v-1.61h22.82v1.61Zm-22.32-.5h21.82v-.61h-21.82v.61Z"/>
            </g>
            <g>
              <g>
                <path class="cls-2" d="M215.46,122.99h-12.82c-1.11,0-2.02-.9-2.02-2.02v-4.66c0-1.11,.9-2.02,2.02-2.02h12.82c1.11,0,2.02,.9,2.02,2.02v4.66c0,1.11-.9,2.02-2.02,2.02Zm-12.82-7.58c-.5,0-.91,.41-.91,.91v4.66c0,.5,.41,.91,.91,.91h12.82c.5,0,.91-.41,.91-.91v-4.66c0-.5-.41-.91-.91-.91h-12.82Z"/>
                <path class="cls-2" d="M215.46,123.24h-12.82c-1.25,0-2.27-1.02-2.27-2.27v-4.66c0-1.25,1.02-2.27,2.27-2.27h12.82c1.25,0,2.27,1.02,2.27,2.27v4.66c0,1.25-1.02,2.27-2.27,2.27Zm-12.82-8.69c-.97,0-1.77,.79-1.77,1.77v4.66c0,.97,.79,1.77,1.77,1.77h12.82c.97,0,1.77-.79,1.77-1.77v-4.66c0-.97-.79-1.77-1.77-1.77h-12.82Zm12.82,7.58h-12.82c-.64,0-1.16-.52-1.16-1.16v-4.66c0-.64,.52-1.16,1.16-1.16h12.82c.64,0,1.16,.52,1.16,1.16v4.66c0,.64-.52,1.16-1.16,1.16Zm-12.82-6.47c-.36,0-.66,.29-.66,.66v4.66c0,.36,.29,.66,.66,.66h12.82c.36,0,.66-.29,.66-.66v-4.66c0-.36-.29-.66-.66-.66h-12.82Z"/>
              </g>
              <g>
                <rect class="cls-2" x="208.63" y="111.5" width="1.11" height="3.35"/>
                <path class="cls-2" d="M209.99,115.1h-1.61v-3.85h1.61v3.85Zm-1.11-.5h.61v-2.85h-.61v2.85Z"/>
              </g>
            </g>
            <g>
              <rect class="cls-2" x="229.83" y="111.5" width="1.11" height="3.35"/>
              <path class="cls-2" d="M231.19,115.1h-1.61v-3.85h1.61v3.85Zm-1.11-.5h.61v-2.85h-.61v2.85Z"/>
            </g>
            <g>
              <path class="cls-2" d="M236.94,122.99h-12.82c-1.11,0-2.02-.9-2.02-2.02v-4.66c0-1.11,.9-2.02,2.02-2.02h12.82c1.11,0,2.02,.9,2.02,2.02v4.66c0,1.11-.9,2.02-2.02,2.02Zm-12.82-7.58c-.5,0-.91,.41-.91,.91v4.66c0,.5,.41,.91,.91,.91h12.82c.5,0,.91-.41,.91-.91v-4.66c0-.5-.41-.91-.91-.91h-12.82Z"/>
              <path class="cls-2" d="M236.94,123.24h-12.82c-1.25,0-2.27-1.02-2.27-2.27v-4.66c0-1.25,1.02-2.27,2.27-2.27h12.82c1.25,0,2.27,1.02,2.27,2.27v4.66c0,1.25-1.02,2.27-2.27,2.27Zm-12.82-8.69c-.98,0-1.77,.79-1.77,1.77v4.66c0,.97,.79,1.77,1.77,1.77h12.82c.97,0,1.77-.79,1.77-1.77v-4.66c0-.97-.79-1.77-1.77-1.77h-12.82Zm12.82,7.58h-12.82c-.64,0-1.16-.52-1.16-1.16v-4.66c0-.64,.52-1.16,1.16-1.16h12.82c.64,0,1.16,.52,1.16,1.16v4.66c0,.64-.52,1.16-1.16,1.16Zm-12.82-6.47c-.36,0-.66,.29-.66,.66v4.66c0,.36,.29,.66,.66,.66h12.82c.36,0,.66-.29,.66-.66v-4.66c0-.36-.29-.66-.66-.66h-12.82Z"/>
            </g>
          </g>
          <rect class="cls-2" x="208.61" y="122.43" width="1.11" height="3.35"/>
          <rect class="cls-2" x="203.03" y="125.23" width="12.46" height="1.11"/>
          <g>
            <rect class="cls-2" x="202.98" y="125.78" width="1.11" height="2.92"/>
            <g>
              <rect class="cls-3" x="199.22" y="128.7" width="8.49" height="4.09" rx="1.86" ry="1.86"/>
              <path class="cls-2" d="M206.69,133.35h-6.45c-.87,0-1.58-.71-1.58-1.58v-2.05c0-.87,.71-1.58,1.58-1.58h6.45c.87,0,1.58,.71,1.58,1.58v2.05c0,.87-.71,1.58-1.58,1.58Zm-6.45-4.09c-.26,0-.46,.21-.46,.46v2.05c0,.26,.21,.46,.46,.46h6.45c.26,0,.46-.21,.46-.46v-2.05c0-.26-.21-.46-.46-.46h-6.45Z"/>
            </g>
          </g>
          <g>
            <rect class="cls-2" x="214.42" y="126.09" width="1.11" height="2.61"/>
            <g>
              <rect class="cls-3" x="210.65" y="128.7" width="8.49" height="4.09" rx="1.86" ry="1.86"/>
              <path class="cls-2" d="M218.12,133.35h-6.45c-.87,0-1.58-.71-1.58-1.58v-2.05c0-.87,.71-1.58,1.58-1.58h6.45c.87,0,1.58,.71,1.58,1.58v2.05c0,.87-.71,1.58-1.58,1.58Zm-6.45-4.09c-.26,0-.47,.21-.47,.47v2.05c0,.26,.21,.47,.47,.47h6.45c.26,0,.47-.21,.47-.47v-2.05c0-.26-.21-.47-.47-.47h-6.45Z"/>
            </g>
          </g>
        </g>
      </g>
      <g>
        <g>
          <rect class="cls-2" x="259.77" y="87.17" width="1.11" height="6.23"/>
          <rect class="cls-2" x="258.77" y="86.17" width="3.11" height="8.23"/>
        </g>
        <g>
          <path class="cls-2" d="M272.53,108.56h-24.91c-1.51,0-2.74-1.23-2.74-2.74v-9.73c0-1.51,1.23-2.74,2.74-2.74h24.91c1.51,0,2.74,1.23,2.74,2.74v9.73c0,1.51-1.23,2.74-2.74,2.74Zm-24.91-14.1c-.9,0-1.63,.73-1.63,1.63v9.73c0,.9,.73,1.63,1.63,1.63h24.91c.9,0,1.63-.73,1.63-1.63v-9.73c0-.9-.73-1.63-1.63-1.63h-24.91Z"/>
          <path class="cls-2" d="M272.53,108.93h-24.91c-1.72,0-3.12-1.4-3.12-3.12v-9.73c0-1.72,1.4-3.12,3.12-3.12h24.91c1.72,0,3.12,1.4,3.12,3.12v9.73c0,1.72-1.4,3.12-3.12,3.12Zm-24.91-15.22c-1.31,0-2.37,1.06-2.37,2.37v9.73c0,1.31,1.06,2.37,2.37,2.37h24.91c1.31,0,2.37-1.06,2.37-2.37v-9.73c0-1.31-1.06-2.37-2.37-2.37h-24.91Zm24.91,14.1h-24.91c-1.11,0-2.01-.9-2.01-2.01v-9.73c0-1.11,.9-2.01,2.01-2.01h24.91c1.11,0,2.01,.9,2.01,2.01v9.73c0,1.11-.9,2.01-2.01,2.01Zm-24.91-12.99c-.69,0-1.26,.56-1.26,1.26v9.73c0,.69,.56,1.26,1.26,1.26h24.91c.69,0,1.26-.56,1.26-1.26v-9.73c0-.69-.56-1.26-1.26-1.26h-24.91Z"/>
        </g>
        <g>
          <rect class="cls-2" x="259.54" y="108" width="1.11" height="3.69"/>
          <path class="cls-2" d="M260.9,111.95h-1.61v-4.19h1.61v4.19Zm-1.11-.5h.61v-3.19h-.61v3.19Z"/>
        </g>
        <g>
          <rect class="cls-2" x="249.09" y="111.14" width="22.32" height="1.11"/>
          <path class="cls-2" d="M271.67,112.5h-22.82v-1.61h22.82v1.61Zm-22.32-.5h21.82v-.61h-21.82v.61Z"/>
        </g>
        <g>
          <g>
            <path class="cls-2" d="M255.93,123.18h-12.82c-1.11,0-2.02-.9-2.02-2.02v-4.66c0-1.11,.9-2.02,2.02-2.02h12.82c1.11,0,2.02,.9,2.02,2.02v4.66c0,1.11-.9,2.02-2.02,2.02Zm-12.82-7.58c-.5,0-.91,.41-.91,.91v4.66c0,.5,.41,.91,.91,.91h12.82c.5,0,.91-.41,.91-.91v-4.66c0-.5-.41-.91-.91-.91h-12.82Z"/>
            <path class="cls-2" d="M255.93,123.43h-12.82c-1.25,0-2.27-1.02-2.27-2.27v-4.66c0-1.25,1.02-2.27,2.27-2.27h12.82c1.25,0,2.27,1.02,2.27,2.27v4.66c0,1.25-1.02,2.27-2.27,2.27Zm-12.82-8.69c-.97,0-1.77,.79-1.77,1.77v4.66c0,.98,.79,1.77,1.77,1.77h12.82c.97,0,1.77-.79,1.77-1.77v-4.66c0-.97-.79-1.77-1.77-1.77h-12.82Zm12.82,7.58h-12.82c-.64,0-1.16-.52-1.16-1.16v-4.66c0-.64,.52-1.16,1.16-1.16h12.82c.64,0,1.16,.52,1.16,1.16v4.66c0,.64-.52,1.16-1.16,1.16Zm-12.82-6.47c-.36,0-.66,.29-.66,.66v4.66c0,.36,.29,.66,.66,.66h12.82c.36,0,.66-.29,.66-.66v-4.66c0-.36-.29-.66-.66-.66h-12.82Z"/>
          </g>
          <g>
            <rect class="cls-2" x="249.1" y="111.7" width="1.11" height="3.35"/>
            <path class="cls-2" d="M250.47,115.29h-1.61v-3.85h1.61v3.85Zm-1.11-.5h.61v-2.85h-.61v2.85Z"/>
          </g>
        </g>
        <g>
          <rect class="cls-2" x="270.3" y="111.7" width="1.11" height="3.35"/>
          <path class="cls-2" d="M271.67,115.29h-1.61v-3.85h1.61v3.85Zm-1.11-.5h.61v-2.85h-.61v2.85Z"/>
        </g>
        <g>
          <path class="cls-2" d="M277.41,123.18h-12.82c-1.11,0-2.02-.9-2.02-2.02v-4.66c0-1.11,.9-2.02,2.02-2.02h12.82c1.11,0,2.02,.9,2.02,2.02v4.66c0,1.11-.9,2.02-2.02,2.02Zm-12.82-7.58c-.5,0-.91,.41-.91,.91v4.66c0,.5,.41,.91,.91,.91h12.82c.5,0,.91-.41,.91-.91v-4.66c0-.5-.41-.91-.91-.91h-12.82Z"/>
          <path class="cls-2" d="M277.41,123.43h-12.82c-1.25,0-2.27-1.02-2.27-2.27v-4.66c0-1.25,1.02-2.27,2.27-2.27h12.82c1.25,0,2.27,1.02,2.27,2.27v4.66c0,1.25-1.02,2.27-2.27,2.27Zm-12.82-8.69c-.97,0-1.77,.79-1.77,1.77v4.66c0,.98,.79,1.77,1.77,1.77h12.82c.97,0,1.77-.79,1.77-1.77v-4.66c0-.97-.79-1.77-1.77-1.77h-12.82Zm12.82,7.58h-12.82c-.64,0-1.16-.52-1.16-1.16v-4.66c0-.64,.52-1.16,1.16-1.16h12.82c.64,0,1.16,.52,1.16,1.16v4.66c0,.64-.52,1.16-1.16,1.16Zm-12.82-6.47c-.36,0-.66,.29-.66,.66v4.66c0,.36,.29,.66,.66,.66h12.82c.36,0,.66-.29,.66-.66v-4.66c0-.36-.29-.66-.66-.66h-12.82Z"/>
        </g>
      </g>
    </g>
    <g>
      <path class="cls-2" d="M211.94,195.94h2.87c.71,0,1.32,.13,1.84,.41,.52,.27,.93,.65,1.21,1.15,.29,.5,.43,1.08,.43,1.75,0,.79-.16,1.46-.47,2.02-.31,.56-.76,.99-1.35,1.28-.59,.29-1.3,.44-2.12,.44h-2.96l.55-7.05Zm2.24,5.57c.78,0,1.36-.18,1.73-.54,.37-.36,.56-.94,.56-1.72,0-.59-.16-1.04-.49-1.36-.33-.31-.8-.46-1.42-.46h-.9l-.32,4.09h.84Z"/>
      <path class="cls-2" d="M221.38,197.38l-.1,1.3h2.89l-.11,1.44h-2.9l-.23,2.87h-1.81l.56-7.05h4.9l-.11,1.44h-3.09Z"/>
      <path class="cls-2" d="M225.88,202.87c-.51-.14-.96-.33-1.33-.56l.68-1.3c.71,.44,1.48,.66,2.31,.66,.38,0,.67-.05,.87-.15,.2-.1,.3-.25,.3-.44,0-.21-.11-.37-.33-.48-.22-.12-.56-.24-1.02-.38-.49-.15-.9-.29-1.21-.43-.31-.14-.58-.35-.81-.62-.23-.28-.34-.63-.34-1.08s.12-.84,.38-1.18,.61-.6,1.07-.79c.46-.18,1-.27,1.61-.27,.51,0,1,.07,1.47,.21,.47,.14,.84,.33,1.12,.56l-.66,1.3c-.29-.21-.61-.37-.96-.48-.35-.12-.69-.18-1.03-.18-.36,0-.64,.06-.85,.18-.21,.12-.32,.28-.32,.48s.11,.38,.33,.49,.56,.24,1.04,.38c.49,.15,.88,.29,1.2,.42,.31,.14,.58,.34,.8,.61s.34,.62,.34,1.05c0,.71-.27,1.25-.8,1.63-.53,.38-1.29,.58-2.27,.58-.54,0-1.07-.07-1.58-.21Z"/>
      <path class="cls-2" d="M235.38,202.87c-.51-.14-.96-.33-1.33-.56l.68-1.3c.71,.44,1.48,.66,2.31,.66,.38,0,.67-.05,.87-.15,.2-.1,.3-.25,.3-.44,0-.21-.11-.37-.33-.48-.22-.12-.56-.24-1.02-.38-.49-.15-.9-.29-1.21-.43-.31-.14-.58-.35-.81-.62-.23-.28-.34-.63-.34-1.08s.12-.84,.38-1.18,.61-.6,1.07-.79c.46-.18,1-.27,1.61-.27,.51,0,1,.07,1.47,.21,.47,.14,.84,.33,1.12,.56l-.66,1.3c-.29-.21-.61-.37-.96-.48-.35-.12-.69-.18-1.03-.18-.36,0-.64,.06-.85,.18-.21,.12-.32,.28-.32,.48s.11,.38,.33,.49,.56,.24,1.04,.38c.49,.15,.88,.29,1.2,.42,.31,.14,.58,.34,.8,.61s.34,.62,.34,1.05c0,.71-.27,1.25-.8,1.63-.53,.38-1.29,.58-2.27,.58-.54,0-1.07-.07-1.58-.21Z"/>
      <path class="cls-2" d="M242.6,202.66c-.52-.28-.91-.67-1.19-1.18s-.42-1.11-.42-1.8c0-.77,.16-1.44,.47-2.02s.75-1.03,1.33-1.34,1.23-.47,1.99-.47c.47,0,.92,.07,1.33,.2,.42,.13,.79,.32,1.1,.57l-.67,1.31c-.29-.21-.56-.37-.83-.47-.27-.1-.55-.15-.84-.15-.64,0-1.13,.21-1.48,.63s-.52,1-.52,1.74c0,.63,.14,1.11,.41,1.44s.68,.5,1.21,.5,1.13-.2,1.82-.61l.47,1.3c-.24,.23-.58,.42-1,.56-.43,.14-.88,.21-1.33,.21-.71,0-1.32-.14-1.84-.42Z"/>
      <path class="cls-2" d="M252.5,201.53h-3.13l-.74,1.46h-1.88l3.84-7.05h1.46l2.75,7.05h-1.78l-.52-1.46Zm-.48-1.38l-.81-2.26-1.14,2.26h1.95Z"/>
      <path class="cls-2" d="M262.06,195.94l-.56,7.05h-1.37l-2.87-3.96-.33,3.96h-1.71l.56-7.05h1.34l2.9,3.98,.32-3.98h1.72Z"/>
    </g>
    <g class="cls-4">
      <g>
        <polygon class="cls-2" points="272.79 172.93 272.78 172.93 265.21 169.7 265.21 178.05 265.7 178.27 265.21 178.06 265.21 186.09 273.39 181.6 273.44 181.62 282.07 176.89 272.79 172.93"/>
        <path class="cls-2" d="M265.12,186.25v-16.69l17.17,7.32-8.83,4.85-.05-.02-8.28,4.55Zm.19-8.06v7.74l8.09-4.44,.05,.02,8.41-4.62-9.06-3.87h0s-.04-.01-.04-.01l-7.44-3.17v8.14l.44,.19-.07,.17-.36-.16Z"/>
      </g>
      <path class="cls-2" d="M256.59,104.55h-65.22c-2.13,0-3.85-1.72-3.85-3.85s1.72-3.85,3.85-3.85h65.22c2.13,0,3.85,1.72,3.85,3.85s-1.72,3.85-3.85,3.85Z"/>
      <path class="cls-2" d="M279.85,120h-7.7c0-8.52-6.94-15.45-15.48-15.45v-7.7c12.78,0,23.17,10.38,23.17,23.14Z"/>
      <path class="cls-2" d="M256.67,143.02v-7.7c8.53,0,15.48-6.93,15.48-15.45h7.7c0,12.76-10.4,23.14-23.17,23.14Z"/>
      <rect class="cls-2" x="213.76" y="135.29" width="43.12" height="7.7"/>
      <rect class="cls-2" x="214.87" y="173.77" width="51.47" height="7.7"/>
      <path class="cls-2" d="M214.77,181.47c-12.78,0-23.17-10.38-23.17-23.14h7.7c0,8.52,6.94,15.45,15.48,15.45v7.7Z"/>
      <path class="cls-2" d="M199.31,158.45h-7.7c0-12.76,10.4-23.14,23.17-23.14v7.7c-8.53,0-15.48,6.93-15.48,15.45Z"/>
    </g>
  </g>
  <g>
    <path class="cls-2" d="M134.62,223l-.56,7.05h-1.14l.36-4.63-2.12,3.49h-.86l-1.59-3.43-.36,4.57h-1.14l.55-7.05h1.03l2.03,4.57,2.79-4.57h1.01Z"/>
    <path class="cls-2" d="M139.42,225.63c.38,.39,.57,.96,.57,1.71,0,.15,0,.32-.03,.5h-3.34c.02,.44,.14,.77,.37,1s.55,.34,.98,.34c.55,0,1.04-.17,1.49-.51l.29,.85c-.21,.19-.48,.34-.82,.45-.34,.11-.69,.17-1.04,.17-.5,0-.94-.1-1.31-.29s-.66-.48-.87-.83c-.2-.36-.3-.78-.3-1.26,0-.53,.11-1,.32-1.41s.5-.73,.88-.96c.37-.23,.8-.34,1.27-.34,.65,0,1.17,.19,1.55,.58Zm-2.34,.6c-.21,.21-.35,.52-.42,.93h2.28c0-.41-.08-.72-.27-.93-.18-.21-.43-.31-.75-.31-.35,0-.63,.1-.84,.31Z"/>
    <path class="cls-2" d="M144.34,225.03v1.05l-.79,.08c-.43,.04-.75,.16-.95,.35-.2,.2-.31,.5-.34,.9l-.21,2.64h-1.25l.38-4.88h1.2l-.06,.71c.35-.49,.91-.77,1.7-.83l.32-.02Z"/>
    <path class="cls-2" d="M149.67,225.16l-.35,4.39c-.07,.81-.32,1.41-.75,1.8s-1.05,.58-1.86,.58c-.89,0-1.66-.21-2.29-.63l.42-.88c.32,.19,.63,.33,.94,.42,.3,.09,.63,.13,.97,.13,.83,0,1.27-.43,1.33-1.29l.04-.49c-.16,.23-.38,.4-.64,.53-.27,.13-.57,.19-.91,.19-.42,0-.79-.09-1.11-.28-.32-.19-.56-.45-.74-.79s-.27-.74-.27-1.19c0-.5,.1-.95,.29-1.34,.2-.4,.47-.71,.83-.93s.76-.33,1.22-.33c.37,0,.68,.07,.95,.21,.27,.14,.48,.34,.63,.61l.05-.7h1.24Zm-1.76,3.35c.23-.28,.35-.67,.35-1.16,0-.44-.11-.78-.32-1.01-.21-.23-.52-.35-.92-.35s-.73,.14-.96,.43c-.23,.29-.35,.68-.35,1.18,0,.43,.11,.76,.33,.99,.22,.23,.52,.34,.92,.34s.73-.14,.96-.42Z"/>
    <path class="cls-2" d="M154.51,225.63c.38,.39,.57,.96,.57,1.71,0,.15,0,.32-.03,.5h-3.34c.02,.44,.14,.77,.37,1s.55,.34,.98,.34c.55,0,1.04-.17,1.49-.51l.29,.85c-.21,.19-.48,.34-.82,.45-.34,.11-.69,.17-1.04,.17-.5,0-.94-.1-1.31-.29s-.66-.48-.87-.83c-.2-.36-.3-.78-.3-1.26,0-.53,.11-1,.32-1.41s.5-.73,.88-.96c.37-.23,.8-.34,1.27-.34,.65,0,1.17,.19,1.55,.58Zm-2.34,.6c-.21,.21-.35,.52-.42,.93h2.28c0-.41-.08-.72-.27-.93-.18-.21-.43-.31-.75-.31-.35,0-.63,.1-.84,.31Z"/>
  </g>
  <g>
    <path class="cls-2" d="M278.45,223l-.56,7.05h-1.14l.36-4.63-2.12,3.49h-.86l-1.59-3.43-.36,4.57h-1.14l.55-7.05h1.03l2.03,4.57,2.79-4.57h1.01Z"/>
    <path class="cls-2" d="M283.25,225.63c.38,.39,.57,.96,.57,1.71,0,.15,0,.32-.03,.5h-3.34c.02,.44,.14,.77,.37,1s.55,.34,.98,.34c.55,0,1.04-.17,1.49-.51l.29,.85c-.21,.19-.48,.34-.82,.45-.34,.11-.69,.17-1.04,.17-.5,0-.94-.1-1.31-.29s-.66-.48-.87-.83c-.2-.36-.3-.78-.3-1.26,0-.53,.11-1,.32-1.41s.5-.73,.88-.96c.37-.23,.8-.34,1.27-.34,.65,0,1.17,.19,1.55,.58Zm-2.34,.6c-.21,.21-.35,.52-.42,.93h2.28c0-.41-.08-.72-.27-.93-.18-.21-.43-.31-.75-.31-.35,0-.63,.1-.84,.31Z"/>
    <path class="cls-2" d="M288.17,225.03v1.05l-.79,.08c-.43,.04-.75,.16-.95,.35-.2,.2-.31,.5-.34,.9l-.21,2.64h-1.25l.38-4.88h1.2l-.06,.71c.35-.49,.91-.77,1.7-.83l.32-.02Z"/>
    <path class="cls-2" d="M293.5,225.16l-.35,4.39c-.07,.81-.32,1.41-.75,1.8s-1.05,.58-1.86,.58c-.89,0-1.66-.21-2.29-.63l.42-.88c.32,.19,.63,.33,.94,.42,.3,.09,.63,.13,.97,.13,.83,0,1.27-.43,1.33-1.29l.04-.49c-.16,.23-.38,.4-.64,.53-.27,.13-.57,.19-.91,.19-.42,0-.79-.09-1.11-.28-.32-.19-.56-.45-.74-.79s-.27-.74-.27-1.19c0-.5,.1-.95,.29-1.34,.2-.4,.47-.71,.83-.93s.76-.33,1.22-.33c.37,0,.68,.07,.95,.21,.27,.14,.48,.34,.63,.61l.05-.7h1.24Zm-1.76,3.35c.23-.28,.35-.67,.35-1.16,0-.44-.11-.78-.32-1.01-.21-.23-.52-.35-.92-.35s-.73,.14-.96,.43c-.23,.29-.35,.68-.35,1.18,0,.43,.11,.76,.33,.99,.22,.23,.52,.34,.92,.34s.73-.14,.96-.42Z"/>
    <path class="cls-2" d="M298.34,225.63c.38,.39,.57,.96,.57,1.71,0,.15,0,.32-.03,.5h-3.34c.02,.44,.14,.77,.37,1s.55,.34,.98,.34c.55,0,1.04-.17,1.49-.51l.29,.85c-.21,.19-.48,.34-.82,.45-.34,.11-.69,.17-1.04,.17-.5,0-.94-.1-1.31-.29s-.66-.48-.87-.83c-.2-.36-.3-.78-.3-1.26,0-.53,.11-1,.32-1.41s.5-.73,.88-.96c.37-.23,.8-.34,1.27-.34,.65,0,1.17,.19,1.55,.58Zm-2.34,.6c-.21,.21-.35,.52-.42,.93h2.28c0-.41-.08-.72-.27-.93-.18-.21-.43-.31-.75-.31-.35,0-.63,.1-.84,.31Z"/>
  </g>
  <g>
    <path class="cls-2" d="M422.68,223l-.56,7.05h-1.14l.36-4.63-2.12,3.49h-.86l-1.59-3.43-.36,4.57h-1.14l.55-7.05h1.03l2.03,4.57,2.79-4.57h1.01Z"/>
    <path class="cls-2" d="M427.48,225.63c.38,.39,.57,.96,.57,1.71,0,.15,0,.32-.03,.5h-3.34c.02,.44,.14,.77,.37,1s.55,.34,.98,.34c.55,0,1.04-.17,1.49-.51l.29,.85c-.21,.19-.48,.34-.82,.45-.34,.11-.69,.17-1.04,.17-.5,0-.94-.1-1.31-.29s-.66-.48-.87-.83c-.2-.36-.3-.78-.3-1.26,0-.53,.11-1,.32-1.41s.5-.73,.88-.96c.37-.23,.8-.34,1.27-.34,.65,0,1.17,.19,1.55,.58Zm-2.34,.6c-.21,.21-.35,.52-.42,.93h2.28c0-.41-.08-.72-.27-.93-.18-.21-.43-.31-.75-.31-.35,0-.63,.1-.84,.31Z"/>
    <path class="cls-2" d="M432.4,225.03v1.05l-.79,.08c-.43,.04-.75,.16-.95,.35-.2,.2-.31,.5-.34,.9l-.21,2.64h-1.25l.38-4.88h1.2l-.06,.71c.35-.49,.91-.77,1.7-.83l.32-.02Z"/>
    <path class="cls-2" d="M437.73,225.16l-.35,4.39c-.07,.81-.32,1.41-.75,1.8s-1.05,.58-1.86,.58c-.89,0-1.66-.21-2.29-.63l.42-.88c.32,.19,.63,.33,.94,.42,.3,.09,.63,.13,.97,.13,.83,0,1.27-.43,1.33-1.29l.04-.49c-.16,.23-.38,.4-.64,.53-.27,.13-.57,.19-.91,.19-.42,0-.79-.09-1.11-.28-.32-.19-.56-.45-.74-.79s-.27-.74-.27-1.19c0-.5,.1-.95,.29-1.34,.2-.4,.47-.71,.83-.93s.76-.33,1.22-.33c.37,0,.68,.07,.95,.21,.27,.14,.48,.34,.63,.61l.05-.7h1.24Zm-1.76,3.35c.23-.28,.35-.67,.35-1.16,0-.44-.11-.78-.32-1.01-.21-.23-.52-.35-.92-.35s-.73,.14-.96,.43c-.23,.29-.35,.68-.35,1.18,0,.43,.11,.76,.33,.99,.22,.23,.52,.34,.92,.34s.73-.14,.96-.42Z"/>
    <path class="cls-2" d="M442.57,225.63c.38,.39,.57,.96,.57,1.71,0,.15,0,.32-.03,.5h-3.34c.02,.44,.14,.77,.37,1s.55,.34,.98,.34c.55,0,1.04-.17,1.49-.51l.29,.85c-.21,.19-.48,.34-.82,.45-.34,.11-.69,.17-1.04,.17-.5,0-.94-.1-1.31-.29s-.66-.48-.87-.83c-.2-.36-.3-.78-.3-1.26,0-.53,.11-1,.32-1.41s.5-.73,.88-.96c.37-.23,.8-.34,1.27-.34,.65,0,1.17,.19,1.55,.58Zm-2.34,.6c-.21,.21-.35,.52-.42,.93h2.28c0-.41-.08-.72-.27-.93-.18-.21-.43-.31-.75-.31-.35,0-.63,.1-.84,.31Z"/>
  </g>
</svg>