<?xml version="1.0" encoding="UTF-8"?>
<svg id="Layer_1" data-name="Layer 1" xmlns="http://www.w3.org/2000/svg" viewBox="0 0 451.11 205.21">
  <defs>
    <style>
      .cls-1 {
        fill: #008aab;
      }

      .cls-2 {
        fill: #fff;
      }
    </style>
  </defs>
  <g>
    <path class="cls-1" d="M33.96,39.15h-4.27l.24-3h12.25l-.24,3h-4.25l-.87,11.2h-3.75l.89-11.2Z"/>
    <path class="cls-1" d="M49,40.16l-.04,2.96-2.18,.22c-.75,.08-1.27,.27-1.55,.56-.28,.3-.46,.79-.52,1.47l-.38,4.98h-3.59l.79-9.89h3.43l-.12,1.27c.75-.91,1.88-1.42,3.39-1.53l.79-.04Z"/>
    <path class="cls-1" d="M57.71,41.16c.71,.64,1.06,1.62,1.06,2.95,0,.16-.01,.4-.04,.73l-.42,5.52h-3.36l.1-1.25c-.24,.44-.58,.79-1.03,1.04-.44,.25-.95,.37-1.53,.37-.66,0-1.25-.13-1.77-.39-.52-.26-.94-.61-1.24-1.06s-.45-.94-.45-1.49c0-.77,.19-1.38,.56-1.84,.38-.46,.97-.8,1.79-1.02,.82-.21,1.91-.32,3.26-.32h.73l.02-.14c.03-.5-.08-.86-.33-1.09-.25-.23-.67-.34-1.26-.34-.47,0-.99,.09-1.57,.27-.58,.18-1.12,.41-1.61,.7l-.73-2.36c.55-.36,1.26-.66,2.12-.89,.86-.23,1.7-.34,2.52-.34,1.42,0,2.49,.32,3.19,.96Zm-3.02,6.44c.32-.35,.49-.79,.53-1.33l.02-.22h-.54c-.79,0-1.36,.09-1.71,.26-.35,.17-.52,.46-.52,.87,0,.28,.1,.51,.29,.69,.19,.17,.45,.26,.78,.26,.46,0,.84-.17,1.16-.52Z"/>
    <path class="cls-1" d="M70.13,41.14c.56,.62,.85,1.54,.85,2.75,0,.3,0,.52-.02,.69l-.46,5.78h-3.59l.46-5.66c.04-.56-.05-1-.27-1.3s-.57-.45-1.04-.45c-.52,0-.93,.17-1.22,.51-.29,.34-.45,.8-.49,1.38l-.44,5.52h-3.59l.79-9.91h3.49l-.08,1.05c.35-.4,.79-.72,1.33-.95,.54-.23,1.13-.34,1.79-.34,1.1,0,1.93,.31,2.5,.94Z"/>
    <path class="cls-1" d="M74.18,50.22c-.77-.19-1.52-.49-2.28-.9l1.11-2.44c.55,.35,1.16,.63,1.83,.84,.67,.21,1.32,.31,1.93,.31,.42,0,.72-.05,.92-.16,.19-.11,.29-.24,.29-.4,0-.21-.13-.38-.4-.5-.27-.12-.71-.27-1.31-.44-.71-.19-1.31-.38-1.79-.58-.48-.2-.9-.5-1.26-.9-.36-.4-.53-.92-.53-1.56s.19-1.22,.56-1.71c.38-.5,.91-.88,1.59-1.16,.69-.27,1.47-.41,2.36-.41,.77,0,1.52,.1,2.27,.31,.75,.21,1.38,.5,1.9,.88l-1.09,2.34c-.5-.34-1.02-.59-1.56-.78-.54-.18-1.08-.27-1.6-.27-.43,0-.75,.05-.97,.15-.21,.1-.32,.24-.32,.41,0,.21,.14,.39,.41,.52,.27,.13,.72,.28,1.32,.44,.73,.2,1.33,.4,1.8,.6,.48,.2,.89,.5,1.25,.9,.36,.4,.53,.92,.53,1.56,0,1.02-.4,1.82-1.2,2.39-.8,.57-1.88,.86-3.25,.86-.91,0-1.75-.1-2.52-.29Z"/>
    <path class="cls-1" d="M91.72,40.77c.64,.38,1.13,.93,1.48,1.64,.35,.71,.52,1.56,.52,2.54,0,1.08-.2,2.04-.59,2.88-.4,.85-.95,1.5-1.67,1.97-.72,.47-1.55,.71-2.49,.71-1.25,0-2.23-.44-2.94-1.33l-.38,4.8h-3.59l1.09-13.54h3.53l-.08,1.07c.32-.42,.73-.74,1.23-.97,.5-.23,1.06-.34,1.69-.34,.83,0,1.57,.19,2.21,.57Zm-2.08,6.38c.36-.48,.53-1.13,.53-1.93s-.17-1.35-.5-1.76c-.34-.41-.81-.61-1.43-.61s-1.06,.24-1.42,.73-.53,1.12-.53,1.89,.16,1.39,.49,1.8c.33,.41,.8,.61,1.4,.61s1.1-.24,1.46-.73Z"/>
    <path class="cls-1" d="M95.76,40.44h3.59l-.79,9.91h-3.59l.79-9.91Zm4.05-4.96l-.26,3.24h-3.73l.24-3.24h3.75Z"/>
    <path class="cls-1" d="M101.77,36.15h3.59l-1.13,14.21h-3.59l1.13-14.21Z"/>
    <path class="cls-1" d="M114.81,41.16c.71,.64,1.06,1.62,1.06,2.95,0,.16-.01,.4-.04,.73l-.42,5.52h-3.36l.1-1.25c-.24,.44-.58,.79-1.03,1.04-.44,.25-.95,.37-1.53,.37-.66,0-1.25-.13-1.77-.39-.52-.26-.94-.61-1.24-1.06s-.45-.94-.45-1.49c0-.77,.19-1.38,.56-1.84,.38-.46,.97-.8,1.79-1.02,.82-.21,1.91-.32,3.26-.32h.73l.02-.14c.03-.5-.08-.86-.33-1.09-.25-.23-.67-.34-1.26-.34-.47,0-.99,.09-1.57,.27-.58,.18-1.12,.41-1.61,.7l-.73-2.36c.55-.36,1.26-.66,2.12-.89,.86-.23,1.7-.34,2.52-.34,1.42,0,2.49,.32,3.19,.96Zm-3.02,6.44c.32-.35,.49-.79,.53-1.33l.02-.22h-.54c-.79,0-1.36,.09-1.71,.26-.35,.17-.52,.46-.52,.87,0,.28,.1,.51,.29,.69,.19,.17,.45,.26,.78,.26,.46,0,.84-.17,1.16-.52Z"/>
    <path class="cls-1" d="M122.2,46.34l-.02,.28c0,.87,.48,1.31,1.43,1.31,.23,0,.54-.02,.93-.06l-.38,2.54c-.42,.07-.82,.1-1.21,.1-2.9,0-4.35-1.2-4.35-3.61,0-.25,0-.45,.02-.58l.26-3.24h-1.85l.2-2.64h1.85l.22-2.88h3.59l-.22,2.88h2.38l-.2,2.64h-2.38l-.26,3.26Z"/>
    <path class="cls-1" d="M126.37,40.44h3.59l-.79,9.91h-3.59l.79-9.91Zm4.05-4.96l-.26,3.24h-3.73l.24-3.24h3.75Z"/>
    <path class="cls-1" d="M133.72,49.91c-.82-.4-1.45-.98-1.89-1.72s-.67-1.61-.67-2.59c0-1.11,.23-2.08,.69-2.89,.46-.81,1.1-1.43,1.92-1.86,.83-.43,1.79-.65,2.89-.65s2.06,.2,2.88,.6c.82,.4,1.45,.97,1.89,1.71,.44,.74,.67,1.6,.67,2.58,0,1.13-.23,2.1-.68,2.91-.46,.81-1.1,1.43-1.92,1.86-.83,.43-1.79,.64-2.89,.64s-2.06-.2-2.88-.6Zm4.36-2.84c.32-.54,.47-1.22,.47-2.06,0-.74-.15-1.29-.45-1.64-.3-.36-.76-.53-1.38-.53-.71,0-1.23,.27-1.54,.8-.32,.53-.47,1.21-.47,2.03,0,.75,.15,1.31,.45,1.67,.3,.36,.76,.54,1.38,.54,.71,0,1.23-.27,1.54-.81Z"/>
    <path class="cls-1" d="M153.15,41.14c.56,.62,.85,1.54,.85,2.75,0,.3,0,.52-.02,.69l-.46,5.78h-3.59l.46-5.66c.04-.56-.05-1-.27-1.3s-.57-.45-1.04-.45c-.52,0-.93,.17-1.22,.51-.29,.34-.45,.8-.49,1.38l-.44,5.52h-3.59l.79-9.91h3.49l-.08,1.05c.35-.4,.79-.72,1.33-.95,.54-.23,1.14-.34,1.79-.34,1.1,0,1.93,.31,2.5,.94Z"/>
  </g>
  <g>
    <path class="cls-1" d="M358.44,82.83c.2,.3,.3,.64,.3,1.04,0,.64-.24,1.13-.71,1.48s-1.12,.52-1.92,.52h-3.53l.55-7.05h3.31c.77,0,1.37,.17,1.78,.5s.62,.76,.62,1.29c0,.39-.1,.71-.3,.98-.2,.27-.51,.49-.92,.65,.36,.11,.64,.31,.84,.6Zm-1.66,1.48c.17-.11,.25-.31,.25-.59,0-.25-.08-.43-.24-.55-.16-.12-.4-.18-.74-.18h-1.47l-.12,1.5h1.47c.39,0,.67-.06,.84-.17Zm.02-2.88c.16-.1,.25-.29,.25-.55,0-.23-.07-.4-.22-.51s-.39-.17-.72-.17h-1.29l-.11,1.38h1.28c.39,0,.66-.05,.82-.15Z"/>
    <path class="cls-1" d="M363.21,82.72l-.25,3.14h-1.84l.25-3.15-2.66-3.9h2.04l1.63,2.44,2-2.44h2.11l-3.28,3.91Z"/>
    <path class="cls-1" d="M368.17,80.3h-2.12l.12-1.49h6.08l-.12,1.49h-2.11l-.43,5.56h-1.86l.44-5.56Z"/>
    <path class="cls-1" d="M374.7,80.23l-.11,1.34h3.02l-.11,1.41h-3.02l-.12,1.46h3.23l-.12,1.42h-5.01l.56-7.05h5.02l-.12,1.42h-3.22Z"/>
    <path class="cls-1" d="M380.13,85.54c-.52-.28-.91-.67-1.19-1.18s-.42-1.11-.42-1.8c0-.77,.16-1.44,.47-2.02s.75-1.03,1.33-1.34,1.23-.47,1.99-.47c.47,0,.92,.07,1.33,.2,.42,.13,.79,.32,1.1,.57l-.67,1.31c-.29-.21-.56-.37-.83-.47-.27-.1-.55-.15-.84-.15-.64,0-1.13,.21-1.48,.63s-.52,1-.52,1.74c0,.63,.14,1.11,.41,1.44s.68,.5,1.21,.5,1.13-.2,1.82-.61l.47,1.3c-.24,.23-.58,.42-1,.56-.43,.14-.88,.21-1.33,.21-.71,0-1.32-.14-1.84-.42Z"/>
    <path class="cls-1" d="M386.79,85.54c-.53-.28-.93-.67-1.21-1.18s-.42-1.12-.42-1.81c0-.76,.15-1.43,.44-2.02,.29-.58,.71-1.03,1.25-1.35,.54-.32,1.17-.48,1.88-.48s1.32,.14,1.85,.42c.53,.28,.93,.67,1.21,1.19s.42,1.12,.42,1.81c0,.76-.15,1.43-.44,2.01-.3,.58-.71,1.03-1.25,1.35s-1.16,.48-1.87,.48-1.32-.14-1.85-.42Zm3.11-1.64c.31-.43,.47-1.02,.47-1.78,0-.63-.14-1.12-.43-1.47-.29-.35-.69-.52-1.2-.52-.55,0-.98,.22-1.29,.65s-.47,1.02-.47,1.78c0,.64,.14,1.13,.42,1.47s.69,.51,1.21,.51,.97-.21,1.28-.64Z"/>
    <path class="cls-1" d="M393.57,78.81h2.87c.71,0,1.32,.13,1.84,.41,.52,.27,.93,.65,1.21,1.15,.29,.5,.43,1.08,.43,1.75,0,.79-.16,1.46-.47,2.02-.31,.56-.76,.99-1.35,1.28-.59,.29-1.3,.44-2.12,.44h-2.96l.55-7.05Zm2.24,5.57c.78,0,1.36-.18,1.73-.54,.37-.36,.56-.94,.56-1.72,0-.59-.16-1.04-.49-1.36-.33-.31-.8-.46-1.42-.46h-.9l-.32,4.09h.84Z"/>
    <path class="cls-1" d="M402.99,80.23l-.11,1.34h3.02l-.11,1.41h-3.02l-.12,1.46h3.23l-.12,1.42h-5.01l.56-7.05h5.02l-.12,1.42h-3.22Z"/>
  </g>
  <g>
    <g>
      <path class="cls-1" d="M147.42,78.71l-.56,7.05h-1.8l.23-2.85h-2.87l-.23,2.85h-1.8l.56-7.05h1.8l-.22,2.74h2.87l.22-2.74h1.8Z"/>
      <path class="cls-1" d="M151.93,82.62l-.25,3.14h-1.84l.25-3.15-2.66-3.9h2.04l1.63,2.44,2-2.44h2.11l-3.28,3.91Z"/>
      <path class="cls-1" d="M155.2,78.71h2.87c.71,0,1.32,.13,1.84,.41,.52,.27,.93,.65,1.21,1.15,.29,.5,.43,1.08,.43,1.75,0,.79-.16,1.46-.47,2.02-.31,.56-.76,.99-1.35,1.28-.59,.29-1.3,.44-2.12,.44h-2.96l.55-7.05Zm2.24,5.57c.78,0,1.36-.18,1.73-.54,.37-.36,.56-.94,.56-1.72,0-.59-.16-1.04-.49-1.36-.33-.31-.8-.46-1.42-.46h-.9l-.32,4.09h.84Z"/>
      <path class="cls-1" d="M168.73,85.76h-1.99l-1.11-2.25c-.13-.26-.36-.39-.69-.39h-.55l-.2,2.64h-1.81l.55-7.05h3.43c.74,0,1.32,.19,1.73,.56,.41,.38,.62,.88,.62,1.5s-.15,1.13-.45,1.5c-.3,.37-.76,.6-1.38,.71,.19,.05,.35,.14,.48,.27,.13,.13,.25,.29,.36,.5l1.01,2Zm-2.74-4.02c.33,0,.58-.07,.75-.22s.25-.36,.25-.63-.07-.46-.21-.59-.36-.2-.67-.2h-1.49l-.12,1.64h1.49Z"/>
      <path class="cls-1" d="M174.23,84.3h-3.13l-.74,1.46h-1.88l3.84-7.05h1.46l2.75,7.05h-1.78l-.52-1.46Zm-.48-1.38l-.81-2.26-1.14,2.26h1.95Z"/>
    </g>
    <g>
      <g>
        <path class="cls-1" d="M173.89,101.44h-28.56c-.11,.29-.24,.57-.4,.84,.13,.71,.13,1.45-.02,2.16h28.97c3.71,0,6.73,3.02,6.73,6.73v46.75c0,3.71-3.02,6.73-6.73,6.73h-30.86c-3.71,0-6.73-3.02-6.73-6.73v-44.65c-.21,.02-.43,.04-.66,.04-.76,0-1.42-.15-2-.39-.11,.15-.22,.29-.35,.43v44.57c0,5.36,4.36,9.73,9.73,9.73h30.86c5.36,0,9.73-4.36,9.73-9.73v-46.75c0-5.36-4.36-9.73-9.73-9.73Z"/>
        <path class="cls-1" d="M145.71,116.62h-9.63c-1.12,0-2.13-.67-2.56-1.71-.43-1.04-.19-2.22,.6-3.02l9.63-9.63c.79-.8,1.98-1.03,3.02-.6,1.04,.43,1.71,1.43,1.71,2.56v9.63c0,1.53-1.24,2.77-2.77,2.77Zm-9.08-3h8.85v-8.85l-8.85,8.85Z"/>
      </g>
      <g>
        <rect class="cls-1" x="143.28" y="122.3" width="30.37" height="2"/>
        <rect class="cls-1" x="143.28" y="130.95" width="30.37" height="2"/>
        <rect class="cls-1" x="143.28" y="139.61" width="30.37" height="2"/>
        <rect class="cls-1" x="143.28" y="148.26" width="30.37" height="2"/>
      </g>
    </g>
  </g>
  <g>
    <g>
      <path class="cls-1" d="M49.29,80.23l-.11,1.34h3.02l-.11,1.41h-3.02l-.12,1.46h3.23l-.12,1.42h-5.01l.56-7.05h5.02l-.12,1.42h-3.22Z"/>
      <path class="cls-1" d="M59.02,86.14l.7,1.27-1.63,.71-.99-1.83c-.12-.22-.34-.33-.67-.34-.67,0-1.26-.15-1.75-.43-.5-.28-.88-.68-1.15-1.19-.27-.51-.41-1.1-.41-1.77,0-.76,.15-1.43,.44-2.02,.29-.58,.71-1.03,1.25-1.35,.54-.32,1.17-.48,1.88-.48s1.34,.14,1.86,.41,.93,.67,1.21,1.17c.28,.51,.42,1.12,.42,1.83,0,.79-.15,1.47-.46,2.06-.31,.59-.75,1.04-1.31,1.36,.25,.11,.46,.31,.62,.6Zm-1.15-2.25c.31-.43,.46-1.02,.46-1.78,0-.63-.14-1.12-.42-1.47s-.68-.52-1.21-.52c-.55,0-.98,.22-1.29,.65s-.47,1.02-.47,1.78c0,.64,.14,1.13,.42,1.47s.69,.51,1.21,.51,.98-.21,1.29-.64Z"/>
      <path class="cls-1" d="M61.55,78.81h1.84l-.45,5.56h3l-.11,1.49h-4.84l.56-7.05Z"/>
    </g>
    <g>
      <g>
        <path class="cls-1" d="M71.92,101.44h-28.56c-.11,.29-.24,.57-.4,.84,.13,.71,.13,1.45-.02,2.16h28.97c3.71,0,6.73,3.02,6.73,6.73v46.75c0,3.71-3.02,6.73-6.73,6.73h-30.86c-3.71,0-6.73-3.02-6.73-6.73v-44.65c-.21,.02-.43,.04-.66,.04-.76,0-1.42-.15-2-.39-.11,.15-.22,.29-.35,.43v44.57c0,5.36,4.36,9.73,9.73,9.73h30.86c5.36,0,9.73-4.36,9.73-9.73v-46.75c0-5.36-4.36-9.73-9.73-9.73Z"/>
        <path class="cls-1" d="M43.74,116.62h-9.63c-1.12,0-2.13-.67-2.56-1.71-.43-1.04-.19-2.22,.6-3.02l9.63-9.63c.79-.8,1.98-1.03,3.02-.6,1.04,.43,1.71,1.43,1.71,2.56v9.63c0,1.53-1.24,2.77-2.77,2.77Zm-9.08-3h8.85v-8.85l-8.85,8.85Z"/>
      </g>
      <g>
        <rect class="cls-1" x="41.31" y="122.3" width="30.37" height="2"/>
        <rect class="cls-1" x="41.31" y="130.95" width="30.37" height="2"/>
        <rect class="cls-1" x="41.31" y="139.61" width="30.37" height="2"/>
        <rect class="cls-1" x="41.31" y="148.26" width="30.37" height="2"/>
      </g>
    </g>
  </g>
  <g>
    <g>
      <path class="cls-1" d="M245.21,85.73c-.51-.14-.96-.33-1.33-.56l.68-1.3c.71,.44,1.48,.66,2.31,.66,.38,0,.67-.05,.87-.15,.2-.1,.3-.25,.3-.44,0-.21-.11-.37-.33-.48-.22-.12-.56-.24-1.02-.38-.49-.15-.9-.29-1.21-.43-.31-.14-.58-.35-.81-.62-.23-.28-.34-.63-.34-1.08s.12-.84,.38-1.18,.61-.6,1.07-.79c.46-.18,1-.27,1.61-.27,.51,0,1,.07,1.47,.21,.47,.14,.84,.33,1.12,.56l-.66,1.3c-.29-.21-.61-.37-.96-.48-.35-.12-.69-.18-1.03-.18-.36,0-.64,.06-.85,.18-.21,.12-.32,.28-.32,.48s.11,.38,.33,.49,.56,.24,1.04,.38c.49,.15,.88,.29,1.2,.42,.31,.14,.58,.34,.8,.61s.34,.62,.34,1.05c0,.71-.27,1.25-.8,1.63-.53,.38-1.29,.58-2.27,.58-.54,0-1.07-.07-1.58-.21Z"/>
      <path class="cls-1" d="M252.43,85.52c-.52-.28-.91-.67-1.19-1.18s-.42-1.11-.42-1.8c0-.77,.16-1.44,.47-2.02s.75-1.03,1.33-1.34,1.23-.47,1.99-.47c.47,0,.92,.07,1.33,.2,.42,.13,.79,.32,1.1,.57l-.67,1.31c-.29-.21-.56-.37-.83-.47-.27-.1-.55-.15-.84-.15-.64,0-1.13,.21-1.48,.63s-.52,1-.52,1.74c0,.63,.14,1.11,.41,1.44s.68,.5,1.21,.5,1.13-.2,1.82-.61l.47,1.3c-.24,.23-.58,.42-1,.56-.43,.14-.88,.21-1.33,.21-.71,0-1.32-.14-1.84-.42Z"/>
      <path class="cls-1" d="M262.33,84.39h-3.13l-.74,1.46h-1.88l3.84-7.05h1.46l2.75,7.05h-1.78l-.52-1.46Zm-.48-1.38l-.81-2.26-1.14,2.26h1.95Z"/>
      <path class="cls-1" d="M265.61,78.8h1.84l-.45,5.56h3l-.11,1.49h-4.84l.56-7.05Z"/>
      <path class="cls-1" d="M275.7,84.39h-3.13l-.74,1.46h-1.88l3.84-7.05h1.46l2.75,7.05h-1.78l-.52-1.46Zm-.48-1.38l-.81-2.26-1.14,2.26h1.95Z"/>
    </g>
    <g>
      <g>
        <path class="cls-1" d="M276.37,101.44h-28.56c-.11,.29-.24,.57-.4,.84,.13,.71,.13,1.45-.02,2.16h28.97c3.71,0,6.73,3.02,6.73,6.73v46.75c0,3.71-3.02,6.73-6.73,6.73h-30.86c-3.71,0-6.73-3.02-6.73-6.73v-44.65c-.21,.02-.43,.04-.66,.04-.76,0-1.42-.15-2-.39-.11,.15-.22,.29-.35,.43v44.57c0,5.36,4.36,9.73,9.73,9.73h30.86c5.36,0,9.73-4.36,9.73-9.73v-46.75c0-5.36-4.36-9.73-9.73-9.73Z"/>
        <path class="cls-1" d="M248.18,116.62h-9.63c-1.12,0-2.13-.67-2.56-1.71-.43-1.04-.19-2.22,.6-3.02l9.63-9.63c.79-.8,1.98-1.03,3.02-.6,1.04,.43,1.71,1.43,1.71,2.56v9.63c0,1.53-1.24,2.77-2.77,2.77Zm-9.08-3h8.85v-8.85l-8.85,8.85Z"/>
      </g>
      <g>
        <rect class="cls-1" x="245.75" y="122.3" width="30.37" height="2"/>
        <rect class="cls-1" x="245.75" y="130.95" width="30.37" height="2"/>
        <rect class="cls-1" x="245.75" y="139.61" width="30.37" height="2"/>
        <rect class="cls-1" x="245.75" y="148.26" width="30.37" height="2"/>
      </g>
    </g>
  </g>
  <g>
    <rect class="cls-1" x="93.68" y="133.05" width="12.83" height="3"/>
    <polygon class="cls-1" points="103.54 138.91 119.8 134.55 103.54 130.19 103.54 138.91"/>
  </g>
  <g>
    <rect class="cls-1" x="196.71" y="133.05" width="12.83" height="3"/>
    <polygon class="cls-1" points="206.57 138.91 222.83 134.55 206.57 130.19 206.57 138.91"/>
  </g>
  <g>
    <rect class="cls-1" x="298.85" y="133.05" width="12.83" height="3"/>
    <polygon class="cls-1" points="308.71 138.91 324.97 134.55 308.71 130.19 308.71 138.91"/>
  </g>
  <g>
    <g>
      <g>
        <g>
          <g>
            <path class="cls-1" d="M383.19,111.14v-.44h1.32v-3.4l-1.04,.51-.29-.39,1.51-.75h.48v4.03h1.23v.44h-3.22Z"/>
            <polygon class="cls-1" points="386.91 111.64 382.69 111.64 382.69 110.19 384.01 110.19 384.01 108.09 383.32 108.43 382.43 107.22 384.58 106.16 385.68 106.16 385.68 110.19 386.91 110.19 386.91 111.64"/>
          </g>
          <g>
            <path class="cls-1" d="M391.17,111.19c-.66,0-1.16-.2-1.5-.59-.34-.39-.51-.96-.51-1.71s.17-1.32,.51-1.71c.34-.39,.84-.58,1.5-.58s1.17,.19,1.51,.58,.51,.96,.51,1.7-.17,1.32-.52,1.71c-.35,.39-.85,.59-1.5,.59Zm0-.45c.46,0,.8-.15,1.02-.45,.22-.3,.33-.77,.33-1.4s-.11-1.1-.33-1.39c-.22-.29-.56-.44-1.02-.44s-.8,.15-1.02,.44c-.22,.3-.33,.76-.33,1.39s.11,1.1,.33,1.4c.22,.3,.56,.45,1.02,.45Z"/>
            <path class="cls-1" d="M391.17,111.69c-.81,0-1.44-.26-1.88-.76-.42-.49-.64-1.17-.64-2.04s.21-1.56,.64-2.04c.44-.5,1.07-.75,1.88-.75s1.44,.25,1.88,.75c.42,.48,.64,1.16,.64,2.04s-.22,1.56-.64,2.04c-.44,.5-1.07,.76-1.88,.76Zm0-4.14c-.39,0-.54,.14-.62,.24-.11,.14-.23,.45-.23,1.09s.13,.96,.23,1.11c.08,.11,.23,.25,.61,.25s.54-.14,.61-.25c.11-.15,.23-.46,.23-1.11s-.12-.96-.23-1.1c-.08-.1-.22-.24-.62-.24Z"/>
          </g>
          <g>
            <path class="cls-1" d="M396.27,111.14v-.44h1.32v-3.4l-1.04,.51-.29-.39,1.51-.75h.48v4.03h1.23v.44h-3.22Z"/>
            <polygon class="cls-1" points="399.99 111.64 395.77 111.64 395.77 110.19 397.09 110.19 397.09 108.09 396.4 108.43 395.51 107.23 397.66 106.16 398.76 106.16 398.76 110.19 399.99 110.19 399.99 111.64"/>
          </g>
          <g>
            <path class="cls-1" d="M402.81,111.14v-.44h1.32v-3.4l-1.04,.51-.29-.39,1.51-.75h.48v4.03h1.23v.44h-3.22Z"/>
            <polygon class="cls-1" points="406.53 111.64 402.31 111.64 402.31 110.19 403.63 110.19 403.63 108.09 402.94 108.43 402.05 107.23 404.2 106.16 405.3 106.16 405.3 110.19 406.53 110.19 406.53 111.64"/>
          </g>
          <g>
            <path class="cls-1" d="M383.19,124.36v-.44h1.32v-3.4l-1.04,.51-.29-.39,1.51-.75h.48v4.03h1.23v.44h-3.22Z"/>
            <polygon class="cls-1" points="386.91 124.86 382.69 124.86 382.69 123.42 384.01 123.42 384.01 121.32 383.32 121.66 382.43 120.45 384.58 119.39 385.68 119.39 385.68 123.42 386.91 123.42 386.91 124.86"/>
          </g>
          <g>
            <path class="cls-1" d="M391.17,124.42c-.66,0-1.16-.2-1.5-.59-.34-.39-.51-.96-.51-1.71s.17-1.32,.51-1.71c.34-.39,.84-.58,1.5-.58s1.17,.19,1.51,.58,.51,.96,.51,1.7-.17,1.32-.52,1.71c-.35,.39-.85,.59-1.5,.59Zm0-.45c.46,0,.8-.15,1.02-.45,.22-.3,.33-.77,.33-1.4s-.11-1.1-.33-1.39c-.22-.29-.56-.44-1.02-.44s-.8,.15-1.02,.44c-.22,.3-.33,.76-.33,1.39s.11,1.1,.33,1.4c.22,.3,.56,.45,1.02,.45Z"/>
            <path class="cls-1" d="M391.17,124.92c-.81,0-1.44-.26-1.88-.76-.42-.49-.64-1.17-.64-2.04s.21-1.56,.64-2.04c.44-.5,1.07-.75,1.88-.75s1.45,.25,1.88,.75c.42,.48,.64,1.16,.64,2.03s-.22,1.56-.64,2.04c-.44,.5-1.07,.76-1.88,.76Zm0-4.14c-.39,0-.54,.14-.62,.24-.11,.14-.23,.45-.23,1.09s.13,.96,.23,1.11c.08,.11,.23,.25,.61,.25s.54-.14,.61-.25c.11-.15,.23-.46,.23-1.11s-.12-.96-.23-1.1c-.08-.1-.22-.24-.62-.24Z"/>
          </g>
          <g>
            <path class="cls-1" d="M396.27,124.36v-.44h1.32v-3.4l-1.04,.51-.29-.39,1.51-.75h.48v4.03h1.23v.44h-3.22Z"/>
            <polygon class="cls-1" points="399.99 124.86 395.77 124.86 395.77 123.42 397.09 123.42 397.09 121.32 396.4 121.66 395.51 120.45 397.66 119.39 398.76 119.39 398.76 123.42 399.99 123.42 399.99 124.86"/>
          </g>
          <g>
            <path class="cls-1" d="M404.25,124.42c-.66,0-1.16-.2-1.5-.59-.34-.39-.51-.96-.51-1.71s.17-1.32,.51-1.71c.34-.39,.84-.58,1.5-.58s1.17,.19,1.51,.58,.51,.96,.51,1.7-.17,1.32-.52,1.71c-.35,.39-.85,.59-1.5,.59Zm0-.45c.46,0,.8-.15,1.02-.45,.22-.3,.33-.77,.33-1.4s-.11-1.1-.33-1.39c-.22-.29-.56-.44-1.02-.44s-.8,.15-1.02,.44c-.22,.3-.33,.76-.33,1.39s.11,1.1,.33,1.4c.22,.3,.56,.45,1.02,.45Z"/>
            <path class="cls-1" d="M404.25,124.92c-.81,0-1.44-.26-1.88-.76-.42-.49-.64-1.17-.64-2.04s.21-1.56,.64-2.04c.44-.5,1.07-.75,1.88-.75s1.45,.25,1.88,.75c.42,.48,.63,1.16,.63,2.03s-.22,1.56-.64,2.04c-.44,.5-1.07,.76-1.87,.76Zm0-4.14c-.39,0-.54,.14-.62,.24-.11,.14-.23,.45-.23,1.09s.13,.96,.23,1.11c.08,.11,.23,.25,.62,.25s.54-.14,.61-.25c.11-.15,.24-.46,.24-1.11s-.12-.96-.23-1.1c-.08-.1-.22-.24-.62-.24Z"/>
          </g>
          <g>
            <path class="cls-1" d="M384.63,137.65c-.66,0-1.16-.2-1.5-.59-.34-.39-.51-.96-.51-1.71s.17-1.32,.51-1.71c.34-.39,.84-.58,1.5-.58s1.17,.19,1.51,.58,.51,.96,.51,1.7-.17,1.32-.52,1.71c-.35,.39-.85,.59-1.5,.59Zm0-.45c.46,0,.8-.15,1.02-.45,.22-.3,.33-.77,.33-1.4s-.11-1.1-.33-1.39c-.22-.29-.56-.44-1.02-.44s-.8,.15-1.02,.44c-.22,.3-.33,.76-.33,1.39s.11,1.1,.33,1.4c.22,.3,.56,.45,1.02,.45Z"/>
            <path class="cls-1" d="M384.63,138.15c-.81,0-1.44-.26-1.88-.76-.42-.49-.64-1.17-.64-2.04s.21-1.56,.64-2.04c.44-.5,1.07-.75,1.88-.75s1.45,.25,1.88,.75c.42,.48,.64,1.17,.64,2.04s-.22,1.56-.64,2.04c-.44,.5-1.07,.76-1.88,.76Zm0-4.14c-.39,0-.54,.14-.62,.24-.11,.14-.23,.45-.23,1.09s.13,.96,.23,1.11c.08,.11,.23,.25,.61,.25s.54-.14,.61-.25c.11-.15,.23-.46,.23-1.11s-.12-.96-.23-1.1c-.08-.1-.22-.24-.62-.24Z"/>
          </g>
          <g>
            <path class="cls-1" d="M389.73,137.59v-.44h1.32v-3.4l-1.04,.51-.29-.39,1.51-.75h.48v4.03h1.23v.44h-3.22Z"/>
            <polygon class="cls-1" points="393.45 138.09 389.23 138.09 389.23 136.65 390.55 136.65 390.55 134.54 389.86 134.88 388.97 133.68 391.12 132.62 392.22 132.62 392.22 136.65 393.45 136.65 393.45 138.09"/>
          </g>
          <g>
            <path class="cls-1" d="M397.71,137.65c-.66,0-1.16-.2-1.5-.59-.34-.39-.51-.96-.51-1.71s.17-1.32,.51-1.71c.34-.39,.84-.58,1.5-.58s1.17,.19,1.51,.58,.51,.96,.51,1.7-.17,1.32-.52,1.71c-.35,.39-.85,.59-1.5,.59Zm0-.45c.46,0,.8-.15,1.02-.45,.22-.3,.33-.77,.33-1.4s-.11-1.1-.33-1.39c-.22-.29-.56-.44-1.02-.44s-.8,.15-1.02,.44c-.22,.3-.33,.76-.33,1.39s.11,1.1,.33,1.4c.22,.3,.56,.45,1.02,.45Z"/>
            <path class="cls-1" d="M397.71,138.15c-.81,0-1.44-.26-1.88-.76-.42-.49-.64-1.17-.64-2.04s.21-1.56,.64-2.04c.44-.5,1.07-.75,1.88-.75s1.45,.25,1.88,.75c.42,.48,.64,1.16,.64,2.04s-.22,1.56-.64,2.04c-.45,.5-1.08,.76-1.88,.76Zm0-4.14c-.39,0-.54,.14-.62,.24-.11,.14-.23,.45-.23,1.09s.13,.96,.23,1.11c.08,.11,.23,.25,.61,.25s.54-.14,.61-.25c.11-.15,.23-.46,.23-1.11s-.12-.96-.23-1.1c-.08-.1-.22-.24-.62-.24Z"/>
          </g>
          <g>
            <path class="cls-1" d="M402.81,137.59v-.44h1.32v-3.4l-1.04,.51-.29-.39,1.51-.75h.48v4.03h1.23v.44h-3.22Z"/>
            <polygon class="cls-1" points="406.53 138.09 402.31 138.09 402.31 136.65 403.63 136.65 403.63 134.54 402.94 134.88 402.05 133.68 404.2 132.62 405.3 132.62 405.3 136.65 406.53 136.65 406.53 138.09"/>
          </g>
          <g>
            <path class="cls-2" d="M384.63,150.88c-.66,0-1.16-.2-1.5-.59-.34-.39-.51-.96-.51-1.71s.17-1.32,.51-1.71c.34-.39,.84-.58,1.5-.58s1.17,.19,1.51,.58,.51,.96,.51,1.7-.17,1.32-.52,1.71-.85,.59-1.5,.59Zm0-.45c.46,0,.8-.15,1.02-.45s.33-.77,.33-1.4-.11-1.1-.33-1.39c-.22-.29-.56-.44-1.02-.44s-.8,.15-1.02,.44c-.22,.3-.33,.76-.33,1.39s.11,1.1,.33,1.4,.56,.45,1.02,.45Z"/>
            <path class="cls-1" d="M384.63,151.38c-.81,0-1.44-.26-1.88-.76-.42-.49-.64-1.17-.64-2.04s.22-1.56,.64-2.04c.44-.5,1.07-.75,1.88-.75s1.45,.25,1.88,.75c.42,.48,.64,1.16,.64,2.03s-.22,1.56-.64,2.04c-.44,.5-1.07,.76-1.88,.76Zm0-4.14c-.39,0-.54,.14-.62,.24-.11,.14-.23,.45-.23,1.09s.13,.96,.23,1.11c.08,.11,.23,.25,.61,.25s.54-.14,.61-.25c.11-.15,.23-.46,.23-1.11s-.12-.96-.23-1.1c-.08-.1-.22-.24-.62-.24Z"/>
          </g>
          <g>
            <path class="cls-1" d="M391.17,150.88c-.66,0-1.16-.2-1.5-.59-.34-.39-.51-.96-.51-1.71s.17-1.32,.51-1.71c.34-.39,.84-.58,1.5-.58s1.17,.19,1.51,.58,.51,.96,.51,1.7-.17,1.32-.52,1.71-.85,.59-1.5,.59Zm0-.45c.46,0,.8-.15,1.02-.45s.33-.77,.33-1.4-.11-1.1-.33-1.39c-.22-.29-.56-.44-1.02-.44s-.8,.15-1.02,.44c-.22,.3-.33,.76-.33,1.39s.11,1.1,.33,1.4,.56,.45,1.02,.45Z"/>
            <path class="cls-1" d="M391.17,151.38c-.81,0-1.44-.26-1.88-.76-.42-.49-.64-1.17-.64-2.04s.22-1.56,.64-2.04c.44-.5,1.07-.75,1.88-.75s1.45,.25,1.88,.75c.42,.48,.64,1.16,.64,2.03s-.22,1.56-.64,2.04c-.44,.5-1.07,.76-1.88,.76Zm0-4.14c-.39,0-.54,.14-.62,.24-.11,.14-.23,.45-.23,1.09s.13,.96,.23,1.11c.08,.11,.23,.25,.62,.25s.54-.14,.61-.25c.11-.15,.23-.46,.23-1.11s-.12-.96-.23-1.1c-.08-.1-.22-.24-.62-.24Z"/>
          </g>
          <g>
            <path class="cls-1" d="M397.71,150.88c-.66,0-1.16-.2-1.5-.59-.34-.39-.51-.96-.51-1.71s.17-1.32,.51-1.71c.34-.39,.84-.58,1.5-.58s1.17,.19,1.51,.58,.51,.96,.51,1.7-.17,1.32-.52,1.71-.85,.59-1.5,.59Zm0-.45c.46,0,.8-.15,1.02-.45s.33-.77,.33-1.4-.11-1.1-.33-1.39c-.22-.29-.56-.44-1.02-.44s-.8,.15-1.02,.44c-.22,.3-.33,.76-.33,1.39s.11,1.1,.33,1.4,.56,.45,1.02,.45Z"/>
            <path class="cls-1" d="M397.71,151.38c-.81,0-1.44-.26-1.88-.76-.42-.49-.64-1.17-.64-2.04s.21-1.56,.64-2.04c.44-.5,1.07-.75,1.88-.75s1.45,.25,1.88,.75c.42,.48,.63,1.16,.63,2.03s-.22,1.56-.64,2.04c-.45,.5-1.08,.76-1.88,.76Zm0-4.14c-.39,0-.54,.14-.62,.24-.11,.14-.23,.45-.23,1.09s.13,.96,.23,1.11c.08,.11,.23,.25,.61,.25s.54-.14,.61-.25c.11-.15,.23-.46,.23-1.11s-.12-.96-.23-1.1c-.08-.1-.22-.24-.62-.24Z"/>
          </g>
          <g>
            <path class="cls-1" d="M404.25,150.88c-.66,0-1.16-.2-1.5-.59-.34-.39-.51-.96-.51-1.71s.17-1.32,.51-1.71c.34-.39,.84-.58,1.5-.58s1.17,.19,1.51,.58,.51,.96,.51,1.7-.17,1.32-.52,1.71-.85,.59-1.5,.59Zm0-.45c.46,0,.8-.15,1.02-.45,.22-.3,.33-.77,.33-1.4s-.11-1.1-.33-1.39c-.22-.29-.56-.44-1.02-.44s-.8,.15-1.02,.44c-.22,.3-.33,.76-.33,1.39s.11,1.1,.33,1.4,.56,.45,1.02,.45Z"/>
            <path class="cls-1" d="M404.25,151.38c-.81,0-1.44-.26-1.88-.76-.42-.49-.64-1.17-.64-2.04s.21-1.56,.64-2.04c.44-.5,1.07-.75,1.88-.75s1.45,.25,1.88,.75c.42,.48,.63,1.16,.63,2.03s-.22,1.56-.64,2.04c-.44,.5-1.07,.76-1.87,.76Zm0-4.14c-.39,0-.54,.14-.62,.24-.11,.14-.23,.45-.23,1.09s.13,.96,.23,1.11c.08,.11,.23,.25,.62,.25s.54-.14,.61-.25c.11-.15,.24-.46,.24-1.11s-.12-.96-.23-1.1c-.08-.1-.22-.24-.62-.24Z"/>
          </g>
          <g>
            <path class="cls-1" d="M384.63,164.1c-.66,0-1.16-.2-1.5-.59-.34-.39-.51-.96-.51-1.71s.17-1.32,.51-1.71c.34-.39,.84-.58,1.5-.58s1.17,.19,1.51,.58,.51,.96,.51,1.7-.17,1.32-.52,1.71-.85,.59-1.5,.59Zm0-.45c.46,0,.8-.15,1.02-.45s.33-.77,.33-1.4-.11-1.1-.33-1.39c-.22-.29-.56-.44-1.02-.44s-.8,.15-1.02,.44c-.22,.3-.33,.76-.33,1.39s.11,1.1,.33,1.4,.56,.45,1.02,.45Z"/>
            <path class="cls-1" d="M384.63,164.6c-.81,0-1.44-.26-1.88-.76-.42-.49-.64-1.17-.64-2.04s.21-1.56,.64-2.04c.44-.5,1.07-.75,1.88-.75s1.45,.25,1.88,.75c.42,.48,.64,1.16,.64,2.04s-.22,1.56-.64,2.04c-.44,.5-1.08,.76-1.88,.76Zm0-4.14c-.39,0-.54,.14-.62,.24-.11,.14-.23,.45-.23,1.09s.13,.96,.23,1.11c.08,.11,.23,.25,.61,.25s.54-.14,.61-.25c.11-.15,.23-.46,.23-1.11s-.12-.96-.23-1.1c-.08-.1-.22-.24-.62-.24Z"/>
          </g>
          <g>
            <path class="cls-1" d="M389.73,164.05v-.44h1.32v-3.4l-1.04,.51-.29-.39,1.51-.75h.48v4.03h1.23v.44h-3.22Z"/>
            <polygon class="cls-1" points="393.45 164.55 389.23 164.55 389.23 163.1 390.55 163.1 390.55 161 389.86 161.34 388.97 160.14 391.12 159.07 392.22 159.07 392.22 163.1 393.45 163.1 393.45 164.55"/>
          </g>
          <g>
            <path class="cls-1" d="M396.27,164.05v-.44h1.32v-3.4l-1.04,.51-.29-.39,1.51-.75h.48v4.03h1.23v.44h-3.22Z"/>
            <polygon class="cls-1" points="399.99 164.55 395.77 164.55 395.77 163.1 397.09 163.1 397.09 161 396.4 161.34 395.51 160.14 397.66 159.07 398.76 159.07 398.76 163.1 399.99 163.1 399.99 164.55"/>
          </g>
          <g>
            <path class="cls-1" d="M404.25,164.1c-.66,0-1.16-.2-1.5-.59-.34-.39-.51-.96-.51-1.71s.17-1.32,.51-1.71c.34-.39,.84-.58,1.5-.58s1.17,.19,1.51,.58,.51,.96,.51,1.7-.17,1.32-.52,1.71-.85,.59-1.5,.59Zm0-.45c.46,0,.8-.15,1.02-.45,.22-.3,.33-.77,.33-1.4s-.11-1.1-.33-1.39c-.22-.29-.56-.44-1.02-.44s-.8,.15-1.02,.44c-.22,.3-.33,.76-.33,1.39s.11,1.1,.33,1.4,.56,.45,1.02,.45Z"/>
            <path class="cls-1" d="M404.25,164.6c-.81,0-1.44-.26-1.88-.76-.42-.49-.64-1.17-.64-2.04s.21-1.56,.64-2.04c.44-.5,1.07-.75,1.88-.75s1.44,.25,1.88,.75c.42,.48,.64,1.17,.64,2.04s-.22,1.56-.64,2.04c-.44,.5-1.07,.76-1.87,.76Zm0-4.14c-.39,0-.54,.14-.62,.24-.11,.14-.23,.45-.23,1.09s.13,.96,.23,1.11c.08,.11,.23,.25,.62,.25s.54-.14,.61-.25c.11-.15,.24-.46,.24-1.11s-.12-.96-.23-1.1c-.08-.1-.22-.24-.62-.24Z"/>
          </g>
        </g>
        <path class="cls-1" d="M353.64,116.89h-5.46c-.55,0-1-.45-1-1s.45-1,1-1h5.46c.55,0,1,.45,1,1s-.45,1-1,1Z"/>
        <g>
          <path class="cls-1" d="M353.42,123.42h-5.46c-.55,0-1-.45-1-1s.45-1,1-1h5.46c.55,0,1,.45,1,1s-.45,1-1,1Z"/>
          <path class="cls-1" d="M357.63,123.42c-.26,0-.52-.11-.7-.29-.09-.1-.17-.2-.22-.33-.05-.12-.07-.25-.07-.38,0-.06,0-.13,.02-.19,.01-.07,.03-.13,.05-.19,.03-.06,.06-.12,.09-.17,.04-.06,.08-.11,.13-.16,.37-.37,1.04-.37,1.41,0,.05,.05,.09,.1,.13,.16,.03,.05,.06,.11,.09,.17,.02,.06,.04,.12,.06,.19,.01,.06,.02,.13,.02,.19,0,.13-.03,.26-.08,.38-.05,.13-.12,.23-.22,.33-.09,.09-.2,.16-.32,.22-.12,.05-.25,.07-.39,.07Z"/>
          <path class="cls-1" d="M367.16,123.42h-5.46c-.55,0-1-.45-1-1s.45-1,1-1h5.46c.55,0,1,.45,1,1s-.45,1-1,1Z"/>
        </g>
        <g>
          <path class="cls-1" d="M363.27,129.95h-11.41c-.55,0-1-.45-1-1s.45-1,1-1h11.41c.55,0,1,.45,1,1s-.45,1-1,1Z"/>
          <path class="cls-1" d="M367.16,129.95c-.26,0-.52-.11-.7-.29-.1-.1-.17-.2-.22-.33-.05-.12-.08-.25-.08-.38,0-.26,.11-.52,.3-.71,.27-.28,.72-.36,1.09-.21,.12,.05,.23,.12,.32,.21,.19,.19,.29,.45,.29,.71,0,.13-.02,.26-.07,.38-.05,.13-.13,.23-.22,.33-.09,.09-.2,.16-.32,.21-.13,.05-.26,.08-.39,.08Z"/>
        </g>
        <path class="cls-1" d="M367.41,136.48h-11.41c-.55,0-1-.45-1-1s.45-1,1-1h11.41c.55,0,1,.45,1,1s-.45,1-1,1Z"/>
        <g>
          <path class="cls-1" d="M362.83,143.01h-11.41c-.55,0-1-.45-1-1s.45-1,1-1h11.41c.55,0,1,.45,1,1s-.45,1-1,1Z"/>
          <path class="cls-1" d="M366.72,143.01c-.13,0-.26-.02-.38-.07-.12-.06-.23-.13-.32-.22-.19-.19-.3-.45-.3-.71,0-.13,.03-.26,.08-.38s.12-.23,.22-.33c.09-.09,.2-.16,.32-.21,.37-.15,.81-.07,1.09,.21,.09,.1,.17,.21,.22,.33,.05,.12,.07,.25,.07,.38,0,.26-.1,.52-.29,.71-.19,.18-.44,.29-.71,.29Z"/>
        </g>
        <path class="cls-1" d="M367.41,149.54h-11.41c-.55,0-1-.45-1-1s.45-1,1-1h11.41c.55,0,1,.45,1,1s-.45,1-1,1Z"/>
        <path class="cls-1" d="M353.64,156.07h-5.46c-.55,0-1-.45-1-1s.45-1,1-1h5.46c.55,0,1,.45,1,1s-.45,1-1,1Z"/>
      </g>
      <path class="cls-1" d="M413.46,106.99h-2.53v2.59h2.53c3.2,0,5.8,2.6,5.8,5.8v40.34c0,3.2-2.6,5.8-5.8,5.8h-2.53v2.59h2.53c4.63,0,8.39-3.76,8.39-8.39v-40.34c0-4.63-3.76-8.39-8.39-8.39Z"/>
      <path class="cls-1" d="M345.43,163.9h2.53v-2.59h-2.53c-3.2,0-5.8-2.6-5.8-5.8v-40.34c0-3.2,2.6-5.8,5.8-5.8h2.53v-2.59h-2.53c-4.63,0-8.39,3.76-8.39,8.39v40.34c0,4.63,3.76,8.39,8.39,8.39Z"/>
    </g>
    <rect class="cls-1" x="345.65" y="106.78" width="32.82" height="2.54"/>
    <rect class="cls-1" x="345.65" y="161.37" width="32.82" height="2.54"/>
  </g>
</svg>