<?xml version="1.0" encoding="UTF-8"?>
<svg width="323px" height="243px" viewBox="0 0 323 243" version="1.1" xmlns="http://www.w3.org/2000/svg" xmlns:xlink="http://www.w3.org/1999/xlink">
    <title>FPO Image</title>
    <g id="Page-1" stroke="none" stroke-width="1" fill="none" fill-rule="evenodd">
        <g id="Landing" transform="translate(-1150.000000, -652.000000)">
            <g id="Header" transform="translate(0.000000, 1.000000)">
                <g id="FPO-Image" transform="translate(1151.000000, 652.000000)">
                    <rect id="Rectangle" stroke-opacity="0.2" stroke="#008099" fill-opacity="0.0464456198" fill="#008099" x="0" y="0" width="320" height="240" rx="2"></rect>
                    <g id="FPO" transform="translate(130.000000, 171.000000)" fill="#DBEDF0" fill-rule="nonzero">
                        <polygon id="Path" points="0 23 0 1 16 1 16 5.43120567 5.98373984 5.43120567 5.98373984 9.86241135 15.2845528 9.86241135 15.2845528 14.2624113 5.98373984 14.2624113 5.98373984 23"></polygon>
                        <path d="M18,23 L18,1 L28.9169492,1 C31.4932203,1 33.4844633,1.63971631 34.890678,2.91914894 C36.2968927,4.19858156 37,5.96170213 37,8.20851064 C37,10.4553191 36.2968927,12.2184397 34.890678,13.4978723 C33.4844633,14.777305 31.4932203,15.4170213 28.9169492,15.4170213 L23.9254237,15.4170213 L23.9254237,23 L18,23 Z M23.9254237,11.0170213 L27.8864407,11.0170213 C30.2050847,11.0170213 31.3644068,10.0808511 31.3644068,8.20851064 C31.3644068,6.33617021 30.2050847,5.4 27.8864407,5.4 L23.9254237,5.4 L23.9254237,11.0170213 Z" id="Shape"></path>
                        <path d="M50.5,23 C48.2085661,23 46.2008845,22.5201742 44.4769553,21.5605227 C42.7530261,20.6008712 41.4092179,19.2563044 40.4455307,17.5268226 C39.4818436,15.7973407 39,13.783127 39,11.4841816 C39,9.16414489 39.4764898,7.14465841 40.4294693,5.42572215 C41.3824488,3.70678588 42.726257,2.37276479 44.4608939,1.42365887 C46.1955307,0.474552957 48.2085661,0 50.5,0 C52.7914339,0 54.7991155,0.474552957 56.5230447,1.42365887 C58.2469739,2.37276479 59.5907821,3.70678588 60.5544693,5.42572215 C61.5181564,7.14465841 62,9.16414489 62,11.4841816 C62,13.783127 61.5181564,15.7973407 60.5544693,17.5268226 C59.5907821,19.2563044 58.2469739,20.6008712 56.5230447,21.5605227 C54.7991155,22.5201742 52.7914339,23 50.5,23 Z M50.5,18.127923 C52.1703911,18.127923 53.4820764,17.542641 54.4350559,16.372077 C55.3880354,15.2015131 55.8645251,13.5722146 55.8645251,11.4841816 C55.8645251,9.39614856 55.3933892,7.77212288 54.4511173,6.61210454 C53.5088454,5.4520862 52.1918063,4.87207703 50.5,4.87207703 C48.8081937,4.87207703 47.4911546,5.4520862 46.5488827,6.61210454 C45.6066108,7.77212288 45.1354749,9.39614856 45.1354749,11.4841816 C45.1354749,13.5722146 45.6066108,15.2015131 46.5488827,16.372077 C47.4911546,17.542641 48.8081937,18.127923 50.5,18.127923 Z" id="Shape"></path>
                    </g>
                    <line x1="0.5" y1="0.5" x2="320.5" y2="240.5" id="Line-4" stroke="#D4EAEE" stroke-linecap="square" transform="translate(160.500000, 120.500000) scale(-1, 1) translate(-160.500000, -120.500000) "></line>
                    <line x1="0.5" y1="0.5" x2="320.5" y2="240.5" id="Line-4-Copy" stroke="#D4EAEE" stroke-linecap="square"></line>
                </g>
            </g>
        </g>
    </g>
</svg>