<svg id="Layer_1" data-name="Layer 1" xmlns="http://www.w3.org/2000/svg" viewBox="0 0 367.84 406.13"><defs><style>.cls-1{fill:#99d0de;}.cls-1,.cls-10,.cls-11,.cls-2,.cls-3,.cls-4,.cls-5,.cls-7,.cls-8,.cls-9{stroke:#008aab;}.cls-1,.cls-10,.cls-2,.cls-3,.cls-4,.cls-5,.cls-7,.cls-9{stroke-miterlimit:10;}.cls-1,.cls-2,.cls-3{stroke-width:1.56px;}.cls-2,.cls-4,.cls-7{fill:#008aab;}.cls-3,.cls-5{fill:#fff;}.cls-6{opacity:0.2;}.cls-7{stroke-width:0.19px;}.cls-10,.cls-11,.cls-8,.cls-9{fill:none;}.cls-11,.cls-8{stroke-linecap:round;stroke-linejoin:round;}.cls-8,.cls-9{stroke-width:7.7px;}.cls-10,.cls-11{stroke-width:1.88px;}</style></defs><rect class="cls-1" x="1.04" y="159.99" width="48.55" height="48.55" rx="6.14"/><path class="cls-2" d="M265.36,279.37V271a6.16,6.16,0,0,0-6.14-6.14H223a6.17,6.17,0,0,0-6.14,6.14v8.34Z" transform="translate(-216.03 -105.13)"/><rect class="cls-3" x="90.45" y="159.18" width="48.55" height="48.55" rx="6.14"/><path class="cls-2" d="M354.77,278.57v-8.34a6.15,6.15,0,0,0-6.14-6.14H312.37a6.15,6.15,0,0,0-6.14,6.14v8.34Z" transform="translate(-216.03 -105.13)"/><rect class="cls-3" x="179.87" y="159.99" width="48.55" height="48.55" rx="6.14"/><path class="cls-2" d="M444.19,279.38V271A6.16,6.16,0,0,0,438,264.9H401.78a6.15,6.15,0,0,0-6.14,6.14v8.34Z" transform="translate(-216.03 -105.13)"/><rect class="cls-1" x="179.87" y="247.31" width="48.55" height="48.55" rx="6.14"/><path class="cls-2" d="M444.19,366.69v-8.33a6.17,6.17,0,0,0-6.15-6.15H401.78a6.16,6.16,0,0,0-6.14,6.15v8.33Z" transform="translate(-216.03 -105.13)"/><rect class="cls-3" x="1.04" y="247.31" width="48.55" height="48.55" rx="6.14"/><path class="cls-2" d="M265.36,366.69v-8.33a6.16,6.16,0,0,0-6.14-6.15H223a6.17,6.17,0,0,0-6.14,6.15v8.33Z" transform="translate(-216.03 -105.13)"/><path class="cls-4" d="M349.46,127.9,353,105.63h8.44a7.72,7.72,0,0,1,5.11,1.42,4.77,4.77,0,0,1,1.65,3.79,5.67,5.67,0,0,1-1.23,3.72,6.35,6.35,0,0,1-3.32,2.07,5,5,0,0,1,2.53,1.77,4.77,4.77,0,0,1,.91,2.93,6,6,0,0,1-2,4.9,9,9,0,0,1-5.81,1.67Zm2.85-2.08h6.92q5.26,0,5.27-4.58a3.16,3.16,0,0,0-1.17-2.67,5.39,5.39,0,0,0-3.35-.9H353.6ZM354,115.58h6.35a6.06,6.06,0,0,0,3.9-1.15,4,4,0,0,0,1.44-3.33,3,3,0,0,0-1.12-2.51,5.57,5.57,0,0,0-3.43-.87h-5.91Z" transform="translate(-216.03 -105.13)"/><path class="cls-4" d="M370.44,127.9l2.46-15.35h2.5l-.41,2.56a5.34,5.34,0,0,1,1.94-2,7.25,7.25,0,0,1,3.05-.9l1.23-.09,0,2.21-1.76.16a5.37,5.37,0,0,0-3.65,1.52,6.57,6.57,0,0,0-1.47,3.41L373,127.9Z" transform="translate(-216.03 -105.13)"/><path class="cls-4" d="M381.75,127.9l2.43-15.35h2.56l-2.43,15.35Zm2.78-19.17.44-2.88h3.16l-.47,2.88Z" transform="translate(-216.03 -105.13)"/><path class="cls-4" d="M396,128.19a6.55,6.55,0,0,1-4.89-1.82,6.74,6.74,0,0,1-1.78-4.94,10.64,10.64,0,0,1,1-4.68,8,8,0,0,1,2.83-3.28,7.59,7.59,0,0,1,4.28-1.2,6.47,6.47,0,0,1,4.86,1.81,6.79,6.79,0,0,1,1.77,5,10.69,10.69,0,0,1-1,4.66,8.08,8.08,0,0,1-2.83,3.28A7.53,7.53,0,0,1,396,128.19Zm.09-2.06a4.55,4.55,0,0,0,2.95-1,6.08,6.08,0,0,0,1.84-2.61,10.18,10.18,0,0,0,.61-3.62,4.87,4.87,0,0,0-1.09-3.44,4,4,0,0,0-3.05-1.17,4.62,4.62,0,0,0-2.95,1,6,6,0,0,0-1.85,2.61,10.06,10.06,0,0,0-.63,3.63A4.83,4.83,0,0,0,393,125,4,4,0,0,0,396.06,126.13Z" transform="translate(-216.03 -105.13)"/><path class="cls-4" d="M415.14,127.9l3.54-22.27h8.43c2.32,0,4,.48,5.12,1.42a4.76,4.76,0,0,1,1.64,3.79,5.67,5.67,0,0,1-1.23,3.72,6.33,6.33,0,0,1-3.31,2.07,4.93,4.93,0,0,1,2.52,1.77,4.78,4.78,0,0,1,.92,2.93,6,6,0,0,1-2.06,4.9,8.92,8.92,0,0,1-5.81,1.67Zm2.84-2.08h6.92q5.28,0,5.28-4.58a3.16,3.16,0,0,0-1.17-2.67,5.41,5.41,0,0,0-3.35-.9h-6.38Zm1.65-10.24H426a6.06,6.06,0,0,0,3.9-1.15,4,4,0,0,0,1.44-3.33,3,3,0,0,0-1.13-2.51,5.54,5.54,0,0,0-3.42-.87h-5.91Z" transform="translate(-216.03 -105.13)"/><path class="cls-4" d="M440.86,128.19a4,4,0,0,1-3.32-1.34,5,5,0,0,1-.63-4l2.75-17.25h2.55l-2.74,17.25a3.38,3.38,0,0,0,.26,2.4,2.16,2.16,0,0,0,1.88.73c.26,0,.5,0,.75,0a5,5,0,0,0,.74-.13l-.38,2.09a5.56,5.56,0,0,1-.92.18A6.32,6.32,0,0,1,440.86,128.19Z" transform="translate(-216.03 -105.13)"/><path class="cls-4" d="M452.2,128.19a6.52,6.52,0,0,1-4.88-1.82,6.75,6.75,0,0,1-1.79-4.94,10.64,10.64,0,0,1,1-4.68,8.1,8.1,0,0,1,2.83-3.28,7.59,7.59,0,0,1,4.28-1.2,6.5,6.5,0,0,1,4.87,1.81,6.79,6.79,0,0,1,1.77,5,10.69,10.69,0,0,1-1,4.66,8,8,0,0,1-2.83,3.28A7.53,7.53,0,0,1,452.2,128.19Zm.09-2.06a4.6,4.6,0,0,0,3-1,6.06,6.06,0,0,0,1.83-2.61,10.18,10.18,0,0,0,.61-3.62,4.87,4.87,0,0,0-1.09-3.44,3.94,3.94,0,0,0-3-1.17,4.63,4.63,0,0,0-3,1,6,6,0,0,0-1.85,2.61,10.06,10.06,0,0,0-.63,3.63,4.83,4.83,0,0,0,1.11,3.43A4,4,0,0,0,452.29,126.13Z" transform="translate(-216.03 -105.13)"/><path class="cls-4" d="M471,128.19a6,6,0,0,1-3.15-.84,4.59,4.59,0,0,1-2-2.54l-.48,3.09h-2.52l3.53-22.27H469L467.49,115a6.26,6.26,0,0,1,5.3-2.71,5.6,5.6,0,0,1,4.32,1.77,6.82,6.82,0,0,1,1.62,4.8,11.88,11.88,0,0,1-.9,4.66,8,8,0,0,1-2.62,3.41A6.83,6.83,0,0,1,471,128.19Zm-.32-2.06a4.55,4.55,0,0,0,3-1,6.23,6.23,0,0,0,1.83-2.61,10,10,0,0,0,.63-3.62,4.87,4.87,0,0,0-1.1-3.44,4,4,0,0,0-3-1.17,4.58,4.58,0,0,0-3,1,6,6,0,0,0-1.84,2.61,10.06,10.06,0,0,0-.63,3.63,4.83,4.83,0,0,0,1.11,3.43A3.92,3.92,0,0,0,470.71,126.13Z" transform="translate(-216.03 -105.13)"/><path class="cls-4" d="M348.28,510.48l3.54-22.27h6.54c3.37,0,6,.81,7.78,2.45a8.84,8.84,0,0,1,2.77,6.87,16.34,16.34,0,0,1-.76,5,11.68,11.68,0,0,1-2.31,4.12,10.62,10.62,0,0,1-3.91,2.8,14.46,14.46,0,0,1-5.66,1Zm2.94-2.21h5.11a11,11,0,0,0,4.52-.84,7.93,7.93,0,0,0,3-2.32,9.82,9.82,0,0,0,1.73-3.43,15.35,15.35,0,0,0,.55-4.12,6.87,6.87,0,0,0-2-5.31q-2-1.83-5.86-1.83h-4.26Z" transform="translate(-216.03 -105.13)"/><path class="cls-4" d="M371.72,510.48l3.54-22.27H389l-.35,2.18H377.53l-1.26,7.77h10.55l-.35,2.18H376l-1.64,10.14Z" transform="translate(-216.03 -105.13)"/><path class="cls-4" d="M396.14,510.76a17,17,0,0,1-4.65-.63,9.93,9.93,0,0,1-3.85-2.08l1.07-2a10.05,10.05,0,0,0,3.61,1.89,15.25,15.25,0,0,0,4,.51,7.22,7.22,0,0,0,4.11-1.06,3.33,3.33,0,0,0,1.54-2.89,2.94,2.94,0,0,0-.91-2.17,6.74,6.74,0,0,0-3.22-1.4l-3.26-.79a7.56,7.56,0,0,1-3.54-1.83,5,5,0,0,1-1.32-3.73,5.69,5.69,0,0,1,1.12-3.54,7.36,7.36,0,0,1,3-2.31,10.48,10.48,0,0,1,4.17-.82,13.4,13.4,0,0,1,4.18.68,9.11,9.11,0,0,1,3.56,2.13l-1.11,2a8.34,8.34,0,0,0-3.16-1.92,11.3,11.3,0,0,0-3.54-.57,7.42,7.42,0,0,0-2.87.52,5,5,0,0,0-2,1.45,3.5,3.5,0,0,0-.74,2.23,3.16,3.16,0,0,0,.8,2.37,5.51,5.51,0,0,0,2.39,1.17l3.29.76a9,9,0,0,1,4.37,2.1,4.61,4.61,0,0,1,1.41,3.39,5.62,5.62,0,0,1-1.16,3.61A7.08,7.08,0,0,1,400.4,510,11.83,11.83,0,0,1,396.14,510.76Z" transform="translate(-216.03 -105.13)"/><path class="cls-4" d="M423.69,510.76a16.9,16.9,0,0,1-4.65-.63,9.86,9.86,0,0,1-3.85-2.08l1.07-2a10.1,10.1,0,0,0,3.6,1.89,15.33,15.33,0,0,0,4.05.51,7.18,7.18,0,0,0,4.1-1.06,3.34,3.34,0,0,0,1.55-2.89,2.94,2.94,0,0,0-.91-2.17,6.78,6.78,0,0,0-3.23-1.4l-3.25-.79a7.51,7.51,0,0,1-3.54-1.83,5,5,0,0,1-1.33-3.73,5.7,5.7,0,0,1,1.13-3.54,7.33,7.33,0,0,1,3-2.31,10.55,10.55,0,0,1,4.17-.82,13.46,13.46,0,0,1,4.19.68,9.07,9.07,0,0,1,3.55,2.13l-1.1,2a8.34,8.34,0,0,0-3.16-1.92,11.3,11.3,0,0,0-3.54-.57,7.5,7.5,0,0,0-2.88.52,4.87,4.87,0,0,0-2,1.45,3.45,3.45,0,0,0-.74,2.23,3.12,3.12,0,0,0,.8,2.37,5.45,5.45,0,0,0,2.39,1.17l3.28.76a9,9,0,0,1,4.38,2.1,4.64,4.64,0,0,1,1.4,3.39,5.62,5.62,0,0,1-1.15,3.61A7.14,7.14,0,0,1,428,510,11.87,11.87,0,0,1,423.69,510.76Z" transform="translate(-216.03 -105.13)"/><path class="cls-4" d="M441.88,510.76a6.41,6.41,0,0,1-5.07-1.89,7.26,7.26,0,0,1-1.66-4.93,11.59,11.59,0,0,1,.48-3.32,8.76,8.76,0,0,1,1.48-2.92,7.34,7.34,0,0,1,2.56-2.08,8.12,8.12,0,0,1,3.7-.78,8.31,8.31,0,0,1,2.9.51,5.55,5.55,0,0,1,2.21,1.36l-.91,1.83a5.56,5.56,0,0,0-4.11-1.61,5,5,0,0,0-3.3,1,6,6,0,0,0-1.82,2.64,9.89,9.89,0,0,0-.56,3.32,5.5,5.5,0,0,0,1,3.46,4.08,4.08,0,0,0,3.4,1.31,5.75,5.75,0,0,0,2-.4,6.15,6.15,0,0,0,2-1.21L447,509a6.4,6.4,0,0,1-2.32,1.33A8.81,8.81,0,0,1,441.88,510.76Z" transform="translate(-216.03 -105.13)"/><path class="cls-4" d="M454.52,510.76a5.28,5.28,0,0,1-2.48-.6,4.9,4.9,0,0,1-1.85-1.64,4.17,4.17,0,0,1-.69-2.37,3.66,3.66,0,0,1,2.06-3.51q2.07-1.06,6.62-1.07h2.18l.16-.95a3.33,3.33,0,0,0-.47-2.76,3.45,3.45,0,0,0-2.78-1,9.14,9.14,0,0,0-5.22,1.62l-.72-1.87a9.17,9.17,0,0,1,2.83-1.31,11.93,11.93,0,0,1,3.39-.49c2.15,0,3.65.59,4.52,1.77a6.08,6.08,0,0,1,.82,4.71l-1.45,9.16H459l.38-2.4a5,5,0,0,1-2.11,2A6.12,6.12,0,0,1,454.52,510.76Zm.63-1.92a4.58,4.58,0,0,0,3.06-1.16,5.13,5.13,0,0,0,1.71-3.2l.19-1.24h-1.58a22.56,22.56,0,0,0-3.84.26,3.73,3.73,0,0,0-2,.85,2.22,2.22,0,0,0-.6,1.64,2.55,2.55,0,0,0,.91,2.12A3.39,3.39,0,0,0,455.15,508.84Z" transform="translate(-216.03 -105.13)"/><path class="cls-4" d="M466.14,510.48l2.47-15.36h2.49l-.44,2.63a5.83,5.83,0,0,1,2.26-2.15,6.75,6.75,0,0,1,3.27-.76,4.78,4.78,0,0,1,3.87,1.55q1.31,1.55.77,4.8l-1.45,9.29h-2.56l1.45-9.29q.71-4.26-2.84-4.26a4.8,4.8,0,0,0-3.66,1.42,6.83,6.83,0,0,0-1.74,3.79l-1.33,8.34Z" transform="translate(-216.03 -105.13)"/><rect class="cls-1" x="89.72" y="69.44" width="48.55" height="48.55" rx="6.14"/><path class="cls-2" d="M354,188.82v-8.33a6.17,6.17,0,0,0-6.14-6.15H311.63a6.16,6.16,0,0,0-6.14,6.15v8.33Z" transform="translate(-216.03 -105.13)"/><path class="cls-4" d="M499.1,200.43v-1.58h3.64v-12.1l-2.87,1.8-.79-1.37,4.18-2.67h1.33v14.34H508v1.58Z" transform="translate(-216.03 -105.13)"/><path class="cls-4" d="M521.14,200.63a4.7,4.7,0,0,1-4.16-2.1,13.68,13.68,0,0,1,0-12.14,5.21,5.21,0,0,1,8.32,0,13.71,13.71,0,0,1,0,12.15A4.71,4.71,0,0,1,521.14,200.63Zm0-1.6a3,3,0,0,0,2.81-1.61,10.52,10.52,0,0,0,.91-5,10.39,10.39,0,0,0-.9-5,3.05,3.05,0,0,0-2.82-1.57,3,3,0,0,0-2.81,1.58,10.24,10.24,0,0,0-.92,4.95,10.38,10.38,0,0,0,.92,5A3,3,0,0,0,521.14,199Z" transform="translate(-216.03 -105.13)"/><path class="cls-4" d="M535.22,200.43v-1.58h3.64v-12.1l-2.87,1.8-.79-1.37,4.17-2.67h1.34v14.34h3.41v1.58Z" transform="translate(-216.03 -105.13)"/><path class="cls-4" d="M553.28,200.43v-1.58h3.63v-12.1l-2.86,1.8-.79-1.37,4.17-2.67h1.33v14.34h3.41v1.58Z" transform="translate(-216.03 -105.13)"/><path class="cls-4" d="M499.1,247.45v-1.58h3.64v-12.1l-2.87,1.81-.79-1.38,4.18-2.66h1.33v14.33H508v1.58Z" transform="translate(-216.03 -105.13)"/><path class="cls-4" d="M521.14,247.66a4.7,4.7,0,0,1-4.16-2.1,13.7,13.7,0,0,1,0-12.15,5.22,5.22,0,0,1,8.32,0,13.73,13.73,0,0,1,0,12.16A4.71,4.71,0,0,1,521.14,247.66Zm0-1.6a3,3,0,0,0,2.81-1.61,10.56,10.56,0,0,0,.91-5,10.34,10.34,0,0,0-.9-5,3.3,3.3,0,0,0-5.63,0,10.2,10.2,0,0,0-.92,4.94,10.42,10.42,0,0,0,.92,5A3,3,0,0,0,521.14,246.06Z" transform="translate(-216.03 -105.13)"/><path class="cls-4" d="M535.22,247.45v-1.58h3.64v-12.1L536,235.58l-.79-1.38,4.17-2.66h1.34v14.33h3.41v1.58Z" transform="translate(-216.03 -105.13)"/><path class="cls-4" d="M557.25,247.66a4.7,4.7,0,0,1-4.15-2.1,13.7,13.7,0,0,1,0-12.15,5.22,5.22,0,0,1,8.32,0,13.68,13.68,0,0,1,0,12.16A4.69,4.69,0,0,1,557.25,247.66Zm0-1.6a3,3,0,0,0,2.81-1.61,10.42,10.42,0,0,0,.92-5,10.21,10.21,0,0,0-.91-5,3.3,3.3,0,0,0-5.63,0,10.22,10.22,0,0,0-.91,4.94,10.44,10.44,0,0,0,.91,5A3,3,0,0,0,557.25,246.06Z" transform="translate(-216.03 -105.13)"/><path class="cls-4" d="M503.08,294.69a4.71,4.71,0,0,1-4.16-2.1,13.7,13.7,0,0,1,0-12.15,5.22,5.22,0,0,1,8.32,0,13.73,13.73,0,0,1,0,12.16A4.71,4.71,0,0,1,503.08,294.69Zm0-1.61a3,3,0,0,0,2.81-1.6,10.44,10.44,0,0,0,.91-5,10.32,10.32,0,0,0-.9-4.95,3.3,3.3,0,0,0-5.63,0,10.2,10.2,0,0,0-.92,4.94,10.42,10.42,0,0,0,.92,5A3,3,0,0,0,503.08,293.08Z" transform="translate(-216.03 -105.13)"/><path class="cls-4" d="M517.16,294.48V292.9h3.64V280.8l-2.87,1.81-.79-1.38,4.18-2.66h1.33V292.9h3.41v1.58Z" transform="translate(-216.03 -105.13)"/><path class="cls-4" d="M539.19,294.69a4.7,4.7,0,0,1-4.15-2.1,13.7,13.7,0,0,1,0-12.15,5.22,5.22,0,0,1,8.32,0,13.73,13.73,0,0,1,0,12.16A4.72,4.72,0,0,1,539.19,294.69Zm0-1.61a3,3,0,0,0,2.81-1.6,10.42,10.42,0,0,0,.92-5,10.32,10.32,0,0,0-.9-4.95,3.31,3.31,0,0,0-5.64,0,10.22,10.22,0,0,0-.91,4.94,10.44,10.44,0,0,0,.91,5A3,3,0,0,0,539.19,293.08Z" transform="translate(-216.03 -105.13)"/><path class="cls-4" d="M553.28,294.48V292.9h3.63V280.8l-2.86,1.81-.79-1.38,4.17-2.66h1.33V292.9h3.41v1.58Z" transform="translate(-216.03 -105.13)"/><path class="cls-5" d="M503.08,341.71a4.71,4.71,0,0,1-4.16-2.1,13.68,13.68,0,0,1,0-12.14,5.21,5.21,0,0,1,8.32,0,13.71,13.71,0,0,1,0,12.15A4.71,4.71,0,0,1,503.08,341.71Zm0-1.6a3,3,0,0,0,2.81-1.6,14.13,14.13,0,0,0,0-9.95,3.31,3.31,0,0,0-5.63,0,10.2,10.2,0,0,0-.92,4.94,10.42,10.42,0,0,0,.92,5A3,3,0,0,0,503.08,340.11Z" transform="translate(-216.03 -105.13)"/><path class="cls-4" d="M521.14,341.71a4.7,4.7,0,0,1-4.16-2.1,13.68,13.68,0,0,1,0-12.14,5.21,5.21,0,0,1,8.32,0,13.71,13.71,0,0,1,0,12.15A4.71,4.71,0,0,1,521.14,341.71Zm0-1.6a3,3,0,0,0,2.81-1.6,10.56,10.56,0,0,0,.91-5,10.39,10.39,0,0,0-.9-5,3,3,0,0,0-2.82-1.56,3,3,0,0,0-2.81,1.58,10.2,10.2,0,0,0-.92,4.94,10.42,10.42,0,0,0,.92,5A3,3,0,0,0,521.14,340.11Z" transform="translate(-216.03 -105.13)"/><path class="cls-4" d="M539.19,341.71a4.7,4.7,0,0,1-4.15-2.1,13.68,13.68,0,0,1,0-12.14,5.21,5.21,0,0,1,8.32,0,13.71,13.71,0,0,1,0,12.15A4.72,4.72,0,0,1,539.19,341.71Zm0-1.6a3,3,0,0,0,2.81-1.6,14.05,14.05,0,0,0,0-9.95,3.32,3.32,0,0,0-5.64,0,10.22,10.22,0,0,0-.91,4.94,10.44,10.44,0,0,0,.91,5A3,3,0,0,0,539.19,340.11Z" transform="translate(-216.03 -105.13)"/><path class="cls-4" d="M557.25,341.71a4.7,4.7,0,0,1-4.15-2.1,13.68,13.68,0,0,1,0-12.14,5.21,5.21,0,0,1,8.32,0,13.66,13.66,0,0,1,0,12.15A4.69,4.69,0,0,1,557.25,341.71Zm0-1.6a3,3,0,0,0,2.81-1.6,10.42,10.42,0,0,0,.92-5,10.25,10.25,0,0,0-.91-5,3.31,3.31,0,0,0-5.63,0,10.22,10.22,0,0,0-.91,4.94,10.44,10.44,0,0,0,.91,5A3,3,0,0,0,557.25,340.11Z" transform="translate(-216.03 -105.13)"/><path class="cls-4" d="M503.08,388.74a4.71,4.71,0,0,1-4.16-2.1,13.68,13.68,0,0,1,0-12.14,5.21,5.21,0,0,1,8.32,0,13.71,13.71,0,0,1,0,12.15A4.71,4.71,0,0,1,503.08,388.74Zm0-1.6a3,3,0,0,0,2.81-1.6,14.13,14.13,0,0,0,0-10,3.3,3.3,0,0,0-5.63,0,10.24,10.24,0,0,0-.92,4.95,10.45,10.45,0,0,0,.92,5A3,3,0,0,0,503.08,387.14Z" transform="translate(-216.03 -105.13)"/><path class="cls-4" d="M517.16,388.54V387h3.64v-12.1l-2.87,1.8-.79-1.37,4.18-2.67h1.33V387h3.41v1.58Z" transform="translate(-216.03 -105.13)"/><path class="cls-4" d="M535.22,388.54V387h3.64v-12.1l-2.87,1.8-.79-1.37,4.17-2.67h1.34V387h3.41v1.58Z" transform="translate(-216.03 -105.13)"/><path class="cls-4" d="M557.25,388.74a4.7,4.7,0,0,1-4.15-2.1,13.68,13.68,0,0,1,0-12.14,5.21,5.21,0,0,1,8.32,0,13.66,13.66,0,0,1,0,12.15A4.69,4.69,0,0,1,557.25,388.74Zm0-1.6a3,3,0,0,0,2.81-1.6,10.45,10.45,0,0,0,.92-5,10.25,10.25,0,0,0-.91-5,3.3,3.3,0,0,0-5.63,0,10.26,10.26,0,0,0-.91,4.95,10.47,10.47,0,0,0,.91,5A3,3,0,0,0,557.25,387.14Z" transform="translate(-216.03 -105.13)"/><g class="cls-6"><polygon class="cls-7" points="325.99 320.35 325.95 320.36 292.23 314.82 292.23 329.13 294.44 329.5 292.23 329.13 292.23 342.91 328.69 335.21 328.92 335.25 367.33 327.14 325.99 320.35"/><line class="cls-8" x1="77.1" y1="103.73" x2="267.75" y2="103.73"/><path class="cls-9" d="M540.54,265.27a56.42,56.42,0,0,0-56.49-56.41" transform="translate(-216.03 -105.13)"/><path class="cls-9" d="M484,321.32a56.41,56.41,0,0,0,56.49-56.41" transform="translate(-216.03 -105.13)"/><line class="cls-9" x1="268.62" y1="216.12" x2="142.55" y2="216.12"/><line class="cls-9" x1="336.42" y1="328.6" x2="145.77" y2="328.6"/><path class="cls-9" d="M305,377.32a56.42,56.42,0,0,0,56.5,56.41" transform="translate(-216.03 -105.13)"/><path class="cls-9" d="M361.56,321.27a56.42,56.42,0,0,0-56.49,56.41" transform="translate(-216.03 -105.13)"/></g><line class="cls-10" x1="114.27" y1="117.85" x2="114.27" y2="160.7"/><line class="cls-11" x1="114.67" y1="208.81" x2="114.67" y2="275.51"/><line class="cls-11" x1="180.56" y1="275.51" x2="114.67" y2="275.51"/><line class="cls-10" x1="203.59" y1="208" x2="203.59" y2="250.85"/><line class="cls-10" x1="25.57" y1="207.57" x2="25.57" y2="250.42"/><line class="cls-10" x1="91.29" y1="185.68" x2="48.44" y2="185.68"/><line class="cls-10" x1="180.84" y1="184.81" x2="137.99" y2="184.81"/></svg>