<svg id="Layer_1" data-name="Layer 1" xmlns="http://www.w3.org/2000/svg" viewBox="0 0 78.52 54.3"><defs><style>.cls-1{fill:#fff;}.cls-2{fill:#ffb71b;}.cls-3{fill:#ff4d00;}.cls-4{fill:#008aab;}</style></defs><path class="cls-1" d="M6.83,41.82A6.17,6.17,0,0,1,8.1,42a3.58,3.58,0,0,1,1.14.45,2.6,2.6,0,0,1,.82.83,2.28,2.28,0,0,1,.32,1.24,2.91,2.91,0,0,1-.72,2,3.8,3.8,0,0,1-1.87,1.08v0a2.66,2.66,0,0,1,1.55.83A2.5,2.5,0,0,1,10,50.21a3.28,3.28,0,0,1-.39,1.63A3.36,3.36,0,0,1,8.51,53a5,5,0,0,1-1.65.71A8.62,8.62,0,0,1,4.77,54H.39A.39.39,0,0,1,0,53.51L2,42.15a.4.4,0,0,1,.39-.33ZM3.49,49.1l-.36,2.11a.39.39,0,0,0,.39.46H4.71a5.22,5.22,0,0,0,.91-.08,2.61,2.61,0,0,0,.77-.28,1.37,1.37,0,0,0,.53-.51,1.52,1.52,0,0,0,.2-.79,1.06,1.06,0,0,0-.45-.91,2.11,2.11,0,0,0-1.27-.33H3.88A.4.4,0,0,0,3.49,49.1Zm.82-4.65L4,46.25a.4.4,0,0,0,.39.46H5.68a2.91,2.91,0,0,0,.64-.07,1.79,1.79,0,0,0,.61-.23,1.45,1.45,0,0,0,.45-.47,1.31,1.31,0,0,0,.18-.71.89.89,0,0,0-.46-.85,2.41,2.41,0,0,0-1.17-.26H4.7A.4.4,0,0,0,4.31,44.45Z"/><path class="cls-1" d="M26.88,51.48A4.71,4.71,0,0,1,25.75,53a5,5,0,0,1-1.65,1,6.56,6.56,0,0,1-2.22.34,7.14,7.14,0,0,1-2-.26,4.56,4.56,0,0,1-1.51-.76,3.24,3.24,0,0,1-1-1.19,3.55,3.55,0,0,1-.34-1.58,5,5,0,0,1,0-.52l.06-.53,1.28-7.29a.4.4,0,0,1,.39-.33h2a.4.4,0,0,1,.39.46l-1.22,6.9a2.23,2.23,0,0,0-.05.36c0,.13,0,.24,0,.35a2.18,2.18,0,0,0,.12.72,1.62,1.62,0,0,0,.35.61,1.59,1.59,0,0,0,.63.42,2.71,2.71,0,0,0,.95.15,2.63,2.63,0,0,0,1.19-.23A2.19,2.19,0,0,0,24,51a2.88,2.88,0,0,0,.46-.82,7.79,7.79,0,0,0,.24-.92L26,42.14a.4.4,0,0,1,.39-.32h2a.39.39,0,0,1,.38.46L27.5,49.51A7.84,7.84,0,0,1,26.88,51.48Z"/><path class="cls-1" d="M44.17,54H41.83a.39.39,0,0,1-.37-.24l-1.84-4.41a.4.4,0,0,0-.36-.24h-.57a.39.39,0,0,0-.39.33l-.71,4.23a.4.4,0,0,1-.39.33h-2a.39.39,0,0,1-.39-.46l2-11.36a.39.39,0,0,1,.39-.33h3.82a5.06,5.06,0,0,1,3.13.85,2.82,2.82,0,0,1,1.13,2.38,3.55,3.55,0,0,1-.81,2.41,4,4,0,0,1-1.75,1.15.39.39,0,0,0-.23.54l2,4.26A.4.4,0,0,1,44.17,54ZM40,47a3.56,3.56,0,0,0,1.79-.37,1.29,1.29,0,0,0,.63-1.2,1,1,0,0,0-.53-1,3.14,3.14,0,0,0-1.42-.28h-.89a.4.4,0,0,0-.39.33l-.37,2.08a.39.39,0,0,0,.38.46Z"/><path class="cls-1" d="M60.12,44.51a.4.4,0,0,1-.54,0,2.09,2.09,0,0,0-.62-.43,2.66,2.66,0,0,0-1.15-.24,2.35,2.35,0,0,0-.62.08,1.81,1.81,0,0,0-.59.25,1.49,1.49,0,0,0-.44.46,1.17,1.17,0,0,0-.18.67,1,1,0,0,0,.4.81,4.3,4.3,0,0,0,1.12.56,9.32,9.32,0,0,1,1.41.61A4.72,4.72,0,0,1,60,48a3.12,3.12,0,0,1,.65,1,3.17,3.17,0,0,1,.22,1.23,3.65,3.65,0,0,1-.45,1.87,3.76,3.76,0,0,1-1.18,1.26,5,5,0,0,1-1.61.72,7.27,7.27,0,0,1-1.77.22,7.15,7.15,0,0,1-1.3-.12,7.31,7.31,0,0,1-1.26-.35,5.35,5.35,0,0,1-1.11-.59,4.2,4.2,0,0,1-.59-.5.4.4,0,0,1,0-.59L53.07,51a.4.4,0,0,1,.54,0,2.84,2.84,0,0,0,.84.61,3.19,3.19,0,0,0,1.42.34,3.47,3.47,0,0,0,.73-.08,1.77,1.77,0,0,0,.63-.25,1.41,1.41,0,0,0,.44-.47,1.32,1.32,0,0,0,.16-.68,1.16,1.16,0,0,0-.52-1,5,5,0,0,0-1.37-.66,10.46,10.46,0,0,1-1.12-.46,3.61,3.61,0,0,1-.91-.64,2.73,2.73,0,0,1-.62-.9,3,3,0,0,1-.23-1.26,3.71,3.71,0,0,1,.38-1.68,3.92,3.92,0,0,1,1.06-1.27,5,5,0,0,1,1.56-.8A6.26,6.26,0,0,1,58,41.49a5.82,5.82,0,0,1,1.08.11,5.28,5.28,0,0,1,1.05.3,4.41,4.41,0,0,1,.94.49,2.44,2.44,0,0,1,.43.35.39.39,0,0,1,0,.58Z"/><path class="cls-1" d="M74.78,44.6l-1.61,9a.38.38,0,0,1-.38.32H70.74a.39.39,0,0,1-.39-.46l1.54-8.77a.41.41,0,0,0-.39-.47H69a.39.39,0,0,1-.39-.46L69,42.14a.39.39,0,0,1,.38-.32h8.78a.39.39,0,0,1,.39.46L78.22,44a.39.39,0,0,1-.39.32H75.16A.39.39,0,0,0,74.78,44.6Z"/><path class="cls-2" d="M45,26.61a24.1,24.1,0,0,0-.48-2.91c0-.07,0-.13,0-.19l-.18-.07h0l-9.37-3.71h4.85l-8.25-3.27-13,0a.11.11,0,0,0-.05.21l1.09.43,2.88,1.14,4.09,1.62,4.72,1.87L36,23.63l4.21,1.66,3.08,1.22.58.23h0l.1,0,.27.11h0l.77.3c0-.05,0-.09,0-.14Z"/><path class="cls-3" d="M37.68,9.66h-.75L15,9.68a.11.11,0,0,0,0,.21l16.55,6.56h8.71l-8.43-3.35h8.23c-.5-.81-1-1.61-1.6-2.4Z"/><path class="cls-1" d="M59.75,21.56a8.46,8.46,0,0,0-.62-2.87,7.53,7.53,0,0,0-1-1.76,4.73,4.73,0,0,0,0-.65,7.12,7.12,0,0,0-2-4.83L56,11.36a6.11,6.11,0,0,0-4.09-1.74H44.33q.84,1.2,1.65,2.49l.57.94h2.54c1.58,0,3.57,0,4.67,1.39l.07.09a3.42,3.42,0,0,1,.26.4,3.93,3.93,0,0,1,.47,1.77,2.67,2.67,0,0,1,0,.63,2,2,0,0,1-.1.4h-2.2l.26.11.58.26.61.27a3.75,3.75,0,0,1,1,.6A3.16,3.16,0,0,1,55.48,20a4.87,4.87,0,0,1,.21.53,3.48,3.48,0,0,1,.15,1A3.74,3.74,0,0,1,54,24.74a4.83,4.83,0,0,1-2.62.61,16.73,16.73,0,0,1,.14,2.52v.3c0,.23,0,.46-.07.68a8.59,8.59,0,0,0,4-.55,7.72,7.72,0,0,0,3.18-2.65A6.25,6.25,0,0,0,59,25l.07-.13a6.9,6.9,0,0,0,.68-2.32A7.38,7.38,0,0,0,59.75,21.56Z"/><path class="cls-4" d="M47.45,28.15h0Z"/><path class="cls-1" d="M49.76,25.2a.25.25,0,0,0,0-.08c0-.2-.07-.41-.11-.61v0c0-.11,0-.22-.07-.33v-.05a25.23,25.23,0,0,0-.71-2.5l-.33-.91c-.17-.44-.35-.88-.53-1.31l-.39-.87-.12-.26c-.35-.75-.72-1.49-1.1-2.21l0,0c-.25-.49-.51-1-.77-1.44s-.59-1-.9-1.5c-.08-.14-.17-.28-.26-.42-.6-1-1.25-1.93-1.94-2.88a.64.64,0,0,1-.1-.13l-.31-.41,0,0a30.17,30.17,0,0,0-8.45-7.9A8,8,0,0,0,29,0a3.68,3.68,0,0,0-1.56.56C25.3,2.09,25.53,5.44,26,7.83c0,.15.06.3.1.44a.15.15,0,0,0,.3,0l0-.22a16.4,16.4,0,0,1-.13-1.71,8,8,0,0,1,.61-3.66A3.72,3.72,0,0,1,27.23,2a2.44,2.44,0,0,1,1.85-.95,4.91,4.91,0,0,1,2.19.48,18.73,18.73,0,0,1,5.82,4.66c.85,1,1.67,2,2.44,3l.27.4c.72,1,1.4,2,2,3.07l.2.34c.58,1,1.13,2,1.62,3.06.14.29.28.59.41.88q.54,1.21,1,2.46c.2.53.38,1.07.55,1.62s.32,1.11.46,1.67l.13.51c.07.3.14.64.21,1a20.3,20.3,0,0,1,.34,2.22c0,.18,0,.35,0,.52s0,.58,0,.89a4.26,4.26,0,0,1-.64,2.62c-1,1.34-3,.51-4.24,0a17.37,17.37,0,0,1-2.12-1.15c-1.37-.88-2.64-1.9-3.94-2.88-.07-.05-.15-.1-.22-.06s-.05.21,0,.3a20,20,0,0,0,4.38,5,9.91,9.91,0,0,0,3.52,2,5,5,0,0,0,3.93-.42,5.29,5.29,0,0,0,2.21-3.41,8.55,8.55,0,0,0,.18-1.11c0-.18,0-.36.05-.53v-.29A15.19,15.19,0,0,0,49.76,25.2Zm-2.31,2.95Z"/></svg>