<?xml version="1.0" encoding="UTF-8"?><svg xmlns="http://www.w3.org/2000/svg" viewBox="0 0 762.56 564.39"><defs><style>.cls-1{stroke-dasharray:0 0 1.52 4.55;}.cls-1,.cls-2,.cls-3{stroke-linecap:round;stroke-linejoin:round;}.cls-1,.cls-2,.cls-3,.cls-4,.cls-5,.cls-6,.cls-7{stroke:#008aab;}.cls-1,.cls-2,.cls-3,.cls-6,.cls-7{fill:none;}.cls-8{fill:#008aab;}.cls-9,.cls-4,.cls-5{fill:#fff;}.cls-10{fill:#c5e7ed;}.cls-3{stroke-dasharray:0 0 1.52 4.55;}.cls-4{stroke-width:3.73px;}.cls-11{mix-blend-mode:multiply;}.cls-5,.cls-6{stroke-width:3px;}.cls-12{isolation:isolate;}</style></defs><g class="cls-12"><g id="Layer_2"><g id="Layer_1-2"><rect class="cls-10" width="762.56" height="396.22" rx="4.03" ry="4.03"/><path class="cls-8" d="M432.34,493.64c-25.25,8.63-58.81,13.38-94.49,13.38s-69.24-4.75-94.49-13.38c-20.43-6.98-33.49-15.87-37.87-25.56v5.79c.05,.34,.1,.67,.17,1-.06-.12-.11-.25-.17-.37v5.97c3.66,23.64,61.66,42.49,132.43,42.49,34.32,0,66.89-4.45,91.71-12.53,24.51-7.98,38.96-18.63,40.72-30l.04-6.45-.02,.04,.04-6.4c-4.18,9.86-17.33,18.92-38.08,26.01Z"/><path class="cls-8" d="M432.34,514.35c-25.25,8.63-58.81,13.38-94.49,13.38s-69.24-4.75-94.49-13.38c-20.43-6.98-33.49-15.87-37.87-25.56v5.79c.05,.34,.1,.67,.17,1-.06-.12-.11-.25-.17-.37v5.97c3.66,23.64,61.66,42.49,132.43,42.49,34.32,0,66.89-4.45,91.71-12.53,24.51-7.98,38.96-18.63,40.72-30l.04-6.45-.02,.04,.04-6.4c-4.18,9.86-17.33,18.92-38.08,26.01Z"/><path class="cls-8" d="M338,411.89c-70.08,0-127.62,18.49-132.25,41.81-.09,.54-.17,1.09-.21,1.64h-.03s0,.07-.01,.1v2.59c2.03,24.13,60.69,43.55,132.5,43.55s132.56-20.12,132.56-44.85-59.46-44.85-132.56-44.85Z"/><path class="cls-8" d="M432.3,535.06c-25.25,8.63-58.81,13.38-94.49,13.38s-69.24-4.75-94.49-13.38c-20.43-6.98-33.49-15.87-37.87-25.56v5.79c.05,.34,.1,.67,.17,1-.06-.12-.11-.25-.17-.37v5.97c3.66,23.64,61.66,42.49,132.43,42.49,34.32,0,66.89-4.45,91.71-12.53,24.51-7.98,38.96-18.63,40.72-30l.04-6.45-.02,.04,.04-6.4c-4.18,9.86-17.33,18.92-38.08,26.01Z"/><g class="cls-11"><g><path class="cls-2" d="M67.97,333.79c-.03,.25-.05,.5-.06,.76h-.06c0,.07-.02,.14-.02,.22v.54"/><path class="cls-1" d="M67.82,339.85v.32c4.25,50.49,126.95,91.11,277.19,91.11s277.31-42.09,277.31-93.82-124.4-93.82-277.31-93.82-266.98,38.69-276.66,87.48c-.02,.14-.05,.27-.07,.41"/></g></g><g><path class="cls-8" d="M464.7,319.63c-22.94,0-41.77,6.05-43.29,13.69-.03,.18-.06,.36-.07,.54h0v.88c.66,7.9,19.86,14.26,43.36,14.26s43.39-6.59,43.39-14.68-19.46-14.68-43.39-14.68Z"/><path class="cls-8" d="M507.94,343.42c.03-.12,.06-.24,.08-.36v-2.11h0v-2.08c-1.35,3.23-5.66,6.19-12.45,8.51-8.26,2.82-19.25,4.38-30.93,4.38s-22.66-1.56-30.93-4.38c-6.69-2.29-10.96-5.19-12.4-8.37v1.89c.02,.11,.03,.22,.06,.33-.02-.04-.04-.08-.06-.12v1.96c.03,.17,.07,.34,.11,.5-.04-.07-.08-.15-.11-.22v1.89c.02,.11,.03,.22,.06,.33-.02-.04-.04-.08-.06-.12v1.96c.03,.19,.08,.37,.13,.55-.05-.09-.1-.18-.14-.27v1.89c.02,.11,.03,.22,.06,.33-.02-.04-.04-.08-.06-.12v1.96s.01,.05,.02,.08c-.01-.02-.03-.05-.04-.07v1.89c.02,.11,.03,.22,.06,.33-.02-.04-.04-.08-.06-.12v1.96c1.2,7.74,20.18,13.91,43.35,13.91,11.23,0,21.89-1.46,30.02-4.1,8.02-2.61,12.75-6.1,13.33-9.82v-2.11h0v-2.08h.01v-1.98h0v-2.08c0,.05-.04,.11-.06,.16,.02-.1,.05-.2,.07-.3v-2.11h0v-2.08c-.02,.07-.06,.14-.09,.22Z"/></g><g><path class="cls-8" d="M225.47,319.63c-22.94,0-41.77,6.05-43.29,13.69-.03,.18-.06,.36-.07,.54h0v.88c.66,7.9,19.86,14.26,43.36,14.26s43.39-6.59,43.39-14.68-19.46-14.68-43.39-14.68Z"/><path class="cls-8" d="M268.71,343.42c.03-.12,.06-.24,.08-.36v-2.11h0v-2.08c-1.35,3.23-5.66,6.19-12.45,8.51-8.26,2.82-19.25,4.38-30.93,4.38s-22.66-1.56-30.93-4.38c-6.69-2.29-10.96-5.19-12.4-8.37v1.89c.02,.11,.03,.22,.06,.33-.02-.04-.04-.08-.06-.12v1.96c.03,.17,.07,.34,.11,.5-.04-.07-.08-.15-.11-.22v1.89c.02,.11,.03,.22,.06,.33-.02-.04-.04-.08-.06-.12v1.96c.03,.19,.08,.37,.13,.55-.05-.09-.1-.18-.14-.27v1.89c.02,.11,.03,.22,.06,.33-.02-.04-.04-.08-.06-.12v3.58c0,.11,.03,.22,.05,.33-.02-.04-.04-.08-.06-.12v1.96c1.2,7.74,20.18,13.91,43.35,13.91,11.23,0,21.89-1.46,30.02-4.1,8.02-2.61,12.75-6.1,13.33-9.82v-2.11h0v-3.78h0v-2.08c0,.05-.04,.11-.06,.16,.02-.1,.05-.2,.07-.3v-2.11h0v-2.08c-.02,.07-.06,.14-.09,.22Z"/></g><g><path class="cls-8" d="M317.28,319.63c-22.94,0-41.77,6.05-43.29,13.69-.03,.18-.06,.36-.07,.54h0v.88c.66,7.9,19.86,14.26,43.36,14.26s43.39-6.59,43.39-14.68-19.46-14.68-43.39-14.68Z"/><path class="cls-8" d="M360.52,343.42c.03-.12,.06-.24,.08-.36v-2.11h0v-2.08c-1.35,3.23-5.66,6.19-12.45,8.51-8.26,2.82-19.25,4.38-30.93,4.38s-22.66-1.56-30.93-4.38c-6.69-2.29-10.96-5.19-12.4-8.37v1.89c.02,.11,.03,.22,.06,.33-.02-.04-.04-.08-.06-.12v1.96c.03,.17,.07,.34,.11,.5-.04-.07-.08-.15-.11-.22v1.89c.02,.11,.03,.22,.06,.33-.02-.04-.04-.08-.06-.12v1.96c.03,.19,.08,.37,.13,.55-.05-.09-.1-.18-.14-.27v1.89c.02,.11,.03,.22,.06,.33-.02-.04-.04-.08-.06-.12v3.58c0,.11,.03,.22,.05,.33-.02-.04-.04-.08-.06-.12v1.96c1.2,7.74,20.18,13.91,43.35,13.91,11.23,0,21.89-1.46,30.02-4.1,8.02-2.61,12.75-6.1,13.33-9.82v-2.11h0v-3.78h0v-2.08c0,.05-.04,.11-.06,.16,.02-.1,.05-.2,.07-.3v-2.11h0v-2.08c-.02,.07-.06,.14-.09,.22Z"/></g><g><path class="cls-9" d="M436.7,361.23l.98-6.11,2.19,.52c1.04,.25,1.84,.68,2.41,1.31,.56,.62,.84,1.37,.84,2.24,0,.68-.13,1.26-.4,1.73-.28,.48-.68,.8-1.21,.99-.53,.18-1.19,.18-1.97,0l-2.84-.67Zm1.81-.91l1.04,.25c.62,.15,1.1,.06,1.42-.26,.32-.32,.48-.82,.48-1.49,0-.47-.13-.87-.39-1.18-.26-.31-.66-.53-1.18-.66l-.79-.19-.57,3.53Z"/><path class="cls-9" d="M442.46,362.63l3.93-5.72,1.3,.21,1.93,6.65-1.56-.25-.33-1.34-2.82-.45-.75,1.17-1.7-.27Zm4.38-3.92l-1.2,1.87,1.75,.28-.53-2.15h-.02Z"/><path class="cls-9" d="M450.55,363.82l.79-4.91-2-.21,.21-1.33,5.66,.6-.21,1.33-2-.21-.79,4.91-1.65-.17Z"/><path class="cls-9" d="M453.14,364.15l3.97-6.11,1.31,.08,1.95,6.46-1.58-.09-.33-1.31-2.85-.17-.75,1.24-1.72-.1Zm4.43-4.35l-1.21,1.99,1.77,.11-.54-2.09h-.02Z"/><path class="cls-9" d="M466.31,364.71c-.59,0-1.11-.1-1.58-.32-.46-.21-.83-.54-1.1-.97-.27-.43-.4-.97-.4-1.6,0-.51,.08-.99,.23-1.42,.16-.44,.39-.82,.69-1.16,.3-.33,.68-.59,1.12-.78s.96-.29,1.54-.29c.43,0,.84,.06,1.22,.18s.69,.29,.91,.49l-.62,1.3c-.49-.36-1-.54-1.55-.54-.4,0-.74,.1-1,.29-.27,.19-.47,.45-.6,.77s-.2,.68-.2,1.08c0,.53,.12,.92,.37,1.16s.63,.37,1.16,.36c.23,0,.48-.04,.73-.12s.52-.21,.79-.39l.41,1.3c-.17,.13-.37,.25-.61,.35-.24,.1-.49,.17-.76,.23-.26,.05-.52,.08-.77,.08Z"/><path class="cls-9" d="M467.98,364.64l3.97-6.57,1.31-.08,1.95,6.23-1.58,.09-.33-1.27-2.85,.16-.75,1.33-1.72,.1Zm4.43-4.87l-1.21,2.13,1.77-.1-.54-2.03h-.02Z"/><path class="cls-9" d="M478.62,363.94c-.58,.06-1.11,.01-1.57-.16-.46-.17-.83-.46-1.09-.86-.27-.41-.4-.93-.4-1.56,0-.51,.08-.99,.23-1.45s.38-.86,.68-1.23,.67-.66,1.12-.9c.44-.23,.96-.38,1.53-.45,.43-.05,.83-.03,1.22,.06,.38,.09,.68,.22,.9,.4l-.62,1.36c-.48-.31-1-.44-1.54-.38-.4,.04-.73,.17-1,.39-.27,.22-.46,.5-.6,.83-.13,.34-.2,.7-.2,1.1,0,.53,.12,.9,.37,1.12,.24,.22,.63,.3,1.15,.25,.23-.03,.47-.09,.72-.2,.25-.11,.51-.26,.79-.47l.41,1.26c-.17,.15-.37,.29-.61,.41-.24,.12-.49,.22-.75,.3-.26,.08-.52,.13-.76,.16Z"/><path class="cls-9" d="M481.15,363.57l.99-6.52,1.63-.28-.38,2.51,2.57-.45,.39-2.52,1.62-.28-.99,6.52-1.62,.28,.39-2.61-2.57,.45-.4,2.61-1.63,.28Z"/><path class="cls-9" d="M487.91,362.37l.97-6.59,4.35-1.08-.19,1.33-2.82,.7-.18,1.25,2.62-.65-.2,1.33-2.62,.65-.2,1.35,2.81-.7-.19,1.33-4.34,1.08Z"/></g><g><path class="cls-9" d="M288.33,360.95l.98-6.1,2.18,.54c1.04,.26,1.83,.7,2.4,1.34,.56,.63,.84,1.38,.84,2.25,0,.68-.13,1.25-.4,1.73s-.68,.8-1.21,.97c-.53,.18-1.19,.17-1.96-.03l-2.83-.71Zm1.81-.89l1.04,.26c.62,.16,1.09,.07,1.41-.24s.48-.81,.48-1.48c0-.47-.13-.87-.39-1.19-.26-.32-.65-.54-1.18-.67l-.79-.2-.57,3.52Z"/><path class="cls-9" d="M294.1,362.43l3.92-5.68,1.3,.22,1.93,6.67-1.56-.26-.33-1.34-2.81-.47-.75,1.16-1.7-.29Zm4.38-3.88l-1.2,1.86,1.75,.29-.53-2.15h-.02Z"/><path class="cls-9" d="M302.17,363.71l.79-4.9-2-.23,.21-1.33,5.65,.65-.21,1.33-2-.23-.79,4.9-1.64-.19Z"/><path class="cls-9" d="M304.75,364.06l3.97-6.08,1.31,.09,1.95,6.48-1.58-.11-.33-1.31-2.85-.19-.75,1.24-1.72-.12Zm4.43-4.32l-1.21,1.98,1.77,.12-.54-2.1h-.02Z"/><path class="cls-9" d="M317.92,364.71c-.59,0-1.11-.1-1.58-.32-.46-.22-.83-.54-1.1-.97-.27-.43-.4-.97-.4-1.6,0-.51,.08-.98,.23-1.42,.16-.44,.39-.82,.69-1.16,.3-.33,.68-.59,1.12-.78s.96-.28,1.54-.29c.43,0,.84,.06,1.22,.19s.69,.29,.91,.5l-.62,1.3c-.49-.36-1-.54-1.55-.54-.4,0-.74,.1-1,.29-.27,.19-.47,.45-.6,.77-.13,.32-.2,.68-.2,1.08,0,.53,.12,.92,.37,1.16,.25,.25,.63,.37,1.16,.37,.23,0,.48-.04,.73-.12,.25-.08,.52-.21,.79-.39l.41,1.3c-.17,.13-.37,.25-.61,.34-.24,.1-.49,.17-.76,.22-.26,.05-.52,.08-.77,.08Z"/><path class="cls-9" d="M319.59,364.66l3.97-6.54,1.31-.06,1.95,6.25-1.58,.08-.33-1.27-2.85,.14-.75,1.32-1.72,.08Zm4.43-4.84l-1.21,2.12,1.77-.09-.54-2.04h-.02Z"/><path class="cls-9" d="M330.22,364.05c-.59,.06-1.11,0-1.57-.17-.46-.17-.83-.46-1.09-.87s-.4-.93-.4-1.57c0-.51,.08-.99,.23-1.45,.16-.45,.38-.86,.69-1.22,.3-.36,.67-.66,1.12-.89,.44-.23,.96-.38,1.54-.43,.43-.04,.84-.02,1.22,.07s.68,.23,.9,.41l-.62,1.36c-.48-.32-1-.45-1.54-.39-.4,.04-.73,.17-1,.38s-.47,.49-.6,.83c-.13,.33-.2,.7-.2,1.1,0,.53,.12,.9,.37,1.13,.25,.22,.63,.31,1.16,.26,.23-.02,.47-.09,.73-.19s.51-.26,.79-.47l.41,1.26c-.17,.15-.37,.28-.61,.4-.24,.12-.49,.22-.75,.3-.26,.08-.52,.13-.76,.15Z"/><path class="cls-9" d="M332.76,363.71l1-6.51,1.63-.27-.38,2.51,2.58-.42,.39-2.51,1.62-.27-.99,6.51-1.63,.26,.39-2.6-2.58,.42-.4,2.6-1.63,.27Z"/><path class="cls-9" d="M339.53,362.57l.97-6.57,4.36-1.03-.19,1.32-2.83,.67-.18,1.25,2.63-.62-.2,1.33-2.63,.62-.2,1.35,2.82-.66-.19,1.32-4.35,1.03Z"/></g><g><path class="cls-9" d="M195.97,360.78l.98-6.09,2.18,.56c1.03,.27,1.83,.72,2.39,1.36s.84,1.39,.84,2.26c0,.68-.13,1.25-.4,1.72-.27,.47-.67,.79-1.21,.96-.53,.17-1.18,.16-1.96-.04l-2.82-.73Zm1.8-.88l1.04,.27c.62,.16,1.09,.08,1.41-.23s.47-.81,.47-1.48c0-.47-.13-.87-.39-1.19s-.65-.55-1.18-.68l-.78-.2-.57,3.52Z"/><path class="cls-9" d="M201.72,362.31l3.92-5.66,1.29,.23,1.92,6.68-1.56-.27-.33-1.34-2.81-.49-.75,1.16-1.69-.3Zm4.37-3.85l-1.2,1.85,1.75,.3-.53-2.15h-.02Z"/><path class="cls-9" d="M209.78,363.63l.79-4.9-2-.24,.21-1.32,5.65,.68-.21,1.32-2-.24-.79,4.9-1.64-.2Z"/><path class="cls-9" d="M212.36,364l3.97-6.06,1.31,.1,1.95,6.49-1.58-.12-.33-1.31-2.85-.21-.75,1.23-1.71-.12Zm4.43-4.29l-1.21,1.97,1.77,.13-.54-2.1h-.02Z"/><path class="cls-9" d="M225.53,364.72c-.59,0-1.11-.12-1.58-.34-.46-.22-.83-.55-1.1-.99-.27-.44-.4-.97-.4-1.61,0-.51,.08-.98,.23-1.42,.16-.44,.39-.82,.69-1.15s.68-.58,1.12-.77c.45-.18,.96-.27,1.54-.27,.43,0,.84,.07,1.22,.2s.69,.3,.91,.5l-.62,1.29c-.49-.37-1-.55-1.55-.56-.4,0-.74,.09-1,.28-.27,.19-.47,.44-.6,.76-.13,.32-.2,.68-.2,1.08,0,.53,.12,.92,.37,1.17,.25,.25,.63,.38,1.16,.38,.23,0,.48-.04,.73-.11,.25-.08,.52-.2,.79-.38l.41,1.31c-.17,.13-.37,.24-.61,.34s-.49,.17-.76,.22c-.26,.05-.52,.07-.77,.07Z"/><path class="cls-9" d="M227.21,364.67l3.97-6.52,1.31-.06,1.95,6.26-1.58,.07-.33-1.27-2.85,.13-.75,1.32-1.72,.08Zm4.43-4.82l-1.21,2.12,1.77-.08-.54-2.04h-.02Z"/><path class="cls-9" d="M237.84,364.11c-.58,.06-1.11,0-1.57-.18s-.83-.47-1.09-.88c-.27-.41-.4-.93-.4-1.57,0-.51,.08-.99,.23-1.44s.38-.86,.69-1.22c.3-.36,.67-.65,1.12-.88s.96-.37,1.54-.43c.43-.04,.84-.02,1.22,.08,.38,.09,.68,.23,.9,.41l-.62,1.36c-.48-.32-1-.45-1.54-.4-.4,.04-.73,.17-1,.38s-.47,.49-.6,.82-.2,.7-.2,1.09c0,.53,.12,.91,.37,1.13,.24,.23,.63,.31,1.16,.26,.23-.02,.47-.08,.73-.19,.25-.1,.51-.26,.79-.46l.41,1.26c-.17,.15-.37,.28-.61,.4-.24,.12-.49,.22-.75,.29s-.52,.13-.76,.15Z"/><path class="cls-9" d="M240.35,363.78l1-6.5,1.64-.26-.38,2.51,2.58-.4,.39-2.51,1.63-.25-1,6.5-1.63,.25,.39-2.6-2.58,.4-.4,2.6-1.64,.26Z"/><path class="cls-9" d="M247.15,362.69l.97-6.57,4.37-.99-.19,1.32-2.83,.65-.18,1.25,2.63-.6-.2,1.32-2.63,.6-.2,1.35,2.83-.64-.19,1.32-4.36,.99Z"/></g><g class="cls-11"><g><path class="cls-2" d="M68.4,194.35c-.03,.25-.05,.5-.06,.76h-.06c0,.07-.02,.14-.02,.22v.54"/><path class="cls-3" d="M68.25,200.41v.32c4.25,50.45,126.86,91.04,276.97,91.04s277.1-42.06,277.1-93.75-124.3-93.75-277.1-93.75S78.44,142.94,68.77,191.69c-.02,.14-.05,.27-.07,.41"/></g></g><g><g><rect class="cls-5" x="188.24" y="277.22" width="79.02" height="38.05" rx="10.99" ry="10.99"/><g><path class="cls-8" d="M208.73,300.03l-1.42-7.05h1.78l.77,4.44,2.29-4.44h1.32l.8,4.48,2.24-4.48h1.87l-3.66,7.05h-1.47l-.84-4.23-2.21,4.23h-1.47Z"/><path class="cls-8" d="M221.53,300.14c-.67,0-1.26-.12-1.76-.38s-.89-.61-1.17-1.08c-.28-.47-.42-1.04-.42-1.71,0-.81,.16-1.53,.48-2.15,.32-.62,.77-1.1,1.35-1.44,.58-.35,1.25-.52,2-.52,.67,0,1.26,.12,1.76,.38s.89,.61,1.17,1.08,.42,1.04,.42,1.69c0,.82-.16,1.54-.48,2.15-.32,.62-.77,1.1-1.34,1.45s-1.24,.52-2.01,.52Zm.02-1.54c.4,0,.74-.11,1.02-.32,.28-.21,.5-.51,.66-.89,.15-.38,.23-.83,.23-1.33,0-.56-.13-.98-.39-1.24-.26-.27-.62-.41-1.08-.41-.39,0-.73,.11-1.01,.32-.28,.21-.5,.51-.65,.89-.15,.38-.22,.83-.22,1.33,0,.56,.13,.97,.39,1.25,.26,.27,.61,.41,1.06,.41Z"/><path class="cls-8" d="M225.89,300.03l1.12-7.05h3.03c.81,0,1.42,.18,1.85,.54s.65,.85,.65,1.47c0,.67-.18,1.19-.53,1.56-.35,.38-.81,.62-1.38,.74,.19,.07,.36,.19,.49,.36,.13,.16,.25,.36,.34,.59l.68,1.78h-1.88l-.8-2.12c-.07-.19-.16-.32-.26-.39-.11-.08-.26-.12-.46-.12h-.6l-.42,2.63h-1.84Zm2.46-3.93h1.33c.74,0,1.11-.31,1.11-.94,0-.26-.08-.45-.26-.58-.17-.13-.44-.19-.8-.19h-1.11l-.27,1.71Z"/><path class="cls-8" d="M232.95,300.03l1.12-7.05h1.84l-.48,3.02h.02l3.11-3.02h2.27l-3.65,3.48,2.66,3.57h-2.06l-2.46-3.23h-.02l-.51,3.23h-1.84Z"/><path class="cls-8" d="M240.08,300.03l1.11-7.05h4.98l-.22,1.42h-3.23l-.21,1.34h3l-.23,1.42h-3l-.23,1.45h3.22l-.22,1.42h-4.97Z"/><path class="cls-8" d="M246.21,300.03l1.12-7.05h3.03c.81,0,1.42,.18,1.85,.54s.65,.85,.65,1.47c0,.67-.18,1.19-.53,1.56-.35,.38-.81,.62-1.38,.74,.19,.07,.36,.19,.49,.36,.13,.16,.25,.36,.34,.59l.68,1.78h-1.88l-.8-2.12c-.07-.19-.16-.32-.26-.39-.11-.08-.26-.12-.46-.12h-.6l-.42,2.63h-1.84Zm2.46-3.93h1.33c.74,0,1.11-.31,1.11-.94,0-.26-.08-.45-.26-.58-.17-.13-.44-.19-.8-.19h-1.11l-.27,1.71Z"/></g></g><g><rect class="cls-5" x="277.68" y="276.95" width="79.02" height="38.05" rx="10.99" ry="10.99"/><g><path class="cls-8" d="M298.17,299.76l-1.42-7.05h1.78l.77,4.44,2.29-4.44h1.32l.8,4.48,2.24-4.48h1.87l-3.66,7.05h-1.47l-.84-4.23-2.21,4.23h-1.47Z"/><path class="cls-8" d="M310.97,299.87c-.67,0-1.26-.12-1.76-.38s-.89-.61-1.17-1.08c-.28-.47-.42-1.04-.42-1.71,0-.81,.16-1.53,.48-2.15,.32-.62,.77-1.1,1.35-1.44,.58-.35,1.25-.52,2-.52,.67,0,1.26,.12,1.76,.38s.89,.61,1.17,1.08,.42,1.04,.42,1.7c0,.82-.16,1.54-.48,2.15-.32,.62-.77,1.1-1.34,1.45s-1.24,.52-2.01,.52Zm.02-1.54c.4,0,.74-.11,1.02-.32,.28-.21,.5-.51,.66-.89,.15-.38,.23-.83,.23-1.33,0-.56-.13-.98-.39-1.25-.26-.27-.62-.41-1.08-.41-.39,0-.73,.11-1.01,.32-.28,.21-.5,.51-.65,.89-.15,.38-.22,.83-.22,1.33,0,.56,.13,.97,.39,1.25,.26,.27,.61,.41,1.06,.41Z"/><path class="cls-8" d="M315.33,299.76l1.12-7.05h3.03c.81,0,1.42,.18,1.85,.54s.65,.85,.65,1.47c0,.67-.18,1.19-.53,1.57-.35,.38-.81,.62-1.38,.74,.19,.07,.36,.19,.49,.36,.13,.16,.25,.36,.34,.59l.68,1.78h-1.88l-.8-2.12c-.07-.19-.16-.32-.26-.39-.11-.08-.26-.12-.46-.12h-.6l-.42,2.63h-1.84Zm2.46-3.93h1.33c.74,0,1.11-.31,1.11-.94,0-.26-.08-.45-.26-.58-.17-.13-.44-.19-.8-.19h-1.11l-.27,1.71Z"/><path class="cls-8" d="M322.39,299.76l1.12-7.05h1.84l-.48,3.02h.02l3.11-3.02h2.27l-3.65,3.48,2.66,3.57h-2.06l-2.46-3.23h-.02l-.51,3.23h-1.84Z"/><path class="cls-8" d="M329.52,299.76l1.11-7.05h4.98l-.22,1.42h-3.23l-.21,1.34h3l-.23,1.42h-3l-.23,1.45h3.22l-.22,1.42h-4.97Z"/><path class="cls-8" d="M335.65,299.76l1.12-7.05h3.03c.81,0,1.42,.18,1.85,.54s.65,.85,.65,1.47c0,.67-.18,1.19-.53,1.57-.35,.38-.81,.62-1.38,.74,.19,.07,.36,.19,.49,.36,.13,.16,.25,.36,.34,.59l.68,1.78h-1.88l-.8-2.12c-.07-.19-.16-.32-.26-.39-.11-.08-.26-.12-.46-.12h-.6l-.42,2.63h-1.84Zm2.46-3.93h1.33c.74,0,1.11-.31,1.11-.94,0-.26-.08-.45-.26-.58-.17-.13-.44-.19-.8-.19h-1.11l-.27,1.71Z"/></g></g><g><rect class="cls-5" x="427.15" y="275.73" width="79.02" height="38.05" rx="10.99" ry="10.99"/><g><path class="cls-8" d="M447.64,298.54l-1.42-7.05h1.78l.77,4.44,2.29-4.44h1.32l.8,4.48,2.24-4.48h1.87l-3.66,7.05h-1.47l-.84-4.23-2.21,4.23h-1.47Z"/><path class="cls-8" d="M460.44,298.65c-.67,0-1.26-.12-1.76-.38s-.89-.61-1.17-1.08c-.28-.47-.42-1.04-.42-1.7,0-.81,.16-1.53,.48-2.15,.32-.62,.77-1.1,1.35-1.44,.58-.35,1.25-.52,2-.52,.67,0,1.26,.12,1.76,.38s.89,.61,1.17,1.08,.42,1.04,.42,1.7c0,.82-.16,1.54-.48,2.15-.32,.62-.77,1.1-1.34,1.45s-1.24,.52-2.01,.52Zm.02-1.54c.4,0,.74-.11,1.02-.32,.28-.21,.5-.51,.66-.89,.15-.38,.23-.82,.23-1.32,0-.56-.13-.98-.39-1.25-.26-.27-.62-.41-1.08-.41-.39,0-.73,.11-1.01,.32-.28,.21-.5,.51-.65,.89-.15,.38-.22,.83-.22,1.33,0,.56,.13,.97,.39,1.24,.26,.27,.61,.41,1.06,.41Z"/><path class="cls-8" d="M464.8,298.54l1.12-7.05h3.03c.81,0,1.42,.18,1.85,.54s.65,.85,.65,1.47c0,.67-.18,1.19-.53,1.57-.35,.38-.81,.62-1.38,.74,.19,.07,.36,.19,.49,.36,.13,.16,.25,.36,.34,.59l.68,1.78h-1.88l-.8-2.12c-.07-.19-.16-.32-.26-.39-.11-.08-.26-.12-.46-.12h-.6l-.42,2.63h-1.84Zm2.46-3.93h1.33c.74,0,1.11-.31,1.11-.94,0-.26-.08-.45-.26-.58-.17-.13-.44-.19-.8-.19h-1.11l-.27,1.71Z"/><path class="cls-8" d="M471.86,298.54l1.12-7.05h1.84l-.48,3.02h.02l3.11-3.02h2.27l-3.65,3.48,2.66,3.57h-2.06l-2.46-3.23h-.02l-.51,3.23h-1.84Z"/><path class="cls-8" d="M478.99,298.54l1.11-7.05h4.98l-.22,1.42h-3.23l-.21,1.34h3l-.23,1.42h-3l-.23,1.45h3.22l-.22,1.42h-4.97Z"/><path class="cls-8" d="M485.12,298.54l1.12-7.05h3.03c.81,0,1.42,.18,1.85,.54s.65,.85,.65,1.47c0,.67-.18,1.19-.53,1.57-.35,.38-.81,.62-1.38,.74,.19,.07,.36,.19,.49,.36,.13,.16,.25,.36,.34,.59l.68,1.78h-1.88l-.8-2.12c-.07-.19-.16-.32-.26-.39-.11-.08-.26-.12-.46-.12h-.6l-.42,2.63h-1.84Zm2.46-3.93h1.33c.74,0,1.11-.31,1.11-.94,0-.26-.08-.45-.26-.58-.17-.13-.44-.19-.8-.19h-1.11l-.27,1.71Z"/></g></g></g><rect class="cls-4" x="306.23" y="74.67" width="79.02" height="58.94" rx="13.68" ry="13.68"/><line class="cls-6" x1="345.28" y1="133.44" x2="345.28" y2="227"/><g><line class="cls-6" x1="318.55" y1="226" x2="318.51" y2="261.23"/><polygon class="cls-8" points="314.16 258.26 318.5 274.52 322.87 258.26 314.16 258.26"/></g><g><line class="cls-6" x1="467.52" y1="225.47" x2="467.48" y2="261.4"/><polygon class="cls-8" points="463.13 258.42 467.47 274.69 471.84 258.43 463.13 258.42"/></g><g><line class="cls-6" x1="228.35" y1="226.88" x2="228.27" y2="264.16"/><polygon class="cls-8" points="223.92 261.17 228.25 277.44 232.64 261.19 223.92 261.17"/></g><line class="cls-6" x1="468.09" y1="226.7" x2="226.93" y2="226.7"/><g><path class="cls-8" d="M358.25,181.17c-.41,0-.81-.05-1.2-.16s-.73-.28-1.02-.52l.37-.78c.31,.22,.63,.37,.95,.46s.66,.13,.99,.13c.37,0,.67-.07,.88-.22s.32-.33,.32-.57c0-.18-.06-.32-.19-.44s-.35-.21-.66-.28l-.87-.21c-.39-.09-.7-.25-.93-.49s-.34-.55-.34-.95c0-.37,.1-.69,.31-.96,.21-.26,.48-.47,.82-.61,.34-.14,.71-.21,1.11-.21,.35,0,.71,.05,1.06,.16,.36,.11,.67,.28,.94,.51l-.38,.75c-.24-.2-.5-.35-.79-.43-.29-.09-.57-.13-.85-.13-.36,0-.65,.08-.87,.22-.22,.15-.34,.35-.34,.6,0,.2,.06,.36,.18,.46,.12,.11,.29,.19,.52,.25l.87,.21c.47,.11,.83,.28,1.07,.53s.36,.55,.36,.89c0,.39-.11,.72-.32,.98-.21,.26-.5,.46-.85,.59-.35,.13-.74,.2-1.15,.2Z"/><path class="cls-8" d="M364.04,181.17c-.5,0-.94-.09-1.32-.28s-.69-.47-.91-.85c-.22-.38-.33-.85-.33-1.42,0-.46,.07-.88,.2-1.28,.14-.39,.33-.73,.59-1.03,.26-.29,.58-.52,.96-.69,.38-.17,.81-.25,1.29-.25,.39,0,.75,.06,1.08,.18,.33,.12,.59,.29,.79,.49l-.42,.82c-.42-.38-.92-.58-1.48-.58-.41,0-.76,.1-1.05,.3s-.51,.47-.66,.82c-.15,.35-.22,.74-.22,1.18,0,.59,.14,1.02,.41,1.28,.27,.26,.67,.4,1.18,.4,.25,0,.5-.04,.74-.13,.24-.08,.49-.22,.74-.42l.3,.81c-.23,.21-.52,.37-.86,.48s-.68,.17-1.02,.17Z"/><path class="cls-8" d="M365.91,181.09l3.46-5.64h.84l1.65,5.64h-.98l-.34-1.3h-2.76l-.77,1.3h-1.09Zm3.74-4.53l-1.42,2.41h2.06l-.63-2.41h-.02Z"/><path class="cls-8" d="M373.21,181.09l.76-4.78h-1.94l.14-.86h4.9l-.14,.86h-1.94l-.76,4.78h-1.02Z"/><path class="cls-8" d="M378.28,181.09l.76-4.78h-1.94l.14-.86h4.9l-.14,.86h-1.94l-.76,4.78h-1.02Z"/><path class="cls-8" d="M381.89,181.09l.89-5.64h3.75l-.13,.82h-2.77l-.25,1.55h2.6l-.13,.82h-2.6l-.26,1.64h2.77l-.13,.82h-3.74Z"/><path class="cls-8" d="M386.66,181.09l.9-5.64h2.2c.62,0,1.1,.14,1.42,.42,.32,.28,.48,.66,.48,1.14,0,.51-.14,.91-.42,1.2-.28,.29-.65,.47-1.11,.55,.14,.06,.26,.15,.36,.28,.1,.12,.18,.28,.25,.45l.62,1.6h-1.05l-.66-1.73c-.07-.19-.16-.33-.28-.41s-.28-.12-.5-.12h-.82l-.35,2.26h-1.03Zm1.5-3.02h1.36c.36,0,.64-.08,.84-.25s.3-.41,.3-.73c0-.28-.08-.49-.26-.62s-.44-.21-.81-.21h-1.15l-.29,1.82Z"/><path class="cls-8" d="M392.21,179.35l.13-.79h2.38l-.13,.79h-2.38Z"/><path class="cls-8" d="M398.36,181.17c-.52,0-.98-.1-1.38-.29s-.7-.47-.92-.85c-.22-.37-.33-.83-.33-1.37,0-.64,.12-1.21,.37-1.7s.6-.89,1.07-1.17c.47-.28,1.03-.42,1.68-.42,.42,0,.8,.06,1.13,.18,.33,.12,.59,.28,.78,.47l-.42,.81c-.44-.37-.95-.56-1.55-.56-.42,0-.78,.1-1.08,.31-.3,.21-.52,.49-.68,.84s-.24,.76-.24,1.21c0,.57,.15,.98,.44,1.26,.29,.27,.71,.41,1.26,.41,.18,0,.34-.01,.51-.04s.32-.06,.48-.11l.22-1.34h-1.3l.11-.76h2.15l-.43,2.76c-.26,.12-.55,.21-.89,.27-.34,.06-.67,.1-1,.1Z"/><path class="cls-8" d="M400.76,181.09l3.46-5.64h.84l1.65,5.64h-.98l-.34-1.3h-2.76l-.77,1.3h-1.09Zm3.74-4.53l-1.42,2.41h2.06l-.63-2.41h-.02Z"/><path class="cls-8" d="M408.05,181.09l.76-4.78h-1.94l.14-.86h4.9l-.14,.86h-1.94l-.76,4.78h-1.02Z"/><path class="cls-8" d="M411.66,181.09l.9-5.64h1.02l-.38,2.35h2.9l.38-2.35h1.02l-.9,5.64h-1.02l.38-2.43h-2.9l-.38,2.43h-1.02Z"/><path class="cls-8" d="M417.85,181.09l.89-5.64h3.75l-.13,.82h-2.77l-.25,1.55h2.6l-.13,.82h-2.6l-.26,1.64h2.77l-.13,.82h-3.74Z"/><path class="cls-8" d="M422.62,181.09l.9-5.64h2.2c.62,0,1.1,.14,1.42,.42,.32,.28,.48,.66,.48,1.14,0,.51-.14,.91-.42,1.2-.28,.29-.65,.47-1.11,.55,.14,.06,.26,.15,.36,.28,.1,.12,.18,.28,.25,.45l.62,1.6h-1.05l-.66-1.73c-.07-.19-.16-.33-.28-.41s-.28-.12-.5-.12h-.82l-.35,2.26h-1.03Zm1.5-3.02h1.36c.36,0,.64-.08,.84-.25s.3-.41,.3-.73c0-.28-.08-.49-.26-.62s-.44-.21-.81-.21h-1.15l-.29,1.82Z"/></g><g><path class="cls-8" d="M81.84,102.9c-.59,0-1.11-.11-1.58-.33s-.83-.55-1.1-.98c-.27-.43-.4-.97-.4-1.61,0-.51,.08-.98,.23-1.42,.16-.44,.39-.82,.69-1.15s.68-.59,1.12-.77c.45-.19,.96-.28,1.54-.28,.43,0,.84,.06,1.22,.19,.38,.13,.69,.3,.91,.5l-.62,1.3c-.49-.37-1-.55-1.55-.55-.4,0-.74,.09-1,.28-.27,.19-.47,.44-.6,.77-.13,.32-.2,.68-.2,1.08,0,.53,.12,.92,.37,1.17s.63,.37,1.16,.37c.23,0,.48-.04,.73-.12s.52-.21,.79-.39l.41,1.3c-.17,.13-.37,.25-.61,.34-.24,.1-.49,.17-.76,.22-.26,.05-.52,.08-.77,.08Z"/><path class="cls-8" d="M84.6,102.8l1.01-6.34h1.66l-.78,4.97h2.82l-.22,1.38h-4.48Z"/><path class="cls-8" d="M89.87,102.8l1.01-6.34h1.66l-1.01,6.34h-1.66Z"/><path class="cls-8" d="M92.69,102.8l1-6.34h4.48l-.2,1.28h-2.91l-.19,1.21h2.7l-.21,1.28h-2.7l-.21,1.3h2.9l-.2,1.28h-4.47Z"/><path class="cls-8" d="M98.2,102.8l1.01-6.34h1.21l2.31,3.79,.59-3.79h1.54l-1.01,6.34h-1.21l-2.3-3.79-.6,3.79h-1.54Z"/><path class="cls-8" d="M106.51,102.8l.79-5h-2.02l.22-1.35h5.69l-.22,1.35h-2.02l-.79,5h-1.66Z"/><path class="cls-8" d="M113.12,102.9c-.47,0-.93-.06-1.38-.18-.45-.12-.85-.31-1.2-.56l.54-1.24c.37,.23,.74,.39,1.12,.49,.38,.1,.74,.14,1.07,.14s.6-.05,.79-.16c.18-.11,.27-.25,.27-.42,0-.14-.06-.25-.17-.35-.11-.1-.29-.17-.53-.22l-1.04-.25c-.46-.1-.82-.3-1.08-.58-.27-.29-.4-.64-.4-1.07,0-.46,.12-.84,.37-1.16,.25-.31,.58-.55,.99-.72s.85-.25,1.33-.25c.4,0,.8,.06,1.21,.17,.41,.11,.78,.29,1.12,.54l-.57,1.18c-.27-.19-.57-.33-.89-.41-.32-.08-.62-.12-.89-.12-.33,0-.59,.06-.78,.17-.19,.11-.28,.25-.28,.43,0,.27,.21,.46,.63,.56l1.04,.24c.49,.11,.87,.32,1.14,.61s.41,.64,.41,1.05c0,.36-.08,.67-.23,.94-.16,.27-.37,.49-.63,.67-.26,.18-.57,.31-.91,.4s-.7,.13-1.07,.13Z"/></g><g><path class="cls-8" d="M518.71,109.41l.02-.84,.58-.03c.25-.02,.45-.09,.58-.23s.23-.35,.27-.62l.63-3.98h1.02l-.65,4.07c-.08,.5-.25,.89-.52,1.15s-.69,.42-1.28,.46l-.66,.03Z"/><path class="cls-8" d="M522.15,109.34l.9-5.64h1.81c.9,0,1.59,.21,2.07,.63,.49,.42,.73,1.01,.74,1.78,0,.6-.12,1.15-.36,1.64-.24,.49-.59,.88-1.07,1.16s-1.08,.43-1.8,.43h-2.28Zm1.16-.85h1.14c.5,0,.91-.1,1.22-.31,.31-.21,.55-.49,.7-.85,.15-.36,.22-.76,.22-1.21,0-.51-.15-.9-.44-1.17-.29-.27-.72-.4-1.3-.4h-.92l-.62,3.94Z"/><path class="cls-8" d="M528.24,109.34l.9-5.64h2.32c.62,0,1.08,.12,1.36,.37s.42,.57,.42,.96c0,.36-.1,.67-.31,.92-.21,.25-.48,.42-.82,.52,.27,.1,.48,.25,.63,.46s.22,.45,.22,.74c0,.55-.18,.97-.54,1.25-.36,.29-.86,.43-1.5,.43h-2.67Zm1.1-.78h1.52c.37,0,.64-.08,.83-.25,.18-.17,.28-.4,.28-.71,0-.25-.08-.43-.24-.55-.16-.12-.4-.18-.71-.18h-1.4l-.27,1.7Zm.4-2.47h1.37c.36,0,.63-.08,.83-.24s.3-.39,.3-.7c0-.22-.08-.39-.23-.5-.15-.12-.39-.18-.72-.18h-1.3l-.26,1.62Z"/><path class="cls-8" d="M536.58,109.42c-.5,0-.94-.09-1.32-.28s-.69-.47-.91-.85c-.22-.38-.33-.85-.33-1.42,0-.46,.07-.88,.2-1.28,.14-.39,.33-.73,.59-1.03,.26-.29,.58-.52,.96-.69,.38-.17,.81-.25,1.29-.25,.39,0,.75,.06,1.08,.18,.33,.12,.59,.29,.79,.49l-.42,.82c-.42-.38-.92-.58-1.48-.58-.41,0-.76,.1-1.05,.3s-.51,.47-.66,.82c-.15,.35-.22,.74-.22,1.18,0,.59,.14,1.02,.41,1.28,.27,.26,.67,.4,1.18,.4,.25,0,.5-.04,.74-.13,.24-.08,.49-.22,.74-.42l.3,.81c-.23,.21-.52,.37-.86,.48s-.68,.17-1.02,.17Z"/></g><g><line class="cls-7" x1="124.21" y1="100.04" x2="296.64" y2="100.04"/><polygon class="cls-8" points="294.66 102.94 305.5 100.04 294.66 97.13 294.66 102.94"/></g><g><path class="cls-8" d="M645.7,96.16c-25.6,0-46.62,6.76-48.31,15.27-.03,.2-.06,.4-.08,.6h-.01v.98c.74,8.82,22.16,15.91,48.4,15.91s48.42-7.35,48.42-16.38-21.72-16.38-48.42-16.38Z"/><path class="cls-8" d="M693.96,122.72c.03-.13,.07-.26,.09-.4l.02-2.36h0l.02-2.32c-1.53,3.6-6.33,6.91-13.91,9.5-9.22,3.15-21.48,4.89-34.52,4.89s-25.29-1.74-34.52-4.89c-7.46-2.55-12.23-5.8-13.84-9.34v2.11c.02,.12,.04,.24,.06,.37-.02-.05-.04-.09-.06-.14v2.18c.03,.19,.08,.37,.13,.56-.04-.08-.09-.17-.13-.25v2.11c.02,.12,.04,.24,.06,.37-.02-.05-.04-.09-.06-.14v2.18c.03,.21,.09,.41,.14,.62-.05-.1-.11-.2-.16-.31v2.11c.02,.12,.04,.24,.06,.37-.02-.05-.04-.09-.06-.14v2.18s.02,.06,.02,.09c-.01-.03-.03-.05-.04-.08v2.11c.02,.12,.04,.24,.06,.37-.02-.05-.04-.09-.06-.14v2.18c1.34,8.64,22.52,15.52,48.38,15.52,12.54,0,24.43-1.63,33.5-4.58,8.95-2.91,14.23-6.8,14.88-10.96l.02-2.36h0l.02-2.32h0l.02-2.21h0l.02-2.32c-.03,.06-.06,.12-.09,.18,.02-.11,.06-.22,.08-.34l.02-2.36h0l.02-2.32c-.03,.08-.08,.16-.12,.24Z"/></g><g><path class="cls-9" d="M601.02,134.67l.8-4.61,1.03,.82,1.14,3.94,2.05-1.4,1.12,.9-.8,4.61-1.18-.94,.43-2.52-1.43,.94-.7-.56-.84-2.74-.43,2.49-1.18-.94Z"/><path class="cls-9" d="M607.35,139.19l.94-4.88,4.22,1.63-.19,.98-2.74-1.06-.18,.93,2.54,.98-.19,.98-2.54-.98-.2,1,2.73,1.06-.19,.98-4.21-1.63Z"/><path class="cls-9" d="M613.87,141.49l.77-3.92-1.97-.52,.21-1.06,5.55,1.48-.21,1.06-1.97-.52-.77,3.92-1.62-.43Z"/><path class="cls-9" d="M616.39,142.25l3.95-4.48,1.3,.25,1.94,5.62-1.57-.3-.33-1.13-2.83-.55-.75,.92-1.71-.33Zm4.4-2.96l-1.21,1.47,1.76,.34-.54-1.81h-.02Z"/><path class="cls-9" d="M623.74,143.65l1.01-5.11,2.25,.29c1.07,.14,1.89,.45,2.47,.93,.58,.48,.87,1.08,.87,1.8,0,.56-.13,1.05-.41,1.46-.28,.41-.7,.71-1.25,.89s-1.23,.23-2.02,.12l-2.92-.37Zm1.87-.87l1.07,.14c.64,.08,1.13-.02,1.46-.3,.33-.29,.49-.71,.49-1.26,0-.39-.14-.71-.41-.95-.27-.24-.68-.4-1.22-.47l-.81-.1-.59,2.95Z"/><path class="cls-9" d="M629.66,144.44l4.01-4.94,1.32,.1,1.97,5.4-1.59-.12-.34-1.09-2.87-.22-.76,1-1.73-.13Zm4.47-3.47l-1.22,1.61,1.79,.14-.54-1.75h-.02Z"/><path class="cls-9" d="M637.91,145.02l.8-4.1-2.03-.08,.22-1.11,5.74,.23-.22,1.11-2.04-.08-.8,4.1-1.67-.07Z"/><path class="cls-9" d="M640.54,145.17l4.02-5.22h1.33l1.97,5.26h-1.6l-.34-1.07-2.88-.02-.76,1.06h-1.74Zm4.48-3.8l-1.23,1.7h1.79l-.54-1.7h-.02Z"/><path class="cls-9" d="M653.86,145.05c-.59,.03-1.12-.03-1.59-.19-.47-.16-.84-.41-1.11-.75-.27-.35-.4-.78-.4-1.31,0-.42,.08-.82,.24-1.19,.16-.37,.39-.7,.7-.99s.68-.52,1.13-.7c.45-.18,.97-.28,1.56-.31,.44-.02,.85,.01,1.24,.1,.39,.09,.69,.21,.92,.37l-.63,1.1c-.49-.28-1.01-.4-1.56-.37-.41,.02-.74,.12-1.01,.29-.27,.17-.47,.39-.61,.66-.14,.27-.21,.57-.21,.9,0,.44,.12,.75,.37,.94,.25,.19,.64,.28,1.17,.25,.24-.01,.48-.06,.74-.13,.25-.08,.52-.2,.8-.36l.42,1.06c-.17,.12-.38,.22-.62,.31-.24,.09-.5,.17-.76,.22-.27,.06-.52,.09-.77,.1Z"/><path class="cls-9" d="M655.53,144.92l4-5.62,1.32-.12,1.96,5.06-1.59,.15-.33-1.03-2.87,.27-.76,1.14-1.73,.16Zm4.46-4.24l-1.22,1.82,1.78-.17-.54-1.65h-.02Z"/><path class="cls-9" d="M663.76,144.08l.79-4.24-2.02,.28,.22-1.15,5.69-.79-.22,1.15-2.02,.28-.79,4.24-1.66,.23Z"/><path class="cls-9" d="M666.37,143.79l3.95-6,1.3-.25,1.94,4.87-1.57,.3-.33-1-2.83,.54-.75,1.21-1.71,.33Zm4.4-4.66l-1.21,1.94,1.76-.34-.54-1.6h-.02Z"/><path class="cls-9" d="M673.74,142.35l.98-5.51,1.61-.44-.76,4.31,2.75-.75-.21,1.2-4.37,1.19Z"/><path class="cls-9" d="M681.47,140.02c-.57,.23-1.06,.34-1.48,.32-.42-.02-.75-.15-.98-.41-.23-.26-.35-.63-.35-1.13,0-.6,.14-1.19,.41-1.76s.65-1.08,1.13-1.53c.49-.45,1.05-.81,1.69-1.07,.57-.23,1.06-.33,1.48-.32s.75,.15,.98,.41c.23,.26,.35,.63,.35,1.12,0,.61-.13,1.2-.4,1.77s-.65,1.08-1.13,1.53-1.05,.81-1.7,1.07Zm.02-1.15c.34-.14,.62-.33,.86-.59,.24-.25,.42-.55,.55-.89,.13-.34,.19-.69,.19-1.06,0-.42-.11-.68-.33-.79-.22-.11-.52-.09-.91,.06-.33,.13-.62,.33-.86,.58s-.42,.55-.55,.89c-.13,.34-.19,.69-.19,1.06,0,.42,.11,.68,.33,.79,.22,.11,.52,.09,.89-.06Z"/><path class="cls-9" d="M687.64,136.38c-.44,.41-.83,.68-1.18,.82s-.62,.12-.81-.05c-.2-.17-.29-.52-.29-1.04,0-.56,.1-1.17,.32-1.82,.21-.65,.52-1.3,.93-1.95,.41-.65,.91-1.25,1.5-1.8,.36-.33,.68-.58,.96-.74s.5-.23,.64-.22l-.46,1.49c-.36,.05-.77,.28-1.21,.7-.31,.29-.58,.62-.79,.98-.21,.36-.37,.73-.48,1.1s-.16,.72-.16,1.03c0,.45,.11,.68,.32,.69s.51-.16,.89-.51c.19-.17,.39-.39,.61-.66l.12-.95-.94,.88,.13-1.08,1.94-1.81-.38,3.02c-.24,.36-.51,.7-.81,1.04-.3,.33-.58,.63-.86,.89Z"/></g><g><line class="cls-7" x1="384.82" y1="113.57" x2="588.44" y2="113.57"/><polygon class="cls-8" points="586.45 116.47 597.29 113.57 586.45 110.66 586.45 116.47"/></g><g><path class="cls-8" d="M140.74,95.19c-.5,0-.94-.09-1.32-.28s-.69-.47-.91-.85c-.22-.38-.33-.85-.33-1.42,0-.46,.07-.88,.2-1.28,.14-.39,.33-.73,.59-1.03,.26-.29,.58-.52,.96-.69,.38-.17,.81-.25,1.29-.25,.39,0,.75,.06,1.08,.18,.33,.12,.59,.29,.79,.49l-.42,.82c-.42-.38-.92-.58-1.48-.58-.41,0-.76,.1-1.05,.3s-.51,.47-.66,.82c-.15,.35-.22,.74-.22,1.18,0,.59,.14,1.02,.41,1.28,.27,.26,.67,.4,1.18,.4,.25,0,.5-.04,.74-.13,.24-.08,.49-.22,.74-.42l.3,.81c-.23,.21-.52,.37-.86,.48s-.68,.17-1.02,.17Z"/><path class="cls-8" d="M143.34,95.11l.9-5.64h1.02l-.75,4.77h2.7l-.14,.87h-3.73Z"/><path class="cls-8" d="M147.84,95.11l.9-5.64h1.02l-.9,5.64h-1.02Z"/><path class="cls-8" d="M150.1,95.11l.89-5.64h3.75l-.13,.82h-2.77l-.25,1.55h2.6l-.13,.82h-2.6l-.26,1.64h2.77l-.13,.82h-3.74Z"/><path class="cls-8" d="M154.87,95.11l.9-5.64h.77l2.38,4.05,.64-4.05h.95l-.9,5.64h-.76l-2.39-4.05-.64,4.05h-.95Z"/><path class="cls-8" d="M162.21,95.11l.76-4.78h-1.94l.14-.86h4.9l-.14,.86h-1.94l-.76,4.78h-1.02Z"/><path class="cls-8" d="M167.97,95.11l.9-5.64h2.19c.62,0,1.1,.13,1.42,.4,.33,.27,.49,.66,.49,1.16,0,.61-.19,1.09-.57,1.44-.38,.35-.93,.52-1.65,.52h-1.42l-.34,2.11h-1.02Zm1.49-2.92h1.34c.38,0,.68-.09,.88-.28,.2-.18,.3-.45,.3-.8,0-.56-.35-.84-1.04-.84h-1.18l-.3,1.91Z"/><path class="cls-8" d="M173.19,95.11l.9-5.64h2.2c.62,0,1.1,.14,1.42,.42,.32,.28,.48,.66,.48,1.14,0,.51-.14,.91-.42,1.2-.28,.29-.65,.47-1.11,.55,.14,.06,.26,.15,.36,.28,.1,.12,.18,.28,.25,.45l.62,1.6h-1.05l-.66-1.73c-.07-.19-.16-.33-.28-.41s-.28-.12-.5-.12h-.82l-.35,2.26h-1.03Zm1.5-3.02h1.36c.36,0,.64-.08,.84-.25s.3-.41,.3-.73c0-.28-.08-.49-.26-.62s-.44-.21-.81-.21h-1.15l-.29,1.82Z"/><path class="cls-8" d="M181.38,95.19c-.5,0-.94-.1-1.31-.29-.37-.19-.66-.47-.87-.84-.21-.37-.31-.82-.31-1.34,0-.65,.12-1.22,.36-1.72,.24-.5,.58-.89,1.02-1.18,.44-.29,.97-.43,1.58-.43,.51,0,.95,.1,1.32,.29,.37,.19,.66,.47,.86,.84,.21,.37,.31,.81,.31,1.34,0,.65-.12,1.22-.36,1.72-.24,.5-.58,.9-1.02,1.18-.44,.29-.97,.43-1.58,.43Zm.02-.88c.4,0,.74-.11,1.02-.32,.28-.21,.49-.5,.63-.87,.14-.37,.22-.79,.22-1.26,0-.54-.13-.94-.38-1.2-.26-.26-.61-.4-1.06-.4-.4,0-.73,.1-1.01,.31-.28,.21-.49,.5-.63,.86-.14,.37-.22,.79-.22,1.26,0,.54,.13,.95,.38,1.21,.26,.26,.61,.4,1.05,.4Z"/><path class="cls-8" d="M185.94,95.11l.76-4.78h-1.94l.14-.86h4.9l-.14,.86h-1.94l-.76,4.78h-1.02Z"/><path class="cls-8" d="M191.94,95.19c-.5,0-.94-.1-1.31-.29-.37-.19-.66-.47-.87-.84-.21-.37-.31-.82-.31-1.34,0-.65,.12-1.22,.36-1.72,.24-.5,.58-.89,1.02-1.18,.44-.29,.97-.43,1.58-.43,.51,0,.95,.1,1.32,.29,.37,.19,.66,.47,.86,.84,.21,.37,.31,.81,.31,1.34,0,.65-.12,1.22-.36,1.72-.24,.5-.58,.9-1.02,1.18-.44,.29-.97,.43-1.58,.43Zm.02-.88c.4,0,.74-.11,1.02-.32,.28-.21,.49-.5,.63-.87,.14-.37,.22-.79,.22-1.26,0-.54-.13-.94-.38-1.2-.26-.26-.61-.4-1.06-.4-.4,0-.73,.1-1.01,.31-.28,.21-.49,.5-.63,.86-.14,.37-.22,.79-.22,1.26,0,.54,.13,.95,.38,1.21,.26,.26,.61,.4,1.05,.4Z"/><path class="cls-8" d="M198.31,95.19c-.5,0-.94-.09-1.32-.28s-.69-.47-.91-.85c-.22-.38-.33-.85-.33-1.42,0-.46,.07-.88,.2-1.28,.14-.39,.33-.73,.59-1.03,.26-.29,.58-.52,.96-.69,.38-.17,.81-.25,1.29-.25,.39,0,.75,.06,1.08,.18,.33,.12,.59,.29,.79,.49l-.42,.82c-.42-.38-.92-.58-1.48-.58-.41,0-.76,.1-1.05,.3s-.51,.47-.66,.82c-.15,.35-.22,.74-.22,1.18,0,.59,.14,1.02,.41,1.28,.27,.26,.67,.4,1.18,.4,.25,0,.5-.04,.74-.13,.24-.08,.49-.22,.74-.42l.3,.81c-.23,.21-.52,.37-.86,.48s-.68,.17-1.02,.17Z"/><path class="cls-8" d="M203.47,95.19c-.5,0-.94-.1-1.31-.29-.37-.19-.66-.47-.87-.84-.21-.37-.31-.82-.31-1.34,0-.65,.12-1.22,.36-1.72,.24-.5,.58-.89,1.02-1.18,.44-.29,.97-.43,1.58-.43,.51,0,.95,.1,1.32,.29,.37,.19,.66,.47,.86,.84,.21,.37,.31,.81,.31,1.34,0,.65-.12,1.22-.36,1.72-.24,.5-.58,.9-1.02,1.18-.44,.29-.97,.43-1.58,.43Zm.02-.88c.4,0,.74-.11,1.02-.32,.28-.21,.49-.5,.63-.87,.14-.37,.22-.79,.22-1.26,0-.54-.13-.94-.38-1.2-.26-.26-.61-.4-1.06-.4-.4,0-.73,.1-1.01,.31-.28,.21-.49,.5-.63,.86-.14,.37-.22,.79-.22,1.26,0,.54,.13,.95,.38,1.21,.26,.26,.61,.4,1.05,.4Z"/><path class="cls-8" d="M207.01,95.11l.9-5.64h1.02l-.75,4.77h2.7l-.14,.87h-3.73Z"/></g><g><path class="cls-8" d="M384.25,299.48l.55-3.46h3.53l-.57,3.46h-3.51Z"/><path class="cls-8" d="M389.42,299.48l.55-3.46h3.53l-.57,3.46h-3.51Z"/><path class="cls-8" d="M394.59,299.48l.55-3.46h3.53l-.57,3.46h-3.51Z"/></g><line class="cls-7" x1="386.32" y1="85.56" x2="710.77" y2="85.56"/><g><path class="cls-8" d="M322.73,109.4l1.23-7.75h1.6l1.76,4.49,3.18-4.49h1.74l-1.23,7.75h-1.83l.67-4.23-2.22,3.09h-1.09l-1.31-3.05-.67,4.19h-1.83Z"/><path class="cls-8" d="M331.5,109.4l4.86-7.75h1.61l2.39,7.75h-1.94l-.41-1.57h-3.49l-.92,1.57h-2.1Zm5.42-5.64l-1.49,2.52h2.17l-.66-2.52h-.02Z"/><path class="cls-8" d="M343.78,109.52c-.57,0-1.13-.08-1.68-.23-.55-.15-1.04-.38-1.46-.69l.66-1.52c.45,.28,.91,.48,1.38,.59,.47,.12,.91,.18,1.31,.18s.74-.07,.96-.2c.22-.13,.34-.3,.34-.52,0-.17-.07-.31-.2-.43-.14-.12-.35-.21-.64-.26l-1.27-.31c-.56-.12-1-.36-1.33-.72-.33-.35-.49-.79-.49-1.31,0-.56,.15-1.03,.46-1.41,.3-.39,.71-.68,1.21-.88,.5-.2,1.04-.3,1.62-.3,.48,0,.98,.07,1.48,.21s.96,.36,1.37,.66l-.69,1.44c-.33-.23-.69-.4-1.08-.5-.39-.1-.75-.15-1.08-.15-.4,0-.72,.07-.95,.2-.23,.14-.35,.31-.35,.52,0,.33,.26,.56,.77,.68l1.27,.3c.6,.14,1.07,.39,1.4,.74,.33,.36,.5,.78,.5,1.28,0,.44-.1,.82-.29,1.15-.19,.33-.45,.6-.77,.81s-.69,.38-1.11,.48c-.42,.11-.85,.16-1.31,.16Z"/><path class="cls-8" d="M349.55,109.4l.97-6.1h-2.46l.26-1.65h6.95l-.26,1.65h-2.46l-.97,6.1h-2.02Z"/><path class="cls-8" d="M354.82,109.4l1.22-7.75h5.48l-.24,1.56h-3.55l-.23,1.47h3.3l-.25,1.56h-3.3l-.25,1.6h3.54l-.24,1.56h-5.47Z"/><path class="cls-8" d="M361.56,109.4l1.23-7.75h3.33c.89,0,1.57,.2,2.04,.59,.47,.39,.71,.93,.71,1.62,0,.73-.19,1.31-.58,1.72-.39,.41-.89,.69-1.51,.82,.21,.08,.39,.21,.54,.39,.15,.18,.27,.4,.37,.65l.75,1.96h-2.07l-.88-2.33c-.07-.21-.17-.35-.29-.43-.12-.08-.29-.13-.5-.13h-.66l-.46,2.89h-2.02Zm2.71-4.32h1.46c.81,0,1.22-.34,1.22-1.03,0-.29-.09-.5-.28-.64-.19-.14-.48-.21-.89-.21h-1.22l-.3,1.88Z"/></g><line class="cls-7" x1="710.77" y1="476.33" x2="710.77" y2="85.56"/><g><line class="cls-7" x1="478.16" y1="476.33" x2="711.12" y2="476.33"/><polygon class="cls-8" points="480.14 479.24 469.3 476.33 480.14 473.43 480.14 479.24"/></g><line class="cls-7" x1="508.11" y1="295.91" x2="738.48" y2="295.91"/><line class="cls-7" x1="738.4" y1="506.35" x2="738.4" y2="295.91"/><g><line class="cls-7" x1="479.34" y1="506.35" x2="738.56" y2="506.35"/><polygon class="cls-8" points="481.32 509.25 470.48 506.35 481.32 503.44 481.32 509.25"/></g><g><path class="cls-8" d="M493.35,494.91c-.41,0-.81-.05-1.2-.16s-.73-.28-1.02-.52l.37-.78c.31,.22,.63,.37,.95,.46s.66,.13,.99,.13c.37,0,.67-.07,.88-.22s.32-.33,.32-.57c0-.18-.06-.32-.19-.44s-.35-.21-.66-.28l-.87-.21c-.39-.09-.7-.25-.93-.49s-.34-.55-.34-.95c0-.37,.1-.69,.31-.96,.21-.26,.48-.47,.82-.61,.34-.14,.71-.21,1.11-.21,.35,0,.71,.05,1.06,.16,.36,.11,.67,.28,.94,.51l-.38,.75c-.24-.2-.5-.35-.79-.43-.29-.09-.57-.13-.85-.13-.36,0-.65,.08-.87,.22-.22,.15-.34,.35-.34,.6,0,.2,.06,.36,.18,.46,.12,.11,.29,.19,.52,.25l.87,.21c.47,.11,.83,.28,1.07,.53s.36,.55,.36,.89c0,.39-.11,.72-.32,.98-.21,.26-.5,.46-.85,.59-.35,.13-.74,.2-1.15,.2Z"/><path class="cls-8" d="M495.66,494.83l3.46-5.64h.84l1.65,5.64h-.98l-.34-1.3h-2.76l-.77,1.3h-1.09Zm3.74-4.53l-1.42,2.41h2.06l-.63-2.41h-.02Z"/><path class="cls-8" d="M502.23,494.83l.9-5.64h.82l1.4,3.71,2.58-3.71h.88l-.9,5.64h-.93l.6-3.81-2.06,2.95h-.59l-1.16-2.94-.61,3.8h-.93Z"/><path class="cls-8" d="M509.16,494.83l.9-5.64h2.19c.62,0,1.1,.13,1.42,.4,.33,.27,.49,.66,.49,1.16,0,.61-.19,1.09-.57,1.44-.38,.35-.93,.52-1.65,.52h-1.42l-.34,2.11h-1.02Zm1.49-2.92h1.34c.38,0,.68-.09,.88-.28,.2-.18,.3-.45,.3-.8,0-.56-.35-.84-1.04-.84h-1.18l-.3,1.91Z"/><path class="cls-8" d="M514.37,494.83l.9-5.64h1.02l-.75,4.77h2.7l-.14,.87h-3.73Z"/><path class="cls-8" d="M518.88,494.83l.89-5.64h3.75l-.13,.82h-2.77l-.25,1.55h2.6l-.13,.82h-2.6l-.26,1.64h2.77l-.13,.82h-3.74Z"/><path class="cls-8" d="M525.66,494.91c-.41,0-.81-.05-1.2-.16s-.73-.28-1.02-.52l.37-.78c.31,.22,.63,.37,.95,.46s.66,.13,.99,.13c.37,0,.67-.07,.88-.22s.32-.33,.32-.57c0-.18-.06-.32-.19-.44s-.35-.21-.66-.28l-.87-.21c-.39-.09-.7-.25-.93-.49s-.34-.55-.34-.95c0-.37,.1-.69,.31-.96,.21-.26,.48-.47,.82-.61,.34-.14,.71-.21,1.11-.21,.35,0,.71,.05,1.06,.16,.36,.11,.67,.28,.94,.51l-.38,.75c-.24-.2-.5-.35-.79-.43-.29-.09-.57-.13-.85-.13-.36,0-.65,.08-.87,.22-.22,.15-.34,.35-.34,.6,0,.2,.06,.36,.18,.46,.12,.11,.29,.19,.52,.25l.87,.21c.47,.11,.83,.28,1.07,.53s.36,.55,.36,.89c0,.39-.11,.72-.32,.98-.21,.26-.5,.46-.85,.59-.35,.13-.74,.2-1.15,.2Z"/><path class="cls-8" d="M529.85,494.83l.76-4.78h-1.94l.14-.86h4.9l-.14,.86h-1.94l-.76,4.78h-1.02Z"/><path class="cls-8" d="M535.86,494.91c-.5,0-.94-.1-1.31-.29-.37-.19-.66-.47-.87-.84-.21-.37-.31-.82-.31-1.34,0-.65,.12-1.22,.36-1.72,.24-.5,.58-.89,1.02-1.18,.44-.29,.97-.43,1.58-.43,.51,0,.95,.1,1.32,.29,.37,.19,.66,.47,.86,.84,.21,.37,.31,.81,.31,1.34,0,.65-.12,1.22-.36,1.72-.24,.5-.58,.9-1.02,1.18-.44,.29-.97,.43-1.58,.43Zm.02-.88c.4,0,.74-.11,1.02-.32,.28-.21,.49-.5,.63-.87,.14-.37,.22-.79,.22-1.26,0-.54-.13-.94-.38-1.2-.26-.26-.61-.4-1.06-.4-.4,0-.73,.1-1.01,.31-.28,.21-.49,.5-.63,.86-.14,.37-.22,.79-.22,1.26,0,.54,.13,.95,.38,1.21,.26,.26,.61,.4,1.05,.4Z"/><path class="cls-8" d="M539.4,494.83l.9-5.64h2.2c.62,0,1.1,.14,1.42,.42,.32,.28,.48,.66,.48,1.14,0,.51-.14,.91-.42,1.2-.28,.29-.65,.47-1.11,.55,.14,.06,.26,.15,.36,.28,.1,.12,.18,.28,.25,.45l.62,1.6h-1.05l-.66-1.73c-.07-.19-.16-.33-.28-.41s-.28-.12-.5-.12h-.82l-.35,2.26h-1.03Zm1.5-3.02h1.36c.36,0,.64-.08,.84-.25s.3-.41,.3-.73c0-.28-.08-.49-.26-.62s-.44-.21-.81-.21h-1.15l-.29,1.82Z"/><path class="cls-8" d="M544.89,494.83l.89-5.64h3.75l-.13,.82h-2.77l-.25,1.55h2.6l-.13,.82h-2.6l-.26,1.64h2.77l-.13,.82h-3.74Z"/><path class="cls-8" d="M551.82,494.83l.9-5.64h2.19c.62,0,1.1,.13,1.42,.4,.33,.27,.49,.66,.49,1.16,0,.61-.19,1.09-.57,1.44-.38,.35-.93,.52-1.65,.52h-1.42l-.34,2.11h-1.02Zm1.49-2.92h1.34c.38,0,.68-.09,.88-.28,.2-.18,.3-.45,.3-.8,0-.56-.35-.84-1.04-.84h-1.18l-.3,1.91Z"/><path class="cls-8" d="M557.04,494.83l.9-5.64h2.2c.62,0,1.1,.14,1.42,.42,.32,.28,.48,.66,.48,1.14,0,.51-.14,.91-.42,1.2-.28,.29-.65,.47-1.11,.55,.14,.06,.26,.15,.36,.28,.1,.12,.18,.28,.25,.45l.62,1.6h-1.05l-.66-1.73c-.07-.19-.16-.33-.28-.41s-.28-.12-.5-.12h-.82l-.35,2.26h-1.03Zm1.5-3.02h1.36c.36,0,.64-.08,.84-.25s.3-.41,.3-.73c0-.28-.08-.49-.26-.62s-.44-.21-.81-.21h-1.15l-.29,1.82Z"/><path class="cls-8" d="M565.23,494.91c-.5,0-.94-.1-1.31-.29-.37-.19-.66-.47-.87-.84-.21-.37-.31-.82-.31-1.34,0-.65,.12-1.22,.36-1.72,.24-.5,.58-.89,1.02-1.18,.44-.29,.97-.43,1.58-.43,.51,0,.95,.1,1.32,.29,.37,.19,.66,.47,.86,.84,.21,.37,.31,.81,.31,1.34,0,.65-.12,1.22-.36,1.72-.24,.5-.58,.9-1.02,1.18-.44,.29-.97,.43-1.58,.43Zm.02-.88c.4,0,.74-.11,1.02-.32,.28-.21,.49-.5,.63-.87,.14-.37,.22-.79,.22-1.26,0-.54-.13-.94-.38-1.2-.26-.26-.61-.4-1.06-.4-.4,0-.73,.1-1.01,.31-.28,.21-.49,.5-.63,.86-.14,.37-.22,.79-.22,1.26,0,.54,.13,.95,.38,1.21,.26,.26,.61,.4,1.05,.4Z"/><path class="cls-8" d="M569.78,494.83l.76-4.78h-1.94l.14-.86h4.9l-.14,.86h-1.94l-.76,4.78h-1.02Z"/><path class="cls-8" d="M575.79,494.91c-.5,0-.94-.1-1.31-.29-.37-.19-.66-.47-.87-.84-.21-.37-.31-.82-.31-1.34,0-.65,.12-1.22,.36-1.72,.24-.5,.58-.89,1.02-1.18,.44-.29,.97-.43,1.58-.43,.51,0,.95,.1,1.32,.29,.37,.19,.66,.47,.86,.84,.21,.37,.31,.81,.31,1.34,0,.65-.12,1.22-.36,1.72-.24,.5-.58,.9-1.02,1.18-.44,.29-.97,.43-1.58,.43Zm.02-.88c.4,0,.74-.11,1.02-.32,.28-.21,.49-.5,.63-.87,.14-.37,.22-.79,.22-1.26,0-.54-.13-.94-.38-1.2-.26-.26-.61-.4-1.06-.4-.4,0-.73,.1-1.01,.31-.28,.21-.49,.5-.63,.86-.14,.37-.22,.79-.22,1.26,0,.54,.13,.95,.38,1.21,.26,.26,.61,.4,1.05,.4Z"/><path class="cls-8" d="M582.16,494.91c-.5,0-.94-.09-1.32-.28s-.69-.47-.91-.85c-.22-.38-.33-.85-.33-1.42,0-.46,.07-.88,.2-1.28,.14-.39,.33-.73,.59-1.03,.26-.29,.58-.52,.96-.69,.38-.17,.81-.25,1.29-.25,.39,0,.75,.06,1.08,.18,.33,.12,.59,.29,.79,.49l-.42,.82c-.42-.38-.92-.58-1.48-.58-.41,0-.76,.1-1.05,.3s-.51,.47-.66,.82c-.15,.35-.22,.74-.22,1.18,0,.59,.14,1.02,.41,1.28,.27,.26,.67,.4,1.18,.4,.25,0,.5-.04,.74-.13,.24-.08,.49-.22,.74-.42l.3,.81c-.23,.21-.52,.37-.86,.48s-.68,.17-1.02,.17Z"/><path class="cls-8" d="M587.32,494.91c-.5,0-.94-.1-1.31-.29-.37-.19-.66-.47-.87-.84-.21-.37-.31-.82-.31-1.34,0-.65,.12-1.22,.36-1.72,.24-.5,.58-.89,1.02-1.18,.44-.29,.97-.43,1.58-.43,.51,0,.95,.1,1.32,.29,.37,.19,.66,.47,.86,.84,.21,.37,.31,.81,.31,1.34,0,.65-.12,1.22-.36,1.72-.24,.5-.58,.9-1.02,1.18-.44,.29-.97,.43-1.58,.43Zm.02-.88c.4,0,.74-.11,1.02-.32,.28-.21,.49-.5,.63-.87,.14-.37,.22-.79,.22-1.26,0-.54-.13-.94-.38-1.2-.26-.26-.61-.4-1.06-.4-.4,0-.73,.1-1.01,.31-.28,.21-.49,.5-.63,.86-.14,.37-.22,.79-.22,1.26,0,.54,.13,.95,.38,1.21,.26,.26,.61,.4,1.05,.4Z"/><path class="cls-8" d="M590.85,494.83l.9-5.64h1.02l-.75,4.77h2.7l-.14,.87h-3.73Z"/></g><g><path class="cls-8" d="M26.67,45.29l2.26-14.21h6.41c1.12,0,2.02,.15,2.7,.45s1.18,.71,1.49,1.23,.46,1.1,.46,1.74c0,.87-.25,1.61-.76,2.22-.5,.6-1.17,1.03-2,1.27,.67,.26,1.19,.65,1.56,1.18,.37,.53,.55,1.15,.55,1.86,0,1.37-.48,2.42-1.45,3.15-.97,.73-2.27,1.1-3.91,1.1h-7.31Zm3.97-2.72h3.12c.7,0,1.22-.15,1.55-.46s.5-.75,.5-1.31c0-.9-.6-1.35-1.79-1.35h-2.88l-.5,3.12Zm.93-5.84h2.72c1.45,0,2.18-.58,2.18-1.75,0-.38-.14-.66-.42-.87s-.73-.3-1.33-.3h-2.68l-.46,2.92Z"/><path class="cls-8" d="M47.37,45.51c-1.24,0-2.32-.24-3.25-.72-.93-.48-1.62-1.21-2.07-2.2s-.54-2.23-.3-3.72l1.23-7.8h3.69l-1.27,8c-.16,1.05-.06,1.87,.31,2.46,.37,.59,1.02,.89,1.94,.89,.83,0,1.5-.23,2-.69,.5-.46,.84-1.16,1-2.12l1.35-8.54h3.65l-1.33,8.36c-.31,1.96-1,3.46-2.09,4.5-1.08,1.04-2.7,1.56-4.87,1.56Z"/><path class="cls-8" d="M55.89,45.29l2.26-14.21h6.1c1.63,0,2.87,.36,3.74,1.08,.87,.72,1.3,1.71,1.3,2.97,0,1.34-.35,2.4-1.06,3.15-.71,.76-1.63,1.26-2.77,1.5,.39,.15,.72,.39,.99,.72,.27,.33,.5,.73,.69,1.2l1.37,3.59h-3.79l-1.61-4.27c-.13-.38-.31-.64-.53-.8-.22-.15-.53-.23-.92-.23h-1.21l-.85,5.3h-3.71Zm4.96-7.92h2.68c1.49,0,2.24-.63,2.24-1.89,0-.52-.17-.91-.51-1.17-.34-.26-.88-.38-1.62-.38h-2.24l-.54,3.45Z"/><path class="cls-8" d="M75.64,45.51c-1.05,0-2.08-.14-3.08-.41s-1.9-.7-2.68-1.26l1.21-2.78c.82,.51,1.66,.87,2.52,1.09,.86,.22,1.66,.32,2.4,.32s1.35-.12,1.76-.36c.41-.24,.61-.56,.61-.95,0-.31-.12-.57-.37-.79-.25-.21-.64-.38-1.18-.48l-2.32-.56c-1.02-.23-1.83-.67-2.43-1.31-.6-.65-.9-1.44-.9-2.4,0-1.02,.28-1.88,.84-2.59,.56-.71,1.3-1.24,2.22-1.61,.92-.37,1.91-.55,2.97-.55,.89,0,1.79,.13,2.71,.38,.92,.26,1.76,.66,2.51,1.21l-1.27,2.64c-.6-.43-1.27-.74-1.98-.92-.72-.18-1.38-.27-1.98-.27-.74,0-1.32,.12-1.74,.37-.42,.25-.63,.57-.63,.96,0,.6,.47,1.02,1.41,1.25l2.32,.54c1.1,.25,1.95,.71,2.56,1.36,.6,.65,.91,1.43,.91,2.35,0,.81-.17,1.51-.52,2.11-.35,.6-.82,1.1-1.41,1.49-.59,.4-1.27,.69-2.04,.89-.77,.19-1.57,.29-2.4,.29Z"/><path class="cls-8" d="M86.19,45.29l1.77-11.18h-4.51l.48-3.02h12.73l-.48,3.02h-4.51l-1.77,11.18h-3.71Z"/><path class="cls-8" d="M109.25,45.51c-1.32,0-2.5-.25-3.54-.74-1.04-.49-1.86-1.22-2.46-2.2s-.9-2.17-.9-3.6c0-1.14,.17-2.2,.52-3.18,.35-.98,.86-1.84,1.54-2.58,.68-.74,1.52-1.32,2.52-1.73,1-.42,2.15-.62,3.46-.62,.97,0,1.88,.14,2.74,.43,.86,.29,1.54,.66,2.04,1.12l-1.39,2.9c-1.09-.82-2.24-1.23-3.47-1.23-.9,0-1.65,.21-2.25,.63-.6,.42-1.05,.99-1.35,1.71-.3,.72-.45,1.52-.45,2.41,0,1.18,.27,2.05,.83,2.61,.55,.56,1.42,.84,2.6,.84,.52,0,1.07-.09,1.63-.26,.56-.17,1.16-.46,1.77-.87l.93,2.92c-.38,.3-.83,.55-1.37,.77-.54,.22-1.1,.38-1.69,.49-.59,.11-1.16,.17-1.71,.17Z"/><path class="cls-8" d="M115.45,45.29l2.24-14.21h10.03l-.44,2.86h-6.51l-.42,2.7h6.04l-.46,2.86h-6.04l-.46,2.92h6.49l-.44,2.86h-10.01Z"/><path class="cls-8" d="M127.8,45.29l2.26-14.21h3.71l-1.75,11.12h6.31l-.48,3.08h-10.03Z"/><path class="cls-8" d="M139.59,45.29l2.26-14.21h3.71l-1.75,11.12h6.31l-.48,3.08h-10.03Z"/></g><g><path class="cls-9" d="M299.41,463.72c-.57,0-1.13-.08-1.68-.23-.55-.15-1.04-.38-1.46-.69l.66-1.52c.45,.28,.91,.48,1.38,.59,.47,.12,.91,.18,1.31,.18s.74-.07,.96-.2c.22-.13,.34-.3,.34-.52,0-.17-.07-.31-.2-.43s-.35-.21-.64-.26l-1.27-.31c-.56-.12-1-.36-1.33-.71-.33-.35-.49-.79-.49-1.31,0-.56,.15-1.03,.46-1.41s.71-.68,1.21-.88c.5-.2,1.04-.3,1.62-.3,.48,0,.98,.07,1.48,.21,.5,.14,.96,.36,1.37,.66l-.69,1.44c-.33-.24-.69-.4-1.08-.5-.39-.1-.75-.15-1.08-.15-.4,0-.72,.07-.95,.2-.23,.14-.35,.31-.35,.52,0,.33,.26,.56,.77,.68l1.27,.3c.6,.14,1.07,.39,1.4,.74,.33,.36,.5,.78,.5,1.28,0,.44-.1,.82-.29,1.15-.19,.33-.45,.6-.77,.81-.32,.22-.69,.38-1.11,.48s-.85,.16-1.31,.16Z"/><path class="cls-9" d="M302.49,463.6l4.86-7.75h1.61l2.39,7.75h-1.94l-.41-1.57h-3.49l-.92,1.57h-2.1Zm5.42-5.64l-1.49,2.52h2.17l-.66-2.52h-.02Z"/><path class="cls-9" d="M311.84,463.6l1.23-7.75h1.6l1.76,4.49,3.18-4.49h1.74l-1.23,7.75h-1.83l.67-4.23-2.22,3.09h-1.09l-1.31-3.05-.67,4.19h-1.83Z"/><path class="cls-9" d="M321.54,463.6l1.23-7.75h3.28c.94,0,1.64,.2,2.11,.6,.47,.4,.7,.95,.7,1.64,0,.91-.28,1.61-.83,2.1-.55,.49-1.35,.74-2.4,.74h-1.63l-.43,2.67h-2.02Zm2.7-4.22h1.46c.82,0,1.23-.37,1.23-1.11,0-.58-.39-.87-1.16-.87h-1.23l-.31,1.98Z"/><path class="cls-9" d="M328.97,463.6l1.23-7.75h2.02l-.96,6.07h3.44l-.26,1.68h-5.48Z"/><path class="cls-9" d="M335.42,463.6l1.22-7.75h5.48l-.24,1.56h-3.55l-.23,1.47h3.3l-.25,1.56h-3.3l-.25,1.6h3.54l-.24,1.56h-5.47Z"/><path class="cls-9" d="M348.37,463.72c-.57,0-1.13-.08-1.68-.23-.55-.15-1.04-.38-1.46-.69l.66-1.52c.45,.28,.91,.48,1.38,.59,.47,.12,.91,.18,1.31,.18s.74-.07,.96-.2c.22-.13,.34-.3,.34-.52,0-.17-.07-.31-.2-.43s-.35-.21-.64-.26l-1.27-.31c-.56-.12-1-.36-1.33-.71-.33-.35-.49-.79-.49-1.31,0-.56,.15-1.03,.46-1.41s.71-.68,1.21-.88c.5-.2,1.04-.3,1.62-.3,.48,0,.98,.07,1.48,.21,.5,.14,.96,.36,1.37,.66l-.69,1.44c-.33-.24-.69-.4-1.08-.5-.39-.1-.75-.15-1.08-.15-.4,0-.72,.07-.95,.2-.23,.14-.35,.31-.35,.52,0,.33,.26,.56,.77,.68l1.27,.3c.6,.14,1.07,.39,1.4,.74,.33,.36,.5,.78,.5,1.28,0,.44-.1,.82-.29,1.15-.19,.33-.45,.6-.77,.81-.32,.22-.69,.38-1.11,.48s-.85,.16-1.31,.16Z"/><path class="cls-9" d="M354.13,463.6l.97-6.1h-2.46l.26-1.65h6.95l-.26,1.65h-2.46l-.97,6.1h-2.02Z"/><path class="cls-9" d="M363.02,463.72c-.74,0-1.39-.14-1.94-.41-.55-.28-.98-.67-1.28-1.19-.3-.52-.46-1.14-.46-1.88,0-.89,.18-1.68,.53-2.36,.35-.68,.85-1.21,1.48-1.59s1.37-.57,2.21-.57c.74,0,1.39,.14,1.94,.41,.55,.27,.98,.67,1.28,1.19,.3,.52,.46,1.14,.46,1.86,0,.9-.18,1.69-.53,2.37-.35,.68-.84,1.21-1.47,1.59-.63,.38-1.37,.57-2.21,.57Zm.02-1.69c.44,0,.82-.12,1.13-.35s.55-.56,.72-.98c.17-.42,.25-.91,.25-1.46,0-.62-.15-1.07-.43-1.37s-.68-.45-1.18-.45c-.43,0-.8,.12-1.12,.35-.31,.24-.55,.56-.72,.98-.16,.42-.25,.91-.25,1.46,0,.62,.14,1.07,.43,1.37s.67,.45,1.17,.45Z"/><path class="cls-9" d="M367.81,463.6l1.23-7.75h3.33c.89,0,1.57,.2,2.04,.59,.47,.39,.71,.93,.71,1.62,0,.73-.19,1.31-.58,1.72-.39,.41-.89,.69-1.51,.82,.21,.08,.39,.21,.54,.39,.15,.18,.27,.4,.37,.65l.75,1.96h-2.07l-.88-2.33c-.07-.21-.17-.35-.29-.43-.12-.08-.29-.13-.5-.13h-.66l-.46,2.89h-2.02Zm2.71-4.32h1.46c.81,0,1.22-.34,1.22-1.03,0-.29-.09-.5-.28-.64-.19-.14-.48-.21-.89-.21h-1.22l-.3,1.88Z"/><path class="cls-9" d="M375.59,463.6l1.22-7.75h5.48l-.24,1.56h-3.55l-.23,1.47h3.3l-.25,1.56h-3.3l-.25,1.6h3.54l-.24,1.56h-5.47Z"/></g><g><path class="cls-8" d="M493.3,519.5l-1.42-7.05h1.78l.77,4.44,2.29-4.44h1.32l.8,4.48,2.24-4.48h1.87l-3.66,7.05h-1.47l-.84-4.23-2.21,4.23h-1.47Z"/><path class="cls-8" d="M506.1,519.61c-.67,0-1.26-.12-1.76-.38s-.89-.61-1.17-1.08c-.28-.47-.42-1.04-.42-1.71,0-.81,.16-1.53,.48-2.15,.32-.62,.77-1.1,1.35-1.44,.58-.35,1.25-.52,2-.52,.67,0,1.26,.12,1.76,.38s.89,.61,1.17,1.08,.42,1.04,.42,1.7c0,.82-.16,1.54-.48,2.15-.32,.62-.77,1.1-1.34,1.45s-1.24,.52-2.01,.52Zm.02-1.54c.4,0,.74-.11,1.02-.32,.28-.21,.5-.51,.66-.89,.15-.38,.23-.83,.23-1.33,0-.56-.13-.98-.39-1.25-.26-.27-.62-.41-1.08-.41-.39,0-.73,.11-1.01,.32-.28,.21-.5,.51-.65,.89-.15,.38-.22,.83-.22,1.33,0,.56,.13,.97,.39,1.25,.26,.27,.61,.41,1.06,.41Z"/><path class="cls-8" d="M510.46,519.5l1.12-7.05h3.03c.81,0,1.42,.18,1.85,.54s.65,.85,.65,1.47c0,.67-.18,1.19-.53,1.57-.35,.38-.81,.62-1.38,.74,.19,.07,.36,.19,.49,.36,.13,.16,.25,.36,.34,.59l.68,1.78h-1.88l-.8-2.12c-.07-.19-.16-.32-.26-.39-.11-.08-.26-.12-.46-.12h-.6l-.42,2.63h-1.84Zm2.46-3.93h1.33c.74,0,1.11-.31,1.11-.94,0-.26-.08-.45-.26-.58-.17-.13-.44-.19-.8-.19h-1.11l-.27,1.71Z"/><path class="cls-8" d="M517.52,519.5l1.12-7.05h1.84l-.48,3.02h.02l3.11-3.02h2.27l-3.65,3.48,2.66,3.57h-2.06l-2.46-3.23h-.02l-.51,3.23h-1.84Z"/><path class="cls-8" d="M524.65,519.5l1.11-7.05h4.98l-.22,1.42h-3.23l-.21,1.34h3l-.23,1.42h-3l-.23,1.45h3.22l-.22,1.42h-4.97Z"/><path class="cls-8" d="M530.78,519.5l1.12-7.05h3.03c.81,0,1.42,.18,1.85,.54s.65,.85,.65,1.47c0,.67-.18,1.19-.53,1.57-.35,.38-.81,.62-1.38,.74,.19,.07,.36,.19,.49,.36,.13,.16,.25,.36,.34,.59l.68,1.78h-1.88l-.8-2.12c-.07-.19-.16-.32-.26-.39-.11-.08-.26-.12-.46-.12h-.6l-.42,2.63h-1.84Zm2.46-3.93h1.33c.74,0,1.11-.31,1.11-.94,0-.26-.08-.45-.26-.58-.17-.13-.44-.19-.8-.19h-1.11l-.27,1.71Z"/></g><g><path class="cls-8" d="M491.32,468.8l1.12-7.05h1.45l1.6,4.08,2.89-4.08h1.58l-1.12,7.05h-1.66l.61-3.85-2.02,2.81h-.99l-1.19-2.77-.61,3.81h-1.66Z"/><path class="cls-8" d="M499.29,468.8l4.42-7.05h1.46l2.17,7.05h-1.76l-.37-1.43h-3.17l-.84,1.43h-1.91Zm4.93-5.13l-1.35,2.29h1.97l-.6-2.29h-.02Z"/><path class="cls-8" d="M510.46,468.91c-.52,0-1.03-.07-1.53-.21s-.94-.35-1.33-.62l.6-1.38c.41,.25,.82,.43,1.25,.54,.43,.11,.82,.16,1.19,.16s.67-.06,.88-.18,.3-.28,.3-.47c0-.15-.06-.28-.18-.39-.12-.11-.32-.19-.58-.24l-1.15-.28c-.51-.11-.91-.33-1.21-.65-.3-.32-.44-.72-.44-1.19,0-.51,.14-.94,.42-1.29,.28-.35,.64-.62,1.1-.8s.95-.28,1.47-.28c.44,0,.89,.06,1.35,.19,.46,.13,.87,.33,1.25,.6l-.63,1.31c-.3-.21-.63-.37-.98-.46-.36-.09-.69-.14-.99-.14-.37,0-.66,.06-.87,.19s-.31,.28-.31,.47c0,.3,.23,.51,.7,.62l1.15,.27c.55,.13,.97,.35,1.27,.67s.45,.71,.45,1.17c0,.4-.09,.75-.26,1.04-.17,.3-.41,.54-.7,.74-.29,.2-.63,.34-1.01,.44s-.78,.15-1.19,.15Z"/><path class="cls-8" d="M515.7,468.8l.88-5.55h-2.24l.24-1.5h6.32l-.24,1.5h-2.24l-.88,5.55h-1.84Z"/><path class="cls-8" d="M520.49,468.8l1.11-7.05h4.98l-.22,1.42h-3.23l-.21,1.34h3l-.23,1.42h-3l-.23,1.45h3.22l-.22,1.42h-4.97Z"/><path class="cls-8" d="M526.62,468.8l1.12-7.05h3.03c.81,0,1.42,.18,1.85,.54s.65,.85,.65,1.47c0,.67-.18,1.19-.53,1.57-.35,.38-.81,.62-1.38,.74,.19,.07,.36,.19,.49,.36,.13,.16,.25,.36,.34,.59l.68,1.78h-1.88l-.8-2.12c-.07-.19-.16-.32-.26-.39-.11-.08-.26-.12-.46-.12h-.6l-.42,2.63h-1.84Zm2.46-3.93h1.33c.74,0,1.11-.31,1.11-.94,0-.26-.08-.45-.26-.58-.17-.13-.44-.19-.8-.19h-1.11l-.27,1.71Z"/></g><g><path class="cls-8" d="M77.65,198.91l1.11-7.05h4.92l-.22,1.42h-3.08l-.23,1.42h2.86l-.22,1.41h-2.86l-.44,2.8h-1.84Z"/><path class="cls-8" d="M82.06,198.91l4.42-7.05h1.46l2.17,7.05h-1.76l-.37-1.43h-3.17l-.84,1.43h-1.91Zm4.93-5.13l-1.35,2.29h1.97l-.6-2.29h-.02Z"/><path class="cls-8" d="M90.54,198.91l1.12-7.05h3.18c.55,0,1,.08,1.34,.22,.34,.15,.59,.35,.74,.61s.23,.54,.23,.87c0,.43-.12,.8-.38,1.1s-.58,.51-1,.63c.33,.13,.59,.32,.77,.58,.18,.26,.28,.57,.28,.92,0,.68-.24,1.2-.72,1.57-.48,.36-1.13,.54-1.94,.54h-3.63Zm1.97-1.35h1.55c.35,0,.6-.08,.77-.23s.25-.37,.25-.65c0-.45-.3-.67-.89-.67h-1.43l-.25,1.55Zm.46-2.9h1.35c.72,0,1.08-.29,1.08-.87,0-.19-.07-.33-.21-.43-.14-.1-.36-.15-.66-.15h-1.33l-.23,1.45Z"/><path class="cls-8" d="M97.56,198.91l1.12-7.05h3.03c.81,0,1.42,.18,1.85,.54s.65,.85,.65,1.47c0,.67-.18,1.19-.53,1.57-.35,.38-.81,.62-1.38,.74,.19,.07,.36,.19,.49,.36,.13,.16,.25,.36,.34,.59l.68,1.78h-1.88l-.8-2.12c-.07-.19-.16-.32-.26-.39-.11-.08-.26-.12-.46-.12h-.6l-.42,2.63h-1.84Zm2.46-3.93h1.33c.74,0,1.11-.31,1.11-.94,0-.26-.08-.45-.26-.58-.17-.13-.44-.19-.8-.19h-1.11l-.27,1.71Z"/><path class="cls-8" d="M104.62,198.91l1.12-7.05h1.84l-1.12,7.05h-1.84Z"/><path class="cls-8" d="M111.54,199.02c-.65,0-1.24-.12-1.75-.37s-.92-.61-1.22-1.09c-.3-.48-.45-1.08-.45-1.79,0-.57,.09-1.09,.26-1.58,.17-.49,.43-.91,.77-1.28,.34-.37,.75-.65,1.25-.86,.5-.21,1.07-.31,1.71-.31,.48,0,.93,.07,1.36,.21,.43,.14,.76,.33,1.01,.56l-.69,1.44c-.54-.41-1.11-.61-1.72-.61-.45,0-.82,.1-1.12,.31s-.52,.49-.67,.85c-.15,.36-.22,.75-.22,1.19,0,.59,.14,1.02,.41,1.29,.27,.28,.7,.42,1.29,.42,.26,0,.53-.04,.81-.13s.57-.23,.88-.43l.46,1.45c-.19,.15-.41,.27-.68,.38s-.55,.19-.84,.25c-.29,.06-.58,.08-.85,.08Z"/><path class="cls-8" d="M117.47,198.91l1.12-7.05h2.98c.85,0,1.49,.18,1.92,.54,.42,.36,.64,.86,.64,1.5,0,.83-.25,1.46-.76,1.91-.5,.45-1.23,.67-2.18,.67h-1.48l-.39,2.43h-1.84Zm2.45-3.84h1.33c.75,0,1.12-.34,1.12-1.01,0-.53-.35-.79-1.05-.79h-1.12l-.28,1.8Z"/><path class="cls-8" d="M124.23,198.91l1.12-7.05h3.03c.81,0,1.42,.18,1.85,.54s.65,.85,.65,1.47c0,.67-.18,1.19-.53,1.57-.35,.38-.81,.62-1.38,.74,.19,.07,.36,.19,.49,.36,.13,.16,.25,.36,.34,.59l.68,1.78h-1.88l-.8-2.12c-.07-.19-.16-.32-.26-.39-.11-.08-.26-.12-.46-.12h-.6l-.42,2.63h-1.84Zm2.46-3.93h1.33c.74,0,1.11-.31,1.11-.94,0-.26-.08-.45-.26-.58-.17-.13-.44-.19-.8-.19h-1.11l-.27,1.71Z"/><path class="cls-8" d="M134.95,199.02c-.67,0-1.26-.12-1.76-.38s-.89-.61-1.17-1.08c-.28-.47-.42-1.04-.42-1.71,0-.81,.16-1.53,.48-2.15,.32-.62,.77-1.1,1.35-1.44,.58-.35,1.25-.52,2-.52,.67,0,1.26,.12,1.76,.38s.89,.61,1.17,1.08,.42,1.04,.42,1.7c0,.82-.16,1.54-.48,2.15-.32,.62-.77,1.1-1.34,1.45s-1.24,.52-2.01,.52Zm.02-1.54c.4,0,.74-.11,1.02-.32,.28-.21,.5-.51,.66-.89,.15-.38,.23-.83,.23-1.33,0-.56-.13-.98-.39-1.25-.26-.27-.62-.41-1.08-.41-.39,0-.73,.11-1.01,.32-.28,.21-.5,.51-.65,.89-.15,.38-.22,.83-.22,1.33,0,.56,.13,.97,.39,1.25,.26,.27,.61,.41,1.06,.41Z"/><path class="cls-8" d="M140.56,198.91l.88-5.55h-2.24l.24-1.5h6.32l-.24,1.5h-2.24l-.88,5.55h-1.84Z"/><path class="cls-8" d="M148.64,199.02c-.67,0-1.26-.12-1.76-.38s-.89-.61-1.17-1.08c-.28-.47-.42-1.04-.42-1.71,0-.81,.16-1.53,.48-2.15,.32-.62,.77-1.1,1.35-1.44,.58-.35,1.25-.52,2-.52,.67,0,1.26,.12,1.76,.38s.89,.61,1.17,1.08,.42,1.04,.42,1.7c0,.82-.16,1.54-.48,2.15-.32,.62-.77,1.1-1.34,1.45s-1.24,.52-2.01,.52Zm.02-1.54c.4,0,.74-.11,1.02-.32,.28-.21,.5-.51,.66-.89,.15-.38,.23-.83,.23-1.33,0-.56-.13-.98-.39-1.25-.26-.27-.62-.41-1.08-.41-.39,0-.73,.11-1.01,.32-.28,.21-.5,.51-.65,.89-.15,.38-.22,.83-.22,1.33,0,.56,.13,.97,.39,1.25,.26,.27,.61,.41,1.06,.41Z"/><path class="cls-8" d="M156.8,199.02c-.65,0-1.24-.12-1.75-.37s-.92-.61-1.22-1.09c-.3-.48-.45-1.08-.45-1.79,0-.57,.09-1.09,.26-1.58,.17-.49,.43-.91,.77-1.28,.34-.37,.75-.65,1.25-.86,.5-.21,1.07-.31,1.71-.31,.48,0,.93,.07,1.36,.21,.43,.14,.76,.33,1.01,.56l-.69,1.44c-.54-.41-1.11-.61-1.72-.61-.45,0-.82,.1-1.12,.31s-.52,.49-.67,.85c-.15,.36-.22,.75-.22,1.19,0,.59,.14,1.02,.41,1.29,.27,.28,.7,.42,1.29,.42,.26,0,.53-.04,.81-.13s.57-.23,.88-.43l.46,1.45c-.19,.15-.41,.27-.68,.38s-.55,.19-.84,.25c-.29,.06-.58,.08-.85,.08Z"/><path class="cls-8" d="M163.34,199.02c-.67,0-1.26-.12-1.76-.38s-.89-.61-1.17-1.08c-.28-.47-.42-1.04-.42-1.71,0-.81,.16-1.53,.48-2.15,.32-.62,.77-1.1,1.35-1.44,.58-.35,1.25-.52,2-.52,.67,0,1.26,.12,1.76,.38s.89,.61,1.17,1.08,.42,1.04,.42,1.7c0,.82-.16,1.54-.48,2.15-.32,.62-.77,1.1-1.34,1.45s-1.24,.52-2.01,.52Zm.02-1.54c.4,0,.74-.11,1.02-.32,.28-.21,.5-.51,.66-.89,.15-.38,.23-.83,.23-1.33,0-.56-.13-.98-.39-1.25-.26-.27-.62-.41-1.08-.41-.39,0-.73,.11-1.01,.32-.28,.21-.5,.51-.65,.89-.15,.38-.22,.83-.22,1.33,0,.56,.13,.97,.39,1.25,.26,.27,.61,.41,1.06,.41Z"/><path class="cls-8" d="M167.7,198.91l1.12-7.05h1.84l-.87,5.52h3.13l-.24,1.53h-4.98Z"/></g><g><path class="cls-8" d="M77.64,341.34l1.12-7.05h1.35l2.57,4.21,.66-4.21h1.71l-1.12,7.05h-1.35l-2.56-4.21-.67,4.21h-1.71Z"/><path class="cls-8" d="M85.22,341.34l1.11-7.05h4.98l-.22,1.42h-3.23l-.21,1.34h3l-.23,1.42h-3l-.23,1.45h3.22l-.22,1.42h-4.97Z"/><path class="cls-8" d="M90.44,341.34l3.22-3.64-2.05-3.41h2l1.28,2.26,1.87-2.26h2.24l-3.17,3.57,2.1,3.48h-2.03l-1.34-2.31-1.89,2.31h-2.23Z"/><path class="cls-8" d="M101.5,341.45c-.61,0-1.15-.12-1.62-.36-.46-.24-.8-.6-1.02-1.09-.22-.49-.27-1.11-.15-1.84l.61-3.87h1.83l-.63,3.97c-.08,.52-.03,.93,.16,1.22,.18,.29,.5,.44,.96,.44,.41,0,.75-.11,1-.34s.42-.58,.5-1.05l.67-4.24h1.81l-.66,4.15c-.15,.97-.5,1.72-1.04,2.24-.54,.52-1.34,.78-2.42,.78Z"/><path class="cls-8" d="M108.51,341.45c-.52,0-1.03-.07-1.53-.21s-.94-.35-1.33-.62l.6-1.38c.41,.25,.82,.43,1.25,.54,.43,.11,.82,.16,1.19,.16s.67-.06,.88-.18,.3-.28,.3-.47c0-.15-.06-.28-.18-.39-.12-.11-.32-.19-.58-.24l-1.15-.28c-.51-.11-.91-.33-1.21-.65-.3-.32-.44-.72-.44-1.19,0-.51,.14-.94,.42-1.29,.28-.35,.64-.62,1.1-.8s.95-.28,1.47-.28c.44,0,.89,.06,1.35,.19,.46,.13,.87,.33,1.25,.6l-.63,1.31c-.3-.21-.63-.37-.98-.46-.36-.09-.69-.14-.99-.14-.37,0-.66,.06-.87,.19s-.31,.28-.31,.47c0,.3,.23,.51,.7,.62l1.15,.27c.55,.13,.97,.35,1.27,.67s.45,.71,.45,1.17c0,.4-.09,.75-.26,1.04-.17,.3-.41,.54-.7,.74-.29,.2-.63,.34-1.01,.44s-.78,.15-1.19,.15Z"/><path class="cls-8" d="M115.1,341.34l1.12-7.05h2.98c.85,0,1.49,.18,1.92,.54,.42,.36,.64,.86,.64,1.5,0,.83-.25,1.46-.76,1.91-.5,.45-1.23,.67-2.18,.67h-1.48l-.39,2.43h-1.84Zm2.45-3.84h1.33c.75,0,1.12-.34,1.12-1.01,0-.53-.35-.79-1.05-.79h-1.12l-.28,1.8Z"/><path class="cls-8" d="M121.86,341.34l1.12-7.05h3.03c.81,0,1.42,.18,1.85,.54s.65,.85,.65,1.47c0,.67-.18,1.19-.53,1.57-.35,.38-.81,.62-1.38,.74,.19,.07,.36,.19,.49,.36,.13,.16,.25,.36,.34,.59l.68,1.78h-1.88l-.8-2.12c-.07-.19-.16-.32-.26-.39-.11-.08-.26-.12-.46-.12h-.6l-.42,2.63h-1.84Zm2.46-3.93h1.33c.74,0,1.11-.31,1.11-.94,0-.26-.08-.45-.26-.58-.17-.13-.44-.19-.8-.19h-1.11l-.27,1.71Z"/><path class="cls-8" d="M132.58,341.45c-.67,0-1.26-.12-1.76-.38s-.89-.61-1.17-1.08c-.28-.47-.42-1.04-.42-1.71,0-.81,.16-1.53,.48-2.15,.32-.62,.77-1.1,1.35-1.44,.58-.35,1.25-.52,2-.52,.67,0,1.26,.12,1.76,.38s.89,.61,1.17,1.08,.42,1.04,.42,1.7c0,.82-.16,1.54-.48,2.15-.32,.62-.77,1.1-1.34,1.45s-1.24,.52-2.01,.52Zm.02-1.54c.4,0,.74-.11,1.02-.32,.28-.21,.5-.51,.66-.89,.15-.38,.23-.83,.23-1.33,0-.56-.13-.98-.39-1.25-.26-.27-.62-.41-1.08-.41-.39,0-.73,.11-1.01,.32-.28,.21-.5,.51-.65,.89-.15,.38-.22,.83-.22,1.33,0,.56,.13,.97,.39,1.25,.26,.27,.61,.41,1.06,.41Z"/><path class="cls-8" d="M138.19,341.34l.88-5.55h-2.24l.24-1.5h6.32l-.24,1.5h-2.24l-.88,5.55h-1.84Z"/><path class="cls-8" d="M146.27,341.45c-.67,0-1.26-.12-1.76-.38s-.89-.61-1.17-1.08c-.28-.47-.42-1.04-.42-1.71,0-.81,.16-1.53,.48-2.15,.32-.62,.77-1.1,1.35-1.44,.58-.35,1.25-.52,2-.52,.67,0,1.26,.12,1.76,.38s.89,.61,1.17,1.08,.42,1.04,.42,1.7c0,.82-.16,1.54-.48,2.15-.32,.62-.77,1.1-1.34,1.45s-1.24,.52-2.01,.52Zm.02-1.54c.4,0,.74-.11,1.02-.32,.28-.21,.5-.51,.66-.89,.15-.38,.23-.83,.23-1.33,0-.56-.13-.98-.39-1.25-.26-.27-.62-.41-1.08-.41-.39,0-.73,.11-1.01,.32-.28,.21-.5,.51-.65,.89-.15,.38-.22,.83-.22,1.33,0,.56,.13,.97,.39,1.25,.26,.27,.61,.41,1.06,.41Z"/><path class="cls-8" d="M154.43,341.45c-.65,0-1.24-.12-1.75-.37s-.92-.61-1.22-1.09c-.3-.48-.45-1.08-.45-1.79,0-.57,.09-1.09,.26-1.58,.17-.49,.43-.91,.77-1.28,.34-.37,.75-.65,1.25-.86,.5-.21,1.07-.31,1.71-.31,.48,0,.93,.07,1.36,.21,.43,.14,.76,.33,1.01,.56l-.69,1.44c-.54-.41-1.11-.61-1.72-.61-.45,0-.82,.1-1.12,.31s-.52,.49-.67,.85c-.15,.36-.22,.75-.22,1.19,0,.59,.14,1.02,.41,1.29,.27,.28,.7,.42,1.29,.42,.26,0,.53-.04,.81-.13s.57-.23,.88-.43l.46,1.45c-.19,.15-.41,.27-.68,.38s-.55,.19-.84,.25c-.29,.06-.58,.08-.85,.08Z"/><path class="cls-8" d="M160.97,341.45c-.67,0-1.26-.12-1.76-.38s-.89-.61-1.17-1.08c-.28-.47-.42-1.04-.42-1.71,0-.81,.16-1.53,.48-2.15,.32-.62,.77-1.1,1.35-1.44,.58-.35,1.25-.52,2-.52,.67,0,1.26,.12,1.76,.38s.89,.61,1.17,1.08,.42,1.04,.42,1.7c0,.82-.16,1.54-.48,2.15-.32,.62-.77,1.1-1.34,1.45s-1.24,.52-2.01,.52Zm.02-1.54c.4,0,.74-.11,1.02-.32,.28-.21,.5-.51,.66-.89,.15-.38,.23-.83,.23-1.33,0-.56-.13-.98-.39-1.25-.26-.27-.62-.41-1.08-.41-.39,0-.73,.11-1.01,.32-.28,.21-.5,.51-.65,.89-.15,.38-.22,.83-.22,1.33,0,.56,.13,.97,.39,1.25,.26,.27,.61,.41,1.06,.41Z"/><path class="cls-8" d="M165.33,341.34l1.12-7.05h1.84l-.87,5.52h3.13l-.24,1.53h-4.98Z"/></g></g></g></g></svg>