<?xml version="1.0" encoding="UTF-8"?>
<svg id="Layer_1" data-name="Layer 1" xmlns="http://www.w3.org/2000/svg" viewBox="0 0 198.94 216.42">
  <defs>
    <style>
      .cls-1 {
        fill: #008aab;
      }

      .cls-2 {
        fill: #fff;
      }
    </style>
  </defs>
  <g>
    <path class="cls-1" d="M46.8,48.71c-1.06-.56-1.88-1.35-2.45-2.38-.57-1.03-.86-2.25-.86-3.66,0-1.53,.3-2.88,.89-4.06,.59-1.18,1.43-2.08,2.52-2.72,1.09-.64,2.35-.96,3.79-.96s2.67,.28,3.73,.84c1.06,.56,1.88,1.35,2.45,2.39,.57,1.03,.86,2.25,.86,3.65,0,1.53-.3,2.88-.9,4.05-.6,1.17-1.44,2.08-2.53,2.72-1.09,.64-2.34,.97-3.77,.97s-2.67-.28-3.73-.84Zm6.27-3.31c.63-.86,.95-2.06,.95-3.59,0-1.28-.29-2.26-.87-2.96-.58-.7-1.38-1.05-2.42-1.05-1.1,0-1.97,.43-2.6,1.3-.63,.87-.95,2.06-.95,3.58,0,1.29,.29,2.28,.86,2.97,.57,.69,1.39,1.04,2.45,1.04s1.95-.43,2.58-1.29Z"/>
    <path class="cls-1" d="M68.45,39.76c.64,.38,1.13,.93,1.48,1.64,.35,.71,.52,1.56,.52,2.54,0,1.08-.2,2.04-.59,2.88-.4,.85-.95,1.5-1.67,1.97-.72,.47-1.55,.71-2.49,.71-1.28,0-2.26-.46-2.96-1.37l-.1,1.21h-3.53l1.09-14.21h3.59l-.42,5.3c.32-.4,.73-.71,1.22-.93,.49-.21,1.04-.32,1.66-.32,.83,0,1.57,.19,2.21,.57Zm-2.08,6.38c.36-.48,.53-1.13,.53-1.93s-.17-1.35-.5-1.76c-.34-.41-.81-.61-1.43-.61s-1.06,.24-1.42,.73-.53,1.12-.53,1.89,.16,1.39,.49,1.8c.33,.41,.8,.61,1.4,.61s1.1-.24,1.46-.73Z"/>
    <path class="cls-1" d="M75.33,48.76c-.08,1.02-.28,1.82-.58,2.41-.31,.58-.82,1.03-1.52,1.33-.71,.3-1.7,.49-2.97,.55l-1.07,.06-.08-2.54,1.21-.08c.47-.03,.81-.13,1.02-.31,.21-.18,.33-.48,.37-.9l.79-9.85h3.59l-.75,9.33Zm1.17-14.29l-.26,3.24h-3.73l.24-3.24h3.75Z"/>
    <path class="cls-1" d="M85.68,40.44c.81,.83,1.22,2.02,1.22,3.57,0,.35-.02,.71-.06,1.07h-6.11c.16,1.21,.89,1.81,2.2,1.81,.95,0,1.88-.31,2.78-.93l.73,2.36c-.44,.38-1,.67-1.66,.88-.66,.21-1.37,.31-2.11,.31-1.06,0-2-.2-2.81-.6-.81-.4-1.44-.97-1.89-1.7-.45-.73-.67-1.59-.67-2.57,0-1.05,.22-1.98,.67-2.81s1.06-1.47,1.83-1.93,1.64-.7,2.59-.7c1.38,0,2.48,.42,3.29,1.25Zm-4.31,1.58c-.29,.28-.49,.73-.59,1.36h3.2c-.04-1.18-.53-1.77-1.47-1.77-.47,0-.85,.14-1.14,.41Z"/>
    <path class="cls-1" d="M90.63,48.9c-.82-.4-1.45-.97-1.89-1.7-.44-.73-.67-1.58-.67-2.55,0-1.14,.23-2.12,.71-2.94s1.14-1.44,2-1.87c.87-.43,1.88-.65,3.03-.65,1.61,0,2.94,.4,3.97,1.19l-1.11,2.42c-.4-.28-.84-.5-1.3-.67-.46-.16-.91-.24-1.34-.24-.73,0-1.29,.23-1.68,.7-.4,.46-.59,1.12-.59,1.98,0,.73,.18,1.28,.54,1.66s.85,.57,1.45,.57c.9,0,1.8-.31,2.7-.93l.71,2.44c-.46,.38-1.01,.67-1.66,.88-.65,.21-1.31,.31-1.98,.31-1.1,0-2.06-.2-2.88-.6Z"/>
    <path class="cls-1" d="M103.12,45.33l-.02,.28c0,.87,.48,1.31,1.43,1.31,.23,0,.54-.02,.93-.06l-.38,2.54c-.42,.07-.82,.1-1.21,.1-2.9,0-4.35-1.2-4.35-3.61,0-.25,0-.45,.02-.58l.26-3.24h-1.85l.2-2.64h1.85l.22-2.88h3.59l-.22,2.88h2.38l-.2,2.64h-2.38l-.26,3.26Z"/>
    <path class="cls-1" d="M116.6,38.14h-4.27l.24-3h12.25l-.24,3h-4.25l-.87,11.2h-3.75l.89-11.2Z"/>
    <path class="cls-1" d="M131.63,39.15l-.04,2.96-2.18,.22c-.75,.08-1.27,.27-1.55,.56-.28,.3-.46,.79-.52,1.47l-.38,4.98h-3.59l.79-9.89h3.43l-.12,1.27c.75-.91,1.88-1.42,3.39-1.53l.79-.04Z"/>
    <path class="cls-1" d="M139.92,40.44c.81,.83,1.22,2.02,1.22,3.57,0,.35-.02,.71-.06,1.07h-6.11c.16,1.21,.89,1.81,2.2,1.81,.95,0,1.88-.31,2.78-.93l.73,2.36c-.44,.38-1,.67-1.66,.88-.67,.21-1.37,.31-2.11,.31-1.06,0-2-.2-2.81-.6s-1.44-.97-1.89-1.7c-.45-.73-.68-1.59-.68-2.57,0-1.05,.23-1.98,.68-2.81,.45-.83,1.06-1.47,1.83-1.93s1.64-.7,2.59-.7c1.38,0,2.48,.42,3.29,1.25Zm-4.31,1.58c-.29,.28-.49,.73-.59,1.36h3.2c-.04-1.18-.53-1.77-1.47-1.77-.47,0-.85,.14-1.14,.41Z"/>
    <path class="cls-1" d="M150.7,40.44c.81,.83,1.22,2.02,1.22,3.57,0,.35-.02,.71-.06,1.07h-6.11c.16,1.21,.89,1.81,2.2,1.81,.95,0,1.88-.31,2.78-.93l.73,2.36c-.44,.38-1,.67-1.66,.88-.67,.21-1.37,.31-2.11,.31-1.06,0-2-.2-2.81-.6s-1.44-.97-1.89-1.7c-.45-.73-.68-1.59-.68-2.57,0-1.05,.23-1.98,.68-2.81,.45-.83,1.06-1.47,1.83-1.93s1.64-.7,2.59-.7c1.38,0,2.48,.42,3.29,1.25Zm-4.31,1.58c-.29,.28-.49,.73-.59,1.36h3.2c-.04-1.18-.53-1.77-1.47-1.77-.47,0-.85,.14-1.14,.41Z"/>
  </g>
  <g>
    <g>
      <circle class="cls-2" cx="98.63" cy="129.26" r="63.64"/>
      <path class="cls-1" d="M98.68,193.39h-.04c-.32,0-.64,0-.96,0v-1c.33,0,.65,0,.96,0l.04,1Zm3.02-.07l-.05-1c.33-.02,.66-.03,.99-.05l.06,1c-.33,.02-.67,.04-1.01,.06Zm-7.05-.05c-.34-.02-.67-.04-1-.07l.08-1c.33,.03,.66,.05,.99,.07l-.06,1Zm11.06-.26l-.11-.99c.33-.04,.66-.07,.98-.12l.12,.99c-.33,.04-.67,.08-1,.12Zm-15.07-.11c-.33-.04-.67-.08-1-.13l.14-.99c.33,.05,.65,.09,.98,.13l-.12,.99Zm19.06-.46l-.17-.99c.33-.06,.65-.12,.98-.18l.19,.98c-.33,.06-.66,.12-.99,.18Zm-23.04-.16c-.33-.06-.66-.13-.99-.19l.2-.98c.32,.07,.65,.13,.97,.19l-.19,.98Zm26.98-.65l-.23-.97c.32-.08,.64-.16,.96-.24l.25,.97c-.32,.08-.65,.16-.98,.24Zm-30.91-.22c-.33-.08-.65-.17-.97-.26l.26-.96c.32,.09,.64,.17,.96,.25l-.25,.97Zm34.8-.84l-.29-.96c.32-.1,.63-.2,.95-.3l.31,.95c-.32,.1-.64,.21-.96,.3Zm-38.67-.28c-.32-.1-.64-.21-.96-.32l.32-.95c.31,.11,.63,.21,.94,.31l-.31,.95Zm42.48-1.03l-.35-.93c.31-.12,.62-.24,.92-.36l.37,.93c-.31,.12-.62,.25-.94,.36Zm-46.28-.34c-.31-.12-.63-.25-.94-.38l.38-.92c.31,.13,.61,.25,.92,.37l-.37,.93Zm49.99-1.21l-.41-.91c.3-.14,.6-.27,.9-.41l.43,.9c-.3,.14-.61,.28-.91,.42Zm-53.7-.4c-.3-.14-.61-.29-.91-.44l.44-.9c.3,.15,.6,.29,.9,.43l-.43,.91Zm57.31-1.38l-.47-.88c.29-.15,.58-.31,.87-.47l.48,.88c-.29,.16-.59,.32-.88,.48Zm-60.9-.46c-.29-.16-.59-.33-.88-.49l.5-.87c.29,.16,.58,.33,.87,.49l-.48,.88Zm64.39-1.54l-.52-.85c.28-.17,.56-.35,.84-.52l.54,.84c-.28,.18-.57,.36-.85,.53Zm-67.86-.52c-.28-.18-.57-.36-.85-.55l.55-.84c.28,.18,.55,.36,.83,.54l-.54,.84Zm71.22-1.7l-.58-.82c.27-.19,.54-.38,.8-.58l.59,.81c-.27,.2-.54,.39-.82,.58Zm-74.56-.57c-.27-.2-.54-.4-.81-.6l.6-.8c.26,.2,.53,.4,.8,.59l-.59,.81Zm77.77-1.85l-.62-.78c.26-.21,.51-.42,.77-.63l.64,.77c-.26,.21-.52,.43-.78,.64Zm-80.96-.63c-.26-.21-.52-.43-.77-.65l.65-.76c.25,.22,.5,.43,.76,.64l-.64,.77Zm84.02-1.99l-.67-.74c.24-.22,.49-.45,.73-.67l.68,.73c-.24,.23-.49,.46-.74,.68Zm-87.04-.67c-.24-.23-.49-.46-.73-.7l.7-.72c.24,.23,.48,.46,.72,.68l-.68,.73Zm89.93-2.13l-.72-.7c.23-.24,.46-.48,.68-.72l.73,.68c-.23,.24-.46,.49-.7,.73Zm-92.78-.72c-.23-.24-.46-.49-.68-.74l.74-.67c.22,.24,.45,.49,.67,.73l-.73,.68Zm95.49-2.26l-.76-.65c.21-.25,.43-.5,.64-.76l.77,.64c-.21,.26-.43,.52-.65,.77Zm-98.16-.76c-.21-.26-.43-.52-.64-.78l.78-.63c.21,.26,.42,.51,.63,.77l-.77,.64Zm100.68-2.38l-.8-.6c.2-.26,.4-.53,.59-.8l.81,.59c-.2,.27-.4,.54-.6,.81Zm-103.15-.79c-.2-.27-.39-.54-.59-.82l.82-.58c.19,.27,.38,.54,.58,.8l-.81,.59Zm105.47-2.5l-.83-.55c.18-.28,.36-.55,.54-.83l.84,.54c-.18,.28-.36,.57-.55,.85Zm-107.74-.82c-.18-.28-.36-.57-.53-.85l.85-.52c.17,.28,.35,.56,.52,.84l-.84,.54Zm109.85-2.62l-.87-.5c.16-.29,.33-.58,.49-.87l.88,.48c-.16,.29-.33,.59-.49,.88Zm-111.9-.84c-.16-.29-.32-.59-.48-.88l.88-.47c.15,.29,.31,.58,.47,.87l-.88,.48Zm113.79-2.72l-.9-.44c.15-.3,.29-.6,.43-.9l.9,.43c-.14,.3-.29,.61-.44,.91Zm-115.62-.86c-.14-.3-.28-.61-.42-.91l.91-.41c.14,.3,.27,.6,.42,.9l-.9,.43Zm117.29-2.82l-.92-.38c.13-.31,.25-.61,.37-.92l.93,.37c-.12,.31-.25,.63-.38,.94Zm-118.89-.87c-.12-.31-.25-.62-.36-.94l.93-.36c.12,.31,.24,.62,.36,.92l-.93,.37Zm120.32-2.91l-.95-.32c.11-.31,.21-.63,.31-.94l.95,.31c-.1,.32-.21,.64-.32,.96Zm-121.69-.88c-.1-.32-.21-.64-.3-.96l.96-.3c.1,.32,.2,.63,.3,.95l-.95,.31Zm122.87-2.98l-.96-.26c.09-.32,.17-.64,.25-.96l.97,.25c-.08,.33-.17,.65-.26,.98Zm-124-.89c-.08-.32-.16-.65-.24-.98l.97-.23c.08,.32,.16,.64,.24,.96l-.97,.25Zm124.93-3.03l-.98-.2c.07-.32,.13-.65,.19-.97l.98,.19c-.06,.33-.13,.66-.2,.99Zm-125.81-.9c-.06-.33-.12-.66-.18-.99l.99-.17c.06,.33,.12,.65,.18,.97l-.98,.19Zm126.5-3.07l-.99-.14c.05-.33,.09-.65,.13-.98l.99,.12c-.04,.33-.09,.67-.13,1Zm-127.13-.91c-.04-.33-.08-.67-.12-1l.99-.11c.04,.33,.08,.66,.12,.98l-.99,.12Zm127.57-3.09l-1-.08c.03-.33,.05-.66,.07-.99l1,.06c-.02,.34-.04,.67-.07,1.01Zm-127.95-.92c-.02-.33-.04-.67-.06-1.01l1-.05c.02,.33,.03,.66,.05,.99l-1,.06Zm128.13-3.1l-1-.02c0-.33,0-.66,0-.99v-.17s1,0,1,0v.17c0,.34,0,.68,0,1.01Zm-128.26-.92v-.09c0-.31,0-.61,0-.92h1c0,.32,0,.62,0,.92l-1,.09Zm127.2-3.23c-.02-.33-.03-.66-.06-.99l1-.06c.02,.33,.04,.67,.06,1.01l-1,.05Zm-126.08-.73l-1-.06c.02-.34,.04-.67,.07-1.01l1,.08c-.03,.33-.05,.66-.07,.99Zm125.76-3.22c-.04-.33-.08-.66-.12-.98l.99-.13c.04,.33,.08,.67,.12,1l-.99,.11Zm-125.4-.73l-.99-.12c.04-.33,.08-.67,.13-1l.99,.14c-.05,.33-.09,.65-.13,.98Zm124.83-3.2c-.06-.33-.12-.65-.18-.97l.98-.19c.06,.33,.12,.66,.18,.99l-.99,.17Zm-124.22-.72l-.98-.18c.06-.33,.13-.66,.19-.99l.98,.2c-.07,.32-.13,.65-.19,.97Zm123.41-3.16c-.08-.32-.16-.64-.24-.96l.97-.25c.08,.33,.17,.65,.24,.98l-.97,.23Zm-122.56-.71l-.97-.25c.08-.33,.17-.65,.26-.98l.96,.26c-.09,.32-.17,.64-.25,.96Zm121.5-3.11c-.1-.32-.2-.63-.3-.94l.95-.31c.1,.32,.21,.64,.31,.96l-.96,.3Zm-120.41-.7l-.95-.31c.1-.32,.21-.64,.32-.96l.95,.32c-.11,.31-.21,.63-.31,.95Zm119.11-3.05c-.12-.31-.24-.62-.36-.92l.93-.37c.12,.31,.25,.62,.37,.94l-.93,.36Zm-117.77-.7l-.93-.37c.12-.31,.25-.63,.38-.94l.92,.38c-.13,.31-.25,.61-.37,.92Zm116.25-2.96c-.14-.3-.28-.6-.42-.9l.9-.43c.14,.3,.28,.61,.42,.91l-.91,.42Zm-114.67-.69l-.91-.43c.14-.3,.29-.61,.44-.91l.9,.44c-.15,.3-.29,.6-.43,.9Zm112.92-2.86c-.15-.29-.31-.58-.47-.87l.88-.48c.16,.29,.32,.59,.48,.88l-.88,.47Zm-111.12-.68l-.88-.48c.16-.29,.33-.59,.49-.88l.87,.5c-.16,.29-.33,.58-.48,.87Zm109.15-2.75c-.17-.28-.35-.56-.53-.84l.84-.54c.18,.28,.36,.57,.53,.85l-.85,.53Zm-107.13-.67l-.84-.54c.18-.28,.36-.57,.55-.85l.84,.55c-.18,.28-.36,.55-.54,.83Zm104.94-2.64c-.19-.27-.38-.54-.58-.8l.81-.59c.2,.27,.39,.54,.59,.82l-.82,.58Zm-102.71-.65l-.81-.59c.2-.27,.4-.54,.6-.81l.8,.6c-.2,.26-.4,.53-.59,.8Zm100.32-2.51c-.21-.26-.42-.51-.63-.77l.77-.64c.21,.26,.43,.52,.64,.78l-.78,.63Zm-97.9-.62l-.77-.64c.21-.26,.43-.52,.65-.77l.76,.65c-.21,.25-.43,.51-.64,.76Zm95.31-2.39c-.22-.24-.45-.49-.67-.73l.73-.69c.23,.24,.46,.49,.68,.74l-.74,.67Zm-92.69-.59l-.73-.68c.23-.25,.46-.49,.7-.73l.72,.7c-.23,.24-.46,.48-.68,.72Zm89.93-2.25c-.24-.23-.48-.46-.72-.68l.68-.73c.25,.23,.49,.46,.73,.69l-.7,.72Zm-87.13-.56l-.69-.73c.24-.23,.49-.46,.74-.68l.67,.74c-.24,.22-.49,.45-.73,.67Zm84.19-2.11c-.25-.21-.51-.43-.76-.64l.64-.77c.26,.21,.52,.43,.77,.65l-.65,.76Zm-81.22-.52l-.64-.77c.26-.21,.52-.43,.78-.64l.63,.78c-.26,.21-.51,.42-.77,.63Zm78.12-1.96c-.26-.2-.53-.39-.8-.59l.59-.81c.27,.2,.54,.4,.81,.6l-.6,.8Zm-75-.48l-.59-.81c.27-.2,.54-.39,.82-.59l.58,.82c-.27,.19-.54,.38-.8,.58Zm71.75-1.8c-.28-.18-.56-.36-.84-.54l.54-.84c.28,.18,.57,.36,.85,.55l-.55,.84Zm-68.48-.43l-.54-.84c.28-.18,.57-.36,.85-.53l.52,.85c-.28,.17-.56,.35-.84,.53Zm65.09-1.64c-.29-.16-.58-.33-.87-.48l.48-.88c.3,.16,.59,.33,.88,.49l-.5,.87Zm-61.69-.38l-.48-.88c.29-.16,.59-.32,.88-.48l.47,.88c-.29,.15-.58,.31-.87,.47Zm58.18-1.47c-.3-.15-.6-.29-.9-.43l.42-.91c.31,.14,.61,.29,.91,.44l-.44,.9Zm-54.65-.33l-.43-.9c.3-.14,.61-.28,.91-.42l.41,.91c-.3,.14-.6,.27-.9,.42Zm51.03-1.3c-.31-.13-.61-.25-.92-.37l.37-.93c.31,.12,.63,.25,.94,.38l-.38,.92Zm-47.41-.28l-.37-.93c.31-.12,.62-.25,.94-.37l.36,.93c-.31,.12-.62,.24-.92,.36Zm43.68-1.12c-.31-.11-.63-.21-.94-.31l.31-.95c.32,.1,.64,.21,.96,.32l-.32,.95Zm-39.96-.23l-.31-.95c.32-.1,.64-.21,.96-.31l.29,.96c-.32,.1-.63,.2-.94,.3Zm36.16-.92c-.32-.09-.64-.17-.96-.25l.25-.97c.33,.08,.65,.17,.97,.26l-.26,.96Zm-32.36-.19l-.25-.97c.32-.08,.65-.16,.98-.24l.24,.97c-.32,.08-.64,.16-.96,.24Zm28.5-.73c-.32-.07-.65-.13-.97-.19l.18-.98c.33,.06,.66,.13,.99,.19l-.2,.98Zm-24.63-.14l-.19-.98c.33-.06,.66-.12,.99-.18l.17,.98c-.33,.06-.65,.12-.98,.18Zm20.72-.53c-.33-.05-.65-.09-.98-.13l.12-.99c.33,.04,.67,.08,1,.13l-.14,.99Zm-16.81-.1l-.13-.99c.33-.04,.67-.08,1-.12l.11,.99c-.33,.04-.66,.08-.98,.12Zm12.86-.32c-.33-.03-.66-.05-.99-.07l.06-1c.34,.02,.67,.04,1.01,.07l-.08,1Zm-8.92-.05l-.06-1c.33-.02,.67-.04,1-.06l.05,1c-.33,.02-.66,.03-.99,.06Zm4.96-.12c-.29,0-.58,0-.86,0h-.13v-1h.13c.29,0,.58,0,.88,0v1Z"/>
    </g>
    <g>
      <g>
        <path class="cls-1" d="M83.07,81.24l-.12,1.47h3.32l-.12,1.55h-3.32l-.13,1.61h3.55l-.13,1.56h-5.51l.62-7.75h5.52l-.13,1.56h-3.54Z"/>
        <path class="cls-1" d="M94.7,79.68l-.62,7.75h-1.51l-3.16-4.36-.36,4.36h-1.88l.62-7.75h1.47l3.19,4.38,.35-4.38h1.89Z"/>
        <path class="cls-1" d="M97.73,81.32h-2.33l.13-1.64h6.69l-.13,1.64h-2.32l-.47,6.12h-2.05l.48-6.12Z"/>
        <path class="cls-1" d="M103.06,79.68h2.02l-.6,7.75h-2.02l.6-7.75Z"/>
        <path class="cls-1" d="M108.12,81.32h-2.33l.13-1.64h6.69l-.13,1.64h-2.32l-.47,6.12h-2.05l.48-6.12Z"/>
        <path class="cls-1" d="M117.25,83.98l-.27,3.45h-2.02l.27-3.46-2.93-4.29h2.24l1.79,2.68,2.2-2.68h2.32l-3.61,4.3Z"/>
      </g>
      <g>
        <g>
          <path class="cls-1" d="M118.18,118.53h-34.63c-1.71,0-3.11-1.39-3.11-3.11v-16.74c0-1.71,1.39-3.11,3.11-3.11h34.63c1.71,0,3.11,1.39,3.11,3.11v16.74c0,1.71-1.39,3.11-3.11,3.11Zm-34.63-21.85c-1.1,0-2,.9-2,2v16.74c0,1.1,.9,2,2,2h34.63c1.1,0,2-.9,2-2v-16.74c0-1.1-.9-2-2-2h-34.63Z"/>
          <path class="cls-1" d="M118.18,119.53h-34.63c-2.27,0-4.11-1.84-4.11-4.11v-16.74c0-2.27,1.84-4.11,4.11-4.11h34.63c2.27,0,4.11,1.84,4.11,4.11v16.74c0,2.26-1.84,4.11-4.11,4.11Zm-34.63-21.85c-.55,0-1,.45-1,1v16.74c0,.55,.45,1,1,1h34.63c.55,0,1-.45,1-1v-16.74c0-.55-.45-1-1-1h-34.63Z"/>
        </g>
        <g>
          <rect class="cls-1" x="101.18" y="117.91" width="1.11" height="6.1"/>
          <rect class="cls-1" x="100.18" y="116.91" width="3.11" height="8.1"/>
        </g>
        <g>
          <rect class="cls-1" x="81.28" y="123.49" width="41.4" height="1.11"/>
          <rect class="cls-1" x="80.28" y="122.49" width="43.4" height="3.11"/>
        </g>
        <g>
          <g>
            <rect class="cls-1" x="81.2" y="123.51" width="1.11" height="6.23"/>
            <rect class="cls-1" x="80.2" y="122.51" width="3.11" height="8.23"/>
          </g>
          <g>
            <path class="cls-1" d="M93.97,144.9h-24.91c-1.51,0-2.74-1.23-2.74-2.74v-9.73c0-1.51,1.23-2.74,2.74-2.74h24.91c1.51,0,2.74,1.23,2.74,2.74v9.73c0,1.51-1.23,2.74-2.74,2.74Zm-24.91-14.1c-.9,0-1.63,.73-1.63,1.63v9.73c0,.9,.73,1.63,1.63,1.63h24.91c.9,0,1.63-.73,1.63-1.63v-9.73c0-.9-.73-1.63-1.63-1.63h-24.91Z"/>
            <path class="cls-1" d="M93.97,145.28h-24.91c-1.72,0-3.12-1.4-3.12-3.12v-9.73c0-1.72,1.4-3.12,3.12-3.12h24.91c1.72,0,3.12,1.4,3.12,3.12v9.73c0,1.72-1.4,3.12-3.12,3.12Zm-24.91-15.22c-1.31,0-2.37,1.06-2.37,2.37v9.73c0,1.31,1.06,2.37,2.37,2.37h24.91c1.31,0,2.37-1.06,2.37-2.37v-9.73c0-1.31-1.06-2.37-2.37-2.37h-24.91Zm24.91,14.1h-24.91c-1.11,0-2.01-.9-2.01-2.01v-9.73c0-1.11,.9-2.01,2.01-2.01h24.91c1.11,0,2.01,.9,2.01,2.01v9.73c0,1.11-.9,2.01-2.01,2.01Zm-24.91-12.99c-.69,0-1.26,.56-1.26,1.26v9.73c0,.69,.56,1.26,1.26,1.26h24.91c.69,0,1.26-.56,1.26-1.26v-9.73c0-.69-.56-1.26-1.26-1.26h-24.91Z"/>
          </g>
          <g>
            <rect class="cls-1" x="80.97" y="144.35" width="1.11" height="3.69"/>
            <path class="cls-1" d="M82.34,148.29h-1.61v-4.19h1.61v4.19Zm-1.11-.5h.61v-3.19h-.61v3.19Z"/>
          </g>
          <g>
            <rect class="cls-1" x="70.52" y="147.48" width="22.32" height="1.11"/>
            <path class="cls-1" d="M93.1,148.85h-22.82v-1.61h22.82v1.61Zm-22.32-.5h21.82v-.61h-21.82v.61Z"/>
          </g>
          <g>
            <g>
              <path class="cls-1" d="M77.37,159.52h-12.82c-1.11,0-2.02-.9-2.02-2.02v-4.66c0-1.11,.9-2.02,2.02-2.02h12.82c1.11,0,2.02,.9,2.02,2.02v4.66c0,1.11-.9,2.02-2.02,2.02Zm-12.82-7.58c-.5,0-.91,.41-.91,.91v4.66c0,.5,.41,.91,.91,.91h12.82c.5,0,.91-.41,.91-.91v-4.66c0-.5-.41-.91-.91-.91h-12.82Z"/>
              <path class="cls-1" d="M77.37,159.77h-12.82c-1.25,0-2.27-1.02-2.27-2.27v-4.66c0-1.25,1.02-2.27,2.27-2.27h12.82c1.25,0,2.27,1.02,2.27,2.27v4.66c0,1.25-1.02,2.27-2.27,2.27Zm-12.82-8.69c-.97,0-1.77,.79-1.77,1.77v4.66c0,.97,.79,1.77,1.77,1.77h12.82c.97,0,1.77-.79,1.77-1.77v-4.66c0-.97-.79-1.77-1.77-1.77h-12.82Zm12.82,7.58h-12.82c-.64,0-1.16-.52-1.16-1.16v-4.66c0-.64,.52-1.16,1.16-1.16h12.82c.64,0,1.16,.52,1.16,1.16v4.66c0,.64-.52,1.16-1.16,1.16Zm-12.82-6.47c-.36,0-.66,.29-.66,.66v4.66c0,.36,.29,.66,.66,.66h12.82c.36,0,.66-.29,.66-.66v-4.66c0-.36-.29-.66-.66-.66h-12.82Z"/>
            </g>
            <g>
              <rect class="cls-1" x="70.54" y="148.04" width="1.11" height="3.35"/>
              <path class="cls-1" d="M71.9,151.64h-1.61v-3.85h1.61v3.85Zm-1.11-.5h.61v-2.85h-.61v2.85Z"/>
            </g>
          </g>
          <g>
            <rect class="cls-1" x="91.74" y="148.04" width="1.11" height="3.35"/>
            <path class="cls-1" d="M93.1,151.64h-1.61v-3.85h1.61v3.85Zm-1.11-.5h.61v-2.85h-.61v2.85Z"/>
          </g>
          <g>
            <path class="cls-1" d="M98.85,159.52h-12.82c-1.11,0-2.02-.9-2.02-2.02v-4.66c0-1.11,.9-2.02,2.02-2.02h12.82c1.11,0,2.02,.9,2.02,2.02v4.66c0,1.11-.9,2.02-2.02,2.02Zm-12.82-7.58c-.5,0-.91,.41-.91,.91v4.66c0,.5,.41,.91,.91,.91h12.82c.5,0,.91-.41,.91-.91v-4.66c0-.5-.41-.91-.91-.91h-12.82Z"/>
            <path class="cls-1" d="M98.85,159.77h-12.82c-1.25,0-2.27-1.02-2.27-2.27v-4.66c0-1.25,1.02-2.27,2.27-2.27h12.82c1.25,0,2.27,1.02,2.27,2.27v4.66c0,1.25-1.02,2.27-2.27,2.27Zm-12.82-8.69c-.97,0-1.77,.79-1.77,1.77v4.66c0,.97,.79,1.77,1.77,1.77h12.82c.97,0,1.77-.79,1.77-1.77v-4.66c0-.97-.79-1.77-1.77-1.77h-12.82Zm12.82,7.58h-12.82c-.64,0-1.16-.52-1.16-1.16v-4.66c0-.64,.52-1.16,1.16-1.16h12.82c.64,0,1.16,.52,1.16,1.16v4.66c0,.64-.52,1.16-1.16,1.16Zm-12.82-6.47c-.36,0-.66,.29-.66,.66v4.66c0,.36,.29,.66,.66,.66h12.82c.36,0,.66-.29,.66-.66v-4.66c0-.36-.29-.66-.66-.66h-12.82Z"/>
          </g>
        </g>
        <rect class="cls-1" x="70.52" y="158.97" width="1.11" height="3.35"/>
        <rect class="cls-1" x="64.94" y="161.76" width="12.46" height="1.11"/>
        <g>
          <rect class="cls-1" x="64.89" y="162.32" width="1.11" height="2.92"/>
          <g>
            <rect class="cls-2" x="61.13" y="165.24" width="8.49" height="4.09" rx="1.86" ry="1.86"/>
            <path class="cls-1" d="M68.6,169.88h-6.45c-.87,0-1.58-.71-1.58-1.58v-2.05c0-.87,.71-1.58,1.58-1.58h6.45c.87,0,1.58,.71,1.58,1.58v2.05c0,.87-.71,1.58-1.58,1.58Zm-6.45-4.09c-.26,0-.46,.21-.46,.46v2.05c0,.26,.21,.46,.46,.46h6.45c.26,0,.46-.21,.46-.46v-2.05c0-.26-.21-.46-.46-.46h-6.45Z"/>
          </g>
        </g>
        <g>
          <rect class="cls-1" x="76.33" y="162.63" width="1.11" height="2.61"/>
          <g>
            <rect class="cls-2" x="72.56" y="165.24" width="8.49" height="4.09" rx="1.86" ry="1.86"/>
            <path class="cls-1" d="M80.04,169.88h-6.45c-.87,0-1.58-.71-1.58-1.58v-2.05c0-.87,.71-1.58,1.58-1.58h6.45c.87,0,1.58,.71,1.58,1.58v2.05c0,.87-.71,1.58-1.58,1.58Zm-6.45-4.09c-.26,0-.47,.21-.47,.47v2.05c0,.26,.21,.47,.47,.47h6.45c.26,0,.47-.21,.47-.47v-2.05c0-.26-.21-.47-.47-.47h-6.45Z"/>
          </g>
        </g>
      </g>
    </g>
    <g>
      <g>
        <rect class="cls-1" x="121.68" y="123.71" width="1.11" height="6.23"/>
        <rect class="cls-1" x="120.68" y="122.71" width="3.11" height="8.23"/>
      </g>
      <g>
        <path class="cls-1" d="M134.44,145.09h-24.91c-1.51,0-2.74-1.23-2.74-2.74v-9.73c0-1.51,1.23-2.74,2.74-2.74h24.91c1.51,0,2.74,1.23,2.74,2.74v9.73c0,1.51-1.23,2.74-2.74,2.74Zm-24.91-14.1c-.9,0-1.63,.73-1.63,1.63v9.73c0,.9,.73,1.63,1.63,1.63h24.91c.9,0,1.63-.73,1.63-1.63v-9.73c0-.9-.73-1.63-1.63-1.63h-24.91Z"/>
        <path class="cls-1" d="M134.44,145.47h-24.91c-1.72,0-3.12-1.4-3.12-3.12v-9.73c0-1.72,1.4-3.12,3.12-3.12h24.91c1.72,0,3.12,1.4,3.12,3.12v9.73c0,1.72-1.4,3.12-3.12,3.12Zm-24.91-15.22c-1.31,0-2.37,1.06-2.37,2.37v9.73c0,1.31,1.06,2.37,2.37,2.37h24.91c1.31,0,2.37-1.06,2.37-2.37v-9.73c0-1.31-1.06-2.37-2.37-2.37h-24.91Zm24.91,14.1h-24.91c-1.11,0-2.01-.9-2.01-2.01v-9.73c0-1.11,.9-2.01,2.01-2.01h24.91c1.11,0,2.01,.9,2.01,2.01v9.73c0,1.11-.9,2.01-2.01,2.01Zm-24.91-12.99c-.69,0-1.26,.56-1.26,1.26v9.73c0,.69,.56,1.26,1.26,1.26h24.91c.69,0,1.26-.56,1.26-1.26v-9.73c0-.69-.56-1.26-1.26-1.26h-24.91Z"/>
      </g>
      <g>
        <rect class="cls-1" x="121.45" y="144.54" width="1.11" height="3.69"/>
        <path class="cls-1" d="M122.81,148.48h-1.61v-4.19h1.61v4.19Zm-1.11-.5h.61v-3.19h-.61v3.19Z"/>
      </g>
      <g>
        <rect class="cls-1" x="111" y="147.68" width="22.32" height="1.11"/>
        <path class="cls-1" d="M133.58,149.04h-22.82v-1.61h22.82v1.61Zm-22.32-.5h21.82v-.61h-21.82v.61Z"/>
      </g>
      <g>
        <g>
          <path class="cls-1" d="M117.84,159.72h-12.82c-1.11,0-2.02-.9-2.02-2.02v-4.66c0-1.11,.9-2.02,2.02-2.02h12.82c1.11,0,2.02,.9,2.02,2.02v4.66c0,1.11-.9,2.02-2.02,2.02Zm-12.82-7.58c-.5,0-.91,.41-.91,.91v4.66c0,.5,.41,.91,.91,.91h12.82c.5,0,.91-.41,.91-.91v-4.66c0-.5-.41-.91-.91-.91h-12.82Z"/>
          <path class="cls-1" d="M117.84,159.97h-12.82c-1.25,0-2.27-1.02-2.27-2.27v-4.66c0-1.25,1.02-2.27,2.27-2.27h12.82c1.25,0,2.27,1.02,2.27,2.27v4.66c0,1.25-1.02,2.27-2.27,2.27Zm-12.82-8.69c-.97,0-1.77,.79-1.77,1.77v4.66c0,.97,.79,1.77,1.77,1.77h12.82c.97,0,1.77-.79,1.77-1.77v-4.66c0-.97-.79-1.77-1.77-1.77h-12.82Zm12.82,7.58h-12.82c-.64,0-1.16-.52-1.16-1.16v-4.66c0-.64,.52-1.16,1.16-1.16h12.82c.64,0,1.16,.52,1.16,1.16v4.66c0,.64-.52,1.16-1.16,1.16Zm-12.82-6.47c-.36,0-.66,.29-.66,.66v4.66c0,.36,.29,.66,.66,.66h12.82c.36,0,.66-.29,.66-.66v-4.66c0-.36-.29-.66-.66-.66h-12.82Z"/>
        </g>
        <g>
          <rect class="cls-1" x="111.01" y="148.23" width="1.11" height="3.35"/>
          <path class="cls-1" d="M112.38,151.83h-1.61v-3.85h1.61v3.85Zm-1.11-.5h.61v-2.85h-.61v2.85Z"/>
        </g>
      </g>
      <g>
        <rect class="cls-1" x="132.21" y="148.23" width="1.11" height="3.35"/>
        <path class="cls-1" d="M133.58,151.83h-1.61v-3.85h1.61v3.85Zm-1.11-.5h.61v-2.85h-.61v2.85Z"/>
      </g>
      <g>
        <path class="cls-1" d="M139.32,159.72h-12.82c-1.11,0-2.02-.9-2.02-2.02v-4.66c0-1.11,.9-2.02,2.02-2.02h12.82c1.11,0,2.02,.9,2.02,2.02v4.66c0,1.11-.9,2.02-2.02,2.02Zm-12.82-7.58c-.5,0-.91,.41-.91,.91v4.66c0,.5,.41,.91,.91,.91h12.82c.5,0,.91-.41,.91-.91v-4.66c0-.5-.41-.91-.91-.91h-12.82Z"/>
        <path class="cls-1" d="M139.32,159.97h-12.82c-1.25,0-2.27-1.02-2.27-2.27v-4.66c0-1.25,1.02-2.27,2.27-2.27h12.82c1.25,0,2.27,1.02,2.27,2.27v4.66c0,1.25-1.02,2.27-2.27,2.27Zm-12.82-8.69c-.97,0-1.77,.79-1.77,1.77v4.66c0,.97,.79,1.77,1.77,1.77h12.82c.97,0,1.77-.79,1.77-1.77v-4.66c0-.97-.79-1.77-1.77-1.77h-12.82Zm12.82,7.58h-12.82c-.64,0-1.16-.52-1.16-1.16v-4.66c0-.64,.52-1.16,1.16-1.16h12.82c.64,0,1.16,.52,1.16,1.16v4.66c0,.64-.52,1.16-1.16,1.16Zm-12.82-6.47c-.36,0-.66,.29-.66,.66v4.66c0,.36,.29,.66,.66,.66h12.82c.36,0,.66-.29,.66-.66v-4.66c0-.36-.29-.66-.66-.66h-12.82Z"/>
      </g>
    </g>
  </g>
</svg>