<?xml version="1.0" encoding="UTF-8"?>
<svg id="Layer_1" data-name="Layer 1" xmlns="http://www.w3.org/2000/svg" viewBox="0 0 434.73 284.21">
  <defs>
    <style>
      .cls-1 {
        fill: #008aab;
      }

      .cls-2 {
        fill: #fff;
      }
    </style>
  </defs>
  <g>
    <g>
      <g>
        <rect class="cls-2" x="41.05" y="84.54" width="307.19" height="124.6" rx="10.99" ry="10.99"/>
        <path class="cls-1" d="M337.24,209.64h-1v-1h1c.22,0,.43,0,.64-.02l.06,1c-.23,.01-.47,.02-.7,.02Zm-4,0h-1v-1h1v1Zm-4,0h-1v-1h1v1Zm-4,0h-1v-1h1v1Zm-4,0h-1v-1h1v1Zm-4,0h-1v-1h1v1Zm-4,0h-1v-1h1v1Zm-4,0h-1v-1h1v1Zm-4,0h-1v-1h1v1Zm-4,0h-1v-1h1v1Zm-4,0h-1v-1h1v1Zm-4,0h-1v-1h1v1Zm-4,0h-1v-1h1v1Zm-4,0h-1v-1h1v1Zm-4,0h-1v-1h1v1Zm-4,0h-1v-1h1v1Zm-4,0h-1v-1h1v1Zm-4,0h-1v-1h1v1Zm-4,0h-1v-1h1v1Zm-4,0h-1v-1h1v1Zm-4,0h-1v-1h1v1Zm-4,0h-1v-1h1v1Zm-4,0h-1v-1h1v1Zm-4,0h-1v-1h1v1Zm-4,0h-1v-1h1v1Zm-4,0h-1v-1h1v1Zm-4,0h-1v-1h1v1Zm-4,0h-1v-1h1v1Zm-4,0h-1v-1h1v1Zm-4,0h-1v-1h1v1Zm-4,0h-1v-1h1v1Zm-4,0h-1v-1h1v1Zm-4,0h-1v-1h1v1Zm-4,0h-1v-1h1v1Zm-4,0h-1v-1h1v1Zm-4,0h-1v-1h1v1Zm-4,0h-1v-1h1v1Zm-4,0h-1v-1h1v1Zm-4,0h-1v-1h1v1Zm-4,0h-1v-1h1v1Zm-4,0h-1v-1h1v1Zm-4,0h-1v-1h1v1Zm-4,0h-1v-1h1v1Zm-4,0h-1v-1h1v1Zm-4,0h-1v-1h1v1Zm-4,0h-1v-1h1v1Zm-4,0h-1v-1h1v1Zm-4,0h-1v-1h1v1Zm-4,0h-1v-1h1v1Zm-4,0h-1v-1h1v1Zm-4,0h-1v-1h1v1Zm-4,0h-1v-1h1v1Zm-4,0h-1v-1h1v1Zm-4,0h-1v-1h1v1Zm-4,0h-1v-1h1v1Zm-4,0h-1v-1h1v1Zm-4,0h-1v-1h1v1Zm-4,0h-1v-1h1v1Zm-4,0h-1v-1h1v1Zm-4,0h-1v-1h1v1Zm-4,0h-1v-1h1v1Zm-4,0h-1v-1h1v1Zm-4,0h-1v-1h1v1Zm-4,0h-1v-1h1v1Zm-4,0h-1v-1h1v1Zm-4,0h-1v-1h1v1Zm-4,0h-1v-1h1v1Zm-4,0h-1v-1h1v1Zm-4,0h-1v-1h1v1Zm-4,0h-1v-1h1v1Zm-4,0h-1v-1h1v1Zm-4,0h-1v-1h1v1Zm-4.1-.37c-.34-.09-.67-.19-1-.31l.34-.94c.3,.11,.6,.2,.91,.28l-.25,.97Zm291.86-.27l-.33-.94c.3-.1,.6-.22,.88-.35l.42,.91c-.32,.14-.64,.27-.97,.39Zm-295.63-1.5c-.28-.2-.56-.42-.82-.65l.65-.76c.24,.21,.49,.4,.75,.59l-.58,.81Zm299.24-.56l-.64-.77c.24-.2,.48-.42,.7-.65l.71,.71c-.25,.25-.5,.48-.77,.71Zm-302.13-2.43c-.19-.29-.37-.59-.54-.89l.88-.48c.15,.28,.32,.55,.49,.82l-.83,.56Zm304.78-.77l-.87-.49c.16-.28,.3-.56,.43-.85l.91,.41c-.14,.32-.3,.63-.47,.93Zm-306.44-3.04c-.08-.34-.14-.68-.19-1.03l.99-.13c.04,.32,.1,.63,.17,.94l-.97,.22Zm307.78-.89l-.99-.15c.05-.31,.08-.63,.1-.95l1,.05c-.02,.35-.05,.7-.1,1.04Zm-307.06-3.2h-1v-1h1v1Zm307.19-.87h-1v-1h1v1Zm-307.19-3.13h-1v-1h1v1Zm307.19-.87h-1v-1h1v1Zm-307.19-3.13h-1v-1h1v1Zm307.19-.87h-1v-1h1v1Zm-307.19-3.13h-1v-1h1v1Zm307.19-.87h-1v-1h1v1Zm-307.19-3.13h-1v-1h1v1Zm307.19-.87h-1v-1h1v1Zm-307.19-3.13h-1v-1h1v1Zm307.19-.87h-1v-1h1v1Zm-307.19-3.13h-1v-1h1v1Zm307.19-.87h-1v-1h1v1Zm-307.19-3.13h-1v-1h1v1Zm307.19-.87h-1v-1h1v1Zm-307.19-3.13h-1v-1h1v1Zm307.19-.87h-1v-1h1v1Zm-307.19-3.13h-1v-1h1v1Zm307.19-.87h-1v-1h1v1Zm-307.19-3.13h-1v-1h1v1Zm307.19-.87h-1v-1h1v1Zm-307.19-3.13h-1v-1h1v1Zm307.19-.87h-1v-1h1v1Zm-307.19-3.13h-1v-1h1v1Zm307.19-.87h-1v-1h1v1Zm-307.19-3.13h-1v-1h1v1Zm307.19-.87h-1v-1h1v1Zm-307.19-3.13h-1v-1h1v1Zm307.19-.87h-1v-1h1v1Zm-307.19-3.13h-1v-1h1v1Zm307.19-.87h-1v-1h1v1Zm-307.19-3.13h-1v-1h1v1Zm307.19-.87h-1v-1h1v1Zm-307.19-3.13h-1v-1h1v1Zm307.19-.87h-1v-1h1v1Zm-307.19-3.13h-1v-1h1v1Zm307.19-.87h-1v-1h1v1Zm-307.19-3.13h-1v-1h1v1Zm307.19-.87h-1v-1h1v1Zm-307.19-3.13h-1v-1h1v1Zm307.19-.87h-1v-1h1v1Zm-307.19-3.13h-1v-1h1v1Zm307.19-.87h-1v-1h1v1Zm-307.19-3.13h-1v-1h1v1Zm307.19-.87h-1v-1h1v1Zm-307.19-3.13h-1v-1h1v1Zm307.19-.87h-1v-1h1v1Zm-307.19-3.13h-1v-1h1v1Zm307.19-.87h-1v-1h1v1Zm-307.19-3.13h-1v-1h1v1Zm307.19-.87h-1v-.2c0-.26,0-.51-.03-.76l1-.07c.02,.28,.03,.55,.03,.83v.2Zm-306.82-2.96l-.96-.26c.09-.34,.2-.67,.32-.99l.94,.35c-.11,.3-.21,.6-.29,.91Zm305.19-.79c-.11-.3-.23-.59-.37-.88l.91-.43c.15,.31,.28,.64,.4,.96l-.94,.34Zm-303.54-2.63l-.81-.59c.21-.28,.42-.55,.65-.81l.75,.66c-.21,.24-.41,.49-.6,.74Zm301.62-.65c-.21-.24-.43-.47-.65-.69l.7-.72c.25,.24,.49,.5,.72,.76l-.76,.65Zm-298.86-1.96l-.55-.84c.29-.19,.59-.37,.9-.53l.47,.88c-.28,.15-.56,.31-.82,.48Zm295.91-.43c-.28-.15-.56-.29-.86-.42l.4-.92c.32,.14,.63,.29,.94,.46l-.48,.88Zm-292.41-1.04l-.21-.98c.34-.07,.68-.13,1.03-.17l.12,.99c-.32,.04-.63,.09-.94,.16Zm288.8-.14c-.31-.04-.63-.07-.95-.08l.04-1c.35,.01,.7,.05,1.04,.09l-.13,.99Zm-3.93-.09h-1v-1h1v1Zm-4,0h-1v-1h1v1Zm-4,0h-1v-1h1v1Zm-4,0h-1v-1h1v1Zm-4,0h-1v-1h1v1Zm-4,0h-1v-1h1v1Zm-4,0h-1v-1h1v1Zm-4,0h-1v-1h1v1Zm-4,0h-1v-1h1v1Zm-4,0h-1v-1h1v1Zm-4,0h-1v-1h1v1Zm-4,0h-1v-1h1v1Zm-4,0h-1v-1h1v1Zm-4,0h-1v-1h1v1Zm-4,0h-1v-1h1v1Zm-4,0h-1v-1h1v1Zm-4,0h-1v-1h1v1Zm-4,0h-1v-1h1v1Zm-4,0h-1v-1h1v1Zm-4,0h-1v-1h1v1Zm-4,0h-1v-1h1v1Zm-4,0h-1v-1h1v1Zm-4,0h-1v-1h1v1Zm-4,0h-1v-1h1v1Zm-4,0h-1v-1h1v1Zm-4,0h-1v-1h1v1Zm-4,0h-1v-1h1v1Zm-4,0h-1v-1h1v1Zm-4,0h-1v-1h1v1Zm-4,0h-1v-1h1v1Zm-4,0h-1v-1h1v1Zm-4,0h-1v-1h1v1Zm-4,0h-1v-1h1v1Zm-4,0h-1v-1h1v1Zm-4,0h-1v-1h1v1Zm-4,0h-1v-1h1v1Zm-4,0h-1v-1h1v1Zm-4,0h-1v-1h1v1Zm-4,0h-1v-1h1v1Zm-4,0h-1v-1h1v1Zm-4,0h-1v-1h1v1Zm-4,0h-1v-1h1v1Zm-4,0h-1v-1h1v1Zm-4,0h-1v-1h1v1Zm-4,0h-1v-1h1v1Zm-4,0h-1v-1h1v1Zm-4,0h-1v-1h1v1Zm-4,0h-1v-1h1v1Zm-4,0h-1v-1h1v1Zm-4,0h-1v-1h1v1Zm-4,0h-1v-1h1v1Zm-4,0h-1v-1h1v1Zm-4,0h-1v-1h1v1Zm-4,0h-1v-1h1v1Zm-4,0h-1v-1h1v1Zm-4,0h-1v-1h1v1Zm-4,0h-1v-1h1v1Zm-4,0h-1v-1h1v1Zm-4,0h-1v-1h1v1Zm-4,0h-1v-1h1v1Zm-4,0h-1v-1h1v1Zm-4,0h-1v-1h1v1Zm-4,0h-1v-1h1v1Zm-4,0h-1v-1h1v1Zm-4,0h-1v-1h1v1Zm-4,0h-1v-1h1v1Zm-4,0h-1v-1h1v1Zm-4,0h-1v-1h1v1Zm-4,0h-1v-1h1v1Zm-4,0h-1v-1h1v1Zm-4,0h-1v-1h1v1Z"/>
      </g>
      <g>
        <ellipse class="cls-2" cx="119.39" cy="136.78" rx="59.92" ry="35.78"/>
        <path class="cls-1" d="M119.39,174.07c-33.87,0-61.42-16.73-61.42-37.28s27.55-37.28,61.42-37.28,61.42,16.73,61.42,37.28-27.55,37.28-61.42,37.28Zm0-71.57c-32.21,0-58.42,15.38-58.42,34.28s26.21,34.28,58.42,34.28,58.42-15.38,58.42-34.28-26.21-34.28-58.42-34.28Z"/>
      </g>
      <g>
        <path class="cls-1" d="M99.1,133.26h2.87c.71,0,1.32,.13,1.84,.41,.52,.27,.93,.65,1.21,1.15,.29,.5,.43,1.08,.43,1.75,0,.79-.16,1.46-.47,2.02-.31,.56-.76,.99-1.35,1.28-.59,.29-1.3,.44-2.12,.44h-2.96l.55-7.05Zm2.24,5.57c.78,0,1.36-.18,1.73-.54,.37-.36,.56-.94,.56-1.72,0-.59-.16-1.04-.49-1.36-.33-.31-.8-.46-1.42-.46h-.9l-.32,4.09h.84Z"/>
        <path class="cls-1" d="M108.01,139.99c-.53-.28-.93-.67-1.21-1.18s-.42-1.12-.42-1.81c0-.76,.15-1.43,.44-2.02,.29-.58,.71-1.03,1.25-1.35,.54-.32,1.17-.48,1.88-.48s1.32,.14,1.85,.42c.53,.28,.93,.67,1.21,1.19s.42,1.12,.42,1.81c0,.76-.15,1.43-.44,2.01-.3,.58-.71,1.03-1.25,1.35s-1.16,.48-1.87,.48-1.32-.14-1.85-.42Zm3.11-1.64c.31-.43,.47-1.02,.47-1.78,0-.63-.14-1.12-.43-1.47-.29-.35-.69-.52-1.2-.52-.55,0-.98,.22-1.29,.65s-.47,1.02-.47,1.78c0,.64,.14,1.13,.42,1.47s.69,.51,1.21,.51,.97-.21,1.28-.64Z"/>
        <path class="cls-1" d="M121.91,133.26l-.56,7.05h-1.6l.3-3.7-1.56,2.53h-1.18l-1.16-2.41-.29,3.58h-1.6l.56-7.05h1.45l1.77,3.94,2.45-3.94h1.42Z"/>
        <path class="cls-1" d="M127.55,138.85h-3.13l-.74,1.46h-1.88l3.84-7.05h1.46l2.75,7.05h-1.78l-.52-1.46Zm-.48-1.38l-.81-2.26-1.14,2.26h1.95Z"/>
        <path class="cls-1" d="M130.82,133.26h1.84l-.55,7.05h-1.84l.55-7.05Z"/>
        <path class="cls-1" d="M140.23,133.26l-.56,7.05h-1.37l-2.87-3.96-.33,3.96h-1.71l.56-7.05h1.34l2.9,3.98,.32-3.98h1.72Z"/>
      </g>
      <circle class="cls-1" cx="178.52" cy="136.78" r="5.38"/>
      <g>
        <path class="cls-1" d="M60.82,186.15h2.06c.57,0,1.05,.1,1.46,.31s.72,.51,.93,.9c.22,.39,.32,.86,.32,1.4,0,.63-.12,1.18-.35,1.63-.24,.45-.58,.8-1.03,1.04-.45,.24-.99,.36-1.63,.36h-2.21l.44-5.64Zm1.69,4.8c1.37,0,2.06-.73,2.06-2.19,0-.58-.15-1.01-.46-1.32-.3-.3-.75-.45-1.34-.45h-.98l-.31,3.96h1.03Z"/>
        <path class="cls-1" d="M70.13,190.47h-2.75l-.66,1.32h-1.06l2.99-5.64h.84l2.11,5.64h-1.01l-.46-1.32Zm-.28-.8l-.85-2.4-1.22,2.4h2.06Z"/>
        <path class="cls-1" d="M73.21,187h-1.84l.06-.85h4.71l-.06,.85h-1.84l-.38,4.79h-1.03l.38-4.79Z"/>
        <path class="cls-1" d="M79.58,190.47h-2.75l-.66,1.32h-1.06l2.99-5.64h.84l2.11,5.64h-1.01l-.46-1.32Zm-.28-.8l-.85-2.4-1.22,2.4h2.06Z"/>
        <path class="cls-1" d="M82.38,191.69c-.38-.12-.71-.28-1.01-.5l.4-.75c.28,.21,.58,.36,.88,.46,.3,.1,.63,.15,.98,.15,.39,0,.69-.07,.89-.2,.21-.13,.31-.32,.31-.56,0-.15-.05-.28-.16-.39-.11-.1-.25-.19-.41-.26-.17-.07-.39-.14-.67-.22-.39-.11-.71-.22-.96-.33-.25-.11-.46-.27-.64-.48-.18-.21-.26-.49-.26-.84s.09-.64,.28-.9,.45-.45,.79-.59c.34-.14,.74-.21,1.19-.21,.39,0,.77,.06,1.13,.18,.36,.12,.66,.28,.89,.49l-.41,.75c-.24-.2-.5-.35-.78-.45-.28-.1-.57-.16-.86-.16-.38,0-.68,.07-.89,.21-.21,.14-.32,.34-.32,.59,0,.17,.06,.3,.17,.42,.11,.11,.25,.2,.42,.26s.4,.14,.7,.23c.39,.11,.7,.22,.94,.32,.24,.1,.45,.26,.62,.46,.17,.21,.26,.47,.26,.8,0,.52-.2,.93-.6,1.23-.4,.3-.95,.44-1.66,.44-.44,0-.84-.06-1.22-.17Z"/>
        <path class="cls-1" d="M88.08,186.97l-.12,1.55h2.6l-.06,.81h-2.61l-.13,1.65h2.77l-.06,.82h-3.78l.45-5.64h3.77l-.06,.82h-2.76Z"/>
        <path class="cls-1" d="M93.11,187h-1.84l.06-.85h4.71l-.06,.85h-1.84l-.38,4.79h-1.03l.38-4.79Z"/>
        <path class="cls-1" d="M104.43,186.15l-.45,5.64h-.91l.29-3.7-1.7,2.79h-.69l-1.27-2.74-.29,3.66h-.91l.44-5.64h.82l1.62,3.66,2.23-3.66h.81Z"/>
        <path class="cls-1" d="M106.6,186.97l-.12,1.55h2.6l-.06,.81h-2.61l-.13,1.65h2.77l-.06,.82h-3.78l.45-5.64h3.77l-.06,.82h-2.76Z"/>
        <path class="cls-1" d="M111.63,187h-1.84l.06-.85h4.71l-.06,.85h-1.84l-.38,4.79h-1.03l.38-4.79Z"/>
        <path class="cls-1" d="M118,190.47h-2.75l-.66,1.32h-1.06l2.99-5.64h.84l2.11,5.64h-1.01l-.46-1.32Zm-.28-.8l-.85-2.4-1.22,2.4h2.06Z"/>
        <path class="cls-1" d="M120.51,186.15h2.06c.57,0,1.05,.1,1.46,.31s.72,.51,.93,.9c.22,.39,.32,.86,.32,1.4,0,.63-.12,1.18-.35,1.63-.24,.45-.58,.8-1.03,1.04-.45,.24-.99,.36-1.63,.36h-2.21l.44-5.64Zm1.69,4.8c1.37,0,2.06-.73,2.06-2.19,0-.58-.15-1.01-.46-1.32-.3-.3-.75-.45-1.34-.45h-.98l-.31,3.96h1.03Z"/>
        <path class="cls-1" d="M129.82,190.47h-2.75l-.66,1.32h-1.06l2.99-5.64h.84l2.11,5.64h-1.01l-.46-1.32Zm-.28-.8l-.85-2.4-1.22,2.4h2.06Z"/>
        <path class="cls-1" d="M132.9,187h-1.84l.06-.85h4.71l-.06,.85h-1.84l-.38,4.79h-1.03l.38-4.79Z"/>
        <path class="cls-1" d="M139.27,190.47h-2.75l-.66,1.32h-1.06l2.99-5.64h.84l2.11,5.64h-1.01l-.46-1.32Zm-.28-.8l-.85-2.4-1.22,2.4h2.06Z"/>
      </g>
      <g>
        <ellipse class="cls-2" cx="269.6" cy="136.87" rx="59.92" ry="35.78"/>
        <path class="cls-1" d="M269.6,174.15c-33.87,0-61.42-16.73-61.42-37.28s27.55-37.28,61.42-37.28,61.42,16.73,61.42,37.28-27.55,37.28-61.42,37.28Zm0-71.57c-32.21,0-58.42,15.38-58.42,34.28s26.21,34.28,58.42,34.28,58.42-15.38,58.42-34.28-26.21-34.28-58.42-34.28Z"/>
      </g>
      <g>
        <path class="cls-1" d="M263.52,133.34l-3.76,7.05h-1.46l-2.66-7.05h1.91l1.68,4.76,2.42-4.76h1.87Z"/>
        <path class="cls-1" d="M263.94,133.34h1.84l-.55,7.05h-1.84l.55-7.05Z"/>
        <path class="cls-1" d="M268.75,134.76l-.11,1.34h3.02l-.11,1.41h-3.02l-.12,1.46h3.23l-.12,1.42h-5.01l.56-7.05h5.02l-.12,1.42h-3.22Z"/>
        <path class="cls-1" d="M283.55,133.34l-3.07,7.05h-1.46l-1.17-4.23-1.83,4.23h-1.47l-1.96-7.05h1.86l1.11,4.47,1.93-4.47h1.26l1.15,4.55,1.9-4.55h1.75Z"/>
      </g>
      <path class="cls-1" d="M204.72,144.09c0,.12,0,.24-.01,.36s-.03,.26-.06,.43-.08,.37-.13,.62c-.06,.24-.13,.56-.22,.94-.08,.35-.16,.65-.22,.91-.06,.26-.11,.51-.16,.74-.05,.23-.09,.46-.13,.68s-.08,.45-.13,.69c-.16-.02-.32-.03-.48-.03h-1.11c-.17,0-.34,0-.5,.03,.04-.08,.1-.25,.17-.51,.08-.26,.17-.55,.27-.88,.1-.33,.2-.68,.29-1.06,.1-.37,.19-.73,.27-1.06s.15-.64,.21-.9c.06-.27,.08-.46,.08-.58,0-.26-.07-.46-.22-.59-.15-.13-.34-.2-.6-.2-.34,0-.67,.14-1,.43-.33,.29-.59,.74-.79,1.36-.07,.23-.15,.51-.24,.83-.08,.32-.17,.66-.25,1.02-.08,.36-.15,.73-.22,1.11-.07,.38-.13,.73-.18,1.04-.16-.02-.32-.03-.48-.03h-1c-.18,0-.35,0-.5,.03,.12-.43,.24-.88,.36-1.36s.24-.98,.36-1.52c.12-.54,.24-1.12,.37-1.74,.13-.63,.26-1.32,.4-2.07,.14,.02,.3,.04,.48,.05,.18,.01,.36,.02,.52,.02,.16,0,.31,0,.46-.02,.15-.01,.29-.03,.43-.05-.04,.12-.07,.23-.1,.31-.03,.09-.05,.18-.07,.26-.02,.08-.04,.17-.06,.27-.02,.09-.05,.21-.08,.34,.34-.42,.7-.74,1.09-.97,.39-.23,.87-.34,1.43-.34,.59,0,1.02,.14,1.3,.42,.28,.28,.41,.63,.41,1.05Z"/>
    </g>
    <g>
      <g>
        <rect class="cls-2" x="54.51" y="95.32" width="307.19" height="124.6" rx="10.99" ry="10.99"/>
        <path class="cls-1" d="M349.7,220.42v-1h1l.03,.72-.02,.28h-1.02Zm-3,0h-1v-1h1v1Zm-4,0h-1v-1h1v1Zm-4,0h-1v-1h1v1Zm-4,0h-1v-1h1v1Zm-4,0h-1v-1h1v1Zm-4,0h-1v-1h1v1Zm-4,0h-1v-1h1v1Zm-4,0h-1v-1h1v1Zm-4,0h-1v-1h1v1Zm-4,0h-1v-1h1v1Zm-4,0h-1v-1h1v1Zm-4,0h-1v-1h1v1Zm-4,0h-1v-1h1v1Zm-4,0h-1v-1h1v1Zm-4,0h-1v-1h1v1Zm-4,0h-1v-1h1v1Zm-4,0h-1v-1h1v1Zm-4,0h-1v-1h1v1Zm-4,0h-1v-1h1v1Zm-4,0h-1v-1h1v1Zm-4,0h-1v-1h1v1Zm-4,0h-1v-1h1v1Zm-4,0h-1v-1h1v1Zm-4,0h-1v-1h1v1Zm-4,0h-1v-1h1v1Zm-4,0h-1v-1h1v1Zm-4,0h-1v-1h1v1Zm-4,0h-1v-1h1v1Zm-4,0h-1v-1h1v1Zm-4,0h-1v-1h1v1Zm-4,0h-1v-1h1v1Zm-4,0h-1v-1h1v1Zm-4,0h-1v-1h1v1Zm-4,0h-1v-1h1v1Zm-4,0h-1v-1h1v1Zm-4,0h-1v-1h1v1Zm-4,0h-1v-1h1v1Zm-4,0h-1v-1h1v1Zm-4,0h-1v-1h1v1Zm-4,0h-1v-1h1v1Zm-4,0h-1v-1h1v1Zm-4,0h-1v-1h1v1Zm-4,0h-1v-1h1v1Zm-4,0h-1v-1h1v1Zm-4,0h-1v-1h1v1Zm-4,0h-1v-1h1v1Zm-4,0h-1v-1h1v1Zm-4,0h-1v-1h1v1Zm-4,0h-1v-1h1v1Zm-4,0h-1v-1h1v1Zm-4,0h-1v-1h1v1Zm-4,0h-1v-1h1v1Zm-4,0h-1v-1h1v1Zm-4,0h-1v-1h1v1Zm-4,0h-1v-1h1v1Zm-4,0h-1v-1h1v1Zm-4,0h-1v-1h1v1Zm-4,0h-1v-1h1v1Zm-4,0h-1v-1h1v1Zm-4,0h-1v-1h1v1Zm-4,0h-1v-1h1v1Zm-4,0h-1v-1h1v1Zm-4,0h-1v-1h1v1Zm-4,0h-1v-1h1v1Zm-4,0h-1v-1h1v1Zm-4,0h-1v-1h1v1Zm-4,0h-1v-1h1v1Zm-4,0h-1v-1h1v1Zm-4,0h-1v-1h1v1Zm-4,0h-1v-1h1v1Zm-4,0h-.99v-1s.99,0,.99,0v1Zm-4.1-.43c-.34-.1-.67-.21-.99-.33l.36-.93c.3,.11,.6,.21,.91,.3l-.27,.96Zm291.46,0l-.28-.96c.31-.09,.61-.19,.9-.3l.36,.93c-.32,.13-.65,.24-.99,.33Zm-295.19-1.83c-.28-.21-.55-.43-.81-.66l.67-.75c.24,.21,.48,.41,.74,.6l-.6,.8Zm298.91-.02l-.6-.8c.25-.19,.5-.39,.74-.61l.67,.74c-.26,.23-.53,.45-.81,.66Zm-301.75-3.02c-.19-.29-.36-.6-.52-.9l.89-.46c.15,.28,.31,.56,.48,.83l-.84,.54Zm304.58-.03l-.84-.54c.17-.27,.33-.54,.48-.83l.89,.46c-.16,.31-.33,.61-.52,.91Zm-306.15-3.83c-.07-.34-.13-.68-.17-1.03l.99-.11c.04,.32,.09,.63,.15,.94l-.98,.2Zm307.72-.03l-.98-.2c.06-.31,.11-.62,.15-.94l.99,.11c-.04,.35-.09,.69-.16,1.03Zm-306.95-4.06h-1v-1h1v1Zm307.19-.03h-1v-1h1v1Zm-307.19-3.97h-1v-1h1v1Zm307.19-.03h-1v-1h1v1Zm-307.19-3.97h-1v-1h1v1Zm307.19-.03h-1v-1h1v1Zm-307.19-3.97h-1v-1h1v1Zm307.19-.03h-1v-1h1v1Zm-307.19-3.97h-1v-1h1v1Zm307.19-.03h-1v-1h1v1Zm-307.19-3.97h-1v-1h1v1Zm307.19-.03h-1v-1h1v1Zm-307.19-3.97h-1v-1h1v1Zm307.19-.03h-1v-1h1v1Zm-307.19-3.97h-1v-1h1v1Zm307.19-.03h-1v-1h1v1Zm-307.19-3.97h-1v-1h1v1Zm307.19-.03h-1v-1h1v1Zm-307.19-3.97h-1v-1h1v1Zm307.19-.03h-1v-1h1v1Zm-307.19-3.97h-1v-1h1v1Zm307.19-.03h-1v-1h1v1Zm-307.19-3.97h-1v-1h1v1Zm307.19-.03h-1v-1h1v1Zm-307.19-3.97h-1v-1h1v1Zm307.19-.03h-1v-1h1v1Zm-307.19-3.97h-1v-1h1v1Zm307.19-.03h-1v-1h1v1Zm-307.19-3.97h-1v-1h1v1Zm307.19-.03h-1v-1h1v1Zm-307.19-3.97h-1v-1h1v1Zm307.19-.03h-1v-1h1v1Zm-307.19-3.97h-1v-1h1v1Zm307.19-.03h-1v-1h1v1Zm-307.19-3.97h-1v-1h1v1Zm307.19-.03h-1v-1h1v1Zm-307.19-3.97h-1v-1h1v1Zm307.19-.03h-1v-1h1v1Zm-307.19-3.97h-1v-1h1v1Zm307.19-.03h-1v-1h1v1Zm-307.19-3.97h-1v-1h1v1Zm307.19-.03h-1v-1h1v1Zm-307.19-3.97h-1v-1h1v1Zm307.19-.03h-1v-1h1v1Zm-307.19-3.97h-1v-1h1v1Zm307.19-.03h-1v-1h1v1Zm-307.19-3.97h-1v-1h1v1Zm307.19-.03h-1v-1h1v1Zm-307.19-3.97h-1v-1h1v1Zm307.19-.03h-1v-1h1v1Zm-307.19-3.97h-1v-1.01s1,.02,1,.02v.99Zm307.18-.03h-1v-.99s1-.02,1-.02v1.01Zm-306.73-3.78l-.96-.29c.1-.33,.22-.66,.35-.99l.93,.38c-.12,.29-.23,.59-.32,.9Zm305.27-.03c-.09-.3-.2-.6-.32-.9l.92-.38c.13,.32,.25,.65,.35,.98l-.96,.29Zm-303.52-3.34l-.79-.61c.21-.28,.44-.54,.68-.8l.73,.68c-.22,.23-.42,.48-.62,.73Zm301.77-.02c-.2-.25-.4-.49-.62-.73l.73-.68c.24,.25,.47,.52,.68,.79l-.79,.61Zm-298.93-2.52l-.52-.85c.3-.18,.6-.35,.92-.51l.44,.9c-.29,.14-.56,.3-.83,.46Zm296.1-.01c-.27-.17-.55-.32-.84-.46l.44-.9c.31,.15,.62,.32,.92,.5l-.52,.85Zm-292.55-1.35l-.18-.98c.34-.06,.69-.11,1.04-.15l.09,1c-.32,.03-.63,.07-.94,.13Zm289.01,0c-.31-.06-.63-.1-.94-.13l.09-1c.35,.03,.7,.08,1.04,.14l-.18,.98Zm-3.9-.17h-1v-1h1v1Zm-4,0h-1v-1h1v1Zm-4,0h-1v-1h1v1Zm-4,0h-1v-1h1v1Zm-4,0h-1v-1h1v1Zm-4,0h-1v-1h1v1Zm-4,0h-1v-1h1v1Zm-4,0h-1v-1h1v1Zm-4,0h-1v-1h1v1Zm-4,0h-1v-1h1v1Zm-4,0h-1v-1h1v1Zm-4,0h-1v-1h1v1Zm-4,0h-1v-1h1v1Zm-4,0h-1v-1h1v1Zm-4,0h-1v-1h1v1Zm-4,0h-1v-1h1v1Zm-4,0h-1v-1h1v1Zm-4,0h-1v-1h1v1Zm-4,0h-1v-1h1v1Zm-4,0h-1v-1h1v1Zm-4,0h-1v-1h1v1Zm-4,0h-1v-1h1v1Zm-4,0h-1v-1h1v1Zm-4,0h-1v-1h1v1Zm-4,0h-1v-1h1v1Zm-4,0h-1v-1h1v1Zm-4,0h-1v-1h1v1Zm-4,0h-1v-1h1v1Zm-4,0h-1v-1h1v1Zm-4,0h-1v-1h1v1Zm-4,0h-1v-1h1v1Zm-4,0h-1v-1h1v1Zm-4,0h-1v-1h1v1Zm-4,0h-1v-1h1v1Zm-4,0h-1v-1h1v1Zm-4,0h-1v-1h1v1Zm-4,0h-1v-1h1v1Zm-4,0h-1v-1h1v1Zm-4,0h-1v-1h1v1Zm-4,0h-1v-1h1v1Zm-4,0h-1v-1h1v1Zm-4,0h-1v-1h1v1Zm-4,0h-1v-1h1v1Zm-4,0h-1v-1h1v1Zm-4,0h-1v-1h1v1Zm-4,0h-1v-1h1v1Zm-4,0h-1v-1h1v1Zm-4,0h-1v-1h1v1Zm-4,0h-1v-1h1v1Zm-4,0h-1v-1h1v1Zm-4,0h-1v-1h1v1Zm-4,0h-1v-1h1v1Zm-4,0h-1v-1h1v1Zm-4,0h-1v-1h1v1Zm-4,0h-1v-1h1v1Zm-4,0h-1v-1h1v1Zm-4,0h-1v-1h1v1Zm-4,0h-1v-1h1v1Zm-4,0h-1v-1h1v1Zm-4,0h-1v-1h1v1Zm-4,0h-1v-1h1v1Zm-4,0h-1v-1h1v1Zm-4,0h-1v-1h1v1Zm-4,0h-1v-1h1v1Zm-4,0h-1v-1h1v1Zm-4,0h-1v-1h1v1Zm-4,0h-1v-1h1v1Zm-4,0h-1v-1h1v1Zm-4,0h-1v-1h1v1Zm-4,0h-1v-1h1v1Zm-4,0h-1v-1h1v1Z"/>
      </g>
      <g>
        <ellipse class="cls-2" cx="132.85" cy="147.57" rx="59.92" ry="35.78"/>
        <path class="cls-1" d="M132.85,184.85c-33.87,0-61.42-16.73-61.42-37.28s27.55-37.28,61.42-37.28,61.42,16.73,61.42,37.28-27.55,37.28-61.42,37.28Zm0-71.57c-32.21,0-58.42,15.38-58.42,34.28s26.21,34.28,58.42,34.28,58.42-15.38,58.42-34.28-26.21-34.28-58.42-34.28Z"/>
      </g>
      <g>
        <path class="cls-1" d="M112.56,144.05h2.87c.71,0,1.32,.13,1.84,.41,.52,.27,.93,.65,1.21,1.15,.29,.5,.43,1.08,.43,1.75,0,.79-.16,1.46-.47,2.02-.31,.56-.76,.99-1.35,1.28-.59,.29-1.3,.44-2.12,.44h-2.96l.55-7.05Zm2.24,5.57c.78,0,1.36-.18,1.73-.54,.37-.36,.56-.94,.56-1.72,0-.59-.16-1.04-.49-1.36-.33-.31-.8-.46-1.42-.46h-.9l-.32,4.09h.84Z"/>
        <path class="cls-1" d="M121.47,150.78c-.53-.28-.93-.67-1.21-1.18s-.42-1.12-.42-1.81c0-.76,.15-1.43,.44-2.02,.29-.58,.71-1.03,1.25-1.35,.54-.32,1.17-.48,1.88-.48s1.32,.14,1.85,.42c.53,.28,.93,.67,1.21,1.19s.42,1.12,.42,1.81c0,.76-.15,1.43-.44,2.01-.3,.58-.71,1.03-1.25,1.35s-1.16,.48-1.87,.48-1.32-.14-1.85-.42Zm3.11-1.64c.31-.43,.47-1.02,.47-1.78,0-.63-.14-1.12-.43-1.47-.29-.35-.69-.52-1.2-.52-.55,0-.98,.22-1.29,.65s-.47,1.02-.47,1.78c0,.64,.14,1.13,.42,1.47s.69,.51,1.21,.51,.97-.21,1.28-.64Z"/>
        <path class="cls-1" d="M135.37,144.05l-.56,7.05h-1.6l.3-3.7-1.56,2.53h-1.18l-1.16-2.41-.29,3.58h-1.6l.56-7.05h1.45l1.77,3.94,2.45-3.94h1.42Z"/>
        <path class="cls-1" d="M141.01,149.64h-3.13l-.74,1.46h-1.88l3.84-7.05h1.46l2.75,7.05h-1.78l-.52-1.46Zm-.48-1.38l-.81-2.26-1.14,2.26h1.95Z"/>
        <path class="cls-1" d="M144.28,144.05h1.84l-.55,7.05h-1.84l.55-7.05Z"/>
        <path class="cls-1" d="M153.69,144.05l-.56,7.05h-1.37l-2.87-3.96-.33,3.96h-1.71l.56-7.05h1.34l2.9,3.98,.32-3.98h1.72Z"/>
      </g>
      <circle class="cls-1" cx="191.98" cy="147.57" r="5.38"/>
      <g>
        <path class="cls-1" d="M74.28,196.94h2.06c.57,0,1.05,.1,1.46,.31s.72,.51,.93,.9c.22,.39,.32,.86,.32,1.4,0,.63-.12,1.18-.35,1.63-.24,.45-.58,.8-1.03,1.04-.45,.24-.99,.36-1.63,.36h-2.21l.44-5.64Zm1.69,4.8c1.37,0,2.06-.73,2.06-2.19,0-.58-.15-1.01-.46-1.32-.3-.3-.75-.45-1.34-.45h-.98l-.31,3.96h1.03Z"/>
        <path class="cls-1" d="M83.59,201.26h-2.75l-.66,1.32h-1.06l2.99-5.64h.84l2.11,5.64h-1.01l-.46-1.32Zm-.28-.8l-.85-2.4-1.22,2.4h2.06Z"/>
        <path class="cls-1" d="M86.67,197.79h-1.84l.06-.85h4.71l-.06,.85h-1.84l-.38,4.79h-1.03l.38-4.79Z"/>
        <path class="cls-1" d="M93.04,201.26h-2.75l-.66,1.32h-1.06l2.99-5.64h.84l2.11,5.64h-1.01l-.46-1.32Zm-.28-.8l-.85-2.4-1.22,2.4h2.06Z"/>
        <path class="cls-1" d="M95.84,202.48c-.38-.12-.71-.28-1.01-.5l.4-.75c.28,.21,.58,.36,.88,.46,.3,.1,.63,.15,.98,.15,.39,0,.69-.07,.89-.2,.21-.13,.31-.32,.31-.56,0-.15-.05-.28-.16-.39-.11-.1-.25-.19-.41-.26-.17-.07-.39-.14-.67-.22-.39-.11-.71-.22-.96-.33-.25-.11-.46-.27-.64-.48-.18-.21-.26-.49-.26-.84s.09-.64,.28-.9,.45-.45,.79-.59c.34-.14,.74-.21,1.19-.21,.39,0,.77,.06,1.13,.18,.36,.12,.66,.28,.89,.49l-.41,.75c-.24-.2-.5-.35-.78-.45-.28-.1-.57-.16-.86-.16-.38,0-.68,.07-.89,.21-.21,.14-.32,.34-.32,.59,0,.17,.06,.3,.17,.42,.11,.11,.25,.2,.42,.26s.4,.14,.7,.23c.39,.11,.7,.22,.94,.32,.24,.1,.45,.26,.62,.46,.17,.21,.26,.47,.26,.8,0,.52-.2,.93-.6,1.23-.4,.3-.95,.44-1.66,.44-.44,0-.84-.06-1.22-.17Z"/>
        <path class="cls-1" d="M101.54,197.75l-.12,1.55h2.6l-.06,.81h-2.61l-.13,1.65h2.77l-.06,.82h-3.78l.45-5.64h3.77l-.06,.82h-2.76Z"/>
        <path class="cls-1" d="M106.57,197.79h-1.84l.06-.85h4.71l-.06,.85h-1.84l-.38,4.79h-1.03l.38-4.79Z"/>
        <path class="cls-1" d="M117.89,196.94l-.45,5.64h-.91l.29-3.7-1.7,2.79h-.69l-1.27-2.74-.29,3.66h-.91l.44-5.64h.82l1.62,3.66,2.23-3.66h.81Z"/>
        <path class="cls-1" d="M120.06,197.75l-.12,1.55h2.6l-.06,.81h-2.61l-.13,1.65h2.77l-.06,.82h-3.78l.45-5.64h3.77l-.06,.82h-2.76Z"/>
        <path class="cls-1" d="M125.09,197.79h-1.84l.06-.85h4.71l-.06,.85h-1.84l-.38,4.79h-1.03l.38-4.79Z"/>
        <path class="cls-1" d="M131.46,201.26h-2.75l-.66,1.32h-1.06l2.99-5.64h.84l2.11,5.64h-1.01l-.46-1.32Zm-.28-.8l-.85-2.4-1.22,2.4h2.06Z"/>
        <path class="cls-1" d="M133.97,196.94h2.06c.57,0,1.05,.1,1.46,.31s.72,.51,.93,.9c.22,.39,.32,.86,.32,1.4,0,.63-.12,1.18-.35,1.63-.24,.45-.58,.8-1.03,1.04-.45,.24-.99,.36-1.63,.36h-2.21l.44-5.64Zm1.69,4.8c1.37,0,2.06-.73,2.06-2.19,0-.58-.15-1.01-.46-1.32-.3-.3-.75-.45-1.34-.45h-.98l-.31,3.96h1.03Z"/>
        <path class="cls-1" d="M143.28,201.26h-2.75l-.66,1.32h-1.06l2.99-5.64h.84l2.11,5.64h-1.01l-.46-1.32Zm-.28-.8l-.85-2.4-1.22,2.4h2.06Z"/>
        <path class="cls-1" d="M146.36,197.79h-1.84l.06-.85h4.71l-.06,.85h-1.84l-.38,4.79h-1.03l.38-4.79Z"/>
        <path class="cls-1" d="M152.73,201.26h-2.75l-.66,1.32h-1.06l2.99-5.64h.84l2.11,5.64h-1.01l-.46-1.32Zm-.28-.8l-.85-2.4-1.22,2.4h2.06Z"/>
      </g>
      <g>
        <ellipse class="cls-2" cx="283.06" cy="147.65" rx="59.92" ry="35.78"/>
        <path class="cls-1" d="M283.06,184.94c-33.87,0-61.42-16.73-61.42-37.28s27.55-37.28,61.42-37.28,61.42,16.73,61.42,37.28-27.55,37.28-61.42,37.28Zm0-71.57c-32.21,0-58.42,15.38-58.42,34.28s26.21,34.28,58.42,34.28,58.42-15.38,58.42-34.28-26.21-34.28-58.42-34.28Z"/>
      </g>
      <g>
        <path class="cls-1" d="M276.98,144.13l-3.76,7.05h-1.46l-2.66-7.05h1.91l1.68,4.76,2.42-4.76h1.87Z"/>
        <path class="cls-1" d="M277.4,144.13h1.84l-.55,7.05h-1.84l.55-7.05Z"/>
        <path class="cls-1" d="M282.21,145.55l-.11,1.34h3.02l-.11,1.41h-3.02l-.12,1.46h3.23l-.12,1.42h-5.01l.56-7.05h5.02l-.12,1.42h-3.22Z"/>
        <path class="cls-1" d="M297.01,144.13l-3.07,7.05h-1.46l-1.17-4.23-1.83,4.23h-1.47l-1.96-7.05h1.86l1.11,4.47,1.93-4.47h1.26l1.15,4.55,1.9-4.55h1.75Z"/>
      </g>
      <path class="cls-1" d="M218.09,156.38c0,.15,0,.3-.02,.44-.01,.14-.04,.32-.08,.53-.04,.21-.09,.46-.16,.76-.07,.3-.16,.69-.28,1.16-.1,.43-.19,.8-.27,1.12-.08,.32-.14,.63-.2,.92-.06,.29-.11,.57-.16,.84-.05,.27-.1,.56-.16,.85-.2-.02-.39-.03-.59-.03h-1.37c-.21,0-.42,.01-.61,.03,.05-.1,.12-.31,.22-.63,.1-.32,.21-.68,.33-1.09s.24-.84,.36-1.3c.12-.46,.23-.9,.34-1.31,.1-.41,.19-.79,.26-1.11,.07-.33,.1-.57,.1-.72,0-.32-.09-.56-.27-.73s-.42-.24-.73-.24c-.41,0-.83,.18-1.23,.54-.41,.36-.73,.92-.98,1.68-.09,.29-.19,.63-.29,1.02-.1,.39-.2,.81-.3,1.25-.1,.44-.19,.9-.28,1.36-.09,.47-.16,.9-.22,1.29-.2-.02-.4-.03-.6-.03h-1.23c-.22,0-.43,.01-.62,.03,.15-.53,.3-1.09,.45-1.68,.15-.59,.3-1.21,.45-1.87,.15-.66,.3-1.38,.46-2.15,.16-.77,.32-1.62,.49-2.56,.17,.02,.37,.04,.6,.06s.44,.03,.65,.03c.2,0,.39,0,.57-.03,.18-.02,.36-.04,.54-.06-.05,.15-.09,.28-.12,.39-.03,.11-.06,.22-.09,.32-.02,.1-.05,.21-.08,.33-.03,.12-.06,.25-.1,.41,.41-.52,.86-.92,1.35-1.2,.48-.28,1.07-.42,1.76-.42,.73,0,1.26,.17,1.6,.52,.34,.35,.51,.78,.51,1.3Z"/>
    </g>
  </g>
  <g>
    <path class="cls-1" d="M43.37,55.75c-1.04-.56-1.84-1.35-2.4-2.38-.56-1.03-.84-2.24-.84-3.64,0-1.54,.32-2.9,.95-4.07,.63-1.17,1.52-2.07,2.67-2.7s2.48-.95,4-.95c.95,0,1.85,.13,2.69,.4,.84,.27,1.58,.65,2.23,1.15l-1.35,2.64c-.58-.43-1.14-.75-1.68-.95-.54-.2-1.11-.3-1.7-.3-1.29,0-2.28,.42-2.98,1.27s-1.05,2.02-1.05,3.51c0,1.28,.28,2.25,.83,2.91s1.36,1,2.44,1,2.28-.41,3.67-1.23l.95,2.62c-.48,.47-1.16,.85-2.03,1.13-.87,.28-1.76,.42-2.69,.42-1.42,0-2.66-.28-3.7-.84Z"/>
    <path class="cls-1" d="M61.69,47.21c.71,.64,1.06,1.62,1.06,2.95,0,.16-.01,.4-.04,.73l-.42,5.52h-3.36l.1-1.25c-.24,.44-.58,.79-1.03,1.04-.44,.25-.95,.37-1.53,.37-.66,0-1.25-.13-1.77-.39-.52-.26-.94-.61-1.24-1.06-.3-.44-.45-.94-.45-1.49,0-.77,.19-1.38,.56-1.84s.97-.8,1.79-1.02c.82-.21,1.91-.32,3.26-.32h.73l.02-.14c.03-.5-.08-.86-.33-1.09s-.67-.34-1.26-.34c-.47,0-1,.09-1.57,.27-.58,.18-1.12,.41-1.61,.7l-.72-2.36c.55-.36,1.26-.66,2.12-.89,.86-.23,1.7-.34,2.52-.34,1.42,0,2.49,.32,3.19,.96Zm-3.02,6.44c.32-.35,.49-.79,.53-1.33l.02-.22h-.54c-.79,0-1.36,.09-1.71,.26-.35,.17-.52,.46-.52,.87,0,.28,.1,.51,.29,.69,.19,.17,.45,.26,.78,.26,.46,0,.84-.17,1.16-.52Z"/>
    <path class="cls-1" d="M69.07,52.4l-.02,.28c0,.87,.48,1.31,1.43,1.31,.23,0,.54-.02,.93-.06l-.38,2.54c-.42,.07-.82,.1-1.21,.1-2.9,0-4.35-1.2-4.35-3.61,0-.25,0-.45,.02-.58l.26-3.24h-1.85l.2-2.64h1.85l.22-2.88h3.59l-.22,2.88h2.38l-.2,2.64h-2.38l-.26,3.26Z"/>
    <path class="cls-1" d="M80.97,47.21c.71,.64,1.06,1.62,1.06,2.95,0,.16-.01,.4-.04,.73l-.42,5.52h-3.36l.1-1.25c-.24,.44-.58,.79-1.03,1.04-.44,.25-.95,.37-1.53,.37-.66,0-1.25-.13-1.77-.39-.52-.26-.94-.61-1.24-1.06-.3-.44-.45-.94-.45-1.49,0-.77,.19-1.38,.56-1.84s.97-.8,1.79-1.02c.82-.21,1.91-.32,3.26-.32h.73l.02-.14c.03-.5-.08-.86-.33-1.09s-.67-.34-1.26-.34c-.47,0-1,.09-1.57,.27-.58,.18-1.12,.41-1.61,.7l-.72-2.36c.55-.36,1.26-.66,2.12-.89,.86-.23,1.7-.34,2.52-.34,1.42,0,2.49,.32,3.19,.96Zm-3.02,6.44c.32-.35,.49-.79,.53-1.33l.02-.22h-.54c-.79,0-1.36,.09-1.71,.26-.35,.17-.52,.46-.52,.87,0,.28,.1,.51,.29,.69,.19,.17,.45,.26,.78,.26,.46,0,.84-.17,1.16-.52Z"/>
    <path class="cls-1" d="M84.71,42.2h3.59l-1.13,14.21h-3.59l1.13-14.21Z"/>
    <path class="cls-1" d="M91.72,55.96c-.82-.4-1.45-.98-1.89-1.72s-.67-1.61-.67-2.59c0-1.11,.23-2.08,.69-2.89,.46-.81,1.1-1.43,1.92-1.86,.83-.43,1.79-.65,2.89-.65s2.06,.2,2.88,.6c.82,.4,1.45,.97,1.89,1.71,.44,.74,.67,1.6,.67,2.58,0,1.13-.23,2.1-.68,2.91-.46,.81-1.1,1.43-1.92,1.86-.83,.43-1.79,.64-2.89,.64s-2.06-.2-2.88-.6Zm4.36-2.84c.32-.54,.47-1.22,.47-2.06,0-.74-.15-1.29-.45-1.64-.3-.36-.76-.53-1.38-.53-.71,0-1.23,.27-1.54,.8-.32,.53-.47,1.21-.47,2.03,0,.75,.15,1.31,.45,1.67,.3,.36,.76,.54,1.38,.54,.71,0,1.23-.27,1.54-.81Z"/>
    <path class="cls-1" d="M112.68,46.49l-.67,8.56c-.15,1.79-.72,3.09-1.72,3.91-1,.82-2.42,1.23-4.24,1.23-.95,0-1.85-.1-2.7-.31-.85-.21-1.6-.5-2.26-.88l1.11-2.44c1.37,.67,2.69,1.01,3.97,1.01,.7,0,1.24-.16,1.62-.49s.6-.87,.65-1.62l.04-.48c-.7,.77-1.69,1.15-2.96,1.15-.83,0-1.57-.19-2.22-.56-.65-.38-1.15-.91-1.5-1.59-.36-.69-.53-1.48-.53-2.4,0-.99,.2-1.9,.6-2.71,.4-.81,.97-1.45,1.7-1.91s1.57-.7,2.51-.7c1.28,0,2.27,.44,2.98,1.33l.08-1.09h3.53Zm-4.42,6.31c.37-.43,.55-1,.55-1.71s-.17-1.29-.5-1.65c-.34-.36-.82-.54-1.45-.54s-1.13,.22-1.49,.67c-.36,.44-.54,1.05-.54,1.83,0,.64,.17,1.15,.52,1.51,.35,.36,.83,.54,1.43,.54s1.11-.21,1.48-.65Z"/>
  </g>
  <g>
    <g>
      <g>
        <rect class="cls-2" x="68.35" y="106.62" width="307.19" height="124.6" rx="10.99" ry="10.99"/>
        <path class="cls-1" d="M364.55,231.71h-1v-1h1c.22,0,.43,0,.64-.02l.06,1c-.23,.01-.47,.02-.7,.02Zm-4,0h-1v-1h1v1Zm-4,0h-1v-1h1v1Zm-4,0h-1v-1h1v1Zm-4,0h-1v-1h1v1Zm-4,0h-1v-1h1v1Zm-4,0h-1v-1h1v1Zm-4,0h-1v-1h1v1Zm-4,0h-1v-1h1v1Zm-4,0h-1v-1h1v1Zm-4,0h-1v-1h1v1Zm-4,0h-1v-1h1v1Zm-4,0h-1v-1h1v1Zm-4,0h-1v-1h1v1Zm-4,0h-1v-1h1v1Zm-4,0h-1v-1h1v1Zm-4,0h-1v-1h1v1Zm-4,0h-1v-1h1v1Zm-4,0h-1v-1h1v1Zm-4,0h-1v-1h1v1Zm-4,0h-1v-1h1v1Zm-4,0h-1v-1h1v1Zm-4,0h-1v-1h1v1Zm-4,0h-1v-1h1v1Zm-4,0h-1v-1h1v1Zm-4,0h-1v-1h1v1Zm-4,0h-1v-1h1v1Zm-4,0h-1v-1h1v1Zm-4,0h-1v-1h1v1Zm-4,0h-1v-1h1v1Zm-4,0h-1v-1h1v1Zm-4,0h-1v-1h1v1Zm-4,0h-1v-1h1v1Zm-4,0h-1v-1h1v1Zm-4,0h-1v-1h1v1Zm-4,0h-1v-1h1v1Zm-4,0h-1v-1h1v1Zm-4,0h-1v-1h1v1Zm-4,0h-1v-1h1v1Zm-4,0h-1v-1h1v1Zm-4,0h-1v-1h1v1Zm-4,0h-1v-1h1v1Zm-4,0h-1v-1h1v1Zm-4,0h-1v-1h1v1Zm-4,0h-1v-1h1v1Zm-4,0h-1v-1h1v1Zm-4,0h-1v-1h1v1Zm-4,0h-1v-1h1v1Zm-4,0h-1v-1h1v1Zm-4,0h-1v-1h1v1Zm-4,0h-1v-1h1v1Zm-4,0h-1v-1h1v1Zm-4,0h-1v-1h1v1Zm-4,0h-1v-1h1v1Zm-4,0h-1v-1h1v1Zm-4,0h-1v-1h1v1Zm-4,0h-1v-1h1v1Zm-4,0h-1v-1h1v1Zm-4,0h-1v-1h1v1Zm-4,0h-1v-1h1v1Zm-4,0h-1v-1h1v1Zm-4,0h-1v-1h1v1Zm-4,0h-1v-1h1v1Zm-4,0h-1v-1h1v1Zm-4,0h-1v-1h1v1Zm-4,0h-1v-1h1v1Zm-4,0h-1v-1h1v1Zm-4,0h-1v-1h1v1Zm-4,0h-1v-1h1v1Zm-4,0h-1v-1h1v1Zm-4,0h-1v-1h1v1Zm-4,0h-1v-1h1v1Zm-4.1-.37c-.34-.09-.67-.19-1-.31l.34-.94c.3,.11,.6,.2,.91,.28l-.25,.97Zm291.86-.27l-.33-.94c.3-.1,.6-.22,.88-.35l.41,.91c-.32,.14-.64,.27-.97,.39Zm-295.63-1.5c-.28-.2-.56-.42-.82-.65l.65-.76c.24,.21,.49,.4,.75,.59l-.58,.81Zm299.24-.56l-.64-.77c.24-.2,.48-.42,.7-.65l.71,.71c-.25,.25-.5,.48-.77,.71Zm-302.13-2.43c-.19-.29-.37-.59-.54-.89l.88-.48c.15,.28,.32,.55,.5,.82l-.83,.56Zm304.78-.77l-.87-.49c.16-.28,.3-.56,.43-.85l.91,.41c-.14,.32-.3,.63-.47,.93Zm-306.44-3.04c-.08-.34-.14-.68-.19-1.03l.99-.13c.04,.32,.1,.63,.17,.94l-.97,.22Zm307.78-.89l-.99-.15c.05-.31,.08-.63,.09-.95l1,.05c-.02,.35-.05,.7-.1,1.04Zm-307.06-3.2h-1v-1h1v1Zm307.19-.87h-1v-1h1v1Zm-307.19-3.13h-1v-1h1v1Zm307.19-.87h-1v-1h1v1Zm-307.19-3.13h-1v-1h1v1Zm307.19-.87h-1v-1h1v1Zm-307.19-3.13h-1v-1h1v1Zm307.19-.87h-1v-1h1v1Zm-307.19-3.13h-1v-1h1v1Zm307.19-.87h-1v-1h1v1Zm-307.19-3.13h-1v-1h1v1Zm307.19-.87h-1v-1h1v1Zm-307.19-3.13h-1v-1h1v1Zm307.19-.87h-1v-1h1v1Zm-307.19-3.13h-1v-1h1v1Zm307.19-.87h-1v-1h1v1Zm-307.19-3.13h-1v-1h1v1Zm307.19-.87h-1v-1h1v1Zm-307.19-3.13h-1v-1h1v1Zm307.19-.87h-1v-1h1v1Zm-307.19-3.13h-1v-1h1v1Zm307.19-.87h-1v-1h1v1Zm-307.19-3.13h-1v-1h1v1Zm307.19-.87h-1v-1h1v1Zm-307.19-3.13h-1v-1h1v1Zm307.19-.87h-1v-1h1v1Zm-307.19-3.13h-1v-1h1v1Zm307.19-.87h-1v-1h1v1Zm-307.19-3.13h-1v-1h1v1Zm307.19-.87h-1v-1h1v1Zm-307.19-3.13h-1v-1h1v1Zm307.19-.87h-1v-1h1v1Zm-307.19-3.13h-1v-1h1v1Zm307.19-.87h-1v-1h1v1Zm-307.19-3.13h-1v-1h1v1Zm307.19-.87h-1v-1h1v1Zm-307.19-3.13h-1v-1h1v1Zm307.19-.87h-1v-1h1v1Zm-307.19-3.13h-1v-1h1v1Zm307.19-.87h-1v-1h1v1Zm-307.19-3.13h-1v-1h1v1Zm307.19-.87h-1v-1h1v1Zm-307.19-3.13h-1v-1h1v1Zm307.19-.87h-1v-1h1v1Zm-307.19-3.13h-1v-1h1v1Zm307.19-.87h-1v-1h1v1Zm-307.19-3.13h-1v-1h1v1Zm307.19-.87h-1v-1h1v1Zm-307.19-3.13h-1v-1h1v1Zm307.19-.87h-1v-1h1v1Zm-307.19-3.13h-1v-1h1v1Zm307.19-.87h-1v-.2c0-.26,0-.51-.03-.76l1-.07c.02,.28,.03,.55,.03,.83v.2Zm-306.81-2.96l-.96-.26c.09-.34,.2-.67,.32-.99l.94,.35c-.11,.3-.21,.6-.29,.91Zm305.19-.79c-.11-.3-.23-.59-.37-.88l.91-.43c.15,.31,.28,.64,.4,.96l-.94,.34Zm-303.54-2.63l-.81-.59c.21-.28,.42-.55,.65-.81l.75,.66c-.21,.24-.41,.49-.6,.74Zm301.62-.65c-.21-.24-.43-.47-.65-.69l.7-.72c.25,.24,.49,.5,.72,.76l-.76,.65Zm-298.86-1.96l-.55-.84c.29-.19,.59-.37,.9-.53l.47,.88c-.28,.15-.56,.31-.82,.48Zm295.91-.43c-.28-.15-.56-.29-.86-.42l.4-.92c.32,.14,.63,.29,.94,.46l-.48,.88Zm-292.41-1.04l-.21-.98c.34-.07,.68-.13,1.03-.17l.12,.99c-.32,.04-.63,.09-.94,.16Zm288.8-.14c-.31-.04-.63-.07-.95-.08l.04-1c.35,.01,.7,.05,1.04,.09l-.13,.99Zm-3.93-.09h-1v-1h1v1Zm-4,0h-1v-1h1v1Zm-4,0h-1v-1h1v1Zm-4,0h-1v-1h1v1Zm-4,0h-1v-1h1v1Zm-4,0h-1v-1h1v1Zm-4,0h-1v-1h1v1Zm-4,0h-1v-1h1v1Zm-4,0h-1v-1h1v1Zm-4,0h-1v-1h1v1Zm-4,0h-1v-1h1v1Zm-4,0h-1v-1h1v1Zm-4,0h-1v-1h1v1Zm-4,0h-1v-1h1v1Zm-4,0h-1v-1h1v1Zm-4,0h-1v-1h1v1Zm-4,0h-1v-1h1v1Zm-4,0h-1v-1h1v1Zm-4,0h-1v-1h1v1Zm-4,0h-1v-1h1v1Zm-4,0h-1v-1h1v1Zm-4,0h-1v-1h1v1Zm-4,0h-1v-1h1v1Zm-4,0h-1v-1h1v1Zm-4,0h-1v-1h1v1Zm-4,0h-1v-1h1v1Zm-4,0h-1v-1h1v1Zm-4,0h-1v-1h1v1Zm-4,0h-1v-1h1v1Zm-4,0h-1v-1h1v1Zm-4,0h-1v-1h1v1Zm-4,0h-1v-1h1v1Zm-4,0h-1v-1h1v1Zm-4,0h-1v-1h1v1Zm-4,0h-1v-1h1v1Zm-4,0h-1v-1h1v1Zm-4,0h-1v-1h1v1Zm-4,0h-1v-1h1v1Zm-4,0h-1v-1h1v1Zm-4,0h-1v-1h1v1Zm-4,0h-1v-1h1v1Zm-4,0h-1v-1h1v1Zm-4,0h-1v-1h1v1Zm-4,0h-1v-1h1v1Zm-4,0h-1v-1h1v1Zm-4,0h-1v-1h1v1Zm-4,0h-1v-1h1v1Zm-4,0h-1v-1h1v1Zm-4,0h-1v-1h1v1Zm-4,0h-1v-1h1v1Zm-4,0h-1v-1h1v1Zm-4,0h-1v-1h1v1Zm-4,0h-1v-1h1v1Zm-4,0h-1v-1h1v1Zm-4,0h-1v-1h1v1Zm-4,0h-1v-1h1v1Zm-4,0h-1v-1h1v1Zm-4,0h-1v-1h1v1Zm-4,0h-1v-1h1v1Zm-4,0h-1v-1h1v1Zm-4,0h-1v-1h1v1Zm-4,0h-1v-1h1v1Zm-4,0h-1v-1h1v1Zm-4,0h-1v-1h1v1Zm-4,0h-1v-1h1v1Zm-4,0h-1v-1h1v1Zm-4,0h-1v-1h1v1Zm-4,0h-1v-1h1v1Zm-4,0h-1v-1h1v1Zm-4,0h-1v-1h1v1Zm-4,0h-1v-1h1v1Z"/>
      </g>
      <g>
        <ellipse class="cls-2" cx="146.69" cy="158.86" rx="59.92" ry="35.78"/>
        <path class="cls-1" d="M146.69,196.15c-33.87,0-61.42-16.73-61.42-37.28s27.55-37.28,61.42-37.28,61.42,16.73,61.42,37.28-27.55,37.28-61.42,37.28Zm0-71.57c-32.21,0-58.42,15.38-58.42,34.28s26.21,34.28,58.42,34.28,58.42-15.38,58.42-34.28-26.21-34.28-58.42-34.28Z"/>
      </g>
      <g>
        <path class="cls-1" d="M126.41,155.34h2.87c.71,0,1.32,.13,1.84,.41,.52,.27,.93,.65,1.21,1.15,.29,.5,.43,1.08,.43,1.75,0,.79-.16,1.46-.47,2.02-.31,.56-.76,.99-1.35,1.28-.59,.29-1.3,.44-2.12,.44h-2.96l.55-7.05Zm2.24,5.57c.78,0,1.36-.18,1.73-.54,.37-.36,.56-.94,.56-1.72,0-.59-.16-1.04-.49-1.36-.33-.31-.8-.46-1.42-.46h-.9l-.32,4.09h.84Z"/>
        <path class="cls-1" d="M135.31,162.07c-.53-.28-.93-.67-1.21-1.18s-.42-1.12-.42-1.81c0-.76,.15-1.43,.44-2.02,.29-.58,.71-1.03,1.25-1.35,.54-.32,1.17-.48,1.88-.48s1.32,.14,1.85,.42c.53,.28,.93,.67,1.21,1.19s.42,1.12,.42,1.81c0,.76-.15,1.43-.44,2.01-.3,.58-.71,1.03-1.25,1.35s-1.16,.48-1.87,.48-1.32-.14-1.85-.42Zm3.11-1.64c.31-.43,.47-1.02,.47-1.78,0-.63-.14-1.12-.43-1.47-.29-.35-.69-.52-1.2-.52-.55,0-.98,.22-1.29,.65s-.47,1.02-.47,1.78c0,.64,.14,1.13,.42,1.47s.69,.51,1.21,.51,.97-.21,1.28-.64Z"/>
        <path class="cls-1" d="M149.21,155.34l-.56,7.05h-1.6l.3-3.7-1.56,2.53h-1.18l-1.16-2.41-.29,3.58h-1.6l.56-7.05h1.45l1.77,3.94,2.45-3.94h1.42Z"/>
        <path class="cls-1" d="M154.85,160.93h-3.13l-.74,1.46h-1.88l3.84-7.05h1.46l2.75,7.05h-1.78l-.52-1.46Zm-.48-1.38l-.81-2.26-1.14,2.26h1.95Z"/>
        <path class="cls-1" d="M158.12,155.34h1.84l-.55,7.05h-1.84l.55-7.05Z"/>
        <path class="cls-1" d="M167.54,155.34l-.56,7.05h-1.37l-2.87-3.96-.33,3.96h-1.71l.56-7.05h1.34l2.9,3.98,.32-3.98h1.72Z"/>
      </g>
      <circle class="cls-1" cx="205.82" cy="158.86" r="5.38"/>
      <g>
        <path class="cls-1" d="M88.12,208.23h2.06c.57,0,1.05,.1,1.46,.31s.72,.51,.93,.9c.22,.39,.32,.86,.32,1.4,0,.63-.12,1.18-.35,1.63-.24,.45-.58,.8-1.03,1.04-.45,.24-.99,.36-1.63,.36h-2.21l.44-5.64Zm1.69,4.8c1.37,0,2.06-.73,2.06-2.19,0-.58-.15-1.01-.46-1.32-.3-.3-.75-.45-1.34-.45h-.98l-.31,3.96h1.03Z"/>
        <path class="cls-1" d="M97.43,212.55h-2.75l-.66,1.32h-1.06l2.99-5.64h.84l2.11,5.64h-1.01l-.46-1.32Zm-.28-.8l-.85-2.4-1.22,2.4h2.06Z"/>
        <path class="cls-1" d="M100.51,209.08h-1.84l.06-.85h4.71l-.06,.85h-1.84l-.38,4.79h-1.03l.38-4.79Z"/>
        <path class="cls-1" d="M106.88,212.55h-2.75l-.66,1.32h-1.06l2.99-5.64h.84l2.11,5.64h-1.01l-.46-1.32Zm-.28-.8l-.85-2.4-1.22,2.4h2.06Z"/>
        <path class="cls-1" d="M109.68,213.77c-.38-.12-.71-.28-1.01-.5l.4-.75c.28,.21,.58,.36,.88,.46,.3,.1,.63,.15,.98,.15,.39,0,.69-.07,.89-.2,.21-.13,.31-.32,.31-.56,0-.15-.05-.28-.16-.39-.11-.1-.25-.19-.41-.26-.17-.07-.39-.14-.67-.22-.39-.11-.71-.22-.96-.33-.25-.11-.46-.27-.64-.48-.18-.21-.26-.49-.26-.84s.09-.64,.28-.9,.45-.45,.79-.59c.34-.14,.74-.21,1.19-.21,.39,0,.77,.06,1.13,.18,.36,.12,.66,.28,.89,.49l-.41,.75c-.24-.2-.5-.35-.78-.45-.28-.1-.57-.16-.86-.16-.38,0-.68,.07-.89,.21-.21,.14-.32,.34-.32,.59,0,.17,.06,.3,.17,.42,.11,.11,.25,.2,.42,.26s.4,.14,.7,.23c.39,.11,.7,.22,.94,.32,.24,.1,.45,.26,.62,.46,.17,.21,.26,.47,.26,.8,0,.52-.2,.93-.6,1.23-.4,.3-.95,.44-1.66,.44-.44,0-.84-.06-1.22-.17Z"/>
        <path class="cls-1" d="M115.38,209.04l-.12,1.55h2.6l-.06,.81h-2.61l-.13,1.65h2.77l-.06,.82h-3.78l.45-5.64h3.77l-.06,.82h-2.76Z"/>
        <path class="cls-1" d="M120.41,209.08h-1.84l.06-.85h4.71l-.06,.85h-1.84l-.38,4.79h-1.03l.38-4.79Z"/>
        <path class="cls-1" d="M131.73,208.23l-.45,5.64h-.91l.29-3.7-1.7,2.79h-.69l-1.27-2.74-.29,3.66h-.91l.44-5.64h.82l1.62,3.66,2.23-3.66h.81Z"/>
        <path class="cls-1" d="M133.9,209.04l-.12,1.55h2.6l-.06,.81h-2.61l-.13,1.65h2.77l-.06,.82h-3.78l.45-5.64h3.77l-.06,.82h-2.76Z"/>
        <path class="cls-1" d="M138.93,209.08h-1.84l.06-.85h4.71l-.06,.85h-1.84l-.38,4.79h-1.03l.38-4.79Z"/>
        <path class="cls-1" d="M145.3,212.55h-2.75l-.66,1.32h-1.06l2.99-5.64h.84l2.11,5.64h-1.01l-.46-1.32Zm-.28-.8l-.85-2.4-1.22,2.4h2.06Z"/>
        <path class="cls-1" d="M147.81,208.23h2.06c.57,0,1.05,.1,1.46,.31s.72,.51,.93,.9c.22,.39,.32,.86,.32,1.4,0,.63-.12,1.18-.35,1.63-.24,.45-.58,.8-1.03,1.04-.45,.24-.99,.36-1.63,.36h-2.21l.44-5.64Zm1.69,4.8c1.37,0,2.06-.73,2.06-2.19,0-.58-.15-1.01-.46-1.32-.3-.3-.75-.45-1.34-.45h-.98l-.31,3.96h1.03Z"/>
        <path class="cls-1" d="M157.13,212.55h-2.75l-.66,1.32h-1.06l2.99-5.64h.84l2.11,5.64h-1.01l-.46-1.32Zm-.28-.8l-.85-2.4-1.22,2.4h2.06Z"/>
        <path class="cls-1" d="M160.21,209.08h-1.84l.06-.85h4.71l-.06,.85h-1.84l-.38,4.79h-1.03l.38-4.79Z"/>
        <path class="cls-1" d="M166.57,212.55h-2.75l-.66,1.32h-1.06l2.99-5.64h.84l2.11,5.64h-1.01l-.46-1.32Zm-.28-.8l-.85-2.4-1.22,2.4h2.06Z"/>
      </g>
      <g>
        <ellipse class="cls-2" cx="296.9" cy="158.94" rx="59.92" ry="35.78"/>
        <path class="cls-1" d="M296.9,196.23c-33.87,0-61.42-16.73-61.42-37.28s27.55-37.28,61.42-37.28,61.42,16.73,61.42,37.28-27.55,37.28-61.42,37.28Zm0-71.57c-32.21,0-58.42,15.38-58.42,34.28s26.21,34.28,58.42,34.28,58.42-15.38,58.42-34.28-26.21-34.28-58.42-34.28Z"/>
      </g>
      <g>
        <path class="cls-1" d="M290.82,155.42l-3.76,7.05h-1.46l-2.66-7.05h1.91l1.68,4.76,2.42-4.76h1.87Z"/>
        <path class="cls-1" d="M291.24,155.42h1.84l-.55,7.05h-1.84l.55-7.05Z"/>
        <path class="cls-1" d="M296.05,156.84l-.11,1.34h3.02l-.11,1.41h-3.02l-.12,1.46h3.23l-.12,1.42h-5.01l.56-7.05h5.02l-.12,1.42h-3.22Z"/>
        <path class="cls-1" d="M310.85,155.42l-3.07,7.05h-1.46l-1.17-4.23-1.83,4.23h-1.47l-1.96-7.05h1.86l1.11,4.47,1.93-4.47h1.26l1.15,4.55,1.9-4.55h1.75Z"/>
      </g>
      <path class="cls-1" d="M232.02,166.17c0,.12,0,.24-.01,.36s-.03,.26-.06,.43-.08,.37-.13,.62c-.06,.24-.13,.56-.22,.94-.08,.35-.16,.65-.22,.91-.06,.26-.11,.51-.16,.74-.05,.23-.09,.46-.13,.68s-.08,.45-.13,.69c-.16-.02-.32-.03-.48-.03h-1.11c-.17,0-.34,0-.5,.03,.04-.08,.1-.25,.17-.51,.08-.26,.17-.55,.27-.88,.1-.33,.2-.68,.29-1.06,.1-.37,.19-.73,.27-1.06s.15-.64,.21-.9c.06-.27,.08-.46,.08-.58,0-.26-.07-.46-.22-.59-.15-.13-.34-.2-.6-.2-.34,0-.67,.14-1,.43-.33,.29-.59,.74-.79,1.36-.07,.23-.15,.51-.24,.83-.08,.32-.17,.66-.25,1.02-.08,.36-.15,.73-.22,1.11-.07,.38-.13,.73-.18,1.04-.16-.02-.32-.03-.48-.03h-1c-.18,0-.35,0-.5,.03,.12-.43,.24-.88,.36-1.36s.24-.98,.36-1.52c.12-.54,.24-1.12,.37-1.74,.13-.63,.26-1.32,.4-2.07,.14,.02,.3,.04,.48,.05,.18,.01,.36,.02,.52,.02,.16,0,.31,0,.46-.02,.15-.01,.29-.03,.43-.05-.04,.12-.07,.23-.1,.31-.03,.09-.05,.18-.07,.26-.02,.08-.04,.17-.06,.27-.02,.09-.05,.21-.08,.34,.34-.42,.7-.74,1.09-.97,.39-.23,.87-.34,1.43-.34,.59,0,1.02,.14,1.3,.42,.28,.28,.41,.63,.41,1.05Z"/>
    </g>
    <g>
      <g>
        <rect class="cls-2" x="82.07" y="117.4" width="307.19" height="124.6" rx="10.99" ry="10.99"/>
        <path class="cls-1" d="M378.3,242.5h-1.04v-1h1l.04,1Zm-4.05,0h-1v-1h1v1Zm-4,0h-1v-1h1v1Zm-4,0h-1v-1h1v1Zm-4,0h-1v-1h1v1Zm-4,0h-1v-1h1v1Zm-4,0h-1v-1h1v1Zm-4,0h-1v-1h1v1Zm-4,0h-1v-1h1v1Zm-4,0h-1v-1h1v1Zm-4,0h-1v-1h1v1Zm-4,0h-1v-1h1v1Zm-4,0h-1v-1h1v1Zm-4,0h-1v-1h1v1Zm-4,0h-1v-1h1v1Zm-4,0h-1v-1h1v1Zm-4,0h-1v-1h1v1Zm-4,0h-1v-1h1v1Zm-4,0h-1v-1h1v1Zm-4,0h-1v-1h1v1Zm-4,0h-1v-1h1v1Zm-4,0h-1v-1h1v1Zm-4,0h-1v-1h1v1Zm-4,0h-1v-1h1v1Zm-4,0h-1v-1h1v1Zm-4,0h-1v-1h1v1Zm-4,0h-1v-1h1v1Zm-4,0h-1v-1h1v1Zm-4,0h-1v-1h1v1Zm-4,0h-1v-1h1v1Zm-4,0h-1v-1h1v1Zm-4,0h-1v-1h1v1Zm-4,0h-1v-1h1v1Zm-4,0h-1v-1h1v1Zm-4,0h-1v-1h1v1Zm-4,0h-1v-1h1v1Zm-4,0h-1v-1h1v1Zm-4,0h-1v-1h1v1Zm-4,0h-1v-1h1v1Zm-4,0h-1v-1h1v1Zm-4,0h-1v-1h1v1Zm-4,0h-1v-1h1v1Zm-4,0h-1v-1h1v1Zm-4,0h-1v-1h1v1Zm-4,0h-1v-1h1v1Zm-4,0h-1v-1h1v1Zm-4,0h-1v-1h1v1Zm-4,0h-1v-1h1v1Zm-4,0h-1v-1h1v1Zm-4,0h-1v-1h1v1Zm-4,0h-1v-1h1v1Zm-4,0h-1v-1h1v1Zm-4,0h-1v-1h1v1Zm-4,0h-1v-1h1v1Zm-4,0h-1v-1h1v1Zm-4,0h-1v-1h1v1Zm-4,0h-1v-1h1v1Zm-4,0h-1v-1h1v1Zm-4,0h-1v-1h1v1Zm-4,0h-1v-1h1v1Zm-4,0h-1v-1h1v1Zm-4,0h-1v-1h1v1Zm-4,0h-1v-1h1v1Zm-4,0h-1v-1h1v1Zm-4,0h-1v-1h1v1Zm-4,0h-1v-1h1v1Zm-4,0h-1v-1h1v1Zm-4,0h-1v-1h1v1Zm-4,0h-1v-1h1v1Zm-4,0h-1v-1h1v1Zm-4,0h-1v-1h1v1Zm-4,0h-.99v-1s.99,0,.99,0v1Zm-4.1-.43c-.34-.1-.67-.21-.99-.33l.36-.93c.3,.11,.6,.21,.91,.3l-.27,.96Zm291.46,0l-.28-.96c.31-.09,.61-.19,.9-.3l.36,.93c-.32,.13-.65,.24-.99,.33Zm-295.19-1.83c-.28-.21-.55-.43-.81-.66l.67-.75c.24,.21,.48,.41,.74,.6l-.6,.8Zm298.91-.02l-.6-.8c.25-.19,.5-.39,.74-.61l.67,.74c-.26,.23-.53,.45-.81,.66Zm-301.75-3.02c-.19-.29-.36-.6-.52-.9l.89-.46c.15,.28,.31,.56,.48,.83l-.84,.54Zm304.58-.03l-.84-.54c.17-.27,.33-.54,.48-.83l.89,.46c-.16,.31-.33,.61-.52,.91Zm-306.15-3.83c-.07-.34-.13-.68-.17-1.03l.99-.11c.04,.32,.09,.63,.15,.94l-.98,.2Zm307.72-.03l-.98-.2c.06-.31,.11-.62,.15-.94l.99,.11c-.04,.35-.09,.69-.16,1.03Zm-306.95-4.06h-1v-1h1v1Zm307.19-.03h-1v-1h1v1Zm-307.19-3.97h-1v-1h1v1Zm307.19-.03h-1v-1h1v1Zm-307.19-3.97h-1v-1h1v1Zm307.19-.03h-1v-1h1v1Zm-307.19-3.97h-1v-1h1v1Zm307.19-.03h-1v-1h1v1Zm-307.19-3.97h-1v-1h1v1Zm307.19-.03h-1v-1h1v1Zm-307.19-3.97h-1v-1h1v1Zm307.19-.03h-1v-1h1v1Zm-307.19-3.97h-1v-1h1v1Zm307.19-.03h-1v-1h1v1Zm-307.19-3.97h-1v-1h1v1Zm307.19-.03h-1v-1h1v1Zm-307.19-3.97h-1v-1h1v1Zm307.19-.03h-1v-1h1v1Zm-307.19-3.97h-1v-1h1v1Zm307.19-.03h-1v-1h1v1Zm-307.19-3.97h-1v-1h1v1Zm307.19-.03h-1v-1h1v1Zm-307.19-3.97h-1v-1h1v1Zm307.19-.03h-1v-1h1v1Zm-307.19-3.97h-1v-1h1v1Zm307.19-.03h-1v-1h1v1Zm-307.19-3.97h-1v-1h1v1Zm307.19-.03h-1v-1h1v1Zm-307.19-3.97h-1v-1h1v1Zm307.19-.03h-1v-1h1v1Zm-307.19-3.97h-1v-1h1v1Zm307.19-.03h-1v-1h1v1Zm-307.19-3.97h-1v-1h1v1Zm307.19-.03h-1v-1h1v1Zm-307.19-3.97h-1v-1h1v1Zm307.19-.03h-1v-1h1v1Zm-307.19-3.97h-1v-1h1v1Zm307.19-.03h-1v-1h1v1Zm-307.19-3.97h-1v-1h1v1Zm307.19-.03h-1v-1h1v1Zm-307.19-3.97h-1v-1h1v1Zm307.19-.03h-1v-1h1v1Zm-307.19-3.97h-1v-1h1v1Zm307.19-.03h-1v-1h1v1Zm-307.19-3.97h-1v-1h1v1Zm307.19-.03h-1v-1h1v1Zm-307.19-3.97h-1v-1h1v1Zm307.19-.03h-1v-1h1v1Zm-307.19-3.97h-1v-1h1v1Zm307.19-.03h-1v-1h1v1Zm-307.19-3.97h-1v-1.01s1,.02,1,.02v.99Zm307.18-.03h-1v-.99s1-.02,1-.02v1.01Zm-306.73-3.78l-.96-.29c.1-.33,.22-.66,.35-.99l.93,.38c-.12,.29-.23,.59-.32,.9Zm305.27-.03c-.09-.3-.2-.6-.32-.9l.92-.38c.13,.32,.25,.65,.35,.98l-.96,.29Zm-303.52-3.34l-.79-.61c.21-.28,.44-.54,.68-.8l.73,.68c-.22,.23-.42,.48-.62,.73Zm301.77-.02c-.2-.25-.4-.49-.62-.73l.73-.68c.24,.25,.47,.52,.68,.79l-.79,.61Zm-298.94-2.52l-.52-.85c.3-.18,.6-.35,.92-.51l.44,.9c-.29,.14-.56,.3-.83,.46Zm296.1-.01c-.27-.17-.55-.32-.84-.46l.44-.9c.31,.15,.62,.32,.92,.5l-.52,.85Zm-292.55-1.35l-.18-.98c.34-.06,.69-.11,1.04-.15l.09,1c-.32,.03-.63,.07-.94,.13Zm289.01,0c-.31-.06-.63-.1-.94-.13l.09-1c.35,.03,.7,.08,1.04,.14l-.18,.98Zm-3.9-.17h-1v-1h1v1Zm-4,0h-1v-1h1v1Zm-4,0h-1v-1h1v1Zm-4,0h-1v-1h1v1Zm-4,0h-1v-1h1v1Zm-4,0h-1v-1h1v1Zm-4,0h-1v-1h1v1Zm-4,0h-1v-1h1v1Zm-4,0h-1v-1h1v1Zm-4,0h-1v-1h1v1Zm-4,0h-1v-1h1v1Zm-4,0h-1v-1h1v1Zm-4,0h-1v-1h1v1Zm-4,0h-1v-1h1v1Zm-4,0h-1v-1h1v1Zm-4,0h-1v-1h1v1Zm-4,0h-1v-1h1v1Zm-4,0h-1v-1h1v1Zm-4,0h-1v-1h1v1Zm-4,0h-1v-1h1v1Zm-4,0h-1v-1h1v1Zm-4,0h-1v-1h1v1Zm-4,0h-1v-1h1v1Zm-4,0h-1v-1h1v1Zm-4,0h-1v-1h1v1Zm-4,0h-1v-1h1v1Zm-4,0h-1v-1h1v1Zm-4,0h-1v-1h1v1Zm-4,0h-1v-1h1v1Zm-4,0h-1v-1h1v1Zm-4,0h-1v-1h1v1Zm-4,0h-1v-1h1v1Zm-4,0h-1v-1h1v1Zm-4,0h-1v-1h1v1Zm-4,0h-1v-1h1v1Zm-4,0h-1v-1h1v1Zm-4,0h-1v-1h1v1Zm-4,0h-1v-1h1v1Zm-4,0h-1v-1h1v1Zm-4,0h-1v-1h1v1Zm-4,0h-1v-1h1v1Zm-4,0h-1v-1h1v1Zm-4,0h-1v-1h1v1Zm-4,0h-1v-1h1v1Zm-4,0h-1v-1h1v1Zm-4,0h-1v-1h1v1Zm-4,0h-1v-1h1v1Zm-4,0h-1v-1h1v1Zm-4,0h-1v-1h1v1Zm-4,0h-1v-1h1v1Zm-4,0h-1v-1h1v1Zm-4,0h-1v-1h1v1Zm-4,0h-1v-1h1v1Zm-4,0h-1v-1h1v1Zm-4,0h-1v-1h1v1Zm-4,0h-1v-1h1v1Zm-4,0h-1v-1h1v1Zm-4,0h-1v-1h1v1Zm-4,0h-1v-1h1v1Zm-4,0h-1v-1h1v1Zm-4,0h-1v-1h1v1Zm-4,0h-1v-1h1v1Zm-4,0h-1v-1h1v1Zm-4,0h-1v-1h1v1Zm-4,0h-1v-1h1v1Zm-4,0h-1v-1h1v1Zm-4,0h-1v-1h1v1Zm-4,0h-1v-1h1v1Zm-4,0h-1v-1h1v1Zm-4,0h-1v-1h1v1Zm-4,0h-1v-1h1v1Z"/>
      </g>
      <g>
        <ellipse class="cls-2" cx="160.41" cy="169.65" rx="59.92" ry="35.78"/>
        <path class="cls-1" d="M160.41,206.93c-33.87,0-61.42-16.73-61.42-37.28s27.55-37.28,61.42-37.28,61.42,16.73,61.42,37.28-27.55,37.28-61.42,37.28Zm0-71.57c-32.21,0-58.42,15.38-58.42,34.28s26.21,34.28,58.42,34.28,58.42-15.38,58.42-34.28-26.21-34.28-58.42-34.28Z"/>
      </g>
      <g>
        <path class="cls-1" d="M140.12,166.12h2.87c.71,0,1.32,.13,1.84,.41,.52,.27,.93,.65,1.21,1.15,.29,.5,.43,1.08,.43,1.75,0,.79-.16,1.46-.47,2.02-.31,.56-.76,.99-1.35,1.28-.59,.29-1.3,.44-2.12,.44h-2.96l.55-7.05Zm2.24,5.57c.78,0,1.36-.18,1.73-.54,.37-.36,.56-.94,.56-1.72,0-.59-.16-1.04-.49-1.36-.33-.31-.8-.46-1.42-.46h-.9l-.32,4.09h.84Z"/>
        <path class="cls-1" d="M149.03,172.86c-.53-.28-.93-.67-1.21-1.18s-.42-1.12-.42-1.81c0-.76,.15-1.43,.44-2.02,.29-.58,.71-1.03,1.25-1.35,.54-.32,1.17-.48,1.88-.48s1.32,.14,1.85,.42c.53,.28,.93,.67,1.21,1.19s.42,1.12,.42,1.81c0,.76-.15,1.43-.44,2.01-.3,.58-.71,1.03-1.25,1.35s-1.16,.48-1.87,.48-1.32-.14-1.85-.42Zm3.11-1.64c.31-.43,.47-1.02,.47-1.78,0-.63-.14-1.12-.43-1.47-.29-.35-.69-.52-1.2-.52-.55,0-.98,.22-1.29,.65s-.47,1.02-.47,1.78c0,.64,.14,1.13,.42,1.47s.69,.51,1.21,.51,.97-.21,1.28-.64Z"/>
        <path class="cls-1" d="M162.93,166.12l-.56,7.05h-1.6l.3-3.7-1.56,2.53h-1.18l-1.16-2.41-.29,3.58h-1.6l.56-7.05h1.45l1.77,3.94,2.45-3.94h1.42Z"/>
        <path class="cls-1" d="M168.57,171.71h-3.13l-.74,1.46h-1.88l3.84-7.05h1.46l2.75,7.05h-1.78l-.52-1.46Zm-.48-1.38l-.81-2.26-1.14,2.26h1.95Z"/>
        <path class="cls-1" d="M171.84,166.12h1.84l-.55,7.05h-1.84l.55-7.05Z"/>
        <path class="cls-1" d="M181.25,166.12l-.56,7.05h-1.37l-2.87-3.96-.33,3.96h-1.71l.56-7.05h1.34l2.9,3.98,.32-3.98h1.72Z"/>
      </g>
      <circle class="cls-1" cx="220.09" cy="170.45" r="6.19"/>
      <g>
        <path class="cls-1" d="M101.83,219.02h2.06c.57,0,1.05,.1,1.46,.31s.72,.51,.93,.9c.22,.39,.32,.86,.32,1.4,0,.63-.12,1.18-.35,1.63-.24,.45-.58,.8-1.03,1.04-.45,.24-.99,.36-1.63,.36h-2.21l.44-5.64Zm1.69,4.8c1.37,0,2.06-.73,2.06-2.19,0-.58-.15-1.01-.46-1.32-.3-.3-.75-.45-1.34-.45h-.98l-.31,3.96h1.03Z"/>
        <path class="cls-1" d="M111.15,223.33h-2.75l-.66,1.32h-1.06l2.99-5.64h.84l2.11,5.64h-1.01l-.46-1.32Zm-.28-.8l-.85-2.4-1.22,2.4h2.06Z"/>
        <path class="cls-1" d="M114.22,219.86h-1.84l.06-.85h4.71l-.06,.85h-1.84l-.38,4.79h-1.03l.38-4.79Z"/>
        <path class="cls-1" d="M120.59,223.33h-2.75l-.66,1.32h-1.06l2.99-5.64h.84l2.11,5.64h-1.01l-.46-1.32Zm-.28-.8l-.85-2.4-1.22,2.4h2.06Z"/>
        <path class="cls-1" d="M123.39,224.56c-.38-.12-.71-.28-1.01-.5l.4-.75c.28,.21,.58,.36,.88,.46,.3,.1,.63,.15,.98,.15,.39,0,.69-.07,.89-.2,.21-.13,.31-.32,.31-.56,0-.15-.05-.28-.16-.39-.11-.1-.25-.19-.41-.26-.17-.07-.39-.14-.67-.22-.39-.11-.71-.22-.96-.33-.25-.11-.46-.27-.64-.48-.18-.21-.26-.49-.26-.84s.09-.64,.28-.9,.45-.45,.79-.59c.34-.14,.74-.21,1.19-.21,.39,0,.77,.06,1.13,.18,.36,.12,.66,.28,.89,.49l-.41,.75c-.24-.2-.5-.35-.78-.45-.28-.1-.57-.16-.86-.16-.38,0-.68,.07-.89,.21-.21,.14-.32,.34-.32,.59,0,.17,.06,.3,.17,.42,.11,.11,.25,.2,.42,.26s.4,.14,.7,.23c.39,.11,.7,.22,.94,.32,.24,.1,.45,.26,.62,.46,.17,.21,.26,.47,.26,.8,0,.52-.2,.93-.6,1.23-.4,.3-.95,.44-1.66,.44-.44,0-.84-.06-1.22-.17Z"/>
        <path class="cls-1" d="M129.1,219.83l-.12,1.55h2.6l-.06,.81h-2.61l-.13,1.65h2.77l-.06,.82h-3.78l.45-5.64h3.77l-.06,.82h-2.76Z"/>
        <path class="cls-1" d="M134.13,219.86h-1.84l.06-.85h4.71l-.06,.85h-1.84l-.38,4.79h-1.03l.38-4.79Z"/>
        <path class="cls-1" d="M145.44,219.02l-.45,5.64h-.91l.29-3.7-1.7,2.79h-.69l-1.27-2.74-.29,3.66h-.91l.44-5.64h.82l1.62,3.66,2.23-3.66h.81Z"/>
        <path class="cls-1" d="M147.61,219.83l-.12,1.55h2.6l-.06,.81h-2.61l-.13,1.65h2.77l-.06,.82h-3.78l.45-5.64h3.77l-.06,.82h-2.76Z"/>
        <path class="cls-1" d="M152.65,219.86h-1.84l.06-.85h4.71l-.06,.85h-1.84l-.38,4.79h-1.03l.38-4.79Z"/>
        <path class="cls-1" d="M159.02,223.33h-2.75l-.66,1.32h-1.06l2.99-5.64h.84l2.11,5.64h-1.01l-.46-1.32Zm-.28-.8l-.85-2.4-1.22,2.4h2.06Z"/>
        <path class="cls-1" d="M161.53,219.02h2.06c.57,0,1.05,.1,1.46,.31s.72,.51,.93,.9c.22,.39,.32,.86,.32,1.4,0,.63-.12,1.18-.35,1.63-.24,.45-.58,.8-1.03,1.04-.45,.24-.99,.36-1.63,.36h-2.21l.44-5.64Zm1.69,4.8c1.37,0,2.06-.73,2.06-2.19,0-.58-.15-1.01-.46-1.32-.3-.3-.75-.45-1.34-.45h-.98l-.31,3.96h1.03Z"/>
        <path class="cls-1" d="M170.84,223.33h-2.75l-.66,1.32h-1.06l2.99-5.64h.84l2.11,5.64h-1.01l-.46-1.32Zm-.28-.8l-.85-2.4-1.22,2.4h2.06Z"/>
        <path class="cls-1" d="M173.92,219.86h-1.84l.06-.85h4.71l-.06,.85h-1.84l-.38,4.79h-1.03l.38-4.79Z"/>
        <path class="cls-1" d="M180.29,223.33h-2.75l-.66,1.32h-1.06l2.99-5.64h.84l2.11,5.64h-1.01l-.46-1.32Zm-.28-.8l-.85-2.4-1.22,2.4h2.06Z"/>
      </g>
      <g>
        <ellipse class="cls-2" cx="310.61" cy="169.73" rx="59.92" ry="35.78"/>
        <path class="cls-1" d="M310.61,207.01c-33.87,0-61.42-16.73-61.42-37.28s27.55-37.28,61.42-37.28,61.42,16.73,61.42,37.28-27.55,37.28-61.42,37.28Zm0-71.57c-32.21,0-58.42,15.38-58.42,34.28s26.21,34.28,58.42,34.28,58.42-15.38,58.42-34.28-26.21-34.28-58.42-34.28Z"/>
      </g>
      <g>
        <path class="cls-1" d="M304.54,166.21l-3.76,7.05h-1.46l-2.66-7.05h1.91l1.68,4.76,2.42-4.76h1.87Z"/>
        <path class="cls-1" d="M304.96,166.21h1.84l-.55,7.05h-1.84l.55-7.05Z"/>
        <path class="cls-1" d="M309.77,167.62l-.11,1.34h3.02l-.11,1.41h-3.02l-.12,1.46h3.23l-.12,1.42h-5.01l.56-7.05h5.02l-.12,1.42h-3.22Z"/>
        <path class="cls-1" d="M324.57,166.21l-3.07,7.05h-1.46l-1.17-4.23-1.83,4.23h-1.47l-1.96-7.05h1.86l1.11,4.47,1.93-4.47h1.26l1.15,4.55,1.9-4.55h1.75Z"/>
      </g>
      <path class="cls-1" d="M245.64,178.45c0,.15,0,.3-.02,.44-.01,.14-.04,.32-.08,.53-.04,.21-.09,.46-.16,.76-.07,.3-.16,.69-.28,1.16-.1,.43-.19,.8-.27,1.12-.08,.32-.14,.63-.2,.92-.06,.29-.11,.57-.16,.84-.05,.27-.1,.56-.16,.85-.2-.02-.39-.03-.59-.03h-1.37c-.21,0-.42,.01-.61,.03,.05-.1,.12-.31,.22-.63,.1-.32,.21-.68,.33-1.09s.24-.84,.36-1.3c.12-.46,.23-.9,.34-1.31,.1-.41,.19-.79,.26-1.11,.07-.33,.1-.57,.1-.72,0-.32-.09-.56-.27-.73s-.42-.24-.73-.24c-.41,0-.83,.18-1.23,.54-.41,.36-.73,.92-.98,1.68-.09,.29-.19,.63-.29,1.02-.1,.39-.2,.81-.3,1.25-.1,.44-.19,.9-.28,1.36-.09,.47-.16,.9-.22,1.29-.2-.02-.4-.03-.6-.03h-1.23c-.22,0-.43,.01-.62,.03,.15-.53,.3-1.09,.45-1.68,.15-.59,.3-1.21,.45-1.87,.15-.66,.3-1.38,.46-2.15,.16-.77,.32-1.62,.49-2.56,.17,.02,.37,.04,.6,.06s.44,.03,.65,.03c.2,0,.39,0,.57-.03,.18-.02,.36-.04,.54-.06-.05,.15-.09,.28-.12,.39-.03,.11-.06,.22-.09,.32-.02,.1-.05,.21-.08,.33-.03,.12-.06,.25-.1,.41,.41-.52,.86-.92,1.35-1.2,.48-.28,1.07-.42,1.76-.42,.73,0,1.26,.17,1.6,.52,.34,.35,.51,.78,.51,1.3Z"/>
    </g>
  </g>
  <rect class="cls-1" x="222.2" y="170.17" width="28.49" height="1"/>
</svg>