<?xml version="1.0" encoding="UTF-8" standalone="no"?>
<svg
   xmlns:dc="http://purl.org/dc/elements/1.1/"
   xmlns:cc="http://creativecommons.org/ns#"
   xmlns:rdf="http://www.w3.org/1999/02/22-rdf-syntax-ns#"
   xmlns:svg="http://www.w3.org/2000/svg"
   xmlns="http://www.w3.org/2000/svg"
   xmlns:sodipodi="http://sodipodi.sourceforge.net/DTD/sodipodi-0.dtd"
   xmlns:inkscape="http://www.inkscape.org/namespaces/inkscape"
   width="46.650707mm"
   height="44.817249mm"
   viewBox="0 0 46.650707 44.817249"
   version="1.1"
   id="svg164167"
   sodipodi:docname="burst_single_pass_scan.svg"
   inkscape:version="1.0.2 (e86c8708, 2021-01-15)">
  <metadata
     id="metadata869">
    <rdf:RDF>
      <cc:Work
         rdf:about="">
        <dc:format>image/svg+xml</dc:format>
        <dc:type
           rdf:resource="http://purl.org/dc/dcmitype/StillImage" />
        <dc:title></dc:title>
      </cc:Work>
    </rdf:RDF>
  </metadata>
  <sodipodi:namedview
     id="namedview164169"
     pagecolor="#ffffff"
     bordercolor="#666666"
     borderopacity="1.0"
     inkscape:pageshadow="2"
     inkscape:pageopacity="0.0"
     inkscape:pagecheckerboard="0"
     inkscape:document-units="mm"
     showgrid="false"
     inkscape:zoom="1.231023"
     inkscape:cx="-70.545635"
     inkscape:cy="74.498076"
     inkscape:window-width="1920"
     inkscape:window-height="1027"
     inkscape:window-x="1024"
     inkscape:window-y="25"
     inkscape:window-maximized="1"
     inkscape:current-layer="layer1"
     inkscape:document-rotation="0"
     fit-margin-top="0"
     fit-margin-left="0"
     fit-margin-right="0"
     fit-margin-bottom="0" />
  <defs
     id="defs164164">
    <marker
       style="overflow:visible"
       id="Arrow1Lend"
       refX="0"
       refY="0"
       orient="auto"
       inkscape:stockid="Arrow1Lend"
       inkscape:isstock="true">
      <path
         transform="matrix(-0.8,0,0,-0.8,-10,0)"
         style="fill:context-stroke;fill-rule:evenodd;stroke:context-stroke;stroke-width:1pt"
         d="M 0,0 5,-5 -12.5,0 5,5 Z"
         id="path24851" />
    </marker>
    <linearGradient
       id="linearGradient164671"
       inkscape:swatch="solid">
      <stop
         style="stop-color:#dbdbdb;stop-opacity:1;"
         offset="0"
         id="stop164669" />
    </linearGradient>
    <linearGradient
       id="linearGradient7825"
       y2="447.95001"
       gradientUnits="userSpaceOnUse"
       x2="179.67"
       gradientTransform="matrix(1.7872604,0,0,1.7872604,-232.18577,-721.21455)"
       y1="448.81"
       x1="106.71">
      <stop
         id="stop4074-2-8"
         style="stop-color:#424242"
         offset="0" />
      <stop
         id="stop4076-1-1"
         style="stop-color:#999999;stop-opacity:0"
         offset="1" />
    </linearGradient>
    <marker
       style="overflow:visible"
       id="Arrow1Lend-3"
       refX="0"
       refY="0"
       orient="auto"
       inkscape:stockid="Arrow1Lend"
       inkscape:isstock="true">
      <path
         transform="matrix(-0.8,0,0,-0.8,-10,0)"
         style="fill:context-stroke;fill-rule:evenodd;stroke:context-stroke;stroke-width:1pt"
         d="M 0,0 5,-5 -12.5,0 5,5 Z"
         id="path24851-1" />
    </marker>
    <marker
       style="overflow:visible"
       id="Arrow1Lend-3-7"
       refX="0"
       refY="0"
       orient="auto"
       inkscape:stockid="Arrow1Lend"
       inkscape:isstock="true">
      <path
         transform="matrix(-0.8,0,0,-0.8,-10,0)"
         style="fill:context-stroke;fill-rule:evenodd;stroke:context-stroke;stroke-width:1pt"
         d="M 0,0 5,-5 -12.5,0 5,5 Z"
         id="path24851-1-9" />
    </marker>
    <marker
       style="overflow:visible"
       id="Arrow1Lend-4"
       refX="0"
       refY="0"
       orient="auto"
       inkscape:stockid="Arrow1Lend"
       inkscape:isstock="true">
      <path
         transform="matrix(-0.8,0,0,-0.8,-10,0)"
         style="fill:context-stroke;fill-rule:evenodd;stroke:context-stroke;stroke-width:1pt"
         d="M 0,0 5,-5 -12.5,0 5,5 Z"
         id="path24851-17" />
    </marker>
    <inkscape:path-effect
       effect="fill_between_many"
       method="originald"
       linkedpaths="#g25632,0,1"
       id="path-effect25865"
       is_visible="true"
       lpeversion="0"
       join="true"
       close="true"
       autoreverse="true"
       applied="false" />
  </defs>
  <g
     inkscape:label="Layer 1"
     inkscape:groupmode="layer"
     id="layer1"
     transform="translate(-184.49561,-7.528801)">
    <g
       id="g5649">
      <g
         id="g5632">
        <g
           id="g9015"
           transform="matrix(0.39687912,0,0,0.39961826,95.223578,-86.472408)">
          <path
             style="fill:#d0d0d0;fill-opacity:1;stroke-width:0.264583"
             d="m 276.62541,290.10444 c 8e-4,-1.45521 0.0451,-2.01677 0.0987,-1.2479 0.0536,0.76886 0.053,1.95948 -10e-4,2.64583 -0.0542,0.68634 -0.0981,0.0573 -0.0974,-1.39793 z m -25.03361,-4.03381 c 1.49159,-0.0472 3.93237,-0.0472 5.42396,0 1.49159,0.0472 0.2712,0.0858 -2.71198,0.0858 -2.98318,0 -4.20357,-0.0386 -2.71198,-0.0858 z m 21.43125,0 c 1.49159,-0.0472 3.93237,-0.0472 5.42396,0 1.49159,0.0472 0.2712,0.0858 -2.71198,0.0858 -2.98318,0 -4.20357,-0.0386 -2.71198,-0.0858 z"
             id="path9029" />
          <path
             style="fill:#b9b9b9;fill-opacity:1;stroke-width:0.264583"
             d="m 239.33185,302.27527 c 2.6e-4,-2.61937 0.0399,-3.65515 0.088,-2.30172 0.0481,1.35343 0.0479,3.49655 -5e-4,4.7625 -0.0484,1.26595 -0.0878,0.1586 -0.0875,-2.46078 z m 14.02967,-7.54062 c 0,-4.00183 0.0368,-5.63894 0.0817,-3.63802 0.045,2.00091 0.045,5.27513 0,7.27604 -0.045,2.00091 -0.0817,0.3638 -0.0817,-3.63802 z m 15.86825,-14.41979 c 2.6e-4,-2.61938 0.0399,-3.65515 0.088,-2.30173 0.0481,1.35343 0.0479,3.49656 -5.3e-4,4.7625 -0.0484,1.26595 -0.0878,0.1586 -0.0875,-2.46077 z m -15.88769,-12.17084 c 7.9e-4,-1.45521 0.0451,-2.01676 0.0987,-1.2479 0.0536,0.76886 0.0531,1.95949 -10e-4,2.64583 -0.0542,0.68635 -0.0981,0.0573 -0.0974,-1.39793 z"
             id="path9027" />
          <path
             style="fill:#a3a3a3;fill-opacity:1;stroke-width:0.264583"
             d="m 269.70735,307.65113 c -0.22989,-0.22988 -0.32232,-1.71084 -0.32232,-5.16419 v -4.84188 h 6.35571 6.35572 l -0.0719,5.09323 -0.0718,5.09323 -5.96154,0.071 c -4.4144,0.0525 -6.04518,-0.0127 -6.28385,-0.25136 z m -35.94444,-17.54669 c 6.9e-4,-1.45521 0.0451,-2.01677 0.0987,-1.2479 0.0536,0.76886 0.0531,1.95948 -0.001,2.64583 -0.0543,0.68634 -0.0982,0.0573 -0.0975,-1.39793 z m -6.92288,-4.41854 c -0.22381,-0.22381 -0.3175,-1.74625 -0.3175,-5.15938 v -4.84187 h 6.35 6.35 v 4.84187 c 0,3.41313 -0.0937,4.93557 -0.3175,5.15938 -0.44979,0.44979 -11.61521,0.44979 -12.065,0 z m 20.95849,-5.37104 c 2.6e-4,-2.61938 0.0399,-3.65515 0.088,-2.30173 0.0481,1.35343 0.0479,3.49656 -5.1e-4,4.7625 -0.0484,1.26595 -0.0878,0.1586 -0.0875,-2.46077 z m 0.47276,-16.58938 c -0.22381,-0.22381 -0.3175,-1.74625 -0.3175,-5.15937 v -4.84188 h 6.48229 6.48229 v 4.57134 c 0,3.70919 -0.0777,4.68224 -0.41187,5.15937 -0.40416,0.57701 -0.51984,0.58804 -6.1648,0.58804 -4.12171,0 -5.84294,-0.09 -6.07041,-0.3175 z"
             id="path9025" />
          <path
             style="fill:#8c8c8c;fill-opacity:1;stroke-width:0.264583"
             d="m 272.89076,308.03096 c 1.56435,-0.0468 4.12419,-0.0468 5.68854,0 1.56435,0.0468 0.28443,0.0851 -2.84427,0.0851 -3.1287,0 -4.40862,-0.0383 -2.84427,-0.0851 z m 9.30409,-5.6234 c 0,-2.69213 0.0393,-3.79346 0.0873,-2.44739 0.048,1.34607 0.048,3.54872 0,4.89479 -0.048,1.34607 -0.0873,0.24474 -0.0873,-2.4474 z m -53.74611,-9.7198 c 0.69562,-0.0547 1.76718,-0.054 2.38125,0.002 0.61407,0.0555 0.0449,0.10023 -1.26475,0.0994 -1.30969,-7.9e-4 -1.81211,-0.0462 -1.1165,-0.10089 z m 6.61459,0 c 0.69561,-0.0547 1.76717,-0.054 2.38125,0.002 0.61407,0.0555 0.0449,0.10023 -1.26476,0.0994 -1.30969,-7.9e-4 -1.81211,-0.0462 -1.11649,-0.10089 z m 36.24791,0 c 0.69562,-0.0547 1.76718,-0.054 2.38125,0.002 0.61407,0.0555 0.0449,0.10023 -1.26475,0.0994 -1.30969,-7.9e-4 -1.81211,-0.0462 -1.1165,-0.10089 z m 6.61458,0 c 0.69562,-0.0547 1.76718,-0.054 2.38125,0.002 0.61408,0.0555 0.0449,0.10023 -1.26475,0.0994 -1.30969,-7.9e-4 -1.81211,-0.0462 -1.1165,-0.10089 z m -47.76527,-6.61713 c 1.49159,-0.0472 3.93237,-0.0472 5.42396,0 1.49159,0.0472 0.2712,0.0858 -2.71198,0.0858 -2.98318,0 -4.20357,-0.0386 -2.71198,-0.0858 z m -3.79278,-5.62348 c 0,-2.69214 0.0393,-3.79347 0.0873,-2.4474 0.048,1.34607 0.048,3.54872 0,4.89479 -0.048,1.34607 -0.0873,0.24474 -0.0873,-2.44739 z m 20.05175,2.32405 -0.0532,-2.30615 -2.84427,-0.0851 -2.84427,-0.0851 2.85257,-0.0562 c 2.17873,-0.0429 2.88468,0.0274 2.98846,0.29792 0.0747,0.19476 0.095,1.29609 0.045,2.4474 l -0.0909,2.09328 z M 263.64,280.25133 c 0.84206,-0.0527 2.15175,-0.0522 2.91042,10e-4 0.75867,0.0533 0.0697,0.0964 -1.53102,0.0958 -1.60073,-5.3e-4 -2.22146,-0.0442 -1.3794,-0.0968 z m -20.12747,-1.8488 2.8348,-0.0898 0.0908,-2.5053 0.0908,-2.5053 -0.0152,2.5803 -0.0152,2.5803 -2.91042,0.0148 -2.91041,0.0148 2.83479,-0.0898 z m 20.12747,-0.003 c 0.84206,-0.0527 2.15175,-0.0522 2.91042,10e-4 0.75867,0.0533 0.0697,0.0964 -1.53102,0.0958 -1.60073,-5.2e-4 -2.22146,-0.0442 -1.3794,-0.0968 z m -12.42967,-2.91242 c 1.86386,-0.0455 4.84042,-0.0454 6.61458,2.7e-4 1.77416,0.0457 0.24918,0.083 -3.38884,0.0828 -3.63802,-1.6e-4 -5.0896,-0.0376 -3.22574,-0.0831 z m 21.28355,1.7e-4 c 1.78263,-0.0458 4.69966,-0.0458 6.48229,0 1.78263,0.0458 0.32412,0.0832 -3.24114,0.0832 -3.56526,0 -5.02378,-0.0374 -3.24115,-0.0832 z m -22.61389,-10.05133 c 0.69562,-0.0547 1.76718,-0.054 2.38125,0.001 0.61407,0.0555 0.0449,0.10023 -1.26475,0.0994 -1.30969,-7.9e-4 -1.81211,-0.0462 -1.1165,-0.10089 z m 6.61458,0 c 0.69562,-0.0547 1.76718,-0.054 2.38125,0.001 0.61408,0.0555 0.0449,0.10023 -1.26475,0.0994 -1.30969,-7.9e-4 -1.81211,-0.0462 -1.1165,-0.10089 z m -10.01484,-8.40415 c 1.9e-4,-3.34698 0.0381,-4.67971 0.0843,-2.96163 0.0462,1.71808 0.046,4.45651 -3.4e-4,6.08541 -0.0463,1.6289 -0.0841,0.2232 -0.0839,-3.12378 z"
             id="path9023" />
          <path
             style="fill:#767676;fill-opacity:1;stroke-width:0.264583"
             d="m 240.6589,301.21694 c 1.8e-4,-3.34698 0.0381,-4.67972 0.0843,-2.96164 0.0462,1.71808 0.046,4.45652 -3.5e-4,6.08542 -0.0463,1.6289 -0.0841,0.2232 -0.0839,-3.12378 z m 27.23254,3.70417 c -7.9e-4,-1.30969 0.0439,-1.87883 0.0994,-1.26476 0.0555,0.61407 0.0562,1.68564 0.002,2.38125 -0.0547,0.69562 -0.10008,0.19319 -0.10088,-1.11649 z m 1.33883,-2.51355 c 0,-2.69213 0.0393,-3.79346 0.0873,-2.44739 0.048,1.34607 0.048,3.54872 0,4.89479 -0.048,1.34607 -0.0873,0.24474 -0.0873,-2.4474 z m -1.33377,-4.36562 c 5.3e-4,-1.60073 0.0442,-2.22146 0.0968,-1.3794 0.0527,0.84205 0.0522,2.15174 -10e-4,2.91041 -0.0533,0.75867 -0.0963,0.0697 -0.0958,-1.53101 z m -28.17855,-4.56406 c -0.32911,-0.41965 -0.31975,-0.42901 0.0999,-0.0999 0.25466,0.19972 0.46302,0.40808 0.46302,0.46302 0,0.21776 -0.21727,0.0776 -0.56291,-0.36312 z m 28.60875,0.36312 c 0,-0.0549 0.20835,-0.2633 0.46302,-0.46302 0.41964,-0.32911 0.429,-0.31975 0.0999,0.0999 -0.34564,0.44073 -0.56291,0.58088 -0.56291,0.36312 z m -36.41587,-3.73656 c 6.9e-4,-1.45521 0.0451,-2.01677 0.0987,-1.2479 0.0536,0.76886 0.0531,1.95948 -0.001,2.64583 -0.0543,0.68634 -0.0982,0.0573 -0.0975,-1.39793 z m 7.42152,-9.65729 c 0,-2.69214 0.0393,-3.79347 0.0873,-2.4474 0.048,1.34607 0.048,3.54872 0,4.89479 -0.048,1.34607 -0.0873,0.24474 -0.0873,-2.44739 z m 1.30848,2.38125 c 0,-1.38245 0.0446,-1.948 0.0991,-1.25677 0.0545,0.69122 0.0545,1.82231 0,2.51354 -0.0545,0.69122 -0.0991,0.12567 -0.0991,-1.25677 z m 27.25208,0 c 0,-1.38245 0.0446,-1.948 0.0991,-1.25677 0.0545,0.69122 0.0545,1.82231 0,2.51354 -0.0545,0.69122 -0.0991,0.12567 -0.0991,-1.25677 z m -27.24958,-7.14375 c 0,-1.52797 0.0437,-2.15305 0.0972,-1.38907 0.0534,0.76399 0.0534,2.01414 0,2.77813 -0.0534,0.76398 -0.0972,0.13891 -0.0972,-1.38906 z m 27.25208,0 c 0,-1.52797 0.0437,-2.15305 0.0972,-1.38907 0.0534,0.76399 0.0534,2.01414 0,2.77813 -0.0534,0.76398 -0.0972,0.13891 -0.0972,-1.38906 z m -16.15694,-11.57467 c 1.57226,-0.0469 4.07257,-0.0467 5.55625,4e-4 1.48368,0.0471 0.19729,0.0854 -2.85865,0.0852 -3.05594,-2.1e-4 -4.26986,-0.0387 -2.6976,-0.0856 z m -3.92641,-5.82146 0.009,-4.69658 6.54856,-0.007 6.54857,-0.007 -6.47633,0.0778 -6.47634,0.0778 -0.0817,4.62583 -0.0817,4.62583 0.009,-4.69659 z"
             id="path9021" />
          <path
             style="fill:#606060;fill-opacity:1;stroke-width:0.264583"
             d="m 255.22273,294.20548 0.007,-6.74687 2.11666,-0.016 2.11667,-0.016 -2.046,0.0928 -2.046,0.0928 -0.0778,6.6701 -0.0778,6.6701 0.007,-6.74688 z m -25.72364,3.24188 c 1.85539,-0.0455 4.89149,-0.0455 6.74688,0 1.85539,0.0455 0.33734,0.0827 -3.37344,0.0827 -3.71078,0 -5.22883,-0.0372 -3.37344,-0.0827 z m 43.14249,-1.1e-4 c 1.86386,-0.0455 4.84042,-0.0454 6.61458,2.7e-4 1.77416,0.0457 0.24918,0.083 -3.38884,0.0828 -3.63802,-1.6e-4 -5.0896,-0.0376 -3.22574,-0.0831 z M 225.4642,293.841 c 0,-0.0549 0.20836,-0.2633 0.46302,-0.46302 0.41964,-0.32911 0.429,-0.31975 0.0999,0.0999 -0.34564,0.44073 -0.56291,0.58088 -0.56291,0.36312 z m 57.11624,-0.36312 c -0.3291,-0.41965 -0.31974,-0.42901 0.0999,-0.0999 0.25466,0.19972 0.46302,0.40808 0.46302,0.46302 0,0.21776 -0.21727,0.0776 -0.56292,-0.36312 z m -54.00739,-6.08071 c 0.61846,-0.0557 1.6305,-0.0557 2.24896,0 0.61846,0.0557 0.11245,0.10128 -1.12448,0.10128 -1.23693,0 -1.74294,-0.0456 -1.12448,-0.10128 z m 6.22569,-0.001 c 0.69562,-0.0547 1.76718,-0.054 2.38125,0.002 0.61407,0.0555 0.0449,0.10022 -1.26475,0.0994 -1.30969,-8e-4 -1.81211,-0.0462 -1.1165,-0.10089 z m 15.34583,0 c 0.69562,-0.0547 1.76718,-0.054 2.38125,0.002 0.61408,0.0555 0.0449,0.10022 -1.26475,0.0994 -1.30969,-8e-4 -1.81211,-0.0462 -1.1165,-0.10089 z m 21.29098,0.001 c 0.61846,-0.0557 1.63049,-0.0557 2.24896,0 0.61846,0.0557 0.11245,0.10128 -1.12448,0.10128 -1.23693,0 -1.74294,-0.0456 -1.12448,-0.10128 z m 6.22569,-0.001 c 0.69562,-0.0547 1.76718,-0.054 2.38125,0.002 0.61407,0.0555 0.0449,0.10022 -1.26475,0.0994 -1.30969,-8e-4 -1.81211,-0.0462 -1.1165,-0.10089 z m -38.17413,-0.43428 c 0,-0.0549 0.20836,-0.2633 0.46302,-0.46302 0.41965,-0.3291 0.42901,-0.31975 0.0999,0.0999 -0.34565,0.44073 -0.56292,0.58089 -0.56292,0.36312 z m 29.07042,-0.36312 c -0.32911,-0.41965 -0.31975,-0.429 0.0999,-0.0999 0.44073,0.34565 0.58089,0.56292 0.36313,0.56292 -0.0549,0 -0.2633,-0.20836 -0.46302,-0.46302 z m -39.05844,-11.11176 c 1.85539,-0.0455 4.89149,-0.0455 6.74688,0 1.85539,0.0455 0.33734,0.0827 -3.37344,0.0827 -3.71078,0 -5.22883,-0.0372 -3.37344,-0.0827 z m 10.21886,-3.96949 c -0.32911,-0.41964 -0.31975,-0.429 0.0999,-0.0999 0.25466,0.19972 0.46302,0.40808 0.46302,0.46303 0,0.21776 -0.21727,0.0776 -0.56291,-0.36313 z m 28.60875,0.36313 c 0,-0.0549 0.20835,-0.26331 0.46302,-0.46303 0.41964,-0.3291 0.429,-0.31974 0.0999,0.0999 -0.34564,0.44073 -0.56291,0.58089 -0.56291,0.36313 z m -38.16615,-1.15579 c 1.49159,-0.0472 3.93237,-0.0472 5.42396,0 1.49159,0.0472 0.2712,0.0857 -2.71198,0.0857 -2.98318,0 -4.20357,-0.0386 -2.71198,-0.0857 z m 19.98402,0.003 c 0.69562,-0.0547 1.76718,-0.054 2.38125,10e-4 0.61408,0.0555 0.0449,0.10023 -1.26475,0.0994 -1.30969,-8e-4 -1.81211,-0.0462 -1.1165,-0.10089 z m 5.0664,-0.15577 c -0.074,-0.19282 -0.095,-1.47274 -0.0466,-2.84427 l 0.0879,-2.49369 0.0549,2.70127 0.0549,2.70128 2.18281,0.0891 2.18282,0.0891 -2.19112,0.0539 c -1.6144,0.0397 -2.22652,-0.0384 -2.32565,-0.29672 z m 17.81208,0.15323 c 1.49159,-0.0472 3.93237,-0.0472 5.42396,0 1.49159,0.0472 0.2712,0.0857 -2.71198,0.0857 -2.98318,0 -4.20357,-0.0386 -2.71198,-0.0857 z m -26.1276,-20.80463 c 0,-0.0549 0.20836,-0.2633 0.46302,-0.46302 0.41964,-0.32911 0.429,-0.31975 0.0999,0.0999 -0.34564,0.44073 -0.56291,0.58089 -0.56291,0.36313 z"
             id="path9019" />
          <path
             style="fill:#494949;fill-opacity:1;stroke-width:0.264583"
             d="m 226.57877,309.15269 c -1.53584,-0.66729 -1.68146,-1.44625 -1.59102,-8.51072 l 0.0796,-6.21622 0.86407,-0.7716 c 0.83269,-0.74356 0.96036,-0.77159 3.51499,-0.77159 h 2.65091 l -0.0754,-2.71198 -0.0754,-2.71197 -2.51354,-0.0682 c -4.42954,-0.1201 -4.49792,-0.24504 -4.49792,-8.21824 0,-3.44622 0.11511,-6.12006 0.28438,-6.60562 0.5471,-1.56942 0.90081,-1.64444 7.75258,-1.64444 h 6.2035 l 0.68498,0.81405 c 0.64943,0.7718 0.68498,0.97089 0.68498,3.83646 v 3.0224 h 3.0427 3.04271 V 275.532 c 0,-3.03271 0.008,-3.07072 0.7734,-3.83646 0.75248,-0.75247 0.84552,-0.77339 3.43958,-0.77339 h 2.66619 v -2.77813 -2.77812 h -2.66619 c -2.59406,0 -2.6871,-0.0209 -3.43958,-0.7734 l -0.7734,-0.7734 v -6.63076 -6.63076 l 0.77157,-0.86407 0.77157,-0.86407 5.51229,-0.0873 c 6.28628,-0.0995 7.24757,0.0629 8.03749,1.35845 0.47074,0.77204 0.51561,1.36493 0.51651,6.82527 5.3e-4,3.69671 -0.11098,6.30099 -0.29228,6.82106 -0.44079,1.26446 -1.38957,1.61895 -4.33306,1.61895 h -2.53593 l 0.0754,2.71198 0.0754,2.71198 2.38125,0.0661 c 3.13725,0.0871 3.49455,0.19125 4.10826,1.19778 0.43156,0.70779 0.52014,1.33639 0.52096,3.69706 l 9.9e-4,2.84427 h 2.91042 2.91041 v -3.0224 c 0,-2.86557 0.0356,-3.06466 0.68498,-3.83646 l 0.68498,-0.81405 h 6.2035 c 6.85176,0 7.20548,0.075 7.75258,1.64444 0.37865,1.08619 0.37865,12.02909 0,13.11528 -0.47222,1.3546 -1.21325,1.64444 -4.20423,1.64444 h -2.65514 v 2.77813 2.77812 h 2.64166 c 2.5444,0 2.67347,0.0284 3.50573,0.77159 l 0.86407,0.7716 0.0796,6.21622 c 0.11807,9.22303 0.39478,8.90934 -7.85906,8.90934 -2.90562,0 -5.57691,-0.11176 -5.93621,-0.24837 -1.47518,-0.56086 -1.76243,-1.21849 -1.76243,-4.03485 v -2.59594 h -6.95854 c -5.05942,0 -7.04519,-0.0866 -7.27604,-0.3175 -0.23172,-0.23172 -0.3175,-2.30482 -0.3175,-7.67292 v -7.35542 h -2.66619 c -2.59406,0 -2.6871,-0.0209 -3.43958,-0.77339 -0.75731,-0.75732 -0.7734,-0.8316 -0.7734,-3.57188 v -2.79848 h -3.04271 -3.0427 v 2.75783 c 0,2.58091 -0.0439,2.81004 -0.68498,3.57187 -0.68412,0.81303 -0.68846,0.81405 -3.43959,0.81405 h -2.7546 v 2.77813 2.77812 h 2.66619 c 2.59405,0 2.6871,0.0209 3.43958,0.7734 l 0.7734,0.7734 v 6.71734 c 0,6.4542 -0.0217,6.74065 -0.55458,7.3126 -0.30501,0.32739 -0.84855,0.70703 -1.20785,0.84364 -1.09837,0.4176 -11.18304,0.29345 -12.20425,-0.15025 z m 12.49257,-1.34007 c 0.34869,-0.34869 0.41577,-1.22384 0.41577,-5.42396 v -5.00818 h -6.61458 -6.61458 v 5.10646 c 0,3.61891 0.0925,5.19895 0.3175,5.42396 0.2279,0.2279 1.97723,0.3175 6.19881,0.3175 4.99386,0 5.94404,-0.0627 6.29708,-0.41578 z m 42.8625,0 c 0.34871,-0.34871 0.41577,-1.22426 0.41577,-5.42858 v -5.0128 l -6.54844,0.0708 -6.54843,0.0708 -0.0723,4.8672 c -0.0631,4.25015 -0.016,4.9294 0.37174,5.35781 0.40647,0.44915 0.93092,0.49062 6.20493,0.49062 4.88442,0 5.82418,-0.0633 6.1767,-0.41578 z m -13.87173,-10.18791 c 0,-3.17893 0.004,-3.19933 0.7734,-3.96875 0.74713,-0.74713 0.85945,-0.7734 3.30729,-0.7734 h 2.53389 v -2.77812 -2.77813 h -2.62231 c -2.6034,0 -2.62725,-0.006 -3.30729,-0.81405 -0.64104,-0.76183 -0.68498,-0.99096 -0.68498,-3.57187 v -2.75783 h -2.91041 -2.91042 l -0.001,2.57969 c -7.9e-4,2.09762 -0.0982,2.73905 -0.52096,3.43248 -0.61371,1.00653 -0.97101,1.11071 -4.10826,1.19778 l -2.38125,0.0661 -0.0707,6.68072 -0.0707,6.68073 h 6.48684 6.48683 v -3.19535 z M 239.00326,285.8301 c 0.43614,-0.39471 0.48385,-0.92955 0.48385,-5.42396 v -4.98608 h -6.61458 -6.61458 v 5.00819 c 0,4.20012 0.0671,5.07527 0.41577,5.42396 0.35231,0.35231 1.28809,0.41577 6.13073,0.41577 4.94653,0 5.78001,-0.0589 6.19881,-0.43788 z m 21.40333,0.16399 c 0.47906,-0.25639 0.51177,-0.60303 0.51177,-5.42396 v -5.15007 h -6.61458 -6.61458 v 4.94011 c 0,4.22552 0.0633,5.01009 0.43788,5.42396 0.39824,0.44005 0.95074,0.48385 6.10281,0.48385 3.399,0 5.86963,-0.10955 6.1767,-0.27389 z m 21.52725,-0.14188 c 0.34869,-0.34869 0.41577,-1.22384 0.41577,-5.42396 v -5.00819 h -6.61458 -6.61459 v 4.94011 c 0,4.22552 0.0633,5.01009 0.43789,5.42396 0.39867,0.44052 0.95373,0.48385 6.19881,0.48385 4.88442,0 5.82418,-0.0633 6.1767,-0.41577 z m -21.49933,-21.98253 c 0.43614,-0.3947 0.48385,-0.92955 0.48385,-5.42396 v -4.98607 h -6.61458 -6.61458 v 4.89479 c 0,4.54201 0.0381,4.93293 0.52916,5.42396 0.49584,0.49584 0.88195,0.52916 6.13073,0.52916 4.84102,0 5.66726,-0.0595 6.08542,-0.43788 z"
             id="path9017" />
        </g>
        <path
           style="fill:#000000;stroke-width:0.0235472"
           d="m 212.61375,38.966712 c -0.34123,-0.09502 -0.66938,-0.420733 -0.82219,-0.81607 -0.14842,-0.383982 -0.14041,-0.07956 -0.13437,-5.10183 l 0.005,-4.521463 0.0586,-0.113215 c 0.0646,-0.124838 0.22767,-0.241778 0.3371,-0.241778 0.0748,0 0.25655,0.104607 0.30639,0.176384 0.10478,0.150869 0.0998,-0.08812 0.1,4.714222 l 2e-4,4.466864 0.05,0.137248 c 0.0386,0.106046 0.0729,0.15446 0.1508,0.212982 l 0.10084,0.07574 4.18986,0.01333 4.18986,0.01328 0.0576,0.05497 c 0.0316,0.03024 0.0856,0.09931 0.11997,0.153493 0.13416,0.211911 0.0827,0.549637 -0.11023,0.723349 l -0.0887,0.07987 -4.1896,0.0049 c -3.49376,0.0039 -4.2115,-0.0016 -4.32148,-0.03205 z m 10.59734,0.0136 c -0.4285,-0.09521 -0.80265,-0.521081 -0.95164,-1.083183 -0.0517,-0.195418 -0.065,-1.570076 -0.0176,-1.831767 0.10425,-0.575476 0.43666,-1.014441 0.87728,-1.158489 0.29117,-0.0952 0.63668,-0.04633 0.89011,0.125915 0.14104,0.09584 0.40514,0.433733 0.48837,0.6248 0.12888,0.295894 0.15051,0.478651 0.15051,1.272109 0,0.63396 -0.004,0.728414 -0.0431,0.906632 -0.0627,0.289133 -0.15584,0.493821 -0.32125,0.705781 -0.28272,0.362342 -0.6813,0.525165 -1.07267,0.438202 z m 0.38736,-1.074944 c 0.11143,-0.06633 0.17332,-0.155151 0.21344,-0.306306 0.0304,-0.114866 0.0323,-1.201352 0.002,-1.339664 -0.0828,-0.381392 -0.49038,-0.489249 -0.69188,-0.183119 -0.0928,0.141077 -0.1023,0.231659 -0.095,0.909799 l 0.007,0.627671 0.0586,0.113138 c 0.0406,0.07828 0.0918,0.132938 0.1666,0.177416 0.13545,0.08061 0.20516,0.08083 0.33917,0.0012 z m 2.12551,1.064719 c -0.0992,-0.04708 -0.17228,-0.13234 -0.22394,-0.261137 -0.0374,-0.09329 -0.0396,-0.174298 -0.0396,-1.457608 V 35.89251 h -0.0446 c -0.0246,0 -0.0868,-0.02695 -0.13849,-0.0599 -0.2935,-0.187192 -0.29127,-0.756274 0.004,-0.927467 0.0707,-0.04105 0.1378,-0.04983 0.38334,-0.05033 0.32111,-5.49e-4 0.39619,0.02403 0.49802,0.163581 0.11174,0.153136 0.11033,0.128603 0.11033,1.919246 v 1.659153 l -0.0469,0.118427 c -0.0908,0.229567 -0.31516,0.343512 -0.50182,0.254885 z m 1.62447,0 c -0.0992,-0.04708 -0.17226,-0.13234 -0.22393,-0.261137 -0.0374,-0.09329 -0.0396,-0.174298 -0.0396,-1.457608 0,-1.34849 -3.3e-4,-1.358836 -0.0423,-1.358836 -0.0911,0 -0.24586,-0.129591 -0.30266,-0.253485 -0.0485,-0.105816 -0.0543,-0.143164 -0.0473,-0.302618 0.006,-0.149843 0.0185,-0.199496 0.0676,-0.281701 0.0995,-0.166901 0.18507,-0.199233 0.52861,-0.199907 0.25486,-5.04e-4 0.30908,0.007 0.37745,0.05148 0.1,0.06518 0.18138,0.18701 0.21066,0.315186 0.0154,0.06745 0.0205,0.624783 0.0161,1.762575 -0.006,1.62136 -0.007,1.666315 -0.0489,1.756752 -0.0964,0.209738 -0.31944,0.31293 -0.49561,0.229287 z m 2.36062,0.01038 c -0.40642,-0.08968 -0.76468,-0.475242 -0.93119,-1.002174 l -0.0576,-0.18223 -2.5e-4,-0.865245 -2.5e-4,-0.865251 0.0676,-0.212982 c 0.27646,-0.870514 1.03368,-1.242718 1.69113,-0.831249 0.2082,0.130304 0.43102,0.424535 0.5388,0.711445 0.0487,0.129925 0.0942,0.299987 0.10673,0.399343 0.0336,0.268189 0.0275,1.413615 -0.008,1.632381 -0.13543,0.817069 -0.76133,1.358276 -1.40625,1.215962 z m 0.39718,-1.084565 c 0.0944,-0.06119 0.12248,-0.09696 0.17034,-0.217756 l 0.0573,-0.144547 -5.5e-4,-0.614213 c -5.5e-4,-0.587446 -0.003,-0.619432 -0.0484,-0.734013 -0.15495,-0.38795 -0.58445,-0.380705 -0.72406,0.01224 -0.0335,0.09438 -0.0383,0.1837 -0.0386,0.727432 -5.6e-4,0.778788 0.0161,0.847183 0.23905,0.981055 0.13536,0.08128 0.20716,0.07916 0.34512,-0.01016 z m -16.16306,-2.045828 c -0.0865,-0.04791 -0.17979,-0.156023 -0.22053,-0.255741 -0.0161,-0.03952 -0.0294,-0.142023 -0.0294,-0.227739 0,-0.204442 0.0783,-0.37227 0.21249,-0.455288 0.09,-0.05571 0.11406,-0.05706 0.99684,-0.05649 1.018,5.48e-4 1.01655,4e-4 1.13558,0.199908 0.049,0.08221 0.0609,0.131857 0.0676,0.2817 0.0105,0.237049 -0.0479,0.377781 -0.20093,0.484227 l -0.10334,0.07188 -0.89274,-0.0012 c -0.7505,-0.0012 -0.90433,-0.0074 -0.96562,-0.04138 z m 3.23858,-0.008 c -0.16181,-0.09576 -0.23952,-0.253053 -0.23952,-0.484782 0,-0.293781 0.16744,-0.503985 0.40025,-0.502459 0.42079,0.0027 0.55429,0.729589 0.17802,0.969277 -0.12654,0.0806 -0.22418,0.08578 -0.33875,0.01794 z m 1.63489,0.008 c -0.16717,-0.09242 -0.28669,-0.349323 -0.25656,-0.55153 0.0165,-0.110476 0.0751,-0.259348 0.12493,-0.316909 0.10691,-0.123576 0.14044,-0.127479 1.09499,-0.127479 0.89427,0 0.90304,5.27e-4 0.99498,0.0599 0.29265,0.188992 0.29007,0.721686 -0.004,0.909267 l -0.10852,0.06913 -0.88626,-0.0012 c -0.74405,-0.0012 -0.89795,-0.0075 -0.95914,-0.04133 z m -4.90483,-2.098689 c -0.0684,-0.04396 -0.12386,-0.105573 -0.1614,-0.1796 -0.1257,-0.247827 -0.0493,-0.610526 0.15532,-0.737142 0.0865,-0.05357 0.12312,-0.05705 0.59071,-0.0565 0.62762,5.5e-4 0.67385,0.02025 0.78107,0.330104 0.0751,0.217163 0.0113,0.473925 -0.15425,0.620722 l -0.083,0.07358 -0.5121,0.0079 c -0.51119,0.0079 -0.51228,0.0077 -0.61635,-0.05904 z m 9.28887,0.03902 c -0.47675,-0.132456 -0.86169,-0.613752 -0.95775,-1.197515 -0.0446,-0.270912 -0.0443,-1.486687 4.5e-4,-1.729164 0.0995,-0.54012 0.4458,-0.998047 0.86748,-1.147423 0.29412,-0.104186 0.64116,-0.05142 0.90815,0.13801 0.1612,0.114399 0.41573,0.44829 0.49179,0.64514 0.12139,0.314181 0.13734,0.458031 0.13734,1.23853 0,0.629 -0.004,0.729524 -0.0422,0.902424 -0.0635,0.293194 -0.1514,0.49122 -0.30743,0.69307 -0.24041,0.311015 -0.48918,0.454294 -0.8167,0.470364 -0.10882,0.0055 -0.23535,-5.49e-4 -0.28115,-0.01345 z m 0.42047,-1.084988 c 0.0436,-0.02881 0.10748,-0.103263 0.14185,-0.165407 l 0.0625,-0.112995 0.006,-0.620751 c 0.004,-0.413415 -0.002,-0.659113 -0.0176,-0.735604 -0.0445,-0.21139 -0.21793,-0.36912 -0.40627,-0.369558 -0.0996,-2.43e-4 -0.2417,0.107 -0.31133,0.235016 l -0.0627,0.115365 -0.006,0.622189 c -0.007,0.70987 0.003,0.794017 0.1177,0.940144 0.13101,0.167472 0.30889,0.20173 0.47566,0.0916 z m 2.82851,1.084988 c -0.46883,-0.130256 -0.83066,-0.56978 -0.95086,-1.155014 -0.0328,-0.159635 -0.0384,-0.292661 -0.0384,-0.908186 0,-0.647599 0.004,-0.741472 0.0431,-0.920294 0.145,-0.669349 0.63276,-1.144257 1.17523,-1.144257 0.32883,0 0.61359,0.154613 0.85473,0.464085 0.17352,0.222673 0.28627,0.480297 0.3321,0.758869 0.0454,0.275906 0.0444,1.414779 -0.002,1.700048 -0.0455,0.283078 -0.15502,0.540493 -0.32026,0.753057 -0.2381,0.306289 -0.48785,0.449172 -0.81302,0.465128 -0.10881,0.0055 -0.23534,-5.49e-4 -0.28116,-0.01345 z m 0.42047,-1.084988 c 0.0436,-0.02881 0.10749,-0.103297 0.14185,-0.165485 l 0.0625,-0.113072 v -0.685199 -0.685194 l -0.0558,-0.107923 c -0.19076,-0.368494 -0.6339,-0.296415 -0.72388,0.117742 -0.0294,0.13514 -0.0284,1.214914 0.001,1.351849 0.0271,0.125463 0.14731,0.282727 0.24944,0.326397 0.0953,0.04073 0.22812,0.02475 0.32483,-0.03913 z m 2.85975,1.093808 c -0.4356,-0.107819 -0.78639,-0.48151 -0.95418,-1.016444 l -0.0559,-0.178284 v -0.865245 -0.865251 l 0.0676,-0.212982 c 0.27795,-0.875195 1.03723,-1.244226 1.69434,-0.823484 0.32963,0.211066 0.58439,0.652895 0.64367,1.116339 0.0326,0.255126 0.0255,1.404465 -0.0104,1.619064 -0.0477,0.287728 -0.15982,0.554874 -0.31971,0.761714 -0.23999,0.310449 -0.48933,0.453635 -0.81579,0.46847 -0.10882,0.0049 -0.22129,0.0033 -0.24992,-0.0039 z m 0.3145,-1.052371 c 0.11974,-0.05191 0.1885,-0.131457 0.24144,-0.279264 0.05,-0.13953 0.0507,-0.151594 0.0442,-0.77651 l -0.006,-0.634773 -0.0581,-0.112159 c -0.17816,-0.34389 -0.5727,-0.309242 -0.70457,0.06187 -0.0336,0.09461 -0.0382,0.183074 -0.0382,0.733233 0,0.552053 0.004,0.638164 0.0384,0.732131 0.0482,0.133527 0.11621,0.214387 0.22189,0.263852 0.10252,0.04796 0.17064,0.05105 0.26151,0.01163 z M 215.58003,31.71153 c -0.0778,-0.02975 -0.19666,-0.174409 -0.23353,-0.284247 -0.0825,-0.245891 0.003,-0.557398 0.18372,-0.669245 l 0.0922,-0.05708 h 2.71862 c 1.97406,0 2.73801,0.0083 2.78942,0.03024 0.14874,0.06355 0.26774,0.280839 0.26774,0.488903 0,0.126029 -0.0571,0.296142 -0.1268,0.378104 -0.12644,0.148587 0.0281,0.141237 -2.91754,0.138757 -1.49235,-0.0012 -2.7406,-0.01268 -2.77388,-0.02541 z m -0.8142,-2.080516 c -0.16019,-0.07193 -0.29682,-0.3594 -0.26725,-0.562272 0.02,-0.137038 0.0915,-0.278501 0.18063,-0.357495 l 0.083,-0.07358 h 1.76316 1.76316 l 0.0866,0.07324 c 0.23709,0.200561 0.23553,0.653532 -0.003,0.864851 l -0.083,0.07359 -1.73042,0.0049 c -1.16865,0.0033 -1.75069,-0.0043 -1.79288,-0.02322 z m 4.87923,0.0068 c -0.2407,-0.09927 -0.34579,-0.496268 -0.20598,-0.778084 0.0716,-0.144355 0.20136,-0.235347 0.33559,-0.235347 0.0504,0 0.13208,0.02541 0.18323,0.05708 0.26535,0.164201 0.29068,0.67116 0.0445,0.889295 -0.085,0.07529 -0.25841,0.107835 -0.35729,0.06705 z m 3.57644,-1.031521 c -0.27229,-0.07791 -0.45905,-0.20652 -0.64796,-0.446219 -0.17071,-0.216609 -0.28622,-0.479925 -0.33221,-0.757279 -0.042,-0.253524 -0.041,-1.496961 0.002,-1.727005 0.10334,-0.560312 0.465,-1.023458 0.90721,-1.161825 0.28566,-0.08937 0.61559,-0.02903 0.88672,0.162197 0.15905,0.112171 0.38584,0.417598 0.47051,0.633659 0.12672,0.323352 0.14097,0.448738 0.14097,1.240204 0,0.625481 -0.004,0.726132 -0.0422,0.898922 -0.066,0.304472 -0.15461,0.501082 -0.32267,0.715973 -0.16326,0.208767 -0.34842,0.34198 -0.58193,0.41869 -0.11498,0.03776 -0.38287,0.05044 -0.47985,0.02267 z m 0.42767,-1.110838 c 0.0426,-0.03606 0.0996,-0.111254 0.12688,-0.167148 0.0486,-0.100069 0.0494,-0.112115 0.0494,-0.784879 v -0.68325 l -0.0627,-0.114164 c -0.0891,-0.161935 -0.18013,-0.222938 -0.33295,-0.222938 -0.15277,0 -0.24388,0.06098 -0.33293,0.222861 l -0.0627,0.114086 -0.006,0.62075 c -0.007,0.689579 0.003,0.779062 0.10531,0.928922 0.12637,0.184831 0.35448,0.222717 0.51637,0.08576 z m 2.06128,1.08652 c -0.0886,-0.04912 -0.1593,-0.130809 -0.20519,-0.23713 -0.0304,-0.07046 -0.0357,-0.241159 -0.0448,-1.448669 l -0.0104,-1.368796 -0.0937,-0.0422 c -0.1387,-0.06249 -0.17882,-0.09798 -0.22971,-0.203234 -0.13504,-0.27934 -0.0654,-0.619981 0.15465,-0.756141 0.0762,-0.0472 0.12835,-0.05461 0.38446,-0.05461 0.3195,0 0.39509,0.02498 0.49665,0.164168 0.11178,0.153196 0.11037,0.128433 0.10988,1.918231 -4.3e-4,1.555148 -0.003,1.664751 -0.0389,1.764627 -0.0926,0.25623 -0.3249,0.373467 -0.52281,0.263755 z m 2.28927,-0.008 c -0.22914,-0.07907 -0.36874,-0.184299 -0.55112,-0.415457 -0.18213,-0.230813 -0.27114,-0.425211 -0.33087,-0.722664 -0.0471,-0.234458 -0.0476,-1.549858 -5.6e-4,-1.780045 0.0588,-0.289039 0.15111,-0.489309 0.33143,-0.71982 0.2662,-0.340272 0.55354,-0.484534 0.91129,-0.457505 0.33262,0.02514 0.56516,0.15828 0.79825,0.45706 0.17918,0.229666 0.29031,0.488217 0.33331,0.775495 0.0421,0.28113 0.0421,1.39244 0,1.673576 -0.1265,0.845119 -0.84011,1.414158 -1.49158,1.18936 z m 0.4949,-1.059912 c 0.0436,-0.02881 0.10749,-0.105222 0.14185,-0.169848 l 0.0625,-0.117506 v -0.683368 -0.683252 l -0.0628,-0.115443 c -0.18072,-0.331853 -0.57091,-0.292924 -0.69981,0.06982 -0.0336,0.09461 -0.0382,0.18308 -0.0382,0.733239 0,0.552053 0.004,0.638164 0.0384,0.732131 0.0991,0.274253 0.34244,0.376353 0.55813,0.234105 z m 2.05989,1.050017 c -0.0447,-0.03271 -0.11033,-0.105487 -0.14579,-0.161742 l -0.0645,-0.102282 -0.0104,-1.385898 -0.0104,-1.385904 -0.10985,-0.04577 c -0.12969,-0.054 -0.18124,-0.108296 -0.23986,-0.252508 -0.0934,-0.229923 -0.0382,-0.514084 0.12938,-0.665573 0.0876,-0.07917 0.0911,-0.07995 0.40749,-0.08836 0.28717,-0.0076 0.3274,-0.0033 0.4018,0.04544 0.10334,0.06738 0.18397,0.187883 0.21195,0.316651 0.0137,0.06308 0.0214,0.683411 0.0214,1.709706 0,1.02629 -0.008,1.646612 -0.0214,1.7097 -0.0651,0.299829 -0.36121,0.459102 -0.56984,0.306552 z M 215.5728,27.550714 c -0.23297,-0.108027 -0.33088,-0.493492 -0.19495,-0.767492 0.04,-0.08054 0.091,-0.140315 0.15237,-0.178262 l 0.0922,-0.05707 h 2.73297 c 2.64543,0 2.73545,0.0016 2.81025,0.05066 0.20539,0.13464 0.28748,0.422866 0.19411,0.681478 -0.0465,0.128883 -0.11248,0.20999 -0.21538,0.264961 -0.0683,0.0365 -0.38619,0.04095 -2.79051,0.03918 -2.02918,-0.0016 -2.73043,-0.0099 -2.78111,-0.03342 z m -3.69416,-0.469046 c -0.35983,-0.250138 -0.25956,-0.909152 0.149,-0.979195 0.2424,-0.04155 0.45708,0.246663 0.43201,0.580021 -0.0112,0.148948 -0.0513,0.233365 -0.16911,0.355174 -0.10179,0.105343 -0.29411,0.125886 -0.4119,0.04401 z m 2.88719,-1.604082 c -0.0762,-0.03392 -0.19016,-0.16682 -0.23334,-0.272278 -0.0815,-0.199173 -0.0118,-0.50814 0.1456,-0.644608 l 0.0877,-0.07611 h 1.76138 1.76138 l 0.0865,0.07325 c 0.16747,0.141665 0.22625,0.44196 0.1325,0.676873 -0.0443,0.110898 -0.10906,0.183135 -0.2179,0.242887 -0.077,0.04226 -3.42894,0.04226 -3.52395,-1.5e-5 z m 4.90471,0.01476 c -0.12958,-0.06584 -0.17913,-0.112644 -0.23191,-0.219025 -0.12805,-0.258111 -0.0557,-0.61001 0.15249,-0.742152 0.19009,-0.120634 0.40895,-0.04665 0.51914,0.175446 0.12463,0.251196 0.0548,0.617676 -0.14013,0.736143 -0.0835,0.05077 -0.24475,0.07746 -0.29959,0.04962 z m -7.78423,-0.4779 c -0.093,-0.06057 -0.18574,-0.201878 -0.21201,-0.322808 -0.0149,-0.06839 -0.0218,-1.55308 -0.0215,-4.639788 2.7e-4,-5.029165 -0.007,-4.7322 0.13786,-5.110387 0.1568,-0.407264 0.51986,-0.755012 0.86135,-0.825015 0.2037,-0.04177 9.60974,-0.03479 9.69841,0.0071 0.30733,0.145496 0.35814,0.686293 0.086,0.916441 l -0.0865,0.07324 -4.7917,0.01333 -4.79167,0.01329 -0.0937,0.06656 c -0.0717,0.05094 -0.10722,0.101068 -0.15131,0.213623 l -0.0576,0.147072 0.005,0.808435 0.005,0.808435 0.1861,-0.316552 c 0.28121,-0.478376 0.36562,-0.598522 0.45835,-0.652352 0.079,-0.04594 0.16586,-0.04912 1.36292,-0.04967 0.89546,-4.12e-4 1.30209,0.0084 1.35742,0.02969 0.0434,0.01663 0.10572,0.06157 0.13843,0.09983 0.0327,0.03825 0.30659,0.491901 0.60865,1.008053 l 0.54922,0.93846 h 1.96565 c 1.72707,0 1.97501,0.0049 2.0428,0.04122 0.32675,0.17452 0.33941,0.737877 0.0212,0.946435 -0.0744,0.04878 -0.15448,0.05066 -2.20328,0.05066 -2.08018,0 -2.12773,-0.0012 -2.20709,-0.05291 -0.0986,-0.06426 -0.13357,-0.119317 -0.75031,-1.179466 l -0.48943,-0.841316 -1.01486,-0.0016 -1.01487,-0.0016 -0.28249,0.479967 c -0.15535,0.263985 -0.28775,0.497603 -0.29423,0.519149 -0.0104,0.03419 0.12004,0.03918 1.01828,0.03918 0.72297,0 1.05116,0.0092 1.10084,0.03068 0.15877,0.06883 0.25251,0.216939 0.28088,0.443729 0.0197,0.157346 -0.0635,0.376292 -0.18066,0.475407 l -0.0888,0.07515 -1.28731,0.0072 -1.28729,0.0072 -0.005,2.72357 -0.005,2.723571 -0.0496,0.09263 c -0.0786,0.146693 -0.18113,0.218898 -0.32522,0.229116 -0.0868,0.0061 -0.14567,-0.0043 -0.19287,-0.0354 z m 2.02104,-1.638626 c -0.0552,-0.03419 -0.11139,-0.09986 -0.15099,-0.176286 -0.053,-0.102341 -0.0631,-0.147845 -0.0631,-0.284945 0,-0.211845 0.0705,-0.362917 0.21278,-0.455786 l 0.0983,-0.06413 h 0.90009 c 0.86487,0 0.90353,0.0022 0.9883,0.05461 0.2962,0.183307 0.2962,0.745826 0,0.929125 -0.0849,0.05252 -0.12225,0.05455 -0.99282,0.05324 -0.86786,-0.0012 -0.90816,-0.0033 -0.99248,-0.05583 z m 3.24315,-0.0089 c -0.14378,-0.09739 -0.19786,-0.221262 -0.19786,-0.453185 0,-0.234862 0.0544,-0.357022 0.20237,-0.454463 0.19482,-0.12829 0.40958,-0.05324 0.52411,0.183119 0.21659,0.447017 -0.16541,0.970573 -0.52862,0.724529 z m 1.63523,0.01092 c -0.10739,-0.06848 -0.169,-0.166007 -0.20844,-0.330017 -0.0284,-0.118283 -0.0284,-0.146148 -1.3e-4,-0.266228 0.0382,-0.162137 0.0975,-0.256307 0.20792,-0.330953 0.0807,-0.05455 0.10788,-0.05608 0.99122,-0.05608 h 0.9082 l 0.0917,0.06196 c 0.28523,0.192559 0.28409,0.726895 -0.002,0.913641 -0.0935,0.06108 -0.0953,0.06119 -0.99969,0.06088 -0.86201,-2.96e-4 -0.90999,-0.0027 -0.98894,-0.05318 z m 3.67574,0.01263 c -0.0886,-0.04912 -0.15931,-0.130809 -0.20518,-0.237129 -0.0304,-0.07047 -0.0357,-0.241236 -0.0449,-1.4498 l -0.0104,-1.369927 -0.0888,-0.03282 c -0.12374,-0.04577 -0.20653,-0.128159 -0.25923,-0.257925 -0.0953,-0.234743 -0.0374,-0.522256 0.13629,-0.676276 0.0794,-0.07051 0.0952,-0.07395 0.37642,-0.08241 0.17556,-0.0055 0.32445,0.0033 0.37061,0.02069 0.10445,0.03995 0.20199,0.149947 0.24816,0.279906 0.0358,0.100706 0.0382,0.21404 0.0382,1.771532 0,1.561499 -0.002,1.670492 -0.0384,1.77043 -0.0926,0.25623 -0.3249,0.373466 -0.52282,0.263754 z m 2.28039,-0.01026 c -0.20989,-0.07159 -0.37486,-0.196593 -0.54292,-0.411429 -0.17071,-0.218223 -0.26658,-0.427466 -0.32295,-0.704931 -0.0348,-0.170951 -0.04,-0.291728 -0.0398,-0.905184 3.4e-4,-0.787436 0.0145,-0.92014 0.13019,-1.22352 0.0865,-0.227058 0.35102,-0.572512 0.51513,-0.673021 0.24112,-0.147669 0.30795,-0.167071 0.57274,-0.166219 0.21648,5.48e-4 0.2687,0.0099 0.39033,0.06877 0.41431,0.200556 0.70373,0.612769 0.79451,1.131606 0.0483,0.275922 0.0481,1.446222 -3.5e-4,1.719981 -0.12534,0.7092 -0.62871,1.220512 -1.19623,1.215139 -0.0852,-5.48e-4 -0.22048,-0.02382 -0.30066,-0.05121 z m 0.5318,-1.076273 c 0.0426,-0.03606 0.0996,-0.111255 0.12688,-0.167154 0.0486,-0.100069 0.0494,-0.11211 0.0494,-0.784872 v -0.683252 l -0.0625,-0.113072 c -0.14979,-0.271053 -0.43839,-0.309142 -0.61656,-0.08138 -0.0421,0.05385 -0.0868,0.145529 -0.0996,0.203772 -0.0299,0.137566 -0.0305,1.216204 -5.6e-4,1.353034 0.0289,0.133372 0.13325,0.275877 0.23787,0.325081 0.11234,0.05285 0.26724,0.03068 0.3652,-0.05215 z m 2.03187,1.06859 c -0.0447,-0.03271 -0.11034,-0.105492 -0.14579,-0.161749 l -0.0644,-0.102281 -0.0104,-1.385827 -0.0104,-1.385831 -0.0999,-0.03721 c -0.26988,-0.100558 -0.37637,-0.49539 -0.21677,-0.803683 0.0918,-0.177492 0.18676,-0.216384 0.52622,-0.215703 0.23641,4.78e-4 0.30581,0.0097 0.37438,0.04945 0.10272,0.05965 0.18812,0.184415 0.2169,0.316849 0.0138,0.06309 0.0216,0.683411 0.0216,1.709707 0,1.02629 -0.008,1.646611 -0.0216,1.7097 -0.0651,0.299829 -0.36121,0.459101 -0.56984,0.306553 z m 2.3098,0.0068 c -0.0802,-0.02766 -0.20203,-0.089 -0.27075,-0.136248 -0.1762,-0.121139 -0.42198,-0.444097 -0.50537,-0.664043 -0.12513,-0.33007 -0.13392,-0.420825 -0.12555,-1.298002 0.007,-0.779138 0.008,-0.792403 0.0622,-0.966319 0.14346,-0.462954 0.40734,-0.792475 0.76661,-0.95728 0.18079,-0.08294 0.55382,-0.0903 0.72893,-0.01438 0.33669,0.145963 0.6033,0.438037 0.74662,0.817903 0.11148,0.295449 0.12779,0.448081 0.12779,1.195353 0,0.748574 -0.0162,0.899564 -0.12871,1.198032 -0.25016,0.663834 -0.84853,1.016 -1.40174,0.824994 z m 0.53594,-1.078869 c 0.0541,-0.04583 0.0984,-0.115397 0.13189,-0.207087 0.0484,-0.133075 0.0503,-0.15965 0.0503,-0.73707 0,-0.574648 -0.002,-0.604543 -0.0495,-0.734786 -0.0563,-0.154794 -0.13213,-0.23437 -0.267,-0.280477 -0.17881,-0.06113 -0.37806,0.06204 -0.45624,0.282024 -0.0336,0.09461 -0.0382,0.18308 -0.0382,0.733239 0,0.682769 0.0113,0.761483 0.12974,0.900794 0.12856,0.151275 0.34881,0.170419 0.49901,0.04335 z m -16.24723,-1.001214 c -0.1355,-0.08676 -0.21079,-0.252361 -0.21079,-0.463591 0,-0.1333 0.0104,-0.183486 0.0547,-0.267239 0.1257,-0.236762 0.1665,-0.250411 0.74865,-0.250411 0.4998,0 0.53618,0.0064 0.66209,0.115854 0.0692,0.06023 0.15859,0.287359 0.15859,0.403295 0,0.139804 -0.0914,0.348291 -0.18906,0.430908 l -0.0885,0.07493 -0.52226,0.0072 c -0.50197,0.0071 -0.52577,0.0049 -0.61343,-0.05103 z m 10.18192,-3.100247 c -0.0886,-0.04912 -0.1593,-0.13081 -0.20517,-0.237137 -0.0304,-0.07046 -0.0357,-0.241108 -0.0449,-1.44802 l -0.0104,-1.36816 -0.0866,-0.03271 c -0.19157,-0.07228 -0.30591,-0.260682 -0.30688,-0.505621 -0.001,-0.223426 0.10663,-0.412884 0.27687,-0.487938 0.0874,-0.03852 0.54664,-0.04095 0.6523,-0.0033 0.10356,0.03677 0.20122,0.145969 0.24786,0.277267 0.0358,0.100711 0.0382,0.214046 0.0382,1.771533 0,1.561504 -0.002,1.670497 -0.0384,1.770434 -0.0925,0.25623 -0.3249,0.373466 -0.52281,0.263754 z m 2.3085,0.0016 c -0.22228,-0.06894 -0.39091,-0.192092 -0.56062,-0.409454 -0.18377,-0.235356 -0.27041,-0.417367 -0.33031,-0.69387 -0.0388,-0.179179 -0.0431,-0.272557 -0.0431,-0.931885 0,-0.644926 0.005,-0.754365 0.0403,-0.913033 0.0656,-0.293589 0.14518,-0.467773 0.31373,-0.687307 0.2841,-0.37008 0.64366,-0.526773 1.04307,-0.454568 0.4893,0.08845 0.90713,0.589911 1.00659,1.208054 0.0455,0.282843 0.0469,1.424086 0.002,1.696489 -0.0932,0.566598 -0.46636,1.052334 -0.9114,1.186463 -0.15995,0.04819 -0.40326,0.04781 -0.56032,-0.0012 z m 0.46325,-1.059308 c 0.0504,-0.03409 0.11991,-0.112977 0.15427,-0.175342 l 0.0625,-0.1134 v -0.685545 -0.685529 l -0.0625,-0.115349 c -0.12979,-0.239622 -0.37934,-0.303177 -0.55847,-0.142237 -0.16268,0.146166 -0.1696,0.180453 -0.17704,0.878451 -0.004,0.38884 0.002,0.656156 0.0161,0.724267 0.0652,0.30957 0.34323,0.46438 0.56507,0.314663 z m 2.112,1.068249 c -0.0344,-0.01531 -0.0926,-0.06417 -0.12938,-0.108621 -0.13481,-0.162904 -0.13098,-0.115661 -0.13098,-1.613873 v -1.360405 l -0.0469,-5.49e-4 c -0.08,-0.0012 -0.21581,-0.09592 -0.27202,-0.190112 -0.14429,-0.241833 -0.10005,-0.586315 0.0979,-0.76168 0.081,-0.07179 0.0858,-0.07261 0.42039,-0.07261 h 0.33842 l 0.0892,0.08024 c 0.0491,0.04413 0.10851,0.122001 0.13196,0.173049 0.0415,0.09046 0.0428,0.134782 0.0484,1.751028 0.004,1.102974 -0.002,1.693158 -0.0161,1.762563 -0.0588,0.279259 -0.30894,0.439838 -0.53114,0.341009 z m 1.60365,-0.01849 c -0.10586,-0.06266 -0.19294,-0.180874 -0.21909,-0.297458 -0.0121,-0.054 -0.0204,-0.634548 -0.0204,-1.428982 v -1.33798 l -0.0469,-5.48e-4 c -0.08,-0.0012 -0.21584,-0.09593 -0.27126,-0.189536 -0.14663,-0.247728 -0.10653,-0.581766 0.0908,-0.75663 l 0.0883,-0.07824 h 0.33501 c 0.31635,0 0.33944,0.0033 0.41452,0.06318 0.0437,0.03475 0.10463,0.111738 0.13537,0.171083 l 0.0558,0.107901 0.006,1.660185 c 0.004,1.104347 -0.002,1.695118 -0.0161,1.764529 -0.0624,0.296032 -0.33125,0.453153 -0.55196,0.322529 z"
           id="path1842" />
        <text
           xml:space="preserve"
           style="font-size:6.11432px;line-height:1.25;font-family:sans-serif;letter-spacing:0px;stroke-width:0.152858"
           x="207.20877"
           y="11.482242"
           id="text1701-6-1"
           transform="scale(0.92236066,1.0841746)"><tspan
             sodipodi:role="line"
             id="tspan1699-2-1"
             x="207.20877"
             y="11.482242"
             style="stroke-width:0.152858">BRIO BLOB</tspan></text>
        <text
           xml:space="preserve"
           style="font-size:6.11432px;line-height:1.25;font-family:sans-serif;letter-spacing:0px;stroke-width:0.152858"
           x="211.03773"
           y="48.201328"
           id="text1701-6-1-1"
           transform="scale(0.92236066,1.0841746)"><tspan
             sodipodi:role="line"
             id="tspan1699-2-1-2"
             x="211.03773"
             y="48.201328"
             style="stroke-width:0.152858">DFS SCAN</tspan></text>
        <path
           style="fill:#000000;stroke-width:0.139252"
           d="m 197.96574,17.695088 c -0.48468,0.358502 -0.74894,0.986619 -0.75443,1.793093 -0.004,0.591443 0.0655,0.801989 0.42385,1.284794 l 0.42864,0.577427 8.44497,0.161201 c 9.23869,0.176361 8.69037,0.112866 9.72543,1.126394 1.13912,1.115422 1.50118,3.299508 0.81748,4.931334 -0.3845,0.917727 -1.22526,1.863046 -1.92177,2.160803 -0.37933,0.162164 -1.93102,0.211549 -7.12044,0.226631 l -6.6354,0.01925 -0.82467,0.464699 c -1.51461,0.853491 -2.77569,2.569699 -3.254,4.428414 -0.27021,1.050071 -0.26405,3.179513 0.0123,4.225125 0.67272,2.545936 2.43128,4.441972 4.55031,4.906033 0.53238,0.11659 2.83013,0.201906 6.39898,0.23761 6.15699,0.06159 5.72227,-0.0185 5.71499,1.053436 -0.003,0.382047 0.0939,0.611921 0.38266,0.91191 0.48255,0.501258 0.97663,0.517199 1.67184,0.05399 3.16503,-2.109063 4.06321,-2.756637 4.28023,-3.085958 0.34212,-0.519188 0.33314,-1.303311 -0.0204,-1.786399 -0.15498,-0.211694 -1.31534,-1.097822 -2.5786,-1.969169 -2.04269,-1.408991 -2.34511,-1.573777 -2.73331,-1.489378 -0.5367,0.116688 -0.95721,0.717434 -0.96167,1.373827 -0.007,1.080331 0.30921,1.032212 -6.01316,0.914131 -3.98126,-0.07433 -5.78254,-0.160859 -6.01533,-0.28886 -0.18275,-0.100493 -0.53882,-0.40656 -0.79125,-0.680153 -1.20118,-1.301814 -1.08266,-3.515412 0.25722,-4.804166 l 0.48866,-0.470012 6.52913,-0.02431 c 4.42538,-0.01647 6.70526,-0.08117 7.07576,-0.200757 1.69771,-0.547997 3.32959,-1.995106 4.20605,-3.729819 0.85213,-1.686569 1.18335,-4.386717 0.77191,-6.292983 -0.60947,-2.823852 -2.48595,-5.116091 -4.80185,-5.865773 -0.66952,-0.216722 -1.90652,-0.261589 -9.09756,-0.330006 -7.47026,-0.07126 -8.35689,-0.05392 -8.65643,0.167656 z m 17.6831,1.076452 c 0.98221,0.364841 2.05029,1.205458 2.77466,2.183744 1.08578,1.466369 1.50822,2.821586 1.49482,4.795352 -0.0113,1.657778 -0.28298,2.759919 -0.99959,4.054352 -0.63431,1.14578 -1.30552,1.863189 -2.29661,2.454709 -1.34401,0.802164 -1.73612,0.838565 -8.38079,0.778202 -5.65654,-0.05138 -6.16849,-0.03451 -6.63675,0.219024 -1.25608,0.680019 -1.97481,2.026462 -1.98141,3.7119 -0.005,1.604577 0.61852,2.875454 1.78997,3.640747 l 0.6442,0.420853 5.99403,0.107933 c 3.29675,0.05936 6.12614,0.06912 6.28758,0.02162 0.26137,-0.07686 0.29414,-0.176622 0.29913,-0.910258 0.004,-0.570654 0.0776,-0.930102 0.23987,-1.169324 0.21962,-0.323772 0.25723,-0.330946 0.6011,-0.114605 0.89494,0.563004 3.91049,2.6956 4.11421,2.90955 0.47637,0.50033 0.22314,0.783764 -2.0751,2.322602 -1.22202,0.818238 -2.31804,1.487552 -2.43558,1.487378 -0.3024,-5.79e-4 -0.38582,-0.234275 -0.46229,-1.295818 l -0.0672,-0.93251 -6.31833,-0.144168 c -6.92398,-0.15799 -6.88505,-0.152568 -8.11798,-1.130599 -1.57548,-1.249745 -2.34016,-3.136519 -2.24374,-5.536249 0.0444,-1.104583 0.12227,-1.506636 0.45276,-2.336936 0.64268,-1.614568 1.7432,-2.743734 3.29455,-3.380277 0.23355,-0.09583 2.93984,-0.164484 7.01565,-0.177979 l 6.63541,-0.02197 0.55708,-0.353643 c 0.88205,-0.559932 1.71879,-1.66193 2.04871,-2.698119 0.38336,-1.204129 0.34633,-3.012189 -0.0835,-4.07909 -0.40171,-0.996999 -1.2001,-1.96378 -2.01491,-2.439893 l -0.69238,-0.404579 -8.38225,-0.160582 c -8.11311,-0.155426 -8.38794,-0.170202 -8.55954,-0.460194 -0.0975,-0.164791 -0.17576,-0.524158 -0.1739,-0.798591 0.006,-1.01518 -0.34002,-0.980124 8.79506,-0.888731 7.05407,0.07058 8.32024,0.117046 8.8831,0.326125 z"
           id="path5616" />
      </g>
    </g>
  </g>
</svg>
