<svg id="Layer_1" data-name="Layer 1" xmlns="http://www.w3.org/2000/svg" viewBox="0 0 132.53 33.85"><defs><style>.cls-1{fill:#fff;}.cls-2{fill:#ffb71b;}.cls-3{fill:#ff4d00;}.cls-4{fill:#008aab;}</style></defs><path class="cls-1" d="M60.83,13.73a6,6,0,0,1,1.27.14,3.35,3.35,0,0,1,1.15.46,2.57,2.57,0,0,1,.82.82,2.31,2.31,0,0,1,.32,1.24,2.9,2.9,0,0,1-.72,2A3.66,3.66,0,0,1,61.8,19.5v0a2.66,2.66,0,0,1,1.55.83A2.48,2.48,0,0,1,64,22.13a3.3,3.3,0,0,1-.39,1.63,3.55,3.55,0,0,1-1.07,1.18,5.18,5.18,0,0,1-1.65.71,8.65,8.65,0,0,1-2.1.24H54.4a.4.4,0,0,1-.39-.47l2-11.36a.4.4,0,0,1,.39-.33ZM57.5,21l-.36,2.12a.39.39,0,0,0,.39.46h1.19a4.39,4.39,0,0,0,.91-.09,2.91,2.91,0,0,0,.77-.27,1.47,1.47,0,0,0,.53-.52,1.52,1.52,0,0,0,.2-.79,1.06,1.06,0,0,0-.45-.91,2.18,2.18,0,0,0-1.27-.32H57.89A.39.39,0,0,0,57.5,21Zm.82-4.65L58,18.17a.4.4,0,0,0,.39.46h1.28a3.79,3.79,0,0,0,.65-.07,2.16,2.16,0,0,0,.61-.24,1.41,1.41,0,0,0,.45-.46,1.33,1.33,0,0,0,.18-.72.89.89,0,0,0-.46-.85A2.41,2.41,0,0,0,59.94,16H58.71A.4.4,0,0,0,58.32,16.36Z" transform="translate(0)"/><path class="cls-1" d="M80.89,23.39a4.71,4.71,0,0,1-1.13,1.5,5,5,0,0,1-1.65,1,6.59,6.59,0,0,1-2.22.35,6.77,6.77,0,0,1-2-.27,4.64,4.64,0,0,1-1.51-.75,3.28,3.28,0,0,1-1-1.2,3.52,3.52,0,0,1-.34-1.58,4.63,4.63,0,0,1,0-.51,4.52,4.52,0,0,1,.06-.53l1.28-7.3a.4.4,0,0,1,.39-.33h2a.41.41,0,0,1,.39.47l-1.23,6.9a3.6,3.6,0,0,0,0,.36c0,.13,0,.24,0,.34a2.46,2.46,0,0,0,.11.72,1.7,1.7,0,0,0,.36.61,1.59,1.59,0,0,0,.63.42,2.45,2.45,0,0,0,1,.16,2.77,2.77,0,0,0,1.19-.23,2.45,2.45,0,0,0,.77-.6,2.93,2.93,0,0,0,.46-.83,7.32,7.32,0,0,0,.24-.92L80,14.06a.4.4,0,0,1,.39-.33h2a.4.4,0,0,1,.39.47L81.5,21.42A7.33,7.33,0,0,1,80.89,23.39Z" transform="translate(0)"/><path class="cls-1" d="M98.18,25.89H95.84a.41.41,0,0,1-.37-.24l-1.84-4.41a.38.38,0,0,0-.36-.24H92.7a.38.38,0,0,0-.39.32l-.72,4.24a.39.39,0,0,1-.39.33h-2a.4.4,0,0,1-.39-.47l2-11.36a.39.39,0,0,1,.38-.33h3.83a5.13,5.13,0,0,1,3.13.85A2.81,2.81,0,0,1,99.31,17a3.53,3.53,0,0,1-.8,2.41,3.94,3.94,0,0,1-1.76,1.16.39.39,0,0,0-.23.54l2,4.26A.39.39,0,0,1,98.18,25.89ZM94,18.94a3.56,3.56,0,0,0,1.79-.38,1.29,1.29,0,0,0,.63-1.19,1.06,1.06,0,0,0-.53-1,3.2,3.2,0,0,0-1.43-.27h-.88a.39.39,0,0,0-.39.32l-.38,2.08a.41.41,0,0,0,.39.47Z" transform="translate(0)"/><path class="cls-1" d="M114.13,16.42a.39.39,0,0,1-.54,0A2.45,2.45,0,0,0,113,16a2.69,2.69,0,0,0-1.15-.24,2.85,2.85,0,0,0-.62.08,1.83,1.83,0,0,0-.59.26,1.61,1.61,0,0,0-.45.45,1.22,1.22,0,0,0-.18.67,1,1,0,0,0,.41.82,4.64,4.64,0,0,0,1.12.56,9.34,9.34,0,0,1,1.41.6,4.75,4.75,0,0,1,1,.77,3,3,0,0,1,.65,1,3.17,3.17,0,0,1,.22,1.23,3.67,3.67,0,0,1-.45,1.87,4.07,4.07,0,0,1-1.18,1.26,5.2,5.2,0,0,1-1.61.71,7.27,7.27,0,0,1-1.77.22,7.07,7.07,0,0,1-1.3-.12,6.51,6.51,0,0,1-1.26-.35,4.91,4.91,0,0,1-1.11-.59,3.62,3.62,0,0,1-.59-.5.39.39,0,0,1,0-.58l1.48-1.21a.4.4,0,0,1,.54,0,2.66,2.66,0,0,0,.84.6,3.2,3.2,0,0,0,1.42.35,3.47,3.47,0,0,0,.73-.08,1.86,1.86,0,0,0,.63-.26,1.38,1.38,0,0,0,.44-.46,1.45,1.45,0,0,0,.16-.68,1.18,1.18,0,0,0-.52-1A5.65,5.65,0,0,0,110,20.7a8.18,8.18,0,0,1-1.12-.46,3.35,3.35,0,0,1-.91-.63,2.88,2.88,0,0,1-.62-.91,3,3,0,0,1-.23-1.26,3.54,3.54,0,0,1,.38-1.67,3.81,3.81,0,0,1,1.06-1.27,4.81,4.81,0,0,1,1.56-.81,6.26,6.26,0,0,1,1.91-.28,5.79,5.79,0,0,1,1.08.1,6,6,0,0,1,1,.3,4.92,4.92,0,0,1,.94.49,3.84,3.84,0,0,1,.43.35.39.39,0,0,1,0,.58Z" transform="translate(0)"/><path class="cls-1" d="M128.78,16.51l-1.6,9a.39.39,0,0,1-.39.33h-2a.39.39,0,0,1-.39-.46l1.53-8.78a.39.39,0,0,0-.38-.46h-2.46a.4.4,0,0,1-.39-.47l.3-1.66a.4.4,0,0,1,.39-.33h8.78a.4.4,0,0,1,.39.47l-.29,1.66a.4.4,0,0,1-.39.33h-2.67A.41.41,0,0,0,128.78,16.51Z" transform="translate(0)"/><path class="cls-2" d="M30.09,26.61a22.27,22.27,0,0,0-.48-2.91c0-.07,0-.13,0-.19l-.18-.07h0L20,19.73h4.85l-8.25-3.27-13,0a.11.11,0,0,0,0,.21l1.08.43,2.89,1.14,4.09,1.62,4.72,1.87,4.75,1.89,4.22,1.66,3.07,1.22.59.23h0l.09,0,.28.11h0l.77.3a.66.66,0,0,1,0-.14C30.12,26.91,30.11,26.76,30.09,26.61Z" transform="translate(0)"/><path class="cls-3" d="M22.76,9.66H22L.12,9.68a.11.11,0,0,0,0,.21l16.55,6.56h8.71l-8.44-3.35h8.24c-.51-.81-1-1.61-1.6-2.4Z" transform="translate(0)"/><path class="cls-1" d="M44.82,21.56a8.45,8.45,0,0,0-.61-2.87,7.53,7.53,0,0,0-1-1.76,4.73,4.73,0,0,0,0-.65,7.17,7.17,0,0,0-2-4.83l-.09-.09A6.11,6.11,0,0,0,37,9.62H29.41q.84,1.2,1.65,2.49c.19.31.38.62.56.94h2.55c1.58,0,3.57,0,4.67,1.39l.07.09c.09.13.18.26.26.4a4.06,4.06,0,0,1,.47,1.77,2.67,2.67,0,0,1,0,.63,2.92,2.92,0,0,1-.1.4H37.3l.26.11.58.26.61.27a3.75,3.75,0,0,1,1,.6A3.16,3.16,0,0,1,40.56,20a3.39,3.39,0,0,1,.2.53,3.49,3.49,0,0,1,.16,1A3.77,3.77,0,0,1,39,24.74a4.83,4.83,0,0,1-2.62.61,16.73,16.73,0,0,1,.14,2.52l0,.3c0,.23,0,.46-.06.68a8.59,8.59,0,0,0,4-.55,7.78,7.78,0,0,0,3.18-2.65,6.25,6.25,0,0,0,.43-.7l.06-.13a6.47,6.47,0,0,0,.68-2.32A4.93,4.93,0,0,0,44.82,21.56Z" transform="translate(0)"/><path class="cls-4" d="M32.52,28.15h0Z" transform="translate(0)"/><path class="cls-1" d="M34.84,25.2a.25.25,0,0,0,0-.08c0-.2-.07-.41-.11-.61v0c0-.11,0-.22-.07-.33v-.05a22.71,22.71,0,0,0-.7-2.5l-.33-.91c-.17-.44-.35-.88-.53-1.31l-.39-.87-.12-.26c-.35-.75-.72-1.49-1.1-2.21l0,0-.77-1.44q-.44-.75-.9-1.5l-.26-.42q-.92-1.46-2-2.88l-.09-.13c-.11-.13-.21-.27-.31-.41l0,0a30.17,30.17,0,0,0-8.45-7.9A8,8,0,0,0,14.12,0a3.72,3.72,0,0,0-1.57.56c-2.17,1.5-1.94,4.85-1.46,7.24l.09.44a.15.15,0,0,0,.3,0c0-.07,0-.15,0-.22-.07-.57-.12-1.14-.14-1.71a8.13,8.13,0,0,1,.62-3.66A3.72,3.72,0,0,1,12.31,2a2.42,2.42,0,0,1,1.85-.95,5,5,0,0,1,2.19.48,18.73,18.73,0,0,1,5.82,4.66c.85,1,1.66,2,2.44,3l.27.4c.72,1,1.4,2,2,3.07.07.11.13.23.19.34.59,1,1.13,2,1.63,3.06.14.29.27.59.4.88.37.81.7,1.63,1,2.46q.29.8.54,1.62c.17.55.33,1.11.47,1.67l.13.51c.07.3.14.64.21,1,.14.68.26,1.45.34,2.22,0,.18,0,.35,0,.52s0,.58,0,.89a4.19,4.19,0,0,1-.63,2.62c-1,1.34-3,.51-4.24,0a16.66,16.66,0,0,1-2.12-1.15c-1.37-.88-2.64-1.9-3.95-2.88-.06-.05-.14-.1-.21-.06s-.06.21,0,.3a20.15,20.15,0,0,0,4.38,5,10,10,0,0,0,3.53,2,5,5,0,0,0,3.93-.42,5.29,5.29,0,0,0,2.21-3.41A8.55,8.55,0,0,0,35,28.7c0-.18,0-.36.05-.53v-.29A15.17,15.17,0,0,0,34.84,25.2Zm-2.32,2.95h0Z" transform="translate(0)"/></svg>