<?xml version="1.0" encoding="UTF-8"?>
<svg width="174px" height="46px" viewBox="0 0 174 46" version="1.1" xmlns="http://www.w3.org/2000/svg" xmlns:xlink="http://www.w3.org/1999/xlink">
    <!-- Generator: Sketch 55.2 (78181) - https://sketchapp.com -->
    <title>Shape</title>
    <desc>Created with Sketch.</desc>
    <g id="Page-1" stroke="none" stroke-width="1" fill="none" fill-rule="evenodd">
        <path d="M22.6522438,0 C10.1377514,0 0,10.1418563 0,22.6522438 C0,35.1694728 10.1391197,45.3072242 22.6522438,45.3072242 C35.1653679,45.3072242 45.3072242,35.1681045 45.3072242,22.6522438 C45.3072242,10.1418563 35.1653679,0 22.6522438,0 L22.6522438,0 Z M22.6522438,39.7601268 C13.2068533,39.7601268 5.54983393,32.0990025 5.54983393,22.6522438 C5.54983393,13.2082216 13.2068533,5.54709733 22.6522438,5.54709733 C32.1017391,5.54709733 39.7587585,13.2082216 39.7587585,22.6522438 C39.7587585,32.0990025 32.1017391,39.7601268 22.6522438,39.7601268 L22.6522438,39.7601268 Z M22.6536121,8.23444295 C14.6914613,8.23444295 8.23717955,14.690093 8.23717955,22.6536121 C8.23717955,30.6184995 14.6914613,37.0727812 22.6536121,37.0727812 C30.6184995,37.0727812 37.0727812,30.6184995 37.0727812,22.6536121 C37.0714129,14.690093 30.6184995,8.23444295 22.6536121,8.23444295 L22.6536121,8.23444295 Z M32.3849777,17.6935164 C30.9132634,15.812995 28.7545805,14.5943846 26.3841162,14.3059357 C24.0136519,14.0174869 21.6257193,14.6828445 19.7459698,16.1555447 C19.1157779,16.6518459 18.5544109,17.2297778 18.076641,17.8741323 C19.4627312,17.2310303 21.0499618,16.9012694 22.7877057,16.9710528 C24.4626419,17.0565543 26.1049752,17.4669053 27.6232859,18.1792637 C26.7799068,17.9029113 25.9031592,17.7413688 25.0166701,17.6989896 C21.8353673,17.5662643 19.2615908,19.0741334 17.8686591,21.5083431 C16.9272672,23.3446047 16.025556,26.646318 19.1671779,29.8166744 C22.349849,32.7913635 27.3099446,33.0992315 30.8483743,30.3270511 L31.0413049,30.1614865 C30.6308142,30.6048165 30.1956941,31.0317268 29.7031053,31.4148514 C27.380294,33.2341361 24.4296326,34.0556041 21.5008738,33.6983632 C18.5721149,33.3411224 15.9054306,31.8344682 14.08804,29.5101747 C10.3001315,24.6737429 11.1501276,17.6823337 15.9865594,13.8944252 C20.8229911,10.1065167 27.8144003,10.9565128 31.6023088,15.7929446 C32.5259675,16.965905 33.2022977,18.3139107 33.590452,19.7555479 C33.2817559,19.0178334 32.8763821,18.3244187 32.3849777,17.6935164 L32.3849777,17.6935164 Z M90.6494598,31.8187275 L85.7935174,31.8187275 C84.2605042,31.8187275 82.9207683,31.695078 81.7743097,31.4609844 C80.6314526,31.2244898 79.6806723,30.8535414 78.9315726,30.3361345 C78.1942235,29.8484605 77.6108804,29.1610234 77.2496999,28.3541417 C76.8835534,27.5390156 76.7034814,26.5534214 76.7034814,25.3973589 L76.7034814,11.937575 L83.0564226,11.937575 L83.0564226,24.942377 C83.0564226,25.3421369 83.1056423,25.6794718 83.2028812,25.9519808 C83.2977191,26.2268908 83.4693878,26.4441777 83.7118848,26.6062425 C83.9531813,26.7671068 84.2881152,26.8787515 84.7178872,26.9435774 C85.1416567,27.0120048 85.6722689,27.0420168 86.302521,27.0420168 L90.6506603,27.0420168 L90.6494598,31.8187275 Z M160.877551,31.8811525 L160.877551,24.7815126 C159.763505,24.5546218 158.845138,24.2292917 158.09964,23.8163265 C157.356543,23.3985594 156.756303,22.9327731 156.296519,22.422569 C155.860173,21.9346345 155.523334,21.3661684 155.304922,20.7490996 C155.109808,20.2016188 155.006771,19.6255881 155,19.0444178 L155,12 L162.048019,12 L162.048019,18.5894358 C162.048019,19.1368547 162.217287,19.6002401 162.557023,19.967587 C162.896759,20.3361345 163.452581,20.5198079 164.235294,20.5198079 C165.020408,20.5198079 165.57623,20.3361345 165.915966,19.967587 C166.255702,19.6002401 166.420168,19.1368547 166.420168,18.5894358 L166.420168,12 L173.472989,12 L173.472989,19.0444178 C173.472989,20.3493397 173.02521,21.5198079 172.134454,22.5486194 C171.246098,23.5822329 169.841537,24.3265306 167.920768,24.7803121 L167.920768,31.879952 L160.877551,31.879952 L160.877551,31.8811525 Z M121.605042,31.8187275 L115.743097,31.8187275 L115.743097,11.9411765 L122.877551,11.9411765 C124.286915,11.9411765 125.42617,12.0132053 126.296519,12.1440576 C127.103293,12.2819626 127.886801,12.5320871 128.62425,12.8871549 C129.180072,13.15006 129.684274,13.4705882 130.134454,13.8487395 C130.597839,14.2376951 130.978391,14.6686675 131.288115,15.1464586 C131.59904,15.6194478 131.82473,16.1128451 131.962785,16.6302521 C132.112845,17.1764706 132.190876,17.7358944 132.190876,18.3181273 C132.190876,19.2484994 132.002401,20.0792317 131.630252,20.8103241 C131.262905,21.5090036 130.657863,22.1848739 129.810324,22.8331333 C130.732293,23.4681873 131.384154,24.1560624 131.768307,24.9015606 C132.157263,25.6614646 132.351741,26.6110444 132.351741,27.757503 L132.351741,31.8187275 L126.504202,31.8187275 L126.504202,27.8139256 C126.492197,26.7923169 126.243697,26.062425 125.747899,25.6182473 C125.248499,25.1884754 124.435774,24.9771909 123.326531,24.9771909 L122.583433,24.9771909 L122.583433,21.0888355 L123.228091,21.0888355 C124.22449,21.0888355 124.989196,20.9027611 125.52581,20.5330132 C126.05042,20.1752701 126.309724,19.6422569 126.309724,18.9315726 C126.309724,18.5054022 126.205282,18.1236495 125.991597,17.7839136 C125.77551,17.4585834 125.462185,17.2172869 125.043217,17.0528211 C124.557963,16.8816973 124.046312,16.7975735 123.531813,16.8043217 L121.605042,16.8043217 L121.605042,31.819928 L121.605042,31.8187275 Z M105.501801,11.9339736 L105.501801,27.0432173 L102.935174,27.0432173 C102.403122,27.0503405 101.871318,27.0162248 101.344538,26.9411765 C100.921969,26.8751501 100.587035,26.7611044 100.344538,26.6014406 C100.104975,26.4482584 99.9243057,26.2185081 99.8319328,25.9495798 C99.7271943,25.6236066 99.6784847,25.2822339 99.6878752,24.939976 L99.6878752,11.9339736 L93.3337335,11.9339736 L93.3337335,25.394958 C93.3337335,26.5498199 93.517407,27.5330132 93.8811525,28.3505402 C94.2406162,29.15742 94.8228265,29.8449946 95.5594238,30.332533 C96.3121248,30.847539 97.2641056,31.2208884 98.4057623,31.457383 C99.5522209,31.6926771 100.888355,31.8139256 102.42497,31.8139256 L105.5006,31.8139256 L105.5006,31.8187275 L111.804322,31.8187275 L111.804322,11.9339736 L105.501801,11.9339736 Z M63.6770708,17.090036 C63.9927971,16.8379352 64.5798319,16.7094838 65.4321729,16.7094838 L70.394958,16.7094838 L70.394958,16.7070828 L72.9591837,16.7070828 L72.9591837,11.9435774 L70.394958,11.9435774 L70.394958,11.937575 L64.4093637,11.937575 C63.2412965,11.937575 62.1920768,12.0960384 61.270108,12.4081633 C60.3445378,12.7214886 59.5534214,13.1464586 58.8979592,13.6854742 C58.2569985,14.2046625 57.7384734,14.8588649 57.3793517,15.6014406 C57.0234385,16.3574292 56.8417031,17.1836486 56.8474028,18.0192077 L56.8474028,31.817527 L63.2040816,31.817527 L63.2040816,24.755102 L72.9159664,24.755102 L72.9159664,20.1188475 L63.2040816,20.1188475 L63.2040816,18.2436975 C63.2028812,17.7310924 63.3601441,17.3481393 63.6770708,17.090036 L63.6770708,17.090036 Z M141.684274,31.8187275 L135.819928,31.8187275 L135.819928,11.9411765 L142.954382,11.9411765 C144.364946,11.9411765 145.505402,12.0132053 146.373349,12.1440576 C147.179781,12.2817945 147.962915,12.5319288 148.69988,12.8871549 C149.243376,13.1405529 149.75147,13.463812 150.211285,13.8487395 C150.67467,14.2376951 151.056423,14.6686675 151.366146,15.1464586 C151.678271,15.6194478 151.902761,16.1128451 152.040816,16.6302521 C152.190876,17.1764706 152.266507,17.7358944 152.266507,18.3181273 C152.266507,19.2484994 152.079232,20.0792317 151.704682,20.8103241 C151.337335,21.5090036 150.732293,22.1848739 149.890756,22.8331333 C150.810324,23.4681873 151.462185,24.1560624 151.848739,24.9015606 C152.232893,25.6614646 152.42497,26.6110444 152.42497,27.757503 L152.42497,31.8187275 L146.584634,31.8187275 L146.584634,27.8139256 C146.570228,26.7923169 146.319328,26.062425 145.822329,25.6182473 C145.320528,25.1884754 144.512605,24.9771909 143.40096,24.9771909 L142.661465,24.9771909 L142.661465,21.0888355 L143.302521,21.0888355 C144.30012,21.0888355 145.067227,20.9027611 145.60024,20.5330132 C146.12485,20.1752701 146.386555,19.6422569 146.386555,18.9315726 C146.386555,18.5054022 146.280912,18.1236495 146.069628,17.7839136 C145.85114,17.4585834 145.537815,17.2172869 145.120048,17.0528211 C144.634452,16.8814106 144.122356,16.7972805 143.607443,16.8043217 L141.681873,16.8043217 L141.681873,31.8187275 L141.684274,31.8187275 Z" id="Shape" fill="#006CB7" fill-rule="nonzero"></path>
    </g>
</svg>