<?xml version="1.0" encoding="UTF-8"?>
<svg id="Layer_1" data-name="Layer 1" xmlns="http://www.w3.org/2000/svg" viewBox="0 0 456.17 323.37">
  <defs>
    <style>
      .cls-1 {
        fill: #008aab;
      }

      .cls-2 {
        fill: #fff;
      }
    </style>
  </defs>
  <g>
    <path class="cls-1" d="M44.2,44.24c.4,.6,.6,1.29,.6,2.09,0,1.29-.48,2.28-1.44,2.98-.96,.7-2.25,1.05-3.88,1.05h-7.11l1.11-14.21h6.67c1.56,0,2.75,.33,3.58,1,.83,.66,1.24,1.53,1.24,2.59,0,.78-.2,1.44-.6,1.98-.4,.54-1.02,.98-1.85,1.3,.73,.21,1.29,.62,1.69,1.22Zm-3.33,2.97c.34-.23,.51-.62,.51-1.19,0-.5-.16-.87-.47-1.12-.32-.25-.82-.37-1.5-.37h-2.96l-.24,3.02h2.96c.79,0,1.36-.11,1.7-.34Zm.04-5.79c.33-.21,.49-.57,.49-1.1,0-.46-.15-.8-.45-1.03-.3-.23-.79-.34-1.46-.34h-2.6l-.22,2.78h2.58c.78,0,1.33-.1,1.66-.31Z"/>
    <path class="cls-1" d="M56.9,40.44l-.79,9.91h-3.49l.1-1.13c-.35,.4-.79,.72-1.33,.95-.54,.23-1.12,.34-1.75,.34-1.07,0-1.89-.31-2.46-.92-.56-.61-.85-1.5-.85-2.67,0-.15,.01-.38,.04-.71l.44-5.78h3.59l-.44,5.58-.02,.3c0,.47,.11,.83,.32,1.08,.21,.25,.53,.37,.95,.37,.5,0,.89-.17,1.17-.51,.28-.34,.44-.8,.48-1.38l.44-5.44h3.59Z"/>
    <path class="cls-1" d="M66.49,40.16l-.04,2.96-2.18,.22c-.75,.08-1.27,.27-1.55,.56-.28,.3-.46,.79-.52,1.47l-.38,4.98h-3.59l.79-9.89h3.43l-.12,1.27c.75-.91,1.88-1.42,3.39-1.53l.79-.04Z"/>
    <path class="cls-1" d="M68.24,50.22c-.77-.19-1.52-.49-2.28-.9l1.11-2.44c.55,.35,1.16,.63,1.83,.84,.67,.21,1.32,.31,1.93,.31,.42,0,.72-.05,.92-.16,.19-.11,.29-.24,.29-.4,0-.21-.13-.38-.4-.5-.27-.12-.71-.27-1.31-.44-.71-.19-1.31-.38-1.79-.58-.48-.2-.9-.5-1.26-.9-.36-.4-.53-.92-.53-1.56s.19-1.22,.56-1.71c.38-.5,.91-.88,1.59-1.16,.69-.27,1.47-.41,2.36-.41,.77,0,1.52,.1,2.27,.31,.75,.21,1.38,.5,1.9,.88l-1.09,2.34c-.5-.34-1.02-.59-1.56-.78-.54-.18-1.08-.27-1.6-.27-.43,0-.75,.05-.97,.15-.21,.1-.32,.24-.32,.41,0,.21,.14,.39,.41,.52,.27,.13,.72,.28,1.32,.44,.73,.2,1.33,.4,1.8,.6,.48,.2,.89,.5,1.25,.9,.36,.4,.53,.92,.53,1.56,0,1.02-.4,1.82-1.2,2.39-.8,.57-1.88,.86-3.25,.86-.91,0-1.75-.1-2.52-.29Z"/>
    <path class="cls-1" d="M81.12,46.34l-.02,.28c0,.87,.48,1.31,1.43,1.31,.23,0,.54-.02,.93-.06l-.38,2.54c-.42,.07-.82,.1-1.21,.1-2.9,0-4.35-1.2-4.35-3.61,0-.25,0-.45,.02-.58l.26-3.24h-1.85l.2-2.64h1.85l.22-2.88h3.59l-.22,2.88h2.38l-.2,2.64h-2.38l-.26,3.26Z"/>
    <path class="cls-1" d="M101.82,37.29c.85,.76,1.28,1.8,1.28,3.11,0,1.54-.45,2.73-1.35,3.57-.9,.83-2.2,1.25-3.89,1.25h-3.24l-.4,5.14h-3.71l1.13-14.21h6.63c1.52,0,2.7,.38,3.56,1.14Zm-2.17,3.31c0-.56-.16-.98-.47-1.25-.32-.27-.8-.4-1.44-.4h-2.62l-.28,3.49h2.66c1.44,0,2.16-.61,2.16-1.83Z"/>
    <path class="cls-1" d="M111.96,40.16l-.04,2.96-2.18,.22c-.75,.08-1.27,.27-1.55,.56-.28,.3-.46,.79-.52,1.47l-.38,4.98h-3.59l.79-9.89h3.43l-.12,1.27c.75-.91,1.88-1.42,3.39-1.53l.79-.04Z"/>
    <path class="cls-1" d="M120.26,41.45c.81,.83,1.22,2.02,1.22,3.57,0,.35-.02,.71-.06,1.07h-6.11c.16,1.21,.89,1.81,2.2,1.81,.95,0,1.88-.31,2.78-.93l.73,2.36c-.44,.38-1,.67-1.66,.88-.67,.21-1.37,.31-2.11,.31-1.06,0-2-.2-2.81-.6-.81-.4-1.44-.97-1.89-1.7-.45-.73-.67-1.59-.67-2.57,0-1.05,.22-1.98,.67-2.81s1.06-1.47,1.83-1.93,1.64-.7,2.59-.7c1.38,0,2.48,.42,3.29,1.25Zm-4.31,1.58c-.29,.28-.49,.73-.59,1.36h3.2c-.04-1.18-.53-1.77-1.47-1.77-.47,0-.85,.14-1.14,.41Z"/>
    <path class="cls-1" d="M124.4,50.22c-.77-.19-1.52-.49-2.28-.9l1.11-2.44c.55,.35,1.16,.63,1.83,.84s1.32,.31,1.93,.31c.42,0,.72-.05,.92-.16,.19-.11,.29-.24,.29-.4,0-.21-.13-.38-.4-.5-.27-.12-.71-.27-1.31-.44-.71-.19-1.31-.38-1.79-.58-.48-.2-.9-.5-1.26-.9-.36-.4-.53-.92-.53-1.56s.19-1.22,.56-1.71c.38-.5,.91-.88,1.59-1.16,.69-.27,1.47-.41,2.36-.41,.77,0,1.52,.1,2.27,.31,.75,.21,1.38,.5,1.9,.88l-1.09,2.34c-.5-.34-1.02-.59-1.56-.78-.54-.18-1.08-.27-1.6-.27-.43,0-.75,.05-.97,.15-.22,.1-.32,.24-.32,.41,0,.21,.14,.39,.41,.52s.72,.28,1.32,.44c.73,.2,1.33,.4,1.8,.6,.48,.2,.89,.5,1.25,.9,.36,.4,.53,.92,.53,1.56,0,1.02-.4,1.82-1.2,2.39-.8,.57-1.88,.86-3.25,.86-.91,0-1.75-.1-2.52-.29Z"/>
    <path class="cls-1" d="M134.27,50.22c-.77-.19-1.52-.49-2.28-.9l1.11-2.44c.55,.35,1.16,.63,1.83,.84s1.32,.31,1.93,.31c.42,0,.72-.05,.92-.16,.19-.11,.29-.24,.29-.4,0-.21-.13-.38-.4-.5-.27-.12-.71-.27-1.31-.44-.71-.19-1.31-.38-1.79-.58-.48-.2-.9-.5-1.26-.9-.36-.4-.53-.92-.53-1.56s.19-1.22,.56-1.71c.38-.5,.91-.88,1.59-1.16,.69-.27,1.47-.41,2.36-.41,.77,0,1.52,.1,2.27,.31,.75,.21,1.38,.5,1.9,.88l-1.09,2.34c-.5-.34-1.02-.59-1.56-.78-.54-.18-1.08-.27-1.6-.27-.43,0-.75,.05-.97,.15-.22,.1-.32,.24-.32,.41,0,.21,.14,.39,.41,.52s.72,.28,1.32,.44c.73,.2,1.33,.4,1.8,.6,.48,.2,.89,.5,1.25,.9,.36,.4,.53,.92,.53,1.56,0,1.02-.4,1.82-1.2,2.39-.8,.57-1.88,.86-3.25,.86-.91,0-1.75-.1-2.52-.29Z"/>
    <path class="cls-1" d="M143.26,40.44h3.59l-.79,9.91h-3.59l.79-9.91Zm4.05-4.96l-.26,3.24h-3.73l.24-3.24h3.75Z"/>
    <path class="cls-1" d="M157.95,41.14c.56,.62,.85,1.54,.85,2.75,0,.3,0,.52-.02,.69l-.46,5.78h-3.59l.46-5.66c.04-.56-.05-1-.27-1.3s-.57-.45-1.04-.45c-.52,0-.93,.17-1.22,.51-.29,.34-.45,.8-.49,1.38l-.44,5.52h-3.59l.79-9.91h3.49l-.08,1.05c.35-.4,.79-.72,1.33-.95,.54-.23,1.14-.34,1.79-.34,1.1,0,1.93,.31,2.5,.94Z"/>
    <path class="cls-1" d="M171.67,40.44l-.67,8.56c-.15,1.79-.72,3.09-1.72,3.91-1,.82-2.41,1.23-4.24,1.23-.95,0-1.85-.1-2.7-.31-.85-.21-1.6-.5-2.26-.88l1.11-2.44c1.37,.67,2.69,1.01,3.97,1.01,.7,0,1.24-.16,1.62-.49s.6-.87,.66-1.62l.04-.48c-.7,.77-1.69,1.15-2.96,1.15-.83,0-1.57-.19-2.22-.56s-1.15-.91-1.5-1.59c-.36-.69-.53-1.48-.53-2.4,0-.99,.2-1.9,.6-2.71,.4-.81,.97-1.45,1.7-1.91,.73-.46,1.57-.7,2.51-.7,1.28,0,2.27,.44,2.98,1.33l.08-1.09h3.53Zm-4.42,6.31c.37-.43,.55-1,.55-1.71s-.17-1.29-.5-1.65c-.34-.36-.82-.54-1.45-.54s-1.13,.22-1.49,.67c-.36,.44-.54,1.05-.54,1.83,0,.64,.17,1.15,.52,1.51,.35,.36,.83,.54,1.43,.54s1.11-.21,1.48-.65Z"/>
  </g>
  <g>
    <path class="cls-1" d="M38.45,93.58c.2,.3,.3,.64,.3,1.04,0,.64-.24,1.13-.71,1.48s-1.12,.52-1.92,.52h-3.53l.55-7.05h3.31c.77,0,1.37,.17,1.78,.5s.62,.76,.62,1.29c0,.39-.1,.71-.3,.98-.2,.27-.51,.49-.92,.65,.36,.11,.64,.31,.84,.6Zm-1.66,1.48c.17-.11,.25-.31,.25-.59,0-.25-.08-.43-.24-.55-.16-.12-.4-.18-.74-.18h-1.47l-.12,1.5h1.47c.39,0,.67-.06,.84-.17Zm.02-2.88c.16-.1,.25-.29,.25-.55,0-.23-.07-.4-.22-.51s-.39-.17-.72-.17h-1.29l-.11,1.38h1.28c.39,0,.66-.05,.82-.15Z"/>
    <path class="cls-1" d="M45.88,96.61h-1.99l-1.11-2.25c-.13-.26-.36-.39-.69-.39h-.55l-.2,2.64h-1.81l.55-7.05h3.43c.74,0,1.32,.19,1.73,.56,.41,.38,.62,.88,.62,1.5s-.15,1.13-.45,1.5c-.3,.37-.76,.6-1.38,.71,.19,.05,.35,.14,.48,.27,.13,.13,.25,.29,.36,.5l1.01,2Zm-2.74-4.02c.33,0,.58-.07,.75-.22s.25-.36,.25-.63-.07-.46-.21-.59-.36-.2-.67-.2h-1.49l-.12,1.64h1.49Z"/>
    <path class="cls-1" d="M47.15,89.56h1.84l-.55,7.05h-1.84l.55-7.05Z"/>
    <path class="cls-1" d="M51.45,96.29c-.53-.28-.93-.67-1.21-1.18s-.42-1.12-.42-1.81c0-.76,.15-1.43,.44-2.02,.29-.58,.71-1.03,1.25-1.35,.54-.32,1.17-.48,1.88-.48s1.32,.14,1.85,.42c.53,.28,.93,.67,1.21,1.19s.42,1.12,.42,1.81c0,.76-.15,1.43-.44,2.01-.3,.58-.71,1.03-1.25,1.35s-1.16,.48-1.87,.48-1.32-.14-1.85-.42Zm3.11-1.64c.31-.43,.47-1.02,.47-1.78,0-.63-.14-1.12-.43-1.47-.29-.35-.69-.52-1.2-.52-.55,0-.98,.22-1.29,.65s-.47,1.02-.47,1.78c0,.64,.14,1.13,.42,1.47s.69,.51,1.21,.51,.97-.21,1.28-.64Z"/>
    <path class="cls-1" d="M61.65,96.5c-.51-.14-.96-.33-1.33-.56l.68-1.3c.71,.44,1.48,.66,2.31,.66,.38,0,.67-.05,.87-.15,.2-.1,.3-.25,.3-.44,0-.21-.11-.37-.33-.48-.22-.12-.56-.24-1.02-.38-.49-.15-.9-.29-1.21-.43-.31-.14-.58-.35-.81-.62-.23-.28-.34-.63-.34-1.08s.12-.84,.38-1.18,.61-.6,1.07-.79c.46-.18,1-.27,1.61-.27,.51,0,1,.07,1.47,.21,.47,.14,.84,.33,1.12,.56l-.66,1.3c-.29-.21-.61-.37-.96-.48-.35-.12-.69-.18-1.03-.18-.36,0-.64,.06-.85,.18-.21,.12-.32,.28-.32,.48s.11,.38,.33,.49,.56,.24,1.04,.38c.49,.15,.88,.29,1.2,.42,.31,.14,.58,.34,.8,.61s.34,.62,.34,1.05c0,.71-.27,1.25-.8,1.63-.53,.38-1.29,.58-2.27,.58-.54,0-1.07-.07-1.58-.21Z"/>
    <path class="cls-1" d="M68.88,96.29c-.52-.28-.91-.67-1.19-1.18s-.42-1.11-.42-1.8c0-.77,.16-1.44,.47-2.02s.75-1.03,1.33-1.34,1.23-.47,1.99-.47c.47,0,.92,.07,1.33,.2,.42,.13,.79,.32,1.1,.57l-.67,1.31c-.29-.21-.56-.37-.83-.47-.27-.1-.55-.15-.84-.15-.64,0-1.13,.21-1.48,.63s-.52,1-.52,1.74c0,.63,.14,1.11,.41,1.44s.68,.5,1.21,.5,1.13-.2,1.82-.61l.47,1.3c-.24,.23-.58,.42-1,.56-.43,.14-.88,.21-1.33,.21-.71,0-1.32-.14-1.84-.42Z"/>
    <path class="cls-1" d="M80.99,89.56l-.56,7.05h-1.8l.23-2.85h-2.87l-.23,2.85h-1.8l.56-7.05h1.8l-.22,2.74h2.87l.22-2.74h1.8Z"/>
    <path class="cls-1" d="M83.96,90.98l-.11,1.34h3.02l-.11,1.41h-3.02l-.12,1.46h3.23l-.12,1.42h-5.01l.56-7.05h5.02l-.12,1.42h-3.22Z"/>
    <path class="cls-1" d="M95.36,89.56l-.56,7.05h-1.6l.3-3.7-1.56,2.53h-1.18l-1.16-2.41-.29,3.58h-1.6l.56-7.05h1.45l1.77,3.94,2.45-3.94h1.42Z"/>
    <path class="cls-1" d="M101,95.15h-3.13l-.74,1.46h-1.88l3.84-7.05h1.46l2.75,7.05h-1.78l-.52-1.46Zm-.48-1.38l-.81-2.26-1.14,2.26h1.95Z"/>
  </g>
  <g>
    <g>
      <path class="cls-1" d="M83.37,112.19h-28.56c-.11,.29-.24,.57-.4,.84,.13,.71,.13,1.45-.02,2.16h28.97c3.71,0,6.73,3.02,6.73,6.73v46.75c0,3.71-3.02,6.73-6.73,6.73h-30.86c-3.71,0-6.73-3.02-6.73-6.73v-44.65c-.21,.02-.43,.04-.66,.04-.76,0-1.42-.15-2-.39-.11,.15-.22,.29-.35,.43v44.57c0,5.36,4.36,9.73,9.73,9.73h30.86c5.36,0,9.73-4.36,9.73-9.73v-46.75c0-5.36-4.36-9.73-9.73-9.73Z"/>
      <path class="cls-1" d="M55.19,127.37h-9.63c-1.12,0-2.13-.67-2.56-1.71-.43-1.04-.19-2.22,.6-3.02l9.63-9.63c.79-.79,1.98-1.03,3.02-.6,1.04,.43,1.71,1.43,1.71,2.56v9.63c0,1.53-1.24,2.77-2.77,2.77Zm-9.08-3h8.85v-8.85l-8.85,8.85Z"/>
    </g>
    <g>
      <rect class="cls-1" x="52.76" y="133.05" width="30.37" height="2"/>
      <rect class="cls-1" x="52.76" y="141.7" width="30.37" height="2"/>
      <rect class="cls-1" x="52.76" y="150.36" width="30.37" height="2"/>
      <rect class="cls-1" x="52.76" y="159.01" width="30.37" height="2"/>
    </g>
  </g>
  <g>
    <rect class="cls-1" x="106.18" y="143.8" width="12.83" height="3"/>
    <polygon class="cls-1" points="116.04 149.66 132.3 145.3 116.04 140.94 116.04 149.66"/>
  </g>
  <g>
    <rect class="cls-1" x="282.85" y="143.8" width="12.83" height="3"/>
    <polygon class="cls-1" points="292.71 149.66 308.97 145.3 292.71 140.94 292.71 149.66"/>
  </g>
  <g>
    <g>
      <circle class="cls-2" cx="208.26" cy="138.98" r="63.64"/>
      <path class="cls-1" d="M208.3,203.12h-.04c-.32,0-.64,0-.96,0v-1c.33,0,.65,0,.96,0l.04,1Zm3.02-.07l-.05-1c.33-.02,.66-.03,.99-.05l.06,1c-.33,.02-.67,.04-1.01,.06Zm-7.05-.05c-.34-.02-.67-.04-1-.07l.08-1c.33,.03,.66,.05,.99,.07l-.06,1Zm11.06-.26l-.11-.99c.33-.04,.66-.07,.98-.12l.12,.99c-.33,.04-.67,.08-1,.12Zm-15.07-.11c-.33-.04-.67-.08-1-.13l.14-.99c.33,.05,.65,.09,.98,.13l-.12,.99Zm19.06-.46l-.17-.99c.33-.06,.65-.12,.98-.18l.19,.98c-.33,.06-.66,.12-.99,.18Zm-23.04-.16c-.33-.06-.66-.13-.99-.19l.2-.98c.32,.07,.65,.13,.97,.19l-.19,.98Zm26.98-.65l-.23-.97c.32-.08,.64-.16,.96-.24l.25,.97c-.32,.08-.65,.16-.98,.24Zm-30.92-.22c-.33-.08-.65-.17-.97-.26l.26-.96c.32,.09,.64,.17,.96,.25l-.25,.97Zm34.8-.84l-.29-.96c.32-.1,.63-.2,.95-.3l.31,.95c-.32,.1-.64,.21-.96,.3Zm-38.67-.28c-.32-.1-.64-.21-.96-.32l.32-.95c.31,.11,.63,.21,.94,.31l-.31,.95Zm42.48-1.03l-.35-.93c.31-.12,.62-.24,.92-.36l.37,.93c-.31,.12-.62,.25-.94,.36Zm-46.28-.34c-.31-.12-.63-.25-.94-.38l.38-.92c.31,.13,.61,.25,.92,.37l-.37,.93Zm50-1.21l-.41-.91c.3-.14,.6-.27,.9-.41l.43,.9c-.3,.14-.61,.28-.91,.42Zm-53.7-.4c-.3-.14-.61-.29-.91-.44l.44-.9c.3,.15,.6,.29,.9,.43l-.43,.91Zm57.31-1.38l-.47-.88c.29-.15,.58-.31,.87-.47l.48,.88c-.29,.16-.59,.32-.88,.48Zm-60.9-.46c-.29-.16-.59-.33-.88-.49l.5-.87c.29,.16,.58,.33,.87,.49l-.48,.88Zm64.39-1.54l-.52-.85c.28-.17,.56-.35,.84-.52l.54,.84c-.28,.18-.57,.36-.85,.53Zm-67.86-.52c-.28-.18-.57-.36-.85-.55l.55-.84c.28,.18,.55,.36,.83,.54l-.54,.84Zm71.22-1.7l-.58-.82c.27-.19,.54-.38,.8-.58l.59,.81c-.27,.2-.54,.39-.82,.58Zm-74.56-.57c-.27-.2-.54-.4-.81-.6l.6-.8c.26,.2,.53,.4,.8,.59l-.59,.81Zm77.77-1.85l-.62-.78c.26-.21,.51-.42,.77-.63l.64,.77c-.26,.21-.52,.43-.78,.64Zm-80.96-.62c-.26-.21-.52-.43-.77-.65l.65-.76c.25,.22,.5,.43,.76,.64l-.64,.77Zm84.02-1.99l-.67-.74c.24-.22,.49-.45,.73-.67l.68,.73c-.24,.23-.49,.46-.74,.68Zm-87.04-.67c-.24-.23-.49-.46-.73-.7l.7-.72c.24,.23,.48,.46,.72,.68l-.68,.73Zm89.93-2.13l-.72-.7c.23-.24,.46-.48,.68-.72l.73,.68c-.23,.24-.46,.49-.7,.73Zm-92.78-.72c-.23-.24-.46-.49-.68-.74l.74-.67c.22,.24,.45,.49,.67,.73l-.73,.68Zm95.49-2.26l-.76-.65c.21-.25,.43-.5,.64-.76l.77,.64c-.21,.26-.43,.52-.65,.77Zm-98.16-.76c-.21-.26-.43-.52-.64-.78l.78-.63c.21,.26,.42,.51,.63,.77l-.77,.64Zm100.68-2.38l-.8-.6c.2-.26,.4-.53,.59-.8l.81,.59c-.2,.27-.4,.54-.6,.81Zm-103.15-.79c-.2-.27-.39-.54-.59-.82l.82-.58c.19,.27,.38,.54,.58,.8l-.81,.59Zm105.47-2.5l-.83-.55c.18-.28,.36-.55,.54-.83l.84,.54c-.18,.28-.36,.57-.55,.85Zm-107.74-.82c-.18-.28-.36-.57-.53-.85l.85-.52c.17,.28,.35,.56,.52,.84l-.84,.54Zm109.85-2.62l-.87-.5c.16-.29,.33-.58,.49-.87l.88,.48c-.16,.29-.33,.59-.49,.88Zm-111.9-.84c-.16-.29-.32-.59-.48-.88l.88-.47c.15,.29,.31,.58,.47,.87l-.88,.48Zm113.79-2.72l-.9-.44c.15-.3,.29-.6,.43-.9l.9,.43c-.14,.3-.29,.61-.44,.91Zm-115.62-.86c-.14-.3-.28-.61-.42-.91l.91-.41c.14,.3,.27,.6,.42,.9l-.9,.43Zm117.29-2.82l-.92-.38c.13-.31,.25-.61,.37-.92l.93,.37c-.12,.31-.25,.63-.38,.94Zm-118.89-.87c-.12-.31-.25-.62-.36-.94l.93-.36c.12,.31,.24,.62,.36,.92l-.93,.37Zm120.32-2.91l-.95-.32c.11-.31,.21-.63,.31-.94l.95,.31c-.1,.32-.21,.64-.32,.96Zm-121.69-.88c-.1-.32-.21-.64-.3-.96l.96-.3c.1,.32,.2,.63,.3,.95l-.95,.31Zm122.87-2.98l-.96-.26c.09-.32,.17-.64,.25-.96l.97,.25c-.08,.33-.17,.65-.26,.98Zm-124-.89c-.08-.32-.16-.65-.24-.98l.97-.23c.08,.32,.16,.64,.24,.96l-.97,.25Zm124.93-3.03l-.98-.2c.07-.32,.13-.65,.19-.97l.98,.19c-.06,.33-.13,.66-.2,.99Zm-125.81-.9c-.06-.33-.12-.66-.18-.99l.99-.17c.06,.33,.12,.65,.18,.97l-.98,.19Zm126.5-3.07l-.99-.14c.05-.33,.09-.65,.13-.98l.99,.12c-.04,.33-.09,.67-.13,1Zm-127.13-.91c-.04-.33-.08-.67-.12-1l.99-.11c.04,.33,.08,.66,.12,.98l-.99,.12Zm127.57-3.09l-1-.08c.03-.33,.05-.66,.07-.99l1,.06c-.02,.34-.04,.67-.07,1.01Zm-127.95-.92c-.02-.33-.04-.67-.06-1.01l1-.05c.02,.33,.03,.66,.05,.99l-1,.06Zm128.13-3.11l-1-.02c0-.33,0-.66,0-.99v-.17s1,0,1,0v.17c0,.34,0,.68,0,1.01Zm-127.94-.95l-.32-.05c0-.32,0-.62,0-.93h1c0,.32,0,.62,0,.92l-.68,.06Zm126.87-3.2c-.02-.33-.03-.66-.06-.99l1-.06c.02,.33,.04,.67,.06,1.01l-1,.05Zm-126.08-.73l-1-.06c.02-.34,.04-.67,.07-1.01l1,.08c-.03,.33-.05,.66-.07,.99Zm125.76-3.22c-.04-.33-.08-.66-.12-.98l.99-.13c.04,.33,.08,.67,.12,1l-.99,.11Zm-125.4-.73l-.99-.12c.04-.33,.08-.67,.13-1l.99,.14c-.05,.33-.09,.65-.13,.98Zm124.83-3.2c-.06-.33-.12-.65-.18-.97l.98-.19c.06,.33,.12,.66,.18,.99l-.99,.17Zm-124.22-.72l-.98-.18c.06-.33,.13-.66,.19-.99l.98,.2c-.07,.32-.13,.65-.19,.97Zm123.41-3.16c-.08-.32-.16-.64-.24-.96l.97-.25c.08,.33,.17,.65,.24,.98l-.97,.23Zm-122.56-.71l-.97-.25c.08-.33,.17-.65,.26-.98l.96,.26c-.09,.32-.17,.64-.25,.96Zm121.5-3.11c-.1-.32-.2-.63-.3-.95l.95-.31c.1,.32,.21,.64,.31,.96l-.96,.3Zm-120.41-.7l-.95-.31c.1-.32,.21-.64,.32-.96l.95,.32c-.11,.31-.21,.63-.31,.95Zm119.11-3.05c-.12-.31-.24-.62-.36-.92l.93-.37c.12,.31,.25,.62,.37,.94l-.93,.36Zm-117.77-.69l-.93-.37c.12-.31,.25-.63,.38-.94l.92,.38c-.13,.31-.25,.61-.37,.92Zm116.25-2.96c-.14-.3-.28-.6-.42-.9l.9-.43c.14,.3,.28,.61,.42,.91l-.91,.42Zm-114.67-.69l-.91-.43c.14-.3,.29-.61,.44-.91l.9,.44c-.15,.3-.29,.6-.43,.9Zm112.92-2.86c-.15-.29-.31-.58-.47-.87l.88-.48c.16,.29,.32,.59,.48,.88l-.88,.47Zm-111.12-.68l-.88-.48c.16-.29,.33-.59,.49-.88l.87,.5c-.16,.29-.33,.58-.48,.87Zm109.15-2.75c-.17-.28-.35-.56-.53-.84l.84-.54c.18,.28,.36,.57,.53,.85l-.85,.53Zm-107.13-.67l-.84-.54c.18-.28,.36-.57,.55-.85l.84,.55c-.18,.28-.36,.55-.54,.83Zm104.94-2.64c-.19-.27-.38-.54-.58-.8l.81-.59c.2,.27,.39,.54,.59,.82l-.82,.58Zm-102.71-.65l-.81-.59c.2-.27,.4-.54,.6-.81l.8,.6c-.2,.26-.4,.53-.59,.8Zm100.32-2.51c-.21-.26-.42-.51-.63-.77l.77-.64c.21,.26,.43,.52,.64,.78l-.78,.63Zm-97.9-.62l-.77-.64c.21-.26,.43-.52,.65-.77l.76,.65c-.21,.25-.43,.51-.64,.76Zm95.31-2.39c-.22-.24-.45-.49-.67-.73l.73-.69c.23,.24,.46,.49,.68,.74l-.74,.67Zm-92.69-.59l-.73-.68c.23-.25,.46-.49,.7-.73l.72,.7c-.23,.24-.46,.48-.68,.72Zm89.93-2.25c-.24-.23-.48-.46-.72-.68l.68-.73c.25,.23,.49,.46,.73,.69l-.7,.72Zm-87.13-.56l-.69-.73c.24-.23,.49-.46,.74-.68l.67,.74c-.24,.22-.49,.45-.73,.67Zm84.19-2.11c-.25-.21-.51-.43-.76-.64l.64-.77c.26,.21,.52,.43,.77,.65l-.65,.76Zm-81.22-.52l-.64-.77c.26-.21,.52-.43,.78-.64l.63,.78c-.26,.21-.51,.42-.77,.63Zm78.12-1.96c-.26-.2-.53-.39-.8-.59l.59-.81c.27,.2,.54,.4,.81,.6l-.6,.8Zm-75-.48l-.59-.81c.27-.2,.54-.39,.82-.59l.58,.82c-.27,.19-.54,.38-.8,.58Zm71.75-1.8c-.28-.18-.56-.36-.84-.54l.54-.84c.28,.18,.57,.36,.85,.55l-.55,.84Zm-68.48-.43l-.54-.84c.28-.18,.57-.36,.85-.53l.52,.85c-.28,.17-.56,.35-.84,.53Zm65.09-1.64c-.29-.16-.58-.33-.87-.48l.48-.88c.3,.16,.59,.33,.88,.49l-.5,.87Zm-61.69-.38l-.48-.88c.29-.16,.59-.32,.88-.48l.47,.88c-.29,.15-.58,.31-.87,.47Zm58.17-1.47c-.3-.15-.6-.29-.9-.43l.42-.91c.31,.14,.61,.29,.91,.44l-.44,.9Zm-54.65-.33l-.43-.9c.3-.14,.61-.28,.91-.42l.41,.91c-.3,.14-.6,.27-.9,.42Zm51.03-1.3c-.31-.13-.61-.25-.92-.37l.37-.93c.31,.12,.63,.25,.94,.38l-.38,.92Zm-47.41-.28l-.37-.93c.31-.12,.62-.25,.94-.37l.36,.93c-.31,.12-.62,.24-.92,.36Zm43.68-1.12c-.31-.11-.63-.21-.94-.31l.31-.95c.32,.1,.64,.21,.96,.32l-.32,.95Zm-39.96-.23l-.31-.95c.32-.1,.64-.21,.96-.31l.29,.96c-.32,.1-.63,.2-.94,.3Zm36.16-.92c-.32-.09-.64-.17-.96-.25l.25-.97c.33,.08,.65,.17,.97,.26l-.26,.96Zm-32.36-.19l-.25-.97c.32-.08,.65-.16,.98-.24l.24,.97c-.32,.08-.64,.16-.96,.24Zm28.5-.73c-.32-.07-.65-.13-.97-.19l.18-.98c.33,.06,.66,.13,.99,.19l-.2,.98Zm-24.63-.14l-.19-.98c.33-.06,.66-.12,.99-.18l.17,.98c-.33,.06-.65,.12-.98,.18Zm20.72-.53c-.33-.05-.65-.09-.98-.13l.12-.99c.33,.04,.67,.08,1,.13l-.14,.99Zm-16.81-.1l-.13-.99c.33-.04,.67-.08,1-.12l.11,.99c-.33,.04-.66,.08-.98,.12Zm12.86-.33c-.33-.03-.66-.05-.99-.07l.06-1c.34,.02,.67,.04,1.01,.07l-.08,1Zm-8.92-.05l-.06-1c.33-.02,.67-.04,1.01-.06l.05,1c-.33,.02-.66,.03-.99,.06Zm4.96-.12c-.29,0-.57,0-.86,0h-.13v-1h.13c.29,0,.58,0,.88,0v1Z"/>
    </g>
    <g>
      <g>
        <path class="cls-1" d="M192.7,90.96l-.12,1.47h3.32l-.12,1.55h-3.32l-.13,1.61h3.55l-.13,1.56h-5.51l.62-7.75h5.52l-.13,1.56h-3.54Z"/>
        <path class="cls-1" d="M204.33,89.4l-.62,7.75h-1.51l-3.16-4.36-.36,4.36h-1.88l.62-7.75h1.47l3.19,4.38,.35-4.38h1.89Z"/>
        <path class="cls-1" d="M207.36,91.04h-2.33l.13-1.64h6.69l-.13,1.64h-2.32l-.47,6.12h-2.05l.48-6.12Z"/>
        <path class="cls-1" d="M212.68,89.4h2.02l-.6,7.75h-2.02l.6-7.75Z"/>
        <path class="cls-1" d="M217.74,91.04h-2.33l.13-1.64h6.69l-.13,1.64h-2.32l-.47,6.12h-2.05l.48-6.12Z"/>
        <path class="cls-1" d="M226.87,93.7l-.27,3.45h-2.02l.27-3.46-2.93-4.29h2.24l1.79,2.68,2.2-2.68h2.32l-3.61,4.3Z"/>
      </g>
      <g>
        <g>
          <path class="cls-1" d="M227.81,128.26h-34.63c-1.71,0-3.11-1.39-3.11-3.11v-16.74c0-1.71,1.39-3.11,3.11-3.11h34.63c1.71,0,3.11,1.39,3.11,3.11v16.74c0,1.71-1.39,3.11-3.11,3.11Zm-34.63-21.85c-1.1,0-2,.9-2,2v16.74c0,1.1,.9,2,2,2h34.63c1.1,0,2-.9,2-2v-16.74c0-1.1-.9-2-2-2h-34.63Z"/>
          <path class="cls-1" d="M227.81,129.26h-34.63c-2.27,0-4.11-1.84-4.11-4.11v-16.74c0-2.27,1.84-4.11,4.11-4.11h34.63c2.27,0,4.11,1.84,4.11,4.11v16.74c0,2.26-1.84,4.11-4.11,4.11Zm-34.63-21.85c-.55,0-1,.45-1,1v16.74c0,.55,.45,1,1,1h34.63c.55,0,1-.45,1-1v-16.74c0-.55-.45-1-1-1h-34.63Z"/>
        </g>
        <g>
          <rect class="cls-1" x="210.8" y="127.64" width="1.11" height="6.1"/>
          <rect class="cls-1" x="209.8" y="126.64" width="3.11" height="8.1"/>
        </g>
        <g>
          <rect class="cls-1" x="190.9" y="133.21" width="41.4" height="1.11"/>
          <rect class="cls-1" x="189.9" y="132.21" width="43.4" height="3.11"/>
        </g>
        <g>
          <g>
            <rect class="cls-1" x="190.83" y="133.24" width="1.11" height="6.23"/>
            <rect class="cls-1" x="189.83" y="132.24" width="3.11" height="8.23"/>
          </g>
          <g>
            <path class="cls-1" d="M203.59,154.63h-24.91c-1.51,0-2.74-1.23-2.74-2.74v-9.73c0-1.51,1.23-2.74,2.74-2.74h24.91c1.51,0,2.74,1.23,2.74,2.74v9.73c0,1.51-1.23,2.74-2.74,2.74Zm-24.91-14.1c-.9,0-1.63,.73-1.63,1.63v9.73c0,.9,.73,1.63,1.63,1.63h24.91c.9,0,1.63-.73,1.63-1.63v-9.73c0-.9-.73-1.63-1.63-1.63h-24.91Z"/>
            <path class="cls-1" d="M203.59,155h-24.91c-1.72,0-3.12-1.4-3.12-3.12v-9.73c0-1.72,1.4-3.12,3.12-3.12h24.91c1.72,0,3.12,1.4,3.12,3.12v9.73c0,1.72-1.4,3.12-3.12,3.12Zm-24.91-15.22c-1.31,0-2.37,1.06-2.37,2.37v9.73c0,1.31,1.06,2.37,2.37,2.37h24.91c1.31,0,2.37-1.06,2.37-2.37v-9.73c0-1.31-1.06-2.37-2.37-2.37h-24.91Zm24.91,14.1h-24.91c-1.11,0-2.01-.9-2.01-2.01v-9.73c0-1.11,.9-2.01,2.01-2.01h24.91c1.11,0,2.01,.9,2.01,2.01v9.73c0,1.11-.9,2.01-2.01,2.01Zm-24.91-12.99c-.69,0-1.26,.56-1.26,1.26v9.73c0,.69,.56,1.26,1.26,1.26h24.91c.69,0,1.26-.56,1.26-1.26v-9.73c0-.69-.56-1.26-1.26-1.26h-24.91Z"/>
          </g>
          <g>
            <rect class="cls-1" x="190.6" y="154.07" width="1.11" height="3.69"/>
            <path class="cls-1" d="M191.96,158.02h-1.61v-4.19h1.61v4.19Zm-1.11-.5h.61v-3.19h-.61v3.19Z"/>
          </g>
          <g>
            <rect class="cls-1" x="180.15" y="157.21" width="22.32" height="1.11"/>
            <path class="cls-1" d="M202.73,158.57h-22.82v-1.61h22.82v1.61Zm-22.32-.5h21.82v-.61h-21.82v.61Z"/>
          </g>
          <g>
            <g>
              <path class="cls-1" d="M186.99,169.25h-12.82c-1.11,0-2.02-.9-2.02-2.02v-4.66c0-1.11,.9-2.02,2.02-2.02h12.82c1.11,0,2.02,.9,2.02,2.02v4.66c0,1.11-.9,2.02-2.02,2.02Zm-12.82-7.58c-.5,0-.91,.41-.91,.91v4.66c0,.5,.41,.91,.91,.91h12.82c.5,0,.91-.41,.91-.91v-4.66c0-.5-.41-.91-.91-.91h-12.82Z"/>
              <path class="cls-1" d="M186.99,169.5h-12.82c-1.25,0-2.27-1.02-2.27-2.27v-4.66c0-1.25,1.02-2.27,2.27-2.27h12.82c1.25,0,2.27,1.02,2.27,2.27v4.66c0,1.25-1.02,2.27-2.27,2.27Zm-12.82-8.69c-.97,0-1.77,.79-1.77,1.77v4.66c0,.97,.79,1.77,1.77,1.77h12.82c.97,0,1.77-.79,1.77-1.77v-4.66c0-.97-.79-1.77-1.77-1.77h-12.82Zm12.82,7.58h-12.82c-.64,0-1.16-.52-1.16-1.16v-4.66c0-.64,.52-1.16,1.16-1.16h12.82c.64,0,1.16,.52,1.16,1.16v4.66c0,.64-.52,1.16-1.16,1.16Zm-12.82-6.47c-.36,0-.66,.29-.66,.66v4.66c0,.36,.29,.66,.66,.66h12.82c.36,0,.66-.29,.66-.66v-4.66c0-.36-.29-.66-.66-.66h-12.82Z"/>
            </g>
            <g>
              <rect class="cls-1" x="180.16" y="157.77" width="1.11" height="3.35"/>
              <path class="cls-1" d="M181.53,161.36h-1.61v-3.85h1.61v3.85Zm-1.11-.5h.61v-2.85h-.61v2.85Z"/>
            </g>
          </g>
          <g>
            <rect class="cls-1" x="201.36" y="157.77" width="1.11" height="3.35"/>
            <path class="cls-1" d="M202.73,161.36h-1.61v-3.85h1.61v3.85Zm-1.11-.5h.61v-2.85h-.61v2.85Z"/>
          </g>
          <g>
            <path class="cls-1" d="M208.47,169.25h-12.82c-1.11,0-2.02-.9-2.02-2.02v-4.66c0-1.11,.9-2.02,2.02-2.02h12.82c1.11,0,2.02,.9,2.02,2.02v4.66c0,1.11-.9,2.02-2.02,2.02Zm-12.82-7.58c-.5,0-.91,.41-.91,.91v4.66c0,.5,.41,.91,.91,.91h12.82c.5,0,.91-.41,.91-.91v-4.66c0-.5-.41-.91-.91-.91h-12.82Z"/>
            <path class="cls-1" d="M208.47,169.5h-12.82c-1.25,0-2.27-1.02-2.27-2.27v-4.66c0-1.25,1.02-2.27,2.27-2.27h12.82c1.25,0,2.27,1.02,2.27,2.27v4.66c0,1.25-1.02,2.27-2.27,2.27Zm-12.82-8.69c-.97,0-1.77,.79-1.77,1.77v4.66c0,.97,.79,1.77,1.77,1.77h12.82c.98,0,1.77-.79,1.77-1.77v-4.66c0-.97-.79-1.77-1.77-1.77h-12.82Zm12.82,7.58h-12.82c-.64,0-1.16-.52-1.16-1.16v-4.66c0-.64,.52-1.16,1.16-1.16h12.82c.64,0,1.16,.52,1.16,1.16v4.66c0,.64-.52,1.16-1.16,1.16Zm-12.82-6.47c-.36,0-.66,.29-.66,.66v4.66c0,.36,.29,.66,.66,.66h12.82c.36,0,.66-.29,.66-.66v-4.66c0-.36-.29-.66-.66-.66h-12.82Z"/>
          </g>
        </g>
        <rect class="cls-1" x="180.15" y="168.69" width="1.11" height="3.35"/>
        <rect class="cls-1" x="174.57" y="171.49" width="12.46" height="1.11"/>
        <g>
          <rect class="cls-1" x="174.52" y="172.05" width="1.11" height="2.92"/>
          <g>
            <rect class="cls-2" x="170.76" y="174.96" width="8.49" height="4.09" rx="1.86" ry="1.86"/>
            <path class="cls-1" d="M178.23,179.61h-6.45c-.87,0-1.58-.71-1.58-1.58v-2.05c0-.87,.71-1.58,1.58-1.58h6.45c.87,0,1.58,.71,1.58,1.58v2.05c0,.87-.71,1.58-1.58,1.58Zm-6.45-4.09c-.26,0-.46,.21-.46,.46v2.05c0,.26,.21,.46,.46,.46h6.45c.26,0,.46-.21,.46-.46v-2.05c0-.26-.21-.46-.46-.46h-6.45Z"/>
          </g>
        </g>
        <g>
          <rect class="cls-1" x="185.95" y="172.35" width="1.11" height="2.61"/>
          <g>
            <rect class="cls-2" x="182.19" y="174.96" width="8.49" height="4.09" rx="1.86" ry="1.86"/>
            <path class="cls-1" d="M189.66,179.61h-6.45c-.87,0-1.58-.71-1.58-1.58v-2.05c0-.87,.71-1.58,1.58-1.58h6.45c.87,0,1.58,.71,1.58,1.58v2.05c0,.87-.71,1.58-1.58,1.58Zm-6.45-4.09c-.26,0-.47,.21-.47,.47v2.05c0,.26,.21,.47,.47,.47h6.45c.26,0,.47-.21,.47-.47v-2.05c0-.26-.21-.47-.47-.47h-6.45Z"/>
          </g>
        </g>
      </g>
    </g>
    <g>
      <g>
        <rect class="cls-1" x="231.31" y="133.43" width="1.11" height="6.23"/>
        <rect class="cls-1" x="230.31" y="132.43" width="3.11" height="8.23"/>
      </g>
      <g>
        <path class="cls-1" d="M244.07,154.82h-24.91c-1.51,0-2.74-1.23-2.74-2.74v-9.73c0-1.51,1.23-2.74,2.74-2.74h24.91c1.51,0,2.74,1.23,2.74,2.74v9.73c0,1.51-1.23,2.74-2.74,2.74Zm-24.91-14.1c-.9,0-1.63,.73-1.63,1.63v9.73c0,.9,.73,1.63,1.63,1.63h24.91c.9,0,1.63-.73,1.63-1.63v-9.73c0-.9-.73-1.63-1.63-1.63h-24.91Z"/>
        <path class="cls-1" d="M244.07,155.19h-24.91c-1.72,0-3.12-1.4-3.12-3.12v-9.73c0-1.72,1.4-3.12,3.12-3.12h24.91c1.72,0,3.12,1.4,3.12,3.12v9.73c0,1.72-1.4,3.12-3.12,3.12Zm-24.91-15.22c-1.31,0-2.37,1.06-2.37,2.37v9.73c0,1.31,1.06,2.37,2.37,2.37h24.91c1.31,0,2.37-1.06,2.37-2.37v-9.73c0-1.31-1.06-2.37-2.37-2.37h-24.91Zm24.91,14.1h-24.91c-1.11,0-2.01-.9-2.01-2.01v-9.73c0-1.11,.9-2.01,2.01-2.01h24.91c1.11,0,2.01,.9,2.01,2.01v9.73c0,1.11-.9,2.01-2.01,2.01Zm-24.91-12.99c-.69,0-1.26,.56-1.26,1.26v9.73c0,.69,.56,1.26,1.26,1.26h24.91c.69,0,1.26-.56,1.26-1.26v-9.73c0-.69-.56-1.26-1.26-1.26h-24.91Z"/>
      </g>
      <g>
        <rect class="cls-1" x="231.08" y="154.26" width="1.11" height="3.69"/>
        <path class="cls-1" d="M232.44,158.21h-1.61v-4.19h1.61v4.19Zm-1.11-.5h.61v-3.19h-.61v3.19Z"/>
      </g>
      <g>
        <rect class="cls-1" x="220.63" y="157.4" width="22.32" height="1.11"/>
        <path class="cls-1" d="M243.2,158.76h-22.82v-1.61h22.82v1.61Zm-22.32-.5h21.82v-.61h-21.82v.61Z"/>
      </g>
      <g>
        <g>
          <path class="cls-1" d="M227.47,169.44h-12.82c-1.11,0-2.02-.9-2.02-2.02v-4.66c0-1.11,.9-2.02,2.02-2.02h12.82c1.11,0,2.02,.9,2.02,2.02v4.66c0,1.11-.9,2.02-2.02,2.02Zm-12.82-7.58c-.5,0-.91,.41-.91,.91v4.66c0,.5,.41,.91,.91,.91h12.82c.5,0,.91-.41,.91-.91v-4.66c0-.5-.41-.91-.91-.91h-12.82Z"/>
          <path class="cls-1" d="M227.47,169.69h-12.82c-1.25,0-2.27-1.02-2.27-2.27v-4.66c0-1.25,1.02-2.27,2.27-2.27h12.82c1.25,0,2.27,1.02,2.27,2.27v4.66c0,1.25-1.02,2.27-2.27,2.27Zm-12.82-8.69c-.97,0-1.77,.79-1.77,1.77v4.66c0,.97,.79,1.77,1.77,1.77h12.82c.97,0,1.77-.79,1.77-1.77v-4.66c0-.97-.79-1.77-1.77-1.77h-12.82Zm12.82,7.58h-12.82c-.64,0-1.16-.52-1.16-1.16v-4.66c0-.64,.52-1.16,1.16-1.16h12.82c.64,0,1.16,.52,1.16,1.16v4.66c0,.64-.52,1.16-1.16,1.16Zm-12.82-6.47c-.36,0-.66,.29-.66,.66v4.66c0,.36,.29,.66,.66,.66h12.82c.36,0,.66-.29,.66-.66v-4.66c0-.36-.29-.66-.66-.66h-12.82Z"/>
        </g>
        <g>
          <rect class="cls-1" x="220.64" y="157.96" width="1.11" height="3.35"/>
          <path class="cls-1" d="M222,161.56h-1.61v-3.85h1.61v3.85Zm-1.11-.5h.61v-2.85h-.61v2.85Z"/>
        </g>
      </g>
      <g>
        <rect class="cls-1" x="241.84" y="157.96" width="1.11" height="3.35"/>
        <path class="cls-1" d="M243.2,161.56h-1.61v-3.85h1.61v3.85Zm-1.11-.5h.61v-2.85h-.61v2.85Z"/>
      </g>
      <g>
        <path class="cls-1" d="M248.95,169.44h-12.82c-1.11,0-2.02-.9-2.02-2.02v-4.66c0-1.11,.9-2.02,2.02-2.02h12.82c1.11,0,2.02,.9,2.02,2.02v4.66c0,1.11-.9,2.02-2.02,2.02Zm-12.82-7.58c-.5,0-.91,.41-.91,.91v4.66c0,.5,.41,.91,.91,.91h12.82c.5,0,.91-.41,.91-.91v-4.66c0-.5-.41-.91-.91-.91h-12.82Z"/>
        <path class="cls-1" d="M248.95,169.69h-12.82c-1.25,0-2.27-1.02-2.27-2.27v-4.66c0-1.25,1.02-2.27,2.27-2.27h12.82c1.25,0,2.27,1.02,2.27,2.27v4.66c0,1.25-1.02,2.27-2.27,2.27Zm-12.82-8.69c-.97,0-1.77,.79-1.77,1.77v4.66c0,.97,.79,1.77,1.77,1.77h12.82c.97,0,1.77-.79,1.77-1.77v-4.66c0-.97-.79-1.77-1.77-1.77h-12.82Zm12.82,7.58h-12.82c-.64,0-1.16-.52-1.16-1.16v-4.66c0-.64,.52-1.16,1.16-1.16h12.82c.64,0,1.16,.52,1.16,1.16v4.66c0,.64-.52,1.16-1.16,1.16Zm-12.82-6.47c-.36,0-.66,.29-.66,.66v4.66c0,.36,.29,.66,.66,.66h12.82c.36,0,.66-.29,.66-.66v-4.66c0-.36-.29-.66-.66-.66h-12.82Z"/>
      </g>
    </g>
  </g>
  <g>
    <path class="cls-1" d="M197.52,251.27l-.18,2.33h3.9l-.1,1.21h-3.91l-.19,2.47h4.15l-.1,1.22h-5.66l.67-8.46h5.65l-.1,1.22h-4.14Z"/>
    <path class="cls-1" d="M207.65,253.03c.34,.36,.51,.88,.51,1.58,0,.15,0,.27-.01,.35l-.29,3.55h-1.5l.29-3.49c.06-.89-.29-1.33-1.06-1.33-.44,0-.78,.13-1.03,.4-.25,.26-.39,.63-.43,1.1l-.26,3.32h-1.5l.46-5.87h1.46l-.06,.77c.2-.29,.47-.51,.8-.67s.71-.24,1.13-.24c.66,0,1.15,.18,1.49,.53Z"/>
    <path class="cls-1" d="M211.48,256.27s-.01,.12-.01,.2c0,.66,.34,1,1.02,1,.19,0,.37-.02,.54-.05l-.16,1.12c-.22,.03-.44,.05-.64,.05-.74,0-1.31-.17-1.69-.5-.38-.34-.58-.83-.58-1.49,0-.14,0-.24,.01-.31l.19-2.52h-1.12l.08-1.13h1.13l.13-1.75h1.5l-.13,1.75h1.55l-.1,1.13h-1.55l-.19,2.51Z"/>
    <path class="cls-1" d="M214.27,252.64h1.5l-.46,5.87h-1.5l.46-5.87Zm1.79-2.72l-.11,1.48h-1.66l.11-1.48h1.66Z"/>
    <path class="cls-1" d="M218.95,256.27s-.01,.12-.01,.2c0,.66,.34,1,1.02,1,.19,0,.37-.02,.54-.05l-.16,1.12c-.22,.03-.44,.05-.64,.05-.74,0-1.31-.17-1.69-.5-.38-.34-.58-.83-.58-1.49,0-.14,0-.24,.01-.31l.19-2.52h-1.12l.08-1.13h1.13l.13-1.75h1.5l-.13,1.75h1.55l-.1,1.13h-1.55l-.19,2.51Z"/>
    <path class="cls-1" d="M221.75,252.64h1.5l-.46,5.87h-1.5l.46-5.87Zm1.79-2.72l-.11,1.48h-1.66l.11-1.48h1.66Z"/>
    <path class="cls-1" d="M229.06,253.2c.46,.47,.68,1.15,.68,2.05,0,.18-.01,.38-.04,.6h-4.01c.02,.53,.17,.93,.44,1.2s.66,.41,1.18,.41c.66,0,1.25-.2,1.79-.61l.35,1.02c-.25,.22-.58,.4-.98,.54-.41,.14-.82,.2-1.25,.2-.6,0-1.12-.12-1.57-.35-.45-.24-.79-.57-1.04-1-.24-.43-.37-.94-.37-1.51,0-.63,.13-1.19,.38-1.69s.6-.87,1.05-1.15c.45-.27,.96-.41,1.52-.41,.78,0,1.4,.23,1.86,.7Zm-2.81,.73c-.26,.25-.42,.62-.5,1.12h2.74c0-.5-.1-.87-.32-1.12-.22-.25-.52-.37-.91-.37-.42,0-.75,.12-1.01,.37Z"/>
    <path class="cls-1" d="M230.38,257.86l.5-1.04c.66,.46,1.37,.68,2.11,.68s1.09-.21,1.09-.62c0-.2-.1-.35-.3-.46-.2-.11-.51-.22-.94-.34-.42-.11-.76-.23-1.03-.34-.27-.12-.5-.29-.69-.51-.19-.22-.29-.52-.29-.88s.1-.69,.31-.97,.5-.49,.88-.65c.38-.16,.81-.23,1.3-.23,.43,0,.85,.07,1.26,.2,.41,.13,.75,.31,1.02,.53l-.5,1.02c-.58-.44-1.18-.66-1.8-.66-.35,0-.62,.06-.81,.17-.19,.12-.28,.28-.28,.49s.1,.35,.3,.46c.2,.11,.51,.22,.94,.34,.42,.12,.77,.24,1.03,.35,.26,.12,.49,.29,.68,.51,.19,.22,.29,.52,.29,.88,0,.57-.23,1.01-.68,1.33-.45,.32-1.06,.48-1.82,.48-.95,0-1.81-.25-2.58-.74Z"/>
    <path class="cls-1" d="M244.46,253.03c.38,.36,.56,.89,.56,1.61,0,.16,0,.28-.01,.37l-.28,3.49h-1.43l.07-.84c-.17,.3-.4,.54-.68,.7-.29,.16-.61,.24-.97,.24-.39,0-.74-.07-1.05-.22s-.55-.35-.72-.61c-.17-.26-.26-.55-.26-.88,0-.45,.11-.81,.34-1.07s.59-.46,1.1-.59c.5-.12,1.18-.19,2.02-.19h.43v-.23c.04-.4-.03-.7-.2-.89s-.47-.29-.89-.29c-.3,0-.61,.05-.95,.16-.34,.11-.67,.26-.99,.45l-.34-1.03c.31-.22,.7-.39,1.16-.52s.92-.2,1.37-.2c.77,0,1.34,.18,1.72,.53Zm-1.4,4.1c.26-.26,.41-.61,.44-1.03l.02-.26h-.34c-.53,0-.94,.03-1.23,.09s-.5,.15-.62,.28c-.12,.13-.18,.3-.18,.53,0,.24,.09,.43,.26,.58s.4,.22,.69,.22c.38,0,.69-.13,.95-.4Z"/>
    <path class="cls-1" d="M250.51,252.48v1.26l-.95,.1c-.52,.05-.9,.19-1.13,.43-.24,.24-.37,.59-.41,1.07l-.25,3.17h-1.5l.46-5.86h1.44l-.07,.85c.42-.59,1.1-.92,2.04-1l.38-.02Z"/>
    <path class="cls-1" d="M255.45,253.2c.46,.47,.68,1.15,.68,2.05,0,.18-.01,.38-.04,.6h-4.01c.02,.53,.17,.93,.44,1.2s.66,.41,1.18,.41c.66,0,1.25-.2,1.79-.61l.35,1.02c-.25,.22-.58,.4-.98,.54-.41,.14-.82,.2-1.25,.2-.6,0-1.12-.12-1.57-.35-.45-.24-.79-.57-1.04-1-.24-.43-.37-.94-.37-1.51,0-.63,.13-1.19,.38-1.69s.6-.87,1.05-1.15c.45-.27,.96-.41,1.52-.41,.78,0,1.4,.23,1.86,.7Zm-2.81,.73c-.26,.25-.42,.62-.5,1.12h2.74c0-.5-.1-.87-.32-1.12-.22-.25-.52-.37-.91-.37-.42,0-.75,.12-1.01,.37Z"/>
    <path class="cls-1" d="M260.03,257.86l.5-1.04c.66,.46,1.37,.68,2.11,.68s1.09-.21,1.09-.62c0-.2-.1-.35-.3-.46-.2-.11-.51-.22-.94-.34-.42-.11-.76-.23-1.03-.34-.27-.12-.5-.29-.69-.51-.19-.22-.29-.52-.29-.88s.1-.69,.31-.97,.5-.49,.88-.65c.38-.16,.81-.23,1.3-.23,.43,0,.85,.07,1.26,.2,.41,.13,.75,.31,1.02,.53l-.5,1.02c-.58-.44-1.18-.66-1.8-.66-.35,0-.62,.06-.81,.17-.19,.12-.28,.28-.28,.49s.1,.35,.3,.46c.2,.11,.51,.22,.94,.34,.42,.12,.77,.24,1.03,.35,.26,.12,.49,.29,.68,.51,.19,.22,.29,.52,.29,.88,0,.57-.23,1.01-.68,1.33-.45,.32-1.06,.48-1.82,.48-.95,0-1.81-.25-2.58-.74Z"/>
    <path class="cls-1" d="M267.47,258.25c-.44-.24-.79-.57-1.03-1-.24-.43-.36-.93-.36-1.5,0-.66,.13-1.24,.39-1.73,.26-.49,.63-.86,1.11-1.13,.48-.26,1.04-.4,1.68-.4,.91,0,1.66,.24,2.23,.73l-.5,1.06c-.54-.41-1.09-.61-1.67-.61-.54,0-.95,.18-1.25,.54-.3,.36-.44,.86-.44,1.51,0,.54,.13,.96,.4,1.26s.64,.44,1.12,.44c.3,0,.58-.05,.84-.15,.26-.1,.53-.25,.8-.46l.34,1.04c-.26,.23-.58,.41-.95,.55-.37,.13-.75,.2-1.15,.2-.6,0-1.12-.12-1.57-.35Z"/>
    <path class="cls-1" d="M277.32,253.03c.34,.36,.51,.88,.51,1.58,0,.15,0,.27-.01,.35l-.29,3.55h-1.5l.29-3.49c.06-.89-.29-1.33-1.06-1.33-.44,0-.78,.13-1.03,.4-.25,.26-.39,.63-.43,1.1l-.26,3.32h-1.5l.66-8.46h1.5l-.26,3.31c.21-.28,.48-.49,.8-.64s.69-.22,1.09-.22c.66,0,1.15,.18,1.49,.53Z"/>
    <path class="cls-1" d="M283.77,253.2c.46,.47,.68,1.15,.68,2.05,0,.18-.01,.38-.04,.6h-4.01c.02,.53,.17,.93,.44,1.2s.66,.41,1.18,.41c.66,0,1.25-.2,1.79-.61l.35,1.02c-.25,.22-.58,.4-.98,.54-.41,.14-.82,.2-1.25,.2-.6,0-1.12-.12-1.57-.35-.45-.24-.79-.57-1.04-1-.24-.43-.37-.94-.37-1.51,0-.63,.13-1.19,.38-1.69s.6-.87,1.05-1.15c.45-.27,.96-.41,1.52-.41,.78,0,1.4,.23,1.86,.7Zm-2.81,.73c-.26,.25-.42,.62-.5,1.12h2.74c0-.5-.1-.87-.32-1.12-.22-.25-.52-.37-.91-.37-.42,0-.75,.12-1.01,.37Z"/>
    <path class="cls-1" d="M294.2,253.02c.32,.35,.47,.87,.47,1.56,0,.15,0,.27-.01,.36l-.28,3.56h-1.5l.28-3.52c0-.06,.01-.14,.01-.24,0-.71-.31-1.07-.92-1.07-.4,0-.71,.13-.94,.4-.23,.26-.36,.66-.39,1.18l-.26,3.25h-1.5l.29-3.5c.03-.45-.03-.78-.17-1-.15-.22-.39-.32-.74-.32-.82,0-1.26,.52-1.34,1.57l-.25,3.25h-1.5l.46-5.86h1.46l-.06,.72c.43-.58,1.03-.88,1.8-.88,.42,0,.78,.09,1.07,.26,.29,.18,.5,.43,.64,.77,.22-.34,.51-.59,.85-.77,.34-.18,.73-.26,1.15-.26,.62,0,1.08,.18,1.4,.53Z"/>
    <path class="cls-1" d="M300.59,253.03c.38,.36,.56,.89,.56,1.61,0,.16,0,.28-.01,.37l-.28,3.49h-1.43l.07-.84c-.17,.3-.4,.54-.68,.7-.29,.16-.61,.24-.97,.24-.39,0-.74-.07-1.05-.22s-.55-.35-.72-.61c-.17-.26-.26-.55-.26-.88,0-.45,.11-.81,.34-1.07s.59-.46,1.1-.59c.5-.12,1.18-.19,2.02-.19h.43v-.23c.04-.4-.03-.7-.2-.89s-.47-.29-.89-.29c-.3,0-.61,.05-.95,.16-.34,.11-.67,.26-.99,.45l-.34-1.03c.31-.22,.7-.39,1.16-.52s.92-.2,1.37-.2c.77,0,1.34,.18,1.72,.53Zm-1.4,4.1c.26-.26,.41-.61,.44-1.03l.02-.26h-.34c-.53,0-.94,.03-1.23,.09s-.5,.15-.62,.28c-.12,.13-.18,.3-.18,.53,0,.24,.09,.43,.26,.58s.4,.22,.69,.22c.38,0,.69-.13,.95-.4Z"/>
    <path class="cls-1" d="M302.72,254.7h3.58l-.1,1.19h-3.58l.1-1.19Z"/>
    <path class="cls-1" d="M314.1,250.05l-.67,8.46h-1.49l.06-.79c-.19,.28-.45,.5-.76,.65-.32,.16-.67,.23-1.05,.23-.5,0-.93-.11-1.31-.34s-.67-.56-.88-.98c-.21-.43-.31-.93-.31-1.51,0-.64,.12-1.21,.35-1.7,.23-.5,.56-.88,.98-1.16,.42-.28,.91-.41,1.46-.41,.42,0,.78,.08,1.1,.25,.32,.17,.57,.41,.75,.72l.28-3.42h1.5Zm-2.32,6.85c.27-.36,.41-.86,.41-1.48,0-.58-.12-1.01-.37-1.31-.25-.3-.61-.45-1.08-.45s-.87,.18-1.15,.55c-.28,.36-.41,.86-.41,1.49,0,.56,.13,.99,.38,1.3,.26,.3,.62,.46,1.09,.46s.86-.18,1.13-.55Z"/>
    <path class="cls-1" d="M319.7,253.2c.46,.47,.68,1.15,.68,2.05,0,.18-.01,.38-.04,.6h-4.01c.02,.53,.17,.93,.44,1.2s.66,.41,1.18,.41c.66,0,1.25-.2,1.79-.61l.35,1.02c-.25,.22-.58,.4-.98,.54-.41,.14-.82,.2-1.25,.2-.6,0-1.12-.12-1.57-.35-.45-.24-.79-.57-1.04-1-.24-.43-.37-.94-.37-1.51,0-.63,.13-1.19,.38-1.69s.6-.87,1.05-1.15c.45-.27,.96-.41,1.52-.41,.78,0,1.4,.23,1.86,.7Zm-2.81,.73c-.26,.25-.42,.62-.5,1.12h2.74c0-.5-.1-.87-.32-1.12-.22-.25-.52-.37-.91-.37-.42,0-.75,.12-1.01,.37Z"/>
    <path class="cls-1" d="M323.7,252.64h3.88l-.47,5.87h-1.5l.38-4.74h-2.39l-.37,4.74h-1.5l.37-4.74h-1.12l.08-1.13h1.13v-.2c.07-.77,.33-1.35,.8-1.74,.47-.39,1.15-.61,2.06-.66l.56-.04v1.12s-.66,.04-.66,.04c-.4,.02-.7,.13-.89,.31-.2,.18-.31,.47-.34,.86l-.02,.32Zm4.18-2.74l-.12,1.5h-1.68l.12-1.5h1.68Z"/>
    <path class="cls-1" d="M333.95,253.03c.34,.36,.51,.88,.51,1.58,0,.15,0,.27-.01,.35l-.29,3.55h-1.5l.29-3.49c.06-.89-.29-1.33-1.06-1.33-.44,0-.78,.13-1.03,.4-.25,.26-.39,.63-.43,1.1l-.26,3.32h-1.5l.46-5.87h1.46l-.06,.77c.2-.29,.47-.51,.8-.67s.71-.24,1.13-.24c.66,0,1.15,.18,1.49,.53Z"/>
    <path class="cls-1" d="M340.4,253.2c.46,.47,.68,1.15,.68,2.05,0,.18-.01,.38-.04,.6h-4.01c.02,.53,.17,.93,.44,1.2s.66,.41,1.18,.41c.66,0,1.25-.2,1.79-.61l.35,1.02c-.25,.22-.58,.4-.98,.54-.41,.14-.82,.2-1.25,.2-.6,0-1.12-.12-1.57-.35-.45-.24-.79-.57-1.04-1-.24-.43-.37-.94-.37-1.51,0-.63,.13-1.19,.38-1.69s.6-.87,1.05-1.15c.45-.27,.96-.41,1.52-.41,.78,0,1.4,.23,1.86,.7Zm-2.81,.73c-.26,.25-.42,.62-.5,1.12h2.74c0-.5-.1-.87-.32-1.12-.22-.25-.52-.37-.91-.37-.42,0-.75,.12-1.01,.37Z"/>
    <path class="cls-1" d="M348.38,250.05l-.67,8.46h-1.49l.06-.79c-.19,.28-.45,.5-.76,.65-.32,.16-.67,.23-1.05,.23-.5,0-.93-.11-1.31-.34s-.67-.56-.88-.98c-.21-.43-.31-.93-.31-1.51,0-.64,.12-1.21,.35-1.7,.23-.5,.56-.88,.98-1.16,.42-.28,.91-.41,1.46-.41,.42,0,.78,.08,1.1,.25,.32,.17,.57,.41,.75,.72l.28-3.42h1.5Zm-2.32,6.85c.27-.36,.41-.86,.41-1.48,0-.58-.12-1.01-.37-1.31-.25-.3-.61-.45-1.08-.45s-.87,.18-1.15,.55c-.28,.36-.41,.86-.41,1.49,0,.56,.13,.99,.38,1.3s.62,.46,1.09,.46,.86-.18,1.13-.55Z"/>
    <path class="cls-1" d="M353.81,258.25c-.44-.24-.79-.57-1.03-1.01-.24-.44-.36-.94-.36-1.52,0-.66,.13-1.23,.38-1.72,.25-.49,.61-.86,1.07-1.12,.46-.26,.99-.39,1.6-.39s1.12,.12,1.57,.35c.44,.24,.79,.57,1.03,1.01,.24,.44,.36,.94,.36,1.52,0,.66-.13,1.23-.38,1.72-.25,.49-.61,.86-1.07,1.12s-.99,.39-1.6,.39-1.12-.12-1.57-.35Zm2.72-1.39c.26-.39,.39-.9,.39-1.53,0-.55-.12-.97-.37-1.25-.24-.28-.6-.43-1.07-.43-.51,0-.9,.19-1.16,.58s-.4,.9-.4,1.53c0,1.12,.48,1.68,1.45,1.68,.51,0,.9-.19,1.16-.58Z"/>
    <path class="cls-1" d="M364.45,252.84c.38,.23,.67,.56,.88,.98,.21,.43,.31,.93,.31,1.51,0,.64-.12,1.21-.35,1.7s-.56,.88-.98,1.16c-.42,.28-.91,.41-1.45,.41-.43,0-.81-.09-1.13-.26s-.57-.43-.76-.76l-.07,.92h-1.48l.66-8.46h1.5l-.28,3.35c.19-.29,.45-.51,.77-.67,.32-.16,.68-.23,1.06-.23,.49,0,.92,.11,1.3,.34Zm-.72,4.06c.28-.36,.41-.86,.41-1.49,0-.56-.13-.99-.38-1.3-.26-.3-.62-.46-1.09-.46s-.85,.18-1.12,.55c-.28,.37-.41,.86-.41,1.49,0,.58,.13,1.01,.38,1.31,.25,.3,.61,.44,1.09,.44s.86-.18,1.13-.55Z"/>
    <path class="cls-1" d="M368.15,258.31c-.04,.54-.15,.98-.33,1.31-.18,.33-.45,.58-.82,.75-.37,.17-.86,.27-1.49,.31l-.59,.04-.04-1.09,.62-.05c.37-.02,.64-.12,.82-.28,.18-.16,.28-.42,.3-.77l.47-5.89h1.5l-.44,5.68Zm.72-8.4l-.11,1.48h-1.66l.11-1.48h1.66Z"/>
    <path class="cls-1" d="M374.4,253.2c.46,.47,.68,1.15,.68,2.05,0,.18-.01,.38-.04,.6h-4.01c.02,.53,.17,.93,.44,1.2s.66,.41,1.18,.41c.66,0,1.25-.2,1.79-.61l.35,1.02c-.25,.22-.58,.4-.98,.54-.41,.14-.82,.2-1.25,.2-.6,0-1.12-.12-1.57-.35-.45-.24-.79-.57-1.04-1-.24-.43-.37-.94-.37-1.51,0-.63,.13-1.19,.38-1.69s.6-.87,1.05-1.15c.45-.27,.96-.41,1.52-.41,.78,0,1.4,.23,1.86,.7Zm-2.81,.73c-.26,.25-.42,.62-.5,1.12h2.74c0-.5-.1-.87-.32-1.12-.22-.25-.52-.37-.91-.37-.42,0-.75,.12-1.01,.37Z"/>
    <path class="cls-1" d="M377.34,258.25c-.44-.24-.79-.57-1.03-1-.24-.43-.36-.93-.36-1.5,0-.66,.13-1.24,.39-1.73,.26-.49,.63-.86,1.11-1.13,.48-.26,1.04-.4,1.68-.4,.91,0,1.66,.24,2.23,.73l-.5,1.06c-.54-.41-1.09-.61-1.67-.61-.54,0-.95,.18-1.25,.54-.3,.36-.44,.86-.44,1.51,0,.54,.13,.96,.4,1.26s.64,.44,1.12,.44c.3,0,.58-.05,.84-.15,.26-.1,.53-.25,.8-.46l.34,1.04c-.26,.23-.58,.41-.95,.55-.37,.13-.75,.2-1.15,.2-.6,0-1.12-.12-1.57-.35Z"/>
    <path class="cls-1" d="M384.03,256.27s-.01,.12-.01,.2c0,.66,.34,1,1.02,1,.19,0,.37-.02,.54-.05l-.16,1.12c-.22,.03-.44,.05-.64,.05-.74,0-1.31-.17-1.69-.5-.38-.34-.58-.83-.58-1.49,0-.14,0-.24,.01-.31l.19-2.52h-1.12l.08-1.13h1.13l.13-1.75h1.5l-.13,1.75h1.55l-.1,1.13h-1.55l-.19,2.51Z"/>
    <path class="cls-1" d="M386.57,254.7h3.58l-.1,1.19h-3.58l.1-1.19Z"/>
    <path class="cls-1" d="M393.53,256.27s-.01,.12-.01,.2c0,.66,.34,1,1.02,1,.19,0,.37-.02,.54-.05l-.16,1.12c-.22,.03-.44,.05-.64,.05-.74,0-1.31-.17-1.69-.5-.38-.34-.58-.83-.58-1.49,0-.14,0-.24,.01-.31l.19-2.52h-1.12l.08-1.13h1.13l.13-1.75h1.5l-.13,1.75h1.55l-.1,1.13h-1.55l-.19,2.51Z"/>
    <path class="cls-1" d="M400.11,252.48v1.26l-.95,.1c-.52,.05-.9,.19-1.13,.43-.24,.24-.37,.59-.41,1.07l-.25,3.17h-1.5l.46-5.86h1.44l-.07,.85c.42-.59,1.1-.92,2.04-1l.38-.02Z"/>
    <path class="cls-1" d="M405.06,253.2c.46,.47,.68,1.15,.68,2.05,0,.18-.01,.38-.04,.6h-4.01c.02,.53,.17,.93,.44,1.2,.27,.27,.66,.41,1.18,.41,.66,0,1.25-.2,1.79-.61l.35,1.02c-.25,.22-.58,.4-.98,.54-.41,.14-.82,.2-1.25,.2-.6,0-1.12-.12-1.57-.35s-.79-.57-1.04-1c-.24-.43-.37-.94-.37-1.51,0-.63,.13-1.19,.38-1.69s.6-.87,1.05-1.15c.45-.27,.96-.41,1.52-.41,.78,0,1.4,.23,1.86,.7Zm-2.81,.73c-.26,.25-.42,.62-.5,1.12h2.74c0-.5-.1-.87-.32-1.12s-.52-.37-.91-.37c-.42,0-.75,.12-1.01,.37Z"/>
    <path class="cls-1" d="M411.43,253.2c.46,.47,.68,1.15,.68,2.05,0,.18-.01,.38-.04,.6h-4.01c.02,.53,.17,.93,.44,1.2,.27,.27,.66,.41,1.18,.41,.66,0,1.25-.2,1.79-.61l.35,1.02c-.25,.22-.58,.4-.98,.54-.41,.14-.82,.2-1.25,.2-.6,0-1.12-.12-1.57-.35s-.79-.57-1.04-1c-.24-.43-.37-.94-.37-1.51,0-.63,.13-1.19,.38-1.69s.6-.87,1.05-1.15c.45-.27,.96-.41,1.52-.41,.78,0,1.4,.23,1.86,.7Zm-2.81,.73c-.26,.25-.42,.62-.5,1.12h2.74c0-.5-.1-.87-.32-1.12s-.52-.37-.91-.37c-.42,0-.75,.12-1.01,.37Z"/>
    <path class="cls-1" d="M412.75,257.86l.5-1.04c.66,.46,1.37,.68,2.11,.68s1.09-.21,1.09-.62c0-.2-.1-.35-.3-.46-.2-.11-.51-.22-.94-.34-.42-.11-.76-.23-1.03-.34-.27-.12-.5-.29-.69-.51-.19-.22-.29-.52-.29-.88s.1-.69,.31-.97,.5-.49,.88-.65c.38-.16,.81-.23,1.3-.23,.43,0,.85,.07,1.26,.2,.41,.13,.75,.31,1.02,.53l-.5,1.02c-.58-.44-1.18-.66-1.8-.66-.35,0-.62,.06-.81,.17-.19,.12-.28,.28-.28,.49s.1,.35,.3,.46c.2,.11,.51,.22,.94,.34s.77,.24,1.03,.35c.26,.12,.49,.29,.68,.51,.19,.22,.29,.52,.29,.88,0,.57-.23,1.01-.68,1.33-.45,.32-1.06,.48-1.82,.48-.95,0-1.81-.25-2.58-.74Z"/>
    <path class="cls-1" d="M197.39,270.67s-.01,.12-.01,.2c0,.66,.34,1,1.02,1,.19,0,.37-.02,.54-.05l-.16,1.12c-.22,.03-.44,.05-.64,.05-.74,0-1.31-.17-1.69-.5-.38-.34-.58-.83-.58-1.49,0-.14,0-.24,.01-.31l.19-2.52h-1.12l.08-1.13h1.13l.13-1.75h1.5l-.13,1.75h1.55l-.1,1.13h-1.55l-.19,2.51Z"/>
    <path class="cls-1" d="M205.01,267.43c.34,.36,.51,.88,.51,1.58,0,.15,0,.27-.01,.35l-.29,3.55h-1.5l.29-3.49c.06-.89-.29-1.33-1.06-1.33-.44,0-.78,.13-1.03,.4-.25,.26-.39,.63-.43,1.1l-.26,3.32h-1.5l.66-8.46h1.5l-.26,3.31c.21-.28,.48-.49,.8-.64s.69-.22,1.09-.22c.66,0,1.15,.18,1.49,.53Z"/>
    <path class="cls-1" d="M211.43,267.43c.38,.36,.56,.89,.56,1.61,0,.16,0,.28-.01,.37l-.28,3.49h-1.43l.07-.84c-.17,.3-.4,.54-.68,.7-.29,.16-.61,.24-.97,.24-.39,0-.74-.07-1.05-.22s-.55-.35-.72-.61c-.17-.26-.26-.55-.26-.88,0-.45,.11-.81,.34-1.07s.59-.46,1.1-.59c.5-.12,1.18-.19,2.02-.19h.43v-.23c.04-.4-.03-.7-.2-.89s-.47-.29-.89-.29c-.3,0-.61,.05-.95,.16-.34,.11-.67,.26-.99,.45l-.34-1.03c.31-.22,.7-.39,1.16-.52s.92-.2,1.37-.2c.77,0,1.34,.18,1.72,.53Zm-1.4,4.1c.26-.26,.41-.61,.44-1.03l.02-.26h-.34c-.53,0-.94,.03-1.23,.09s-.5,.15-.62,.28c-.12,.13-.18,.3-.18,.53,0,.24,.09,.43,.26,.58s.4,.22,.69,.22c.38,0,.69-.13,.95-.4Z"/>
    <path class="cls-1" d="M215.32,270.67s-.01,.12-.01,.2c0,.66,.34,1,1.02,1,.19,0,.37-.02,.54-.05l-.16,1.12c-.22,.03-.44,.05-.64,.05-.74,0-1.31-.17-1.69-.5-.38-.34-.58-.83-.58-1.49,0-.14,0-.24,.01-.31l.19-2.52h-1.12l.08-1.13h1.13l.13-1.75h1.5l-.13,1.75h1.55l-.1,1.13h-1.55l-.19,2.51Z"/>
    <path class="cls-1" d="M225.59,267.43c.38,.36,.56,.89,.56,1.61,0,.16,0,.28-.01,.37l-.28,3.49h-1.43l.07-.84c-.17,.3-.4,.54-.68,.7-.29,.16-.61,.24-.97,.24-.39,0-.74-.07-1.05-.22s-.55-.35-.72-.61c-.17-.26-.26-.55-.26-.88,0-.45,.11-.81,.34-1.07,.23-.27,.59-.46,1.1-.59,.5-.12,1.18-.19,2.02-.19h.43v-.23c.04-.4-.03-.7-.2-.89s-.47-.29-.89-.29c-.3,0-.61,.05-.95,.16-.34,.11-.67,.26-.99,.45l-.34-1.03c.31-.22,.7-.39,1.16-.52s.92-.2,1.37-.2c.77,0,1.34,.18,1.72,.53Zm-1.4,4.1c.26-.26,.41-.61,.44-1.03l.02-.26h-.34c-.53,0-.94,.03-1.23,.09s-.5,.15-.62,.28c-.12,.13-.18,.3-.18,.53,0,.24,.09,.43,.26,.58s.4,.22,.69,.22c.38,0,.69-.13,.95-.4Z"/>
    <path class="cls-1" d="M231.64,266.88v1.26l-.95,.1c-.52,.05-.9,.19-1.13,.43-.24,.24-.37,.59-.41,1.07l-.25,3.17h-1.5l.46-5.86h1.44l-.07,.85c.42-.59,1.1-.92,2.04-1l.38-.02Z"/>
    <path class="cls-1" d="M236.58,267.6c.46,.47,.68,1.15,.68,2.05,0,.18-.01,.38-.04,.6h-4.01c.02,.53,.17,.93,.44,1.2s.66,.41,1.18,.41c.66,0,1.25-.2,1.79-.61l.35,1.02c-.25,.22-.58,.4-.98,.54-.41,.14-.82,.2-1.25,.2-.6,0-1.12-.12-1.57-.35-.45-.24-.79-.57-1.04-1-.24-.43-.37-.94-.37-1.51,0-.63,.13-1.19,.38-1.69s.6-.87,1.05-1.15c.45-.27,.96-.41,1.52-.41,.78,0,1.4,.23,1.86,.7Zm-2.81,.73c-.26,.25-.42,.62-.5,1.12h2.74c0-.5-.1-.87-.32-1.12-.22-.25-.52-.37-.91-.37-.42,0-.75,.12-1.01,.37Z"/>
    <path class="cls-1" d="M246.51,267.24c.38,.23,.67,.56,.88,.98,.21,.43,.31,.93,.31,1.51,0,.64-.12,1.21-.35,1.7s-.56,.88-.98,1.16c-.42,.28-.91,.41-1.45,.41-.43,0-.81-.09-1.13-.26s-.57-.43-.76-.76l-.07,.92h-1.48l.66-8.46h1.5l-.28,3.35c.19-.29,.45-.51,.77-.67,.32-.16,.68-.23,1.06-.23,.49,0,.92,.11,1.3,.34Zm-.72,4.06c.28-.36,.41-.86,.41-1.49,0-.56-.13-.99-.38-1.3-.26-.3-.62-.46-1.09-.46s-.85,.18-1.12,.55c-.28,.37-.41,.86-.41,1.49,0,.58,.13,1.01,.38,1.31,.25,.3,.61,.44,1.09,.44s.86-.18,1.13-.55Z"/>
    <path class="cls-1" d="M249.16,267.04h1.5l-.46,5.87h-1.5l.46-5.87Zm1.79-2.72l-.11,1.48h-1.66l.11-1.48h1.66Z"/>
    <path class="cls-1" d="M257.03,267.43c.34,.36,.51,.88,.51,1.58,0,.15,0,.27-.01,.35l-.29,3.55h-1.5l.29-3.49c.06-.89-.29-1.33-1.06-1.33-.44,0-.78,.13-1.03,.4-.25,.26-.39,.63-.43,1.1l-.26,3.32h-1.5l.46-5.87h1.46l-.06,.77c.2-.29,.47-.51,.8-.67s.71-.24,1.13-.24c.66,0,1.15,.18,1.49,.53Z"/>
    <path class="cls-1" d="M263.45,267.43c.38,.36,.56,.89,.56,1.61,0,.16,0,.28-.01,.37l-.28,3.49h-1.43l.07-.84c-.17,.3-.4,.54-.68,.7-.29,.16-.61,.24-.97,.24-.39,0-.74-.07-1.05-.22s-.55-.35-.72-.61c-.17-.26-.26-.55-.26-.88,0-.45,.11-.81,.34-1.07s.59-.46,1.1-.59c.5-.12,1.18-.19,2.02-.19h.43v-.23c.04-.4-.03-.7-.2-.89s-.47-.29-.89-.29c-.3,0-.61,.05-.95,.16-.34,.11-.67,.26-.99,.45l-.34-1.03c.31-.22,.7-.39,1.16-.52s.92-.2,1.37-.2c.77,0,1.34,.18,1.72,.53Zm-1.4,4.1c.26-.26,.41-.61,.44-1.03l.02-.26h-.34c-.53,0-.94,.03-1.23,.09s-.5,.15-.62,.28c-.12,.13-.18,.3-.18,.53,0,.24,.09,.43,.26,.58s.4,.22,.69,.22c.38,0,.69-.13,.95-.4Z"/>
    <path class="cls-1" d="M269.5,266.88v1.26l-.95,.1c-.52,.05-.9,.19-1.13,.43-.24,.24-.37,.59-.41,1.07l-.25,3.17h-1.5l.46-5.86h1.44l-.07,.85c.42-.59,1.1-.92,2.04-1l.38-.02Z"/>
    <path class="cls-1" d="M276.25,267.05l-4.15,8.02h-1.51l1.25-2.39-1.99-5.63h1.52l1.37,4.12,2.02-4.12h1.5Z"/>
    <path class="cls-1" d="M276.67,269.1h3.58l-.1,1.19h-3.58l.1-1.19Z"/>
    <path class="cls-1" d="M286.44,267.6c.46,.47,.68,1.15,.68,2.05,0,.18-.01,.38-.04,.6h-4.01c.02,.53,.17,.93,.44,1.2s.66,.41,1.18,.41c.66,0,1.25-.2,1.79-.61l.35,1.02c-.25,.22-.58,.4-.98,.54-.41,.14-.82,.2-1.25,.2-.6,0-1.12-.12-1.57-.35-.45-.24-.79-.57-1.04-1-.24-.43-.37-.94-.37-1.51,0-.63,.13-1.19,.38-1.69s.6-.87,1.05-1.15c.45-.27,.96-.41,1.52-.41,.78,0,1.4,.23,1.86,.7Zm-2.81,.73c-.26,.25-.42,.62-.5,1.12h2.74c0-.5-.1-.87-.32-1.12-.22-.25-.52-.37-.91-.37-.42,0-.75,.12-1.01,.37Z"/>
    <path class="cls-1" d="M293.38,267.43c.34,.36,.51,.88,.51,1.58,0,.15,0,.27-.01,.35l-.29,3.55h-1.5l.29-3.49c.06-.89-.29-1.33-1.06-1.33-.44,0-.78,.13-1.03,.4-.25,.26-.39,.63-.43,1.1l-.26,3.32h-1.5l.46-5.87h1.46l-.06,.77c.2-.29,.47-.51,.8-.67s.71-.24,1.13-.24c.66,0,1.15,.18,1.49,.53Z"/>
    <path class="cls-1" d="M296.41,272.65c-.44-.24-.79-.57-1.03-1-.24-.43-.36-.93-.36-1.5,0-.66,.13-1.24,.39-1.73,.26-.49,.63-.86,1.11-1.13,.48-.26,1.04-.4,1.68-.4,.91,0,1.66,.24,2.23,.73l-.5,1.06c-.54-.41-1.09-.61-1.67-.61-.54,0-.95,.18-1.25,.54-.3,.36-.44,.86-.44,1.51,0,.54,.13,.96,.4,1.26s.64,.44,1.12,.44c.3,0,.58-.05,.84-.15,.26-.1,.53-.25,.8-.46l.34,1.04c-.26,.23-.58,.41-.95,.55-.37,.13-.75,.2-1.15,.2-.6,0-1.12-.12-1.57-.35Z"/>
    <path class="cls-1" d="M302.26,272.65c-.44-.24-.79-.57-1.03-1.01-.24-.44-.36-.94-.36-1.52,0-.66,.13-1.23,.38-1.72,.25-.49,.61-.86,1.07-1.12,.46-.26,.99-.39,1.6-.39s1.12,.12,1.57,.35c.44,.24,.79,.57,1.03,1.01,.24,.44,.36,.94,.36,1.52,0,.66-.13,1.23-.38,1.72-.25,.49-.61,.86-1.07,1.12s-.99,.39-1.6,.39-1.12-.12-1.57-.35Zm2.72-1.39c.26-.39,.39-.9,.39-1.53,0-.55-.12-.97-.37-1.25-.24-.28-.6-.43-1.07-.43-.51,0-.9,.19-1.16,.58s-.4,.9-.4,1.53c0,1.12,.48,1.68,1.45,1.68,.51,0,.9-.19,1.16-.58Z"/>
    <path class="cls-1" d="M314.2,264.45l-.67,8.46h-1.49l.06-.79c-.19,.28-.45,.5-.76,.65-.32,.16-.67,.23-1.05,.23-.5,0-.93-.11-1.31-.34s-.67-.56-.88-.98c-.21-.43-.31-.93-.31-1.51,0-.64,.12-1.21,.35-1.7,.23-.5,.56-.88,.98-1.16,.42-.28,.91-.41,1.46-.41,.42,0,.78,.08,1.1,.25,.32,.17,.57,.41,.75,.72l.28-3.42h1.5Zm-2.32,6.85c.27-.36,.41-.86,.41-1.48,0-.58-.12-1.01-.37-1.31-.25-.3-.61-.45-1.08-.45s-.87,.18-1.15,.55c-.28,.36-.41,.86-.41,1.49,0,.56,.13,.99,.38,1.3s.62,.46,1.09,.46,.86-.18,1.13-.55Z"/>
    <path class="cls-1" d="M319.8,267.6c.46,.47,.68,1.15,.68,2.05,0,.18-.01,.38-.04,.6h-4.01c.02,.53,.17,.93,.44,1.2s.66,.41,1.18,.41c.66,0,1.25-.2,1.79-.61l.35,1.02c-.25,.22-.58,.4-.98,.54-.41,.14-.82,.2-1.25,.2-.6,0-1.12-.12-1.57-.35-.45-.24-.79-.57-1.04-1-.24-.43-.37-.94-.37-1.51,0-.63,.13-1.19,.38-1.69s.6-.87,1.05-1.15c.45-.27,.96-.41,1.52-.41,.78,0,1.4,.23,1.86,.7Zm-2.81,.73c-.26,.25-.42,.62-.5,1.12h2.74c0-.5-.1-.87-.32-1.12-.22-.25-.52-.37-.91-.37-.42,0-.75,.12-1.01,.37Z"/>
    <path class="cls-1" d="M327.78,264.45l-.67,8.46h-1.49l.06-.79c-.19,.28-.45,.5-.76,.65-.32,.16-.67,.23-1.05,.23-.5,0-.93-.11-1.31-.34s-.67-.56-.88-.98c-.21-.43-.31-.93-.31-1.51,0-.64,.12-1.21,.35-1.7,.23-.5,.56-.88,.98-1.16,.42-.28,.91-.41,1.46-.41,.42,0,.78,.08,1.1,.25,.32,.17,.57,.41,.75,.72l.28-3.42h1.5Zm-2.32,6.85c.27-.36,.41-.86,.41-1.48,0-.58-.12-1.01-.37-1.31-.25-.3-.61-.45-1.08-.45s-.87,.18-1.15,.55c-.28,.36-.41,.86-.41,1.49,0,.56,.13,.99,.38,1.3s.62,.46,1.09,.46,.86-.18,1.13-.55Z"/>
    <path class="cls-1" d="M332.38,267.04h1.5l-.46,5.87h-1.5l.46-5.87Zm1.79-2.72l-.11,1.48h-1.66l.11-1.48h1.66Z"/>
    <path class="cls-1" d="M340.25,267.43c.34,.36,.51,.88,.51,1.58,0,.15,0,.27-.01,.35l-.29,3.55h-1.5l.29-3.49c.06-.89-.29-1.33-1.06-1.33-.44,0-.78,.13-1.03,.4-.25,.26-.39,.63-.43,1.1l-.26,3.32h-1.5l.46-5.87h1.46l-.06,.77c.2-.29,.47-.51,.8-.67s.71-.24,1.13-.24c.66,0,1.15,.18,1.49,.53Z"/>
    <path class="cls-1" d="M344.08,270.67s-.01,.12-.01,.2c0,.66,.34,1,1.02,1,.19,0,.37-.02,.54-.05l-.16,1.12c-.22,.03-.44,.05-.64,.05-.74,0-1.31-.17-1.69-.5-.38-.34-.58-.83-.58-1.49,0-.14,0-.24,.01-.31l.19-2.52h-1.12l.08-1.13h1.13l.13-1.75h1.5l-.13,1.75h1.55l-.1,1.13h-1.55l-.19,2.51Z"/>
    <path class="cls-1" d="M347.7,272.65c-.44-.24-.79-.57-1.03-1.01-.24-.44-.36-.94-.36-1.52,0-.66,.13-1.23,.38-1.72,.25-.49,.61-.86,1.07-1.12,.46-.26,.99-.39,1.6-.39s1.12,.12,1.57,.35c.44,.24,.79,.57,1.03,1.01,.24,.44,.36,.94,.36,1.52,0,.66-.13,1.23-.38,1.72-.25,.49-.61,.86-1.07,1.12s-.99,.39-1.6,.39-1.12-.12-1.57-.35Zm2.72-1.39c.26-.39,.39-.9,.39-1.53,0-.55-.12-.97-.37-1.25-.24-.28-.6-.43-1.07-.43-.51,0-.9,.19-1.16,.58s-.4,.9-.4,1.53c0,1.12,.48,1.68,1.45,1.68,.51,0,.9-.19,1.16-.58Z"/>
    <path class="cls-1" d="M361.25,267.43c.38,.36,.56,.89,.56,1.61,0,.16,0,.28-.01,.37l-.28,3.49h-1.43l.07-.84c-.17,.3-.4,.54-.68,.7-.29,.16-.61,.24-.97,.24-.39,0-.74-.07-1.05-.22s-.55-.35-.72-.61c-.17-.26-.26-.55-.26-.88,0-.45,.11-.81,.34-1.07s.59-.46,1.1-.59c.5-.12,1.18-.19,2.02-.19h.43v-.23c.04-.4-.03-.7-.2-.89s-.47-.29-.89-.29c-.3,0-.61,.05-.95,.16-.34,.11-.67,.26-.99,.45l-.34-1.03c.31-.22,.7-.39,1.16-.52s.92-.2,1.37-.2c.77,0,1.34,.18,1.72,.53Zm-1.4,4.1c.26-.26,.41-.61,.44-1.03l.02-.26h-.34c-.53,0-.94,.03-1.23,.09s-.5,.15-.62,.28c-.12,.13-.18,.3-.18,.53,0,.24,.09,.43,.26,.58s.4,.22,.69,.22c.38,0,.69-.13,.95-.4Z"/>
    <path class="cls-1" d="M365.96,272.26l.5-1.04c.66,.46,1.37,.68,2.11,.68s1.09-.21,1.09-.62c0-.2-.1-.35-.3-.46-.2-.11-.51-.22-.94-.34-.42-.11-.76-.23-1.03-.34-.27-.12-.5-.29-.69-.51-.19-.22-.29-.52-.29-.88s.1-.69,.31-.97,.5-.49,.88-.65c.38-.16,.81-.23,1.3-.23,.43,0,.85,.07,1.26,.2,.41,.13,.75,.31,1.02,.53l-.5,1.02c-.58-.44-1.18-.66-1.8-.66-.35,0-.62,.06-.81,.17-.19,.12-.28,.28-.28,.49s.1,.35,.3,.46c.2,.11,.51,.22,.94,.34,.42,.12,.77,.24,1.03,.35,.26,.12,.49,.29,.68,.51,.19,.22,.29,.52,.29,.88,0,.57-.23,1.01-.68,1.33-.45,.32-1.06,.48-1.82,.48-.95,0-1.81-.25-2.58-.74Z"/>
    <path class="cls-1" d="M377.14,267.24c.38,.23,.67,.56,.88,.98,.21,.43,.31,.93,.31,1.51,0,.64-.12,1.21-.35,1.7s-.56,.88-.98,1.16c-.42,.28-.91,.41-1.45,.41-.42,0-.8-.09-1.12-.26-.32-.17-.57-.42-.76-.74l-.24,3.06h-1.5l.64-8.03h1.48l-.06,.78c.18-.29,.44-.51,.77-.68,.33-.16,.69-.25,1.08-.25,.49,0,.92,.11,1.3,.34Zm-.72,4.06c.28-.36,.41-.86,.41-1.49,0-.56-.13-.99-.38-1.3-.26-.3-.62-.46-1.09-.46s-.85,.18-1.12,.55c-.28,.37-.41,.86-.41,1.49,0,.58,.13,1.01,.38,1.31,.25,.3,.61,.44,1.09,.44s.86-.18,1.13-.55Z"/>
    <path class="cls-1" d="M384.05,267.6c.46,.47,.68,1.15,.68,2.05,0,.18-.01,.38-.04,.6h-4.01c.02,.53,.17,.93,.44,1.2s.66,.41,1.18,.41c.66,0,1.25-.2,1.79-.61l.35,1.02c-.25,.22-.58,.4-.98,.54-.41,.14-.82,.2-1.25,.2-.6,0-1.12-.12-1.57-.35-.45-.24-.79-.57-1.04-1-.24-.43-.37-.94-.37-1.51,0-.63,.13-1.19,.38-1.69s.6-.87,1.05-1.15c.45-.27,.96-.41,1.52-.41,.78,0,1.4,.23,1.86,.7Zm-2.81,.73c-.26,.25-.42,.62-.5,1.12h2.74c0-.5-.1-.87-.32-1.12-.22-.25-.52-.37-.91-.37-.42,0-.75,.12-1.01,.37Z"/>
    <path class="cls-1" d="M386.99,272.65c-.44-.24-.79-.57-1.03-1-.24-.43-.36-.93-.36-1.5,0-.66,.13-1.24,.39-1.73,.26-.49,.63-.86,1.11-1.13,.48-.26,1.04-.4,1.68-.4,.91,0,1.66,.24,2.23,.73l-.5,1.06c-.54-.41-1.09-.61-1.67-.61-.54,0-.95,.18-1.25,.54-.3,.36-.44,.86-.44,1.51,0,.54,.13,.96,.4,1.26s.64,.44,1.12,.44c.3,0,.58-.05,.84-.15,.26-.1,.53-.25,.8-.46l.34,1.04c-.26,.23-.58,.41-.95,.55-.37,.13-.75,.2-1.15,.2-.6,0-1.12-.12-1.57-.35Z"/>
    <path class="cls-1" d="M392.01,267.04h1.5l-.46,5.87h-1.5l.46-5.87Zm1.79-2.72l-.11,1.48h-1.66l.11-1.48h1.66Z"/>
    <path class="cls-1" d="M399.29,267.43c.38,.36,.56,.89,.56,1.61,0,.16,0,.28-.01,.37l-.28,3.49h-1.43l.07-.84c-.17,.3-.4,.54-.68,.7-.29,.16-.61,.24-.97,.24-.39,0-.74-.07-1.05-.22s-.55-.35-.72-.61c-.17-.26-.26-.55-.26-.88,0-.45,.11-.81,.34-1.07s.59-.46,1.1-.59c.5-.12,1.18-.19,2.02-.19h.43v-.23c.04-.4-.03-.7-.2-.89s-.47-.29-.89-.29c-.3,0-.61,.05-.95,.16-.34,.11-.67,.26-.99,.45l-.34-1.03c.31-.22,.7-.39,1.16-.52s.92-.2,1.37-.2c.77,0,1.34,.18,1.72,.53Zm-1.4,4.1c.26-.26,.41-.61,.44-1.03l.02-.26h-.34c-.53,0-.94,.03-1.23,.09s-.5,.15-.62,.28c-.12,.13-.18,.3-.18,.53,0,.24,.09,.43,.26,.58s.4,.22,.69,.22c.38,0,.69-.13,.95-.4Z"/>
    <path class="cls-1" d="M401.76,264.45h1.5l-.67,8.46h-1.5l.67-8.46Z"/>
    <path class="cls-1" d="M202.01,283.66c.24,.34,.36,.75,.36,1.22,0,.77-.27,1.36-.81,1.79-.54,.42-1.28,.64-2.21,.64h-3.91l.66-8.46h3.6c.9,0,1.59,.19,2.07,.56,.48,.38,.71,.89,.71,1.54,0,.48-.13,.89-.38,1.24-.25,.34-.63,.61-1.12,.79,.45,.12,.79,.35,1.03,.69Zm-1.51,2.13c.28-.21,.41-.54,.41-.98,0-.4-.13-.7-.38-.9-.25-.2-.64-.3-1.16-.3h-2.15l-.19,2.5h2.2c.57,0,.99-.1,1.27-.31Zm-2.98-5.75l-.19,2.36h1.99c.56,0,.98-.1,1.25-.31,.27-.2,.41-.52,.41-.95,0-.74-.5-1.1-1.51-1.1h-1.94Z"/>
    <path class="cls-1" d="M207.74,281.28v1.26l-.95,.1c-.52,.05-.9,.19-1.13,.43-.24,.24-.37,.59-.41,1.07l-.25,3.17h-1.5l.46-5.86h1.44l-.07,.85c.42-.59,1.1-.92,2.04-1l.38-.02Z"/>
    <path class="cls-1" d="M208.55,281.44h1.5l-.46,5.87h-1.5l.46-5.87Zm1.79-2.72l-.11,1.48h-1.66l.11-1.48h1.66Z"/>
    <path class="cls-1" d="M212.43,287.05c-.44-.24-.79-.57-1.03-1.01-.24-.44-.36-.94-.36-1.52,0-.66,.13-1.23,.38-1.72,.25-.49,.61-.86,1.07-1.12,.46-.26,.99-.39,1.6-.39s1.12,.12,1.57,.35c.44,.24,.79,.57,1.03,1.01,.24,.44,.36,.94,.36,1.52,0,.66-.13,1.23-.38,1.72-.25,.49-.61,.86-1.07,1.12s-.99,.39-1.6,.39-1.12-.12-1.57-.35Zm2.72-1.39c.26-.39,.39-.9,.39-1.53,0-.55-.12-.97-.37-1.25-.24-.28-.6-.43-1.07-.43-.51,0-.9,.19-1.16,.58s-.4,.9-.4,1.53c0,1.12,.48,1.68,1.45,1.68,.51,0,.9-.19,1.16-.58Z"/>
    <path class="cls-1" d="M223.39,280.36l-.13,1.66h-1.68l.08-1.09c.04-.42,.14-.81,.31-1.15,.17-.34,.44-.68,.8-1.01l.58,.48c-.21,.21-.37,.4-.49,.58-.12,.18-.2,.36-.25,.54h.78Zm2.3,0l-.13,1.66h-1.68l.08-1.09c.04-.42,.14-.81,.31-1.15,.17-.34,.44-.68,.8-1.01l.58,.48c-.21,.21-.37,.4-.49,.58-.12,.18-.2,.36-.25,.54h.78Z"/>
    <path class="cls-1" d="M231.59,281.64c.38,.23,.67,.56,.88,.98,.21,.43,.31,.93,.31,1.51,0,.64-.12,1.21-.35,1.7s-.56,.88-.98,1.16c-.42,.28-.91,.41-1.45,.41-.43,0-.81-.09-1.13-.26s-.57-.43-.76-.76l-.07,.92h-1.48l.66-8.46h1.5l-.28,3.35c.19-.29,.45-.51,.77-.67,.32-.16,.68-.23,1.06-.23,.49,0,.92,.11,1.3,.34Zm-.72,4.06c.28-.36,.41-.86,.41-1.49,0-.56-.13-.99-.38-1.3-.26-.3-.62-.46-1.09-.46s-.85,.18-1.12,.55c-.28,.37-.41,.86-.41,1.49,0,.58,.13,1.01,.38,1.31,.25,.3,.61,.44,1.09,.44s.86-.18,1.13-.55Z"/>
    <path class="cls-1" d="M234.46,278.85h1.5l-.67,8.46h-1.5l.67-8.46Z"/>
    <path class="cls-1" d="M238.12,287.05c-.44-.24-.79-.57-1.03-1.01-.24-.44-.36-.94-.36-1.52,0-.66,.13-1.23,.38-1.72,.25-.49,.61-.86,1.07-1.12,.46-.26,.99-.39,1.6-.39s1.12,.12,1.57,.35c.44,.24,.79,.57,1.03,1.01,.24,.44,.36,.94,.36,1.52,0,.66-.13,1.23-.38,1.72-.25,.49-.61,.86-1.07,1.12s-.99,.39-1.6,.39-1.12-.12-1.57-.35Zm2.72-1.39c.26-.39,.39-.9,.39-1.53,0-.55-.12-.97-.37-1.25-.24-.28-.6-.43-1.07-.43-.51,0-.9,.19-1.16,.58s-.4,.9-.4,1.53c0,1.12,.48,1.68,1.45,1.68,.51,0,.9-.19,1.16-.58Z"/>
    <path class="cls-1" d="M248.75,281.64c.38,.23,.67,.56,.88,.98,.21,.43,.31,.93,.31,1.51,0,.64-.12,1.21-.35,1.7s-.56,.88-.98,1.16c-.42,.28-.91,.41-1.45,.41-.43,0-.81-.09-1.13-.26s-.57-.43-.76-.76l-.07,.92h-1.48l.66-8.46h1.5l-.28,3.35c.19-.29,.45-.51,.77-.67,.32-.16,.68-.23,1.06-.23,.49,0,.92,.11,1.3,.34Zm-.72,4.06c.28-.36,.41-.86,.41-1.49,0-.56-.13-.99-.38-1.3-.26-.3-.62-.46-1.09-.46s-.85,.18-1.12,.55c-.28,.37-.41,.86-.41,1.49,0,.58,.13,1.01,.38,1.31,.25,.3,.61,.44,1.09,.44s.86-.18,1.13-.55Z"/>
    <path class="cls-1" d="M252.75,278.85l-.08,1.09c-.03,.42-.13,.79-.31,1.13-.17,.34-.44,.68-.81,1.03l-.56-.48c.39-.38,.64-.76,.73-1.12h-.77l.12-1.66h1.68Zm2.3,0l-.08,1.09c-.03,.42-.13,.79-.31,1.13s-.44,.68-.81,1.03l-.56-.48c.39-.38,.64-.76,.73-1.12h-.77l.12-1.66h1.68Z"/>
    <path class="cls-1" d="M259.87,278.85h3.1c.85,0,1.58,.16,2.18,.47s1.07,.76,1.4,1.36c.32,.59,.49,1.29,.49,2.1,0,.95-.18,1.77-.53,2.44-.35,.68-.87,1.19-1.54,1.55-.68,.36-1.49,.54-2.44,.54h-3.31l.66-8.46Zm2.53,7.2c2.06,0,3.08-1.1,3.08-3.29,0-.86-.23-1.52-.68-1.97-.46-.45-1.13-.68-2.02-.68h-1.46l-.47,5.94h1.55Z"/>
    <path class="cls-1" d="M270.36,280.08l-.18,2.3h3.77l-.1,1.24h-3.78l-.29,3.68h-1.52l.67-8.46h5.53l-.1,1.24h-4.01Z"/>
    <path class="cls-1" d="M276.02,287.16c-.57-.17-1.07-.42-1.51-.75l.6-1.13c.42,.31,.86,.54,1.32,.69,.46,.15,.95,.22,1.48,.22,.58,0,1.03-.1,1.34-.29,.31-.2,.46-.47,.46-.83,0-.23-.08-.43-.25-.58-.16-.16-.37-.28-.62-.38s-.58-.21-1.01-.33c-.58-.17-1.06-.33-1.43-.5-.37-.16-.69-.41-.95-.73-.26-.32-.4-.74-.4-1.26s.14-.96,.41-1.34c.28-.38,.67-.68,1.18-.89,.51-.21,1.11-.31,1.79-.31,.59,0,1.16,.09,1.7,.27,.54,.18,.99,.43,1.34,.74l-.61,1.13c-.36-.3-.75-.52-1.17-.68-.42-.16-.85-.23-1.29-.23-.58,0-1.02,.11-1.34,.32-.32,.21-.47,.51-.47,.88,0,.25,.09,.46,.26,.62s.38,.3,.63,.4c.25,.1,.6,.21,1.06,.35,.58,.17,1.06,.33,1.42,.49,.36,.16,.67,.39,.92,.7,.26,.31,.38,.71,.38,1.19,0,.78-.3,1.4-.9,1.84-.6,.44-1.43,.67-2.5,.67-.66,0-1.27-.09-1.84-.26Z"/>
    <path class="cls-1" d="M285.27,286.66l.5-1.04c.66,.46,1.37,.68,2.11,.68s1.09-.21,1.09-.62c0-.2-.1-.35-.3-.46-.2-.11-.51-.22-.94-.34-.42-.11-.76-.23-1.03-.34-.27-.12-.5-.29-.69-.51-.19-.22-.29-.52-.29-.88s.1-.69,.31-.97,.5-.49,.88-.65c.38-.16,.81-.23,1.3-.23,.43,0,.85,.07,1.26,.2,.41,.13,.75,.31,1.02,.53l-.5,1.02c-.58-.44-1.18-.66-1.8-.66-.35,0-.62,.06-.81,.17-.19,.12-.28,.28-.28,.49s.1,.35,.3,.46c.2,.11,.51,.22,.94,.34,.42,.12,.77,.24,1.03,.35,.26,.12,.49,.29,.68,.51,.19,.22,.29,.52,.29,.88,0,.57-.23,1.01-.68,1.33-.45,.32-1.06,.48-1.82,.48-.95,0-1.81-.25-2.58-.74Z"/>
    <path class="cls-1" d="M292.72,287.05c-.44-.24-.79-.57-1.03-1-.24-.43-.36-.93-.36-1.5,0-.66,.13-1.24,.39-1.73,.26-.49,.63-.86,1.11-1.13,.48-.26,1.04-.4,1.68-.4,.91,0,1.66,.24,2.23,.73l-.5,1.06c-.54-.41-1.09-.61-1.67-.61-.54,0-.95,.18-1.25,.54-.3,.36-.44,.86-.44,1.51,0,.54,.13,.96,.4,1.26s.64,.44,1.12,.44c.3,0,.58-.05,.84-.15,.26-.1,.53-.25,.8-.46l.34,1.04c-.26,.23-.58,.41-.95,.55-.37,.13-.75,.2-1.15,.2-.6,0-1.12-.12-1.57-.35Z"/>
    <path class="cls-1" d="M301.97,281.83c.38,.36,.56,.89,.56,1.61,0,.16,0,.28-.01,.37l-.28,3.49h-1.43l.07-.84c-.17,.3-.4,.54-.68,.7-.29,.16-.61,.24-.97,.24-.39,0-.74-.07-1.05-.22s-.55-.35-.72-.61c-.17-.26-.26-.55-.26-.88,0-.45,.11-.81,.34-1.07s.59-.46,1.1-.59c.5-.12,1.18-.19,2.02-.19h.43v-.23c.04-.4-.03-.7-.2-.89s-.47-.29-.89-.29c-.3,0-.61,.05-.95,.16-.34,.11-.67,.26-.99,.45l-.34-1.03c.31-.22,.7-.39,1.16-.52s.92-.2,1.37-.2c.77,0,1.34,.18,1.72,.53Zm-1.4,4.1c.26-.26,.41-.61,.44-1.03l.02-.26h-.34c-.53,0-.94,.03-1.23,.09s-.5,.15-.62,.28c-.12,.13-.18,.3-.18,.53,0,.24,.09,.43,.26,.58s.4,.22,.69,.22c.38,0,.69-.13,.95-.4Z"/>
    <path class="cls-1" d="M309.05,281.83c.34,.36,.51,.88,.51,1.58,0,.15,0,.27-.01,.35l-.29,3.55h-1.5l.29-3.49c.06-.89-.29-1.33-1.06-1.33-.44,0-.78,.13-1.03,.4-.25,.26-.39,.63-.43,1.1l-.26,3.32h-1.5l.46-5.87h1.46l-.06,.77c.2-.29,.47-.51,.8-.67s.71-.24,1.13-.24c.66,0,1.15,.18,1.49,.53Z"/>
    <path class="cls-1" d="M316.41,281.44h1.55l-.1,1.13h-1.55l-.37,4.74h-1.5l.37-4.74h-1.12l.08-1.13h1.13v-.2c.07-.77,.33-1.35,.8-1.74,.47-.39,1.15-.61,2.06-.66l.6-.04,.04,1.12-.73,.04c-.4,.02-.7,.11-.89,.29-.2,.18-.31,.47-.34,.87l-.02,.32Z"/>
    <path class="cls-1" d="M319.56,287.05c-.44-.24-.79-.57-1.03-1.01-.24-.44-.36-.94-.36-1.52,0-.66,.13-1.23,.38-1.72,.25-.49,.61-.86,1.07-1.12,.46-.26,.99-.39,1.6-.39s1.12,.12,1.57,.35c.44,.24,.79,.57,1.03,1.01,.24,.44,.36,.94,.36,1.52,0,.66-.13,1.23-.38,1.72-.25,.49-.61,.86-1.07,1.12s-.99,.39-1.6,.39-1.12-.12-1.57-.35Zm2.72-1.39c.26-.39,.39-.9,.39-1.53,0-.55-.12-.97-.37-1.25-.24-.28-.6-.43-1.07-.43-.51,0-.9,.19-1.16,.58s-.4,.9-.4,1.53c0,1.12,.48,1.68,1.45,1.68,.51,0,.9-.19,1.16-.58Z"/>
    <path class="cls-1" d="M329.42,281.28v1.26l-.95,.1c-.52,.05-.9,.19-1.13,.43-.24,.24-.37,.59-.41,1.07l-.25,3.17h-1.5l.46-5.86h1.44l-.07,.85c.42-.59,1.1-.92,2.04-1l.38-.02Z"/>
    <path class="cls-1" d="M338.54,281.82c.32,.35,.47,.87,.47,1.56,0,.15,0,.27-.01,.36l-.28,3.56h-1.5l.28-3.52c0-.06,.01-.14,.01-.24,0-.71-.31-1.07-.92-1.07-.4,0-.71,.13-.94,.4-.23,.26-.36,.66-.39,1.18l-.26,3.25h-1.5l.29-3.5c.03-.45-.03-.78-.17-1-.15-.22-.39-.32-.74-.32-.82,0-1.26,.52-1.34,1.57l-.25,3.25h-1.5l.46-5.86h1.46l-.06,.72c.43-.58,1.03-.88,1.8-.88,.42,0,.78,.09,1.07,.26,.29,.18,.5,.43,.64,.77,.22-.34,.51-.59,.85-.77,.34-.18,.73-.26,1.15-.26,.62,0,1.08,.18,1.4,.53Z"/>
    <path class="cls-1" d="M344.93,281.83c.38,.36,.56,.89,.56,1.61,0,.16,0,.28-.01,.37l-.28,3.49h-1.43l.07-.84c-.17,.3-.4,.54-.68,.7-.29,.16-.61,.24-.97,.24-.39,0-.74-.07-1.05-.22s-.55-.35-.72-.61c-.17-.26-.26-.55-.26-.88,0-.45,.11-.81,.34-1.07s.59-.46,1.1-.59c.5-.12,1.18-.19,2.02-.19h.43v-.23c.04-.4-.03-.7-.2-.89s-.47-.29-.89-.29c-.3,0-.61,.05-.95,.16-.34,.11-.67,.26-.99,.45l-.34-1.03c.31-.22,.7-.39,1.16-.52s.92-.2,1.37-.2c.77,0,1.34,.18,1.72,.53Zm-1.4,4.1c.26-.26,.41-.61,.44-1.03l.02-.26h-.34c-.53,0-.94,.03-1.23,.09s-.5,.15-.62,.28c-.12,.13-.18,.3-.18,.53,0,.24,.09,.43,.26,.58s.4,.22,.69,.22c.38,0,.69-.13,.95-.4Z"/>
    <path class="cls-1" d="M348.81,285.07s-.01,.12-.01,.2c0,.66,.34,1,1.02,1,.19,0,.37-.02,.54-.05l-.16,1.12c-.22,.03-.44,.05-.64,.05-.74,0-1.31-.17-1.69-.5-.38-.34-.58-.83-.58-1.49,0-.14,0-.24,.01-.31l.19-2.52h-1.12l.08-1.13h1.13l.13-1.75h1.5l-.13,1.75h1.55l-.1,1.13h-1.55l-.19,2.51Z"/>
  </g>
  <g>
    <rect class="cls-1" x="235.89" y="189.6" width="1" height="55.15" transform="translate(-72.8 130.87) rotate(-26.98)"/>
    <polygon class="cls-1" points="228.99 191.64 220.63 186.21 220.1 196.16 228.99 191.64"/>
  </g>
  <g>
    <g>
      <path class="cls-1" d="M345.74,93.58c.2,.3,.3,.64,.3,1.04,0,.64-.24,1.13-.71,1.48s-1.12,.52-1.92,.52h-3.53l.55-7.05h3.31c.77,0,1.37,.17,1.78,.5s.62,.76,.62,1.29c0,.39-.1,.71-.3,.98-.2,.27-.51,.49-.92,.65,.36,.11,.64,.31,.84,.6Zm-1.66,1.48c.17-.11,.25-.31,.25-.59,0-.25-.08-.43-.24-.55-.16-.12-.4-.18-.74-.18h-1.47l-.12,1.5h1.47c.39,0,.67-.06,.84-.17Zm.02-2.88c.16-.1,.25-.29,.25-.55,0-.23-.07-.4-.22-.51s-.39-.17-.72-.17h-1.29l-.11,1.38h1.28c.39,0,.66-.05,.82-.15Z"/>
      <path class="cls-1" d="M353.17,96.61h-1.99l-1.11-2.25c-.13-.26-.36-.39-.69-.39h-.55l-.2,2.64h-1.81l.55-7.05h3.43c.74,0,1.32,.19,1.73,.56,.41,.38,.62,.88,.62,1.5s-.15,1.13-.45,1.5c-.3,.37-.76,.6-1.38,.71,.19,.05,.35,.14,.48,.27,.13,.13,.25,.29,.36,.5l1.01,2Zm-2.74-4.02c.33,0,.58-.07,.75-.22s.25-.36,.25-.63-.07-.46-.21-.59-.36-.2-.67-.2h-1.49l-.12,1.64h1.49Z"/>
      <path class="cls-1" d="M354.44,89.56h1.84l-.55,7.05h-1.84l.55-7.05Z"/>
      <path class="cls-1" d="M358.74,96.29c-.53-.28-.93-.67-1.21-1.18s-.42-1.12-.42-1.81c0-.76,.15-1.43,.44-2.02,.29-.58,.71-1.03,1.25-1.35,.54-.32,1.17-.48,1.88-.48s1.32,.14,1.85,.42c.53,.28,.93,.67,1.21,1.19s.42,1.12,.42,1.81c0,.76-.15,1.43-.44,2.01-.3,.58-.71,1.03-1.25,1.35s-1.16,.48-1.87,.48-1.32-.14-1.85-.42Zm3.11-1.64c.31-.43,.47-1.02,.47-1.78,0-.63-.14-1.12-.43-1.47-.29-.35-.69-.52-1.2-.52-.55,0-.98,.22-1.29,.65s-.47,1.02-.47,1.78c0,.64,.14,1.13,.42,1.47s.69,.51,1.21,.51,.97-.21,1.28-.64Z"/>
      <path class="cls-1" d="M373.7,93.58c.2,.3,.3,.64,.3,1.04,0,.64-.24,1.13-.71,1.48s-1.12,.52-1.92,.52h-3.53l.55-7.05h3.31c.77,0,1.37,.17,1.78,.5s.62,.76,.62,1.29c0,.39-.1,.71-.3,.98-.2,.27-.51,.49-.92,.65,.36,.11,.64,.31,.84,.6Zm-1.66,1.48c.17-.11,.25-.31,.25-.59,0-.25-.08-.43-.24-.55-.16-.12-.4-.18-.74-.18h-1.47l-.12,1.5h1.47c.39,0,.67-.06,.84-.17Zm.02-2.88c.16-.1,.25-.29,.25-.55,0-.23-.07-.4-.22-.51s-.39-.17-.72-.17h-1.29l-.11,1.38h1.28c.39,0,.66-.05,.82-.15Z"/>
      <path class="cls-1" d="M375.34,89.56h1.84l-.45,5.56h3l-.11,1.49h-4.84l.56-7.05Z"/>
      <path class="cls-1" d="M381.82,96.29c-.53-.28-.93-.67-1.21-1.18s-.42-1.12-.42-1.81c0-.76,.15-1.43,.44-2.02,.29-.58,.71-1.03,1.25-1.35,.54-.32,1.17-.48,1.88-.48s1.32,.14,1.85,.42c.53,.28,.93,.67,1.21,1.19s.42,1.12,.42,1.81c0,.76-.15,1.43-.44,2.01-.3,.58-.71,1.03-1.25,1.35s-1.16,.48-1.87,.48-1.32-.14-1.85-.42Zm3.11-1.64c.31-.43,.47-1.02,.47-1.78,0-.63-.14-1.12-.43-1.47-.29-.35-.69-.52-1.2-.52-.55,0-.98,.22-1.29,.65s-.47,1.02-.47,1.78c0,.64,.14,1.13,.42,1.47s.69,.51,1.21,.51,.97-.21,1.28-.64Z"/>
      <path class="cls-1" d="M393.92,93.58c.2,.3,.3,.64,.3,1.04,0,.64-.24,1.13-.71,1.48s-1.12,.52-1.92,.52h-3.53l.55-7.05h3.31c.77,0,1.37,.17,1.78,.5s.62,.76,.62,1.29c0,.39-.1,.71-.3,.98-.2,.27-.51,.49-.92,.65,.36,.11,.64,.31,.84,.6Zm-1.66,1.48c.17-.11,.25-.31,.25-.59,0-.25-.08-.43-.24-.55-.16-.12-.4-.18-.74-.18h-1.47l-.12,1.5h1.47c.39,0,.67-.06,.84-.17Zm.02-2.88c.16-.1,.25-.29,.25-.55,0-.23-.07-.4-.22-.51s-.39-.17-.72-.17h-1.29l-.11,1.38h1.28c.39,0,.66-.05,.82-.15Z"/>
    </g>
    <g>
      <g>
        <g>
          <g>
            <g>
              <path class="cls-1" d="M371.91,120.56v-.44h1.32v-3.4l-1.04,.51-.29-.39,1.51-.75h.48v4.03h1.23v.44h-3.22Z"/>
              <polygon class="cls-1" points="375.63 121.06 371.41 121.06 371.41 119.62 372.72 119.62 372.72 117.51 372.03 117.85 371.14 116.65 373.29 115.58 374.39 115.58 374.39 119.62 375.63 119.62 375.63 121.06"/>
            </g>
            <g>
              <path class="cls-1" d="M379.89,120.62c-.66,0-1.16-.2-1.5-.59-.34-.39-.51-.96-.51-1.71s.17-1.32,.51-1.71c.34-.39,.84-.58,1.5-.58s1.17,.19,1.51,.58,.51,.96,.51,1.7-.17,1.32-.52,1.71c-.35,.39-.85,.59-1.5,.59Zm0-.45c.46,0,.8-.15,1.02-.45,.22-.3,.33-.77,.33-1.4s-.11-1.1-.33-1.39c-.22-.29-.56-.44-1.02-.44s-.8,.15-1.02,.44c-.22,.3-.33,.76-.33,1.39s.11,1.1,.33,1.4c.22,.3,.56,.45,1.02,.45Z"/>
              <path class="cls-1" d="M379.89,121.12c-.81,0-1.44-.26-1.88-.76-.42-.49-.64-1.17-.64-2.04s.22-1.56,.64-2.04c.44-.5,1.07-.75,1.88-.75s1.45,.25,1.88,.75c.42,.48,.64,1.16,.64,2.03s-.22,1.56-.64,2.04c-.44,.5-1.07,.76-1.88,.76Zm0-4.14c-.39,0-.54,.14-.62,.24-.11,.14-.23,.45-.23,1.09s.13,.96,.23,1.11c.08,.11,.23,.25,.62,.25s.54-.14,.61-.25c.11-.15,.23-.46,.23-1.11s-.12-.96-.23-1.1c-.08-.1-.22-.24-.62-.24Z"/>
            </g>
            <g>
              <path class="cls-1" d="M384.99,120.56v-.44h1.32v-3.4l-1.04,.51-.29-.39,1.51-.75h.48v4.03h1.23v.44h-3.22Z"/>
              <polygon class="cls-1" points="388.71 121.06 384.49 121.06 384.49 119.62 385.8 119.62 385.8 117.51 385.11 117.85 384.22 116.65 386.37 115.58 387.47 115.58 387.47 119.62 388.71 119.62 388.71 121.06"/>
            </g>
            <g>
              <path class="cls-1" d="M391.53,120.56v-.44h1.32v-3.4l-1.04,.51-.29-.39,1.51-.75h.48v4.03h1.23v.44h-3.22Z"/>
              <polygon class="cls-1" points="395.25 121.06 391.03 121.06 391.03 119.62 392.34 119.62 392.34 117.51 391.65 117.85 390.76 116.65 392.91 115.58 394.01 115.58 394.01 119.62 395.25 119.62 395.25 121.06"/>
            </g>
            <g>
              <path class="cls-1" d="M371.91,133.79v-.44h1.32v-3.4l-1.04,.51-.29-.39,1.51-.75h.48v4.03h1.23v.44h-3.22Z"/>
              <polygon class="cls-1" points="375.63 134.29 371.41 134.29 371.41 132.84 372.72 132.84 372.72 130.74 372.03 131.08 371.14 129.88 373.29 128.81 374.39 128.81 374.39 132.84 375.63 132.84 375.63 134.29"/>
            </g>
            <g>
              <path class="cls-1" d="M379.89,133.85c-.66,0-1.16-.2-1.5-.59-.34-.39-.51-.96-.51-1.71s.17-1.32,.51-1.71c.34-.39,.84-.58,1.5-.58s1.17,.19,1.51,.58,.51,.96,.51,1.7-.17,1.32-.52,1.71c-.35,.39-.85,.59-1.5,.59Zm0-.45c.46,0,.8-.15,1.02-.45,.22-.3,.33-.77,.33-1.4s-.11-1.1-.33-1.39c-.22-.29-.56-.44-1.02-.44s-.8,.15-1.02,.44c-.22,.3-.33,.76-.33,1.39s.11,1.1,.33,1.4c.22,.3,.56,.45,1.02,.45Z"/>
              <path class="cls-1" d="M379.89,134.35c-.81,0-1.44-.26-1.88-.76-.42-.49-.64-1.17-.64-2.04s.22-1.56,.64-2.04c.44-.5,1.07-.75,1.88-.75s1.45,.25,1.88,.75c.42,.48,.64,1.16,.64,2.03s-.22,1.56-.64,2.04c-.44,.5-1.07,.76-1.88,.76Zm0-4.14c-.39,0-.54,.14-.62,.24-.11,.14-.23,.45-.23,1.09s.13,.96,.23,1.11c.08,.11,.23,.25,.62,.25s.54-.14,.61-.25c.11-.15,.23-.46,.23-1.11s-.12-.96-.23-1.1c-.08-.1-.22-.24-.62-.24Z"/>
            </g>
            <g>
              <path class="cls-1" d="M384.99,133.79v-.44h1.32v-3.4l-1.04,.51-.29-.39,1.51-.75h.48v4.03h1.23v.44h-3.22Z"/>
              <polygon class="cls-1" points="388.71 134.29 384.49 134.29 384.49 132.84 385.8 132.84 385.8 130.74 385.11 131.08 384.22 129.88 386.37 128.81 387.47 128.81 387.47 132.84 388.71 132.84 388.71 134.29"/>
            </g>
            <g>
              <path class="cls-1" d="M392.97,133.85c-.66,0-1.16-.2-1.5-.59-.34-.39-.51-.96-.51-1.71s.17-1.32,.51-1.71c.34-.39,.84-.58,1.5-.58s1.17,.19,1.51,.58,.51,.96,.51,1.7-.17,1.32-.52,1.71c-.35,.39-.85,.59-1.5,.59Zm0-.45c.46,0,.8-.15,1.02-.45,.22-.3,.33-.77,.33-1.4s-.11-1.1-.33-1.39c-.22-.29-.56-.44-1.02-.44s-.8,.15-1.02,.44c-.22,.3-.33,.76-.33,1.39s.11,1.1,.33,1.4c.22,.3,.56,.45,1.02,.45Z"/>
              <path class="cls-1" d="M392.97,134.35c-.81,0-1.44-.26-1.88-.76-.42-.49-.64-1.17-.64-2.04s.21-1.56,.64-2.04c.44-.5,1.07-.75,1.88-.75s1.45,.25,1.88,.75c.42,.48,.64,1.16,.64,2.04s-.22,1.56-.64,2.04c-.44,.5-1.07,.76-1.88,.76Zm0-4.14c-.39,0-.54,.14-.62,.24-.11,.14-.23,.45-.23,1.09s.13,.96,.23,1.11c.08,.11,.23,.25,.61,.25s.54-.14,.61-.25c.11-.15,.23-.46,.23-1.11s-.12-.96-.23-1.1c-.08-.1-.22-.24-.62-.24Z"/>
            </g>
            <g>
              <path class="cls-1" d="M373.35,147.07c-.66,0-1.16-.2-1.5-.59-.34-.39-.51-.96-.51-1.71s.17-1.32,.51-1.71c.34-.39,.84-.58,1.5-.58s1.17,.19,1.51,.58,.51,.96,.51,1.7-.17,1.32-.52,1.71c-.35,.39-.85,.59-1.5,.59Zm0-.45c.46,0,.8-.15,1.02-.45,.22-.3,.33-.77,.33-1.4s-.11-1.1-.33-1.39c-.22-.29-.56-.44-1.02-.44s-.8,.15-1.02,.44c-.22,.3-.33,.76-.33,1.39s.11,1.1,.33,1.4c.22,.3,.56,.45,1.02,.45Z"/>
              <path class="cls-1" d="M373.35,147.57c-.81,0-1.44-.26-1.88-.76-.42-.49-.64-1.17-.64-2.04s.21-1.56,.64-2.04c.44-.5,1.07-.75,1.88-.75s1.44,.25,1.88,.75c.42,.48,.64,1.16,.64,2.04s-.22,1.56-.64,2.04c-.44,.5-1.07,.76-1.88,.76Zm0-4.14c-.39,0-.54,.14-.62,.24-.11,.14-.23,.45-.23,1.09s.13,.96,.23,1.11c.08,.11,.23,.25,.61,.25s.54-.14,.61-.25c.11-.15,.23-.46,.23-1.11s-.12-.96-.23-1.1c-.08-.1-.22-.24-.62-.24Z"/>
            </g>
            <g>
              <path class="cls-1" d="M378.45,147.02v-.44h1.32v-3.4l-1.04,.51-.29-.39,1.51-.75h.48v4.03h1.23v.44h-3.22Z"/>
              <polygon class="cls-1" points="382.17 147.52 377.95 147.52 377.95 146.07 379.26 146.07 379.26 143.97 378.57 144.31 377.68 143.11 379.83 142.04 380.93 142.04 380.93 146.07 382.17 146.07 382.17 147.52"/>
            </g>
            <g>
              <path class="cls-1" d="M386.43,147.07c-.66,0-1.16-.2-1.5-.59-.34-.39-.51-.96-.51-1.71s.17-1.32,.51-1.71c.34-.39,.84-.58,1.5-.58s1.17,.19,1.51,.58,.51,.96,.51,1.7-.17,1.32-.52,1.71c-.35,.39-.85,.59-1.5,.59Zm0-.45c.46,0,.8-.15,1.02-.45,.22-.3,.33-.77,.33-1.4s-.11-1.1-.33-1.39c-.22-.29-.56-.44-1.02-.44s-.8,.15-1.02,.44c-.22,.3-.33,.76-.33,1.39s.11,1.1,.33,1.4c.22,.3,.56,.45,1.02,.45Z"/>
              <path class="cls-1" d="M386.43,147.57c-.81,0-1.44-.26-1.88-.76-.42-.49-.64-1.17-.64-2.04s.22-1.56,.64-2.04c.44-.5,1.07-.75,1.88-.75s1.45,.25,1.88,.75c.42,.48,.64,1.16,.64,2.03s-.22,1.56-.64,2.04c-.44,.5-1.08,.76-1.88,.76Zm0-4.14c-.39,0-.54,.14-.62,.24-.11,.14-.23,.45-.23,1.09s.13,.96,.23,1.11c.08,.11,.23,.25,.61,.25s.54-.14,.61-.25c.11-.15,.23-.46,.23-1.11s-.12-.96-.23-1.1c-.08-.1-.22-.24-.62-.24Z"/>
            </g>
            <g>
              <path class="cls-1" d="M391.53,147.02v-.44h1.32v-3.4l-1.04,.51-.29-.39,1.51-.75h.48v4.03h1.23v.44h-3.22Z"/>
              <polygon class="cls-1" points="395.25 147.52 391.03 147.52 391.03 146.07 392.34 146.07 392.34 143.97 391.65 144.31 390.76 143.11 392.91 142.04 394.01 142.04 394.01 146.07 395.25 146.07 395.25 147.52"/>
            </g>
            <g>
              <path class="cls-2" d="M373.35,160.3c-.66,0-1.16-.2-1.5-.59-.34-.39-.51-.96-.51-1.71s.17-1.32,.51-1.71c.34-.39,.84-.58,1.5-.58s1.17,.19,1.51,.58,.51,.96,.51,1.7-.17,1.32-.52,1.71-.85,.59-1.5,.59Zm0-.45c.46,0,.8-.15,1.02-.45s.33-.77,.33-1.4-.11-1.1-.33-1.39c-.22-.29-.56-.44-1.02-.44s-.8,.15-1.02,.44c-.22,.3-.33,.76-.33,1.39s.11,1.1,.33,1.4,.56,.45,1.02,.45Z"/>
              <path class="cls-1" d="M373.35,160.8c-.81,0-1.44-.26-1.88-.76-.42-.49-.64-1.17-.64-2.04s.21-1.56,.64-2.04c.44-.5,1.07-.75,1.88-.75s1.44,.25,1.88,.75c.42,.48,.64,1.16,.64,2.04s-.22,1.56-.64,2.04c-.44,.5-1.07,.76-1.88,.76Zm0-4.14c-.39,0-.54,.14-.62,.24-.11,.14-.23,.45-.23,1.09s.13,.96,.23,1.11c.08,.11,.23,.25,.62,.25s.54-.14,.61-.25c.11-.15,.23-.46,.23-1.11s-.12-.96-.23-1.1c-.08-.1-.22-.24-.62-.24Z"/>
            </g>
            <g>
              <path class="cls-1" d="M379.89,160.3c-.66,0-1.16-.2-1.5-.59-.34-.39-.51-.96-.51-1.71s.17-1.32,.51-1.71c.34-.39,.84-.58,1.5-.58s1.17,.19,1.51,.58,.51,.96,.51,1.7-.17,1.32-.52,1.71-.85,.59-1.5,.59Zm0-.45c.46,0,.8-.15,1.02-.45s.33-.77,.33-1.4-.11-1.1-.33-1.39c-.22-.29-.56-.44-1.02-.44s-.8,.15-1.02,.44c-.22,.3-.33,.76-.33,1.39s.11,1.1,.33,1.4,.56,.45,1.02,.45Z"/>
              <path class="cls-1" d="M379.89,160.8c-.81,0-1.44-.26-1.88-.76-.42-.49-.64-1.17-.64-2.04s.22-1.56,.64-2.04c.44-.5,1.07-.75,1.88-.75s1.45,.25,1.88,.75c.42,.48,.64,1.16,.64,2.03s-.22,1.56-.64,2.04c-.44,.5-1.07,.76-1.88,.76Zm0-4.14c-.39,0-.54,.14-.62,.24-.11,.14-.23,.45-.23,1.09s.13,.96,.23,1.11c.08,.11,.23,.25,.62,.25s.54-.14,.61-.25c.11-.15,.23-.46,.23-1.11s-.12-.96-.23-1.1c-.08-.1-.22-.24-.62-.24Z"/>
            </g>
            <g>
              <path class="cls-1" d="M386.43,160.3c-.66,0-1.16-.2-1.5-.59-.34-.39-.51-.96-.51-1.71s.17-1.32,.51-1.71c.34-.39,.84-.58,1.5-.58s1.17,.19,1.51,.58,.51,.96,.51,1.7-.17,1.32-.52,1.71-.85,.59-1.5,.59Zm0-.45c.46,0,.8-.15,1.02-.45s.33-.77,.33-1.4-.11-1.1-.33-1.39c-.22-.29-.56-.44-1.02-.44s-.8,.15-1.02,.44c-.22,.3-.33,.76-.33,1.39s.11,1.1,.33,1.4,.56,.45,1.02,.45Z"/>
              <path class="cls-1" d="M386.43,160.8c-.81,0-1.44-.26-1.88-.76-.42-.49-.64-1.17-.64-2.04s.22-1.56,.64-2.04c.44-.5,1.07-.75,1.88-.75s1.45,.25,1.88,.75c.42,.48,.64,1.16,.64,2.03s-.22,1.56-.64,2.04c-.44,.5-1.08,.76-1.88,.76Zm0-4.14c-.39,0-.54,.14-.62,.24-.11,.14-.23,.45-.23,1.09s.13,.96,.23,1.11c.08,.11,.23,.25,.61,.25s.54-.14,.61-.25c.11-.15,.23-.46,.23-1.11s-.12-.96-.23-1.1c-.08-.1-.22-.24-.62-.24Z"/>
            </g>
            <g>
              <path class="cls-1" d="M392.97,160.3c-.66,0-1.16-.2-1.5-.59-.34-.39-.51-.96-.51-1.71s.17-1.32,.51-1.71c.34-.39,.84-.58,1.5-.58s1.17,.19,1.51,.58,.51,.96,.51,1.7-.17,1.32-.52,1.71-.85,.59-1.5,.59Zm0-.45c.46,0,.8-.15,1.02-.45,.22-.3,.33-.77,.33-1.4s-.11-1.1-.33-1.39c-.22-.29-.56-.44-1.02-.44s-.8,.15-1.02,.44c-.22,.3-.33,.76-.33,1.39s.11,1.1,.33,1.4,.56,.45,1.02,.45Z"/>
              <path class="cls-1" d="M392.97,160.8c-.81,0-1.44-.26-1.88-.76-.42-.49-.64-1.17-.64-2.04s.21-1.56,.64-2.04c.44-.5,1.07-.75,1.88-.75s1.45,.25,1.88,.75c.42,.48,.64,1.16,.64,2.04s-.22,1.56-.64,2.04c-.44,.5-1.08,.76-1.88,.76Zm0-4.14c-.39,0-.54,.14-.62,.24-.11,.14-.23,.45-.23,1.09s.13,.96,.23,1.11c.08,.11,.23,.25,.61,.25s.54-.14,.61-.25c.11-.15,.23-.46,.23-1.11s-.12-.96-.23-1.1c-.08-.1-.22-.24-.62-.24Z"/>
            </g>
            <g>
              <path class="cls-1" d="M373.35,173.53c-.66,0-1.16-.2-1.5-.59-.34-.39-.51-.96-.51-1.71s.17-1.32,.51-1.71c.34-.39,.84-.58,1.5-.58s1.17,.19,1.51,.58,.51,.96,.51,1.7-.17,1.32-.52,1.71-.85,.59-1.5,.59Zm0-.45c.46,0,.8-.15,1.02-.45s.33-.77,.33-1.4-.11-1.1-.33-1.39c-.22-.29-.56-.44-1.02-.44s-.8,.15-1.02,.44c-.22,.3-.33,.76-.33,1.39s.11,1.1,.33,1.4,.56,.45,1.02,.45Z"/>
              <path class="cls-1" d="M373.35,174.03c-.81,0-1.44-.26-1.88-.76-.42-.49-.64-1.17-.64-2.04s.22-1.56,.64-2.04c.44-.5,1.07-.75,1.88-.75s1.45,.25,1.88,.75c.42,.48,.64,1.16,.64,2.03s-.22,1.56-.64,2.04c-.44,.5-1.07,.76-1.88,.76Zm0-4.14c-.39,0-.54,.14-.62,.24-.11,.14-.23,.45-.23,1.09s.13,.96,.23,1.11c.08,.11,.23,.25,.61,.25s.54-.14,.61-.25c.11-.15,.23-.46,.23-1.11s-.12-.96-.23-1.1c-.08-.1-.22-.24-.62-.24Z"/>
            </g>
            <g>
              <path class="cls-1" d="M378.45,173.47v-.44h1.32v-3.4l-1.04,.51-.29-.39,1.51-.75h.48v4.03h1.23v.44h-3.22Z"/>
              <polygon class="cls-1" points="382.17 173.97 377.95 173.97 377.95 172.53 379.26 172.53 379.26 170.43 378.57 170.76 377.68 169.56 379.83 168.5 380.93 168.5 380.93 172.53 382.17 172.53 382.17 173.97"/>
            </g>
            <g>
              <path class="cls-1" d="M384.99,173.47v-.44h1.32v-3.4l-1.04,.51-.29-.39,1.51-.75h.48v4.03h1.23v.44h-3.22Z"/>
              <polygon class="cls-1" points="388.71 173.97 384.49 173.97 384.49 172.53 385.8 172.53 385.8 170.43 385.11 170.76 384.22 169.56 386.37 168.5 387.47 168.5 387.47 172.53 388.71 172.53 388.71 173.97"/>
            </g>
            <g>
              <path class="cls-1" d="M392.97,173.53c-.66,0-1.16-.2-1.5-.59-.34-.39-.51-.96-.51-1.71s.17-1.32,.51-1.71c.34-.39,.84-.58,1.5-.58s1.17,.19,1.51,.58,.51,.96,.51,1.7-.17,1.32-.52,1.71-.85,.59-1.5,.59Zm0-.45c.46,0,.8-.15,1.02-.45,.22-.3,.33-.77,.33-1.4s-.11-1.1-.33-1.39c-.22-.29-.56-.44-1.02-.44s-.8,.15-1.02,.44c-.22,.3-.33,.76-.33,1.39s.11,1.1,.33,1.4,.56,.45,1.02,.45Z"/>
              <path class="cls-1" d="M392.97,174.03c-.81,0-1.44-.26-1.88-.76-.42-.49-.64-1.17-.64-2.04s.22-1.56,.64-2.04c.44-.5,1.07-.75,1.88-.75s1.45,.25,1.88,.75c.42,.48,.64,1.16,.64,2.03s-.22,1.56-.64,2.04c-.44,.5-1.07,.76-1.88,.76Zm0-4.14c-.39,0-.54,.14-.62,.24-.11,.14-.23,.45-.23,1.09s.13,.96,.23,1.11c.08,.11,.23,.25,.61,.25s.54-.14,.61-.25c.11-.15,.23-.46,.23-1.11s-.12-.96-.23-1.1c-.08-.1-.22-.24-.62-.24Z"/>
            </g>
          </g>
          <path class="cls-1" d="M342.35,126.32h-5.46c-.55,0-1-.45-1-1s.45-1,1-1h5.46c.55,0,1,.45,1,1s-.45,1-1,1Z"/>
          <g>
            <path class="cls-1" d="M342.14,132.85h-5.46c-.55,0-1-.45-1-1s.45-1,1-1h5.46c.55,0,1,.45,1,1s-.45,1-1,1Z"/>
            <path class="cls-1" d="M346.35,132.85c-.26,0-.52-.11-.71-.3-.18-.18-.29-.44-.29-.7s.11-.53,.29-.71c.37-.37,1.04-.37,1.42,0,.18,.18,.29,.44,.29,.71s-.11,.52-.29,.7c-.19,.19-.45,.3-.71,.3Z"/>
            <path class="cls-1" d="M355.88,132.85h-5.46c-.55,0-1-.45-1-1s.45-1,1-1h5.46c.55,0,1,.45,1,1s-.45,1-1,1Z"/>
          </g>
          <g>
            <path class="cls-1" d="M351.98,139.38h-11.41c-.55,0-1-.45-1-1s.45-1,1-1h11.41c.55,0,1,.45,1,1s-.45,1-1,1Z"/>
            <path class="cls-1" d="M355.88,139.38c-.27,0-.52-.11-.71-.3-.19-.18-.29-.44-.29-.7s.1-.53,.29-.71c.37-.37,1.04-.37,1.41,0,.19,.18,.3,.44,.3,.71s-.11,.52-.3,.7c-.18,.19-.44,.3-.7,.3Z"/>
          </g>
          <path class="cls-1" d="M356.12,145.91h-11.41c-.55,0-1-.45-1-1s.45-1,1-1h11.41c.55,0,1,.45,1,1s-.45,1-1,1Z"/>
          <g>
            <path class="cls-1" d="M351.54,152.44h-11.41c-.55,0-1-.45-1-1s.45-1,1-1h11.41c.55,0,1,.45,1,1s-.45,1-1,1Z"/>
            <path class="cls-1" d="M355.44,152.44c-.07,0-.13-.01-.2-.02-.06-.02-.12-.04-.18-.06-.06-.03-.12-.06-.18-.09-.05-.04-.1-.08-.15-.13-.09-.09-.17-.2-.22-.32-.05-.12-.07-.25-.07-.38,0-.14,.02-.26,.07-.39,.06-.12,.13-.23,.22-.32,.37-.38,1.05-.37,1.42,0,.09,.09,.16,.2,.21,.32,.05,.13,.08,.25,.08,.39,0,.13-.03,.26-.08,.38s-.12,.23-.21,.32c-.19,.19-.45,.3-.71,.3Z"/>
          </g>
          <path class="cls-1" d="M356.12,158.96h-11.41c-.55,0-1-.45-1-1s.45-1,1-1h11.41c.55,0,1,.45,1,1s-.45,1-1,1Z"/>
          <path class="cls-1" d="M342.35,165.49h-5.46c-.55,0-1-.45-1-1s.45-1,1-1h5.46c.55,0,1,.45,1,1s-.45,1-1,1Z"/>
        </g>
        <path class="cls-1" d="M402.18,116.41h-2.53v2.59h2.53c3.2,0,5.8,2.6,5.8,5.8v40.34c0,3.2-2.6,5.8-5.8,5.8h-2.53v2.59h2.53c4.63,0,8.39-3.76,8.39-8.39v-40.34c0-4.63-3.76-8.39-8.39-8.39Z"/>
        <path class="cls-1" d="M334.14,173.33h2.53v-2.59h-2.53c-3.2,0-5.8-2.6-5.8-5.8v-40.34c0-3.2,2.6-5.8,5.8-5.8h2.53v-2.59h-2.53c-4.63,0-8.39,3.76-8.39,8.39v40.34c0,4.63,3.76,8.39,8.39,8.39Z"/>
      </g>
      <rect class="cls-1" x="334.36" y="116.21" width="32.82" height="2.54"/>
      <rect class="cls-1" x="334.36" y="170.79" width="32.82" height="2.54"/>
    </g>
  </g>
</svg>