<?xml version="1.0" encoding="UTF-8"?>
<svg id="Layer_1" data-name="Layer 1" xmlns="http://www.w3.org/2000/svg" viewBox="0 0 265.75 226.47">
  <defs>
    <style>
      .cls-1 {
        fill: #008aab;
      }

      .cls-2 {
        fill: #fff;
      }

      .cls-3 {
        fill: #99d0de;
      }

      .cls-4 {
        opacity: .2;
      }
    </style>
  </defs>
  <g>
    <path class="cls-1" d="M103.4,39.68c.2,.3,.3,.64,.3,1.04,0,.64-.24,1.13-.71,1.48s-1.12,.52-1.92,.52h-3.53l.55-7.05h3.31c.77,0,1.37,.17,1.78,.5s.62,.76,.62,1.29c0,.39-.1,.71-.3,.98-.2,.27-.51,.49-.92,.65,.36,.11,.64,.31,.84,.6Zm-1.66,1.48c.17-.11,.25-.31,.25-.59,0-.25-.08-.43-.24-.55-.16-.12-.4-.18-.74-.18h-1.47l-.12,1.5h1.47c.39,0,.67-.06,.84-.17Zm.02-2.88c.16-.1,.25-.29,.25-.55,0-.23-.07-.4-.22-.51s-.39-.17-.72-.17h-1.29l-.11,1.38h1.28c.39,0,.66-.05,.82-.15Z"/>
    <path class="cls-1" d="M110.83,42.72h-1.99l-1.11-2.25c-.13-.26-.36-.39-.69-.39h-.55l-.2,2.64h-1.81l.55-7.05h3.43c.74,0,1.32,.19,1.73,.56,.41,.38,.62,.88,.62,1.5s-.15,1.13-.45,1.5c-.3,.37-.76,.6-1.38,.71,.19,.05,.35,.14,.48,.27,.13,.13,.25,.29,.36,.5l1.01,2Zm-2.74-4.02c.33,0,.58-.07,.75-.22s.25-.36,.25-.63-.07-.46-.21-.59-.36-.2-.67-.2h-1.49l-.12,1.64h1.49Z"/>
    <path class="cls-1" d="M112.1,35.67h1.84l-.55,7.05h-1.84l.55-7.05Z"/>
    <path class="cls-1" d="M116.4,42.4c-.53-.28-.93-.67-1.21-1.18s-.42-1.12-.42-1.81c0-.76,.15-1.43,.44-2.02,.29-.58,.71-1.03,1.25-1.35,.54-.32,1.17-.48,1.88-.48s1.32,.14,1.85,.42c.53,.28,.93,.67,1.21,1.19s.42,1.12,.42,1.81c0,.76-.15,1.43-.44,2.01-.3,.58-.71,1.03-1.25,1.35s-1.16,.48-1.87,.48-1.32-.14-1.85-.42Zm3.11-1.64c.31-.43,.47-1.02,.47-1.78,0-.63-.14-1.12-.43-1.47-.29-.35-.69-.52-1.2-.52-.55,0-.98,.22-1.29,.65s-.47,1.02-.47,1.78c0,.64,.14,1.13,.42,1.47s.69,.51,1.21,.51,.97-.21,1.28-.64Z"/>
    <path class="cls-1" d="M131.36,39.68c.2,.3,.3,.64,.3,1.04,0,.64-.24,1.13-.71,1.48s-1.12,.52-1.92,.52h-3.53l.55-7.05h3.31c.77,0,1.37,.17,1.78,.5s.62,.76,.62,1.29c0,.39-.1,.71-.3,.98-.2,.27-.51,.49-.92,.65,.36,.11,.64,.31,.84,.6Zm-1.66,1.48c.17-.11,.25-.31,.25-.59,0-.25-.08-.43-.24-.55-.16-.12-.4-.18-.74-.18h-1.47l-.12,1.5h1.47c.39,0,.67-.06,.84-.17Zm.02-2.88c.16-.1,.25-.29,.25-.55,0-.23-.07-.4-.22-.51s-.39-.17-.72-.17h-1.29l-.11,1.38h1.28c.39,0,.66-.05,.82-.15Z"/>
    <path class="cls-1" d="M133,35.67h1.84l-.45,5.56h3l-.11,1.49h-4.84l.56-7.05Z"/>
    <path class="cls-1" d="M139.48,42.4c-.53-.28-.93-.67-1.21-1.18s-.42-1.12-.42-1.81c0-.76,.15-1.43,.44-2.02,.29-.58,.71-1.03,1.25-1.35,.54-.32,1.17-.48,1.88-.48s1.32,.14,1.85,.42c.53,.28,.93,.67,1.21,1.19s.42,1.12,.42,1.81c0,.76-.15,1.43-.44,2.01-.3,.58-.71,1.03-1.25,1.35s-1.16,.48-1.87,.48-1.32-.14-1.85-.42Zm3.11-1.64c.31-.43,.47-1.02,.47-1.78,0-.63-.14-1.12-.43-1.47-.29-.35-.69-.52-1.2-.52-.55,0-.98,.22-1.29,.65s-.47,1.02-.47,1.78c0,.64,.14,1.13,.42,1.47s.69,.51,1.21,.51,.97-.21,1.28-.64Z"/>
    <path class="cls-1" d="M151.58,39.68c.2,.3,.3,.64,.3,1.04,0,.64-.24,1.13-.71,1.48s-1.12,.52-1.92,.52h-3.53l.55-7.05h3.31c.77,0,1.37,.17,1.78,.5s.62,.76,.62,1.29c0,.39-.1,.71-.3,.98-.2,.27-.51,.49-.92,.65,.36,.11,.64,.31,.84,.6Zm-1.66,1.48c.17-.11,.25-.31,.25-.59,0-.25-.08-.43-.24-.55-.16-.12-.4-.18-.74-.18h-1.47l-.12,1.5h1.47c.39,0,.67-.06,.84-.17Zm.02-2.88c.16-.1,.25-.29,.25-.55,0-.23-.07-.4-.22-.51s-.39-.17-.72-.17h-1.29l-.11,1.38h1.28c.39,0,.66-.05,.82-.15Z"/>
  </g>
  <g>
    <path class="cls-1" d="M99.95,184.8h2.87c.71,0,1.32,.13,1.84,.41,.52,.27,.93,.65,1.21,1.15,.29,.5,.43,1.08,.43,1.75,0,.79-.16,1.46-.47,2.02-.31,.56-.76,.99-1.35,1.28-.59,.29-1.3,.44-2.12,.44h-2.96l.55-7.05Zm2.24,5.57c.78,0,1.36-.18,1.73-.54,.37-.36,.56-.94,.56-1.72,0-.59-.16-1.04-.49-1.36-.33-.31-.8-.46-1.42-.46h-.9l-.32,4.09h.84Z"/>
    <path class="cls-1" d="M109.39,186.24l-.1,1.3h2.89l-.11,1.44h-2.9l-.23,2.87h-1.81l.56-7.05h4.9l-.11,1.44h-3.09Z"/>
    <path class="cls-1" d="M113.89,191.73c-.51-.14-.96-.33-1.33-.56l.68-1.3c.71,.44,1.48,.66,2.31,.66,.38,0,.67-.05,.87-.15,.2-.1,.3-.25,.3-.44,0-.21-.11-.37-.33-.48-.22-.12-.56-.24-1.02-.38-.49-.15-.9-.29-1.21-.43-.31-.14-.58-.35-.81-.62-.23-.28-.34-.63-.34-1.08s.12-.84,.38-1.18,.61-.6,1.07-.79c.46-.18,1-.27,1.61-.27,.51,0,1,.07,1.47,.21,.47,.14,.84,.33,1.12,.56l-.66,1.3c-.29-.21-.61-.37-.96-.48-.35-.12-.69-.18-1.03-.18-.36,0-.64,.06-.85,.18-.21,.12-.32,.28-.32,.48s.11,.38,.33,.49,.56,.24,1.04,.38c.49,.15,.88,.29,1.2,.42,.31,.14,.58,.34,.8,.61s.34,.62,.34,1.05c0,.71-.27,1.25-.8,1.63-.53,.38-1.29,.58-2.27,.58-.54,0-1.07-.07-1.58-.21Z"/>
    <path class="cls-1" d="M123.39,191.73c-.51-.14-.96-.33-1.33-.56l.68-1.3c.71,.44,1.48,.66,2.31,.66,.38,0,.67-.05,.87-.15,.2-.1,.3-.25,.3-.44,0-.21-.11-.37-.33-.48-.22-.12-.56-.24-1.02-.38-.49-.15-.9-.29-1.21-.43-.31-.14-.58-.35-.81-.62-.23-.28-.34-.63-.34-1.08s.12-.84,.38-1.18,.61-.6,1.07-.79c.46-.18,1-.27,1.61-.27,.51,0,1,.07,1.47,.21,.47,.14,.84,.33,1.12,.56l-.66,1.3c-.29-.21-.61-.37-.96-.48-.35-.12-.69-.18-1.03-.18-.36,0-.64,.06-.85,.18-.21,.12-.32,.28-.32,.48s.11,.38,.33,.49,.56,.24,1.04,.38c.49,.15,.88,.29,1.2,.42,.31,.14,.58,.34,.8,.61s.34,.62,.34,1.05c0,.71-.27,1.25-.8,1.63-.53,.38-1.29,.58-2.27,.58-.54,0-1.07-.07-1.58-.21Z"/>
    <path class="cls-1" d="M130.62,191.52c-.52-.28-.91-.67-1.19-1.18s-.42-1.11-.42-1.8c0-.77,.16-1.44,.47-2.02s.75-1.03,1.33-1.34,1.23-.47,1.99-.47c.47,0,.92,.07,1.33,.2,.42,.13,.79,.32,1.1,.57l-.67,1.31c-.29-.21-.56-.37-.83-.47-.27-.1-.55-.15-.84-.15-.64,0-1.13,.21-1.48,.63s-.52,1-.52,1.74c0,.63,.14,1.11,.41,1.44s.68,.5,1.21,.5,1.13-.2,1.82-.61l.47,1.3c-.24,.23-.58,.42-1,.56-.43,.14-.88,.21-1.33,.21-.71,0-1.32-.14-1.84-.42Z"/>
    <path class="cls-1" d="M140.51,190.39h-3.13l-.74,1.46h-1.88l3.84-7.05h1.46l2.75,7.05h-1.78l-.52-1.46Zm-.48-1.38l-.81-2.26-1.14,2.26h1.95Z"/>
    <path class="cls-1" d="M150.07,184.8l-.56,7.05h-1.37l-2.87-3.96-.33,3.96h-1.71l.56-7.05h1.34l2.9,3.98,.32-3.98h1.72Z"/>
  </g>
  <g>
    <g>
      <g>
        <rect class="cls-3" x="37.42" y="94.51" width="20.89" height="20.89" rx="4" ry="4"/>
        <path class="cls-1" d="M54.31,116.18h-12.89c-2.64,0-4.78-2.15-4.78-4.78v-12.89c0-2.64,2.15-4.78,4.78-4.78h12.89c2.64,0,4.78,2.15,4.78,4.78v12.89c0,2.64-2.15,4.78-4.78,4.78Zm-12.89-20.89c-1.78,0-3.22,1.45-3.22,3.22v12.89c0,1.78,1.45,3.22,3.22,3.22h12.89c1.78,0,3.22-1.45,3.22-3.22v-12.89c0-1.78-1.45-3.22-3.22-3.22h-12.89Z"/>
      </g>
      <g>
        <rect class="cls-2" x="75.89" y="94.17" width="20.89" height="20.89" rx="4" ry="4"/>
        <path class="cls-1" d="M92.78,115.84h-12.89c-2.64,0-4.78-2.14-4.78-4.78v-12.89c0-2.64,2.14-4.78,4.78-4.78h12.89c2.64,0,4.78,2.14,4.78,4.78v12.89c0,2.64-2.14,4.78-4.78,4.78Zm-12.89-20.89c-1.78,0-3.22,1.44-3.22,3.22v12.89c0,1.78,1.44,3.22,3.22,3.22h12.89c1.78,0,3.22-1.44,3.22-3.22v-12.89c0-1.78-1.44-3.22-3.22-3.22h-12.89Z"/>
      </g>
      <g>
        <rect class="cls-2" x="114.37" y="94.51" width="20.89" height="20.89" rx="4" ry="4"/>
        <path class="cls-1" d="M131.26,116.18h-12.88c-2.64,0-4.78-2.15-4.78-4.78v-12.88c0-2.64,2.15-4.78,4.78-4.78h12.88c2.64,0,4.78,2.15,4.78,4.78v12.88c0,2.64-2.15,4.78-4.78,4.78Zm-12.88-20.89c-1.78,0-3.22,1.45-3.22,3.22v12.88c0,1.78,1.45,3.22,3.22,3.22h12.88c1.78,0,3.22-1.45,3.22-3.22v-12.88c0-1.78-1.45-3.22-3.22-3.22h-12.88Z"/>
      </g>
      <g>
        <g>
          <rect class="cls-3" x="114.37" y="132.09" width="20.89" height="20.89" rx="4" ry="4"/>
          <path class="cls-1" d="M131.26,153.76h-12.88c-2.64,0-4.78-2.15-4.78-4.78v-12.88c0-2.64,2.15-4.78,4.78-4.78h12.88c2.64,0,4.78,2.15,4.78,4.78v12.88c0,2.64-2.15,4.78-4.78,4.78Zm-12.88-20.89c-1.78,0-3.22,1.45-3.22,3.22v12.88c0,1.78,1.45,3.22,3.22,3.22h12.88c1.78,0,3.22-1.45,3.22-3.22v-12.88c0-1.78-1.45-3.22-3.22-3.22h-12.88Z"/>
        </g>
        <g>
          <path class="cls-1" d="M135.26,137.18h0c0-2.44-2-4.44-4.44-4.44h-12.02c-2.44,0-4.44,2-4.44,4.44h0c0,.99,.8,1.79,1.79,1.79h17.3c.99,0,1.79-.8,1.79-1.79Z"/>
          <path class="cls-1" d="M133.47,139.75h-17.3c-1.42,0-2.57-1.15-2.57-2.57,0-2.88,2.34-5.22,5.22-5.22h12.02c2.88,0,5.22,2.34,5.22,5.22,0,1.42-1.15,2.57-2.57,2.57Zm-14.66-6.23c-2.02,0-3.66,1.64-3.66,3.66,0,.56,.45,1.01,1.01,1.01h17.3c.56,0,1.01-.45,1.01-1.01,0-2.02-1.64-3.66-3.66-3.66h-12.02Z"/>
        </g>
      </g>
      <g>
        <rect class="cls-2" x="37.42" y="132.09" width="20.89" height="20.89" rx="4" ry="4"/>
        <path class="cls-1" d="M54.31,153.76h-12.89c-2.64,0-4.78-2.15-4.78-4.78v-12.89c0-2.64,2.15-4.78,4.78-4.78h12.89c2.64,0,4.78,2.15,4.78,4.78v12.89c0,2.64-2.15,4.78-4.78,4.78Zm-12.89-20.89c-1.78,0-3.22,1.44-3.22,3.22v12.89c0,1.78,1.44,3.22,3.22,3.22h12.89c1.78,0,3.22-1.44,3.22-3.22v-12.89c0-1.78-1.44-3.22-3.22-3.22h-12.89Z"/>
      </g>
      <g>
        <rect class="cls-3" x="75.58" y="55.55" width="20.89" height="20.89" rx="4" ry="4"/>
        <path class="cls-1" d="M92.46,77.22h-12.88c-2.64,0-4.78-2.15-4.78-4.78v-12.88c0-2.64,2.15-4.78,4.78-4.78h12.88c2.64,0,4.78,2.15,4.78,4.78v12.88c0,2.64-2.15,4.78-4.78,4.78Zm-12.88-20.89c-1.78,0-3.22,1.45-3.22,3.22v12.88c0,1.78,1.45,3.22,3.22,3.22h12.88c1.78,0,3.22-1.45,3.22-3.22v-12.88c0-1.78-1.45-3.22-3.22-3.22h-12.88Z"/>
      </g>
      <g class="cls-4">
        <g>
          <polygon class="cls-1" points="145.51 157.6 145.51 157.61 137.94 154.38 137.94 162.72 138.43 162.94 137.94 162.73 137.94 170.77 146.12 166.27 146.17 166.29 154.79 161.56 145.51 157.6"/>
          <path class="cls-1" d="M137.84,170.92v-16.69l17.17,7.32-8.83,4.85-.05-.02-8.28,4.55Zm.19-8.06v7.74l8.09-4.44,.05,.02,8.41-4.62-9.06-3.87h0s-.04-.01-.04-.01l-7.44-3.17v8.14l.44,.19-.08,.17h0s-.36-.16-.36-.16Z"/>
        </g>
        <path class="cls-1" d="M129.32,89.22H64.1c-2.13,0-3.85-1.72-3.85-3.85s1.72-3.85,3.85-3.85h65.22c2.13,0,3.85,1.72,3.85,3.85s-1.72,3.85-3.85,3.85Z"/>
        <path class="cls-1" d="M152.58,104.67h-7.7c0-8.52-6.94-15.45-15.48-15.45v-7.7c12.78,0,23.17,10.38,23.17,23.14Z"/>
        <path class="cls-1" d="M129.4,127.69v-7.7c8.53,0,15.48-6.93,15.48-15.45h7.7c0,12.76-10.4,23.14-23.17,23.14Z"/>
        <rect class="cls-1" x="86.49" y="119.97" width="43.12" height="7.7"/>
        <rect class="cls-1" x="87.59" y="158.44" width="51.47" height="7.7"/>
        <path class="cls-1" d="M87.5,166.14c-12.78,0-23.17-10.38-23.17-23.14h7.7c0,8.52,6.94,15.45,15.48,15.45v7.7Z"/>
        <path class="cls-1" d="M72.04,143.12h-7.7c0-12.76,10.4-23.14,23.17-23.14v7.7c-8.53,0-15.48,6.93-15.48,15.45Z"/>
      </g>
      <rect class="cls-1" x="85.2" y="76.38" width="1.88" height="18.44"/>
      <path class="cls-1" d="M86.31,145.17c-.52,0-.94-.42-.94-.94v-28.7c0-.52,.42-.94,.94-.94s.94,.42,.94,.94v28.7c0,.52-.42,.94-.94,.94Z"/>
      <path class="cls-1" d="M113.3,145.17h-26.99c-.52,0-.94-.42-.94-.94s.42-.94,.94-.94h26.99c.52,0,.94,.42,.94,.94s-.42,.94-.94,.94Z"/>
      <rect class="cls-1" x="123.64" y="115.17" width="1.88" height="18.44"/>
      <rect class="cls-1" x="47.03" y="114.99" width="1.88" height="18.44"/>
      <rect class="cls-1" x="57.82" y="104.63" width="18.44" height="1.88"/>
      <rect class="cls-1" x="96.35" y="104.26" width="18.44" height="1.88"/>
      <g>
        <path class="cls-1" d="M135.26,100.04h0c0-2.44-2-4.44-4.44-4.44h-12.02c-2.44,0-4.44,2-4.44,4.44h0c0,.99,.8,1.79,1.79,1.79h17.3c.99,0,1.79-.8,1.79-1.79Z"/>
        <path class="cls-1" d="M133.47,102.61h-17.3c-1.42,0-2.57-1.15-2.57-2.57,0-2.88,2.34-5.22,5.22-5.22h12.02c2.88,0,5.22,2.34,5.22,5.22h0c0,1.42-1.15,2.57-2.57,2.57Zm-14.66-6.23c-2.02,0-3.66,1.64-3.66,3.66,0,.56,.45,1.01,1.01,1.01h17.3c.56,0,1.01-.45,1.01-1.01,0-2.02-1.64-3.66-3.66-3.66h-12.02Z"/>
      </g>
      <g>
        <path class="cls-1" d="M96.78,100.04h0c0-2.44-2-4.44-4.44-4.44h-12.02c-2.44,0-4.44,2-4.44,4.44h0c0,.99,.8,1.79,1.79,1.79h17.3c.99,0,1.79-.8,1.79-1.79Z"/>
        <path class="cls-1" d="M94.99,102.61h-17.3c-1.42,0-2.57-1.15-2.57-2.57,0-2.88,2.34-5.22,5.22-5.22h12.02c2.88,0,5.22,2.34,5.22,5.22h0c0,1.42-1.15,2.57-2.57,2.57Zm-14.66-6.23c-2.02,0-3.66,1.64-3.66,3.66,0,.56,.45,1.01,1.01,1.01h17.3c.56,0,1.01-.45,1.01-1.01,0-2.02-1.64-3.66-3.66-3.66h-12.02Z"/>
      </g>
      <g>
        <path class="cls-1" d="M58.2,100.04h0c0-2.44-2-4.44-4.44-4.44h-12.02c-2.44,0-4.44,2-4.44,4.44h0c0,.99,.8,1.79,1.79,1.79h17.3c.99,0,1.79-.8,1.79-1.79Z"/>
        <path class="cls-1" d="M56.4,102.61h-17.3c-1.42,0-2.57-1.15-2.57-2.57,0-2.88,2.34-5.22,5.22-5.22h12.02c2.88,0,5.22,2.34,5.22,5.22h0c0,1.42-1.15,2.57-2.57,2.57Zm-14.66-6.23c-2.02,0-3.66,1.64-3.66,3.66,0,.56,.45,1.01,1.01,1.01h17.3c.56,0,1.01-.45,1.01-1.01,0-2.02-1.64-3.66-3.66-3.66h-12.02Z"/>
      </g>
      <g>
        <path class="cls-1" d="M58.42,136.78h0c0-2.44-2-4.44-4.44-4.44h-12.02c-2.44,0-4.44,2-4.44,4.44h0c0,.99,.8,1.79,1.79,1.79h17.3c.99,0,1.79-.8,1.79-1.79Z"/>
        <path class="cls-1" d="M56.63,139.36h-17.3c-1.42,0-2.57-1.15-2.57-2.57,0-2.88,2.34-5.22,5.22-5.22h12.02c2.88,0,5.22,2.34,5.22,5.22,0,1.42-1.15,2.57-2.57,2.57Zm-14.66-6.23c-2.02,0-3.66,1.64-3.66,3.66,0,.56,.46,1.01,1.01,1.01h17.3c.56,0,1.01-.45,1.01-1.01,0-2.02-1.64-3.66-3.66-3.66h-12.02Z"/>
      </g>
      <g>
        <g>
          <g>
            <g>
              <g>
                <path class="cls-1" d="M189.7,100.3v-.44h1.32v-3.4l-1.04,.51-.29-.39,1.51-.75h.48v4.03h1.23v.44h-3.22Z"/>
                <polygon class="cls-1" points="193.42 100.8 189.2 100.8 189.2 99.35 190.52 99.35 190.52 97.25 189.82 97.59 188.93 96.39 191.09 95.32 192.19 95.32 192.19 99.35 193.42 99.35 193.42 100.8"/>
              </g>
              <g>
                <path class="cls-1" d="M197.68,100.35c-.66,0-1.16-.2-1.5-.59-.34-.39-.51-.96-.51-1.71s.17-1.32,.51-1.71c.34-.39,.84-.58,1.5-.58s1.17,.19,1.51,.58,.51,.96,.51,1.7-.17,1.32-.52,1.71c-.35,.39-.85,.59-1.5,.59Zm0-.45c.46,0,.8-.15,1.02-.45,.22-.3,.33-.77,.33-1.4s-.11-1.1-.33-1.39c-.22-.29-.56-.44-1.02-.44s-.8,.15-1.02,.44c-.22,.3-.33,.76-.33,1.39s.11,1.1,.33,1.4c.22,.3,.56,.45,1.02,.45Z"/>
                <path class="cls-1" d="M197.68,100.85c-.81,0-1.44-.26-1.88-.76-.42-.49-.64-1.17-.64-2.04s.22-1.56,.64-2.04c.44-.5,1.07-.75,1.88-.75s1.45,.25,1.88,.75c.42,.48,.64,1.16,.64,2.03s-.22,1.56-.64,2.04c-.44,.5-1.07,.76-1.88,.76Zm0-4.14c-.39,0-.54,.14-.62,.24-.11,.14-.23,.45-.23,1.09s.13,.96,.23,1.11c.08,.11,.23,.25,.61,.25s.54-.14,.61-.25c.11-.15,.23-.46,.23-1.11s-.12-.96-.23-1.1c-.08-.1-.22-.24-.62-.24Z"/>
              </g>
              <g>
                <path class="cls-1" d="M202.78,100.3v-.44h1.32v-3.4l-1.04,.51-.29-.39,1.51-.75h.48v4.03h1.23v.44h-3.22Z"/>
                <polygon class="cls-1" points="206.5 100.8 202.28 100.8 202.28 99.35 203.6 99.35 203.6 97.25 202.9 97.59 202.01 96.39 204.17 95.32 205.27 95.32 205.27 99.35 206.5 99.35 206.5 100.8"/>
              </g>
              <g>
                <path class="cls-1" d="M209.32,100.3v-.44h1.32v-3.4l-1.04,.51-.29-.39,1.51-.75h.48v4.03h1.23v.44h-3.22Z"/>
                <polygon class="cls-1" points="213.04 100.8 208.82 100.8 208.82 99.35 210.13 99.35 210.13 97.25 209.44 97.59 208.55 96.39 210.71 95.32 211.8 95.32 211.8 99.35 213.04 99.35 213.04 100.8"/>
              </g>
              <g>
                <path class="cls-1" d="M189.7,113.53v-.44h1.32v-3.4l-1.04,.51-.29-.39,1.51-.75h.48v4.03h1.23v.44h-3.22Z"/>
                <polygon class="cls-1" points="193.42 114.03 189.2 114.03 189.2 112.58 190.52 112.58 190.52 110.48 189.82 110.82 188.93 109.62 191.09 108.55 192.19 108.55 192.19 112.58 193.42 112.58 193.42 114.03"/>
              </g>
              <g>
                <path class="cls-1" d="M197.68,113.58c-.66,0-1.16-.2-1.5-.59-.34-.39-.51-.96-.51-1.71s.17-1.32,.51-1.71c.34-.39,.84-.58,1.5-.58s1.17,.19,1.51,.58,.51,.96,.51,1.7-.17,1.32-.52,1.71c-.35,.39-.85,.59-1.5,.59Zm0-.45c.46,0,.8-.15,1.02-.45,.22-.3,.33-.77,.33-1.4s-.11-1.1-.33-1.39c-.22-.29-.56-.44-1.02-.44s-.8,.15-1.02,.44c-.22,.3-.33,.76-.33,1.39s.11,1.1,.33,1.4c.22,.3,.56,.45,1.02,.45Z"/>
                <path class="cls-1" d="M197.68,114.08c-.81,0-1.44-.26-1.88-.76-.42-.49-.64-1.17-.64-2.04s.22-1.56,.64-2.04c.44-.5,1.07-.75,1.88-.75s1.45,.25,1.88,.75c.42,.48,.64,1.16,.64,2.03s-.22,1.56-.64,2.04c-.44,.5-1.07,.76-1.88,.76Zm0-4.14c-.39,0-.54,.14-.62,.24-.11,.14-.23,.45-.23,1.09s.13,.96,.23,1.11c.08,.11,.23,.25,.61,.25s.54-.14,.61-.25c.11-.15,.23-.46,.23-1.11s-.12-.96-.23-1.1c-.08-.1-.22-.24-.62-.24Z"/>
              </g>
              <g>
                <path class="cls-1" d="M202.78,113.53v-.44h1.32v-3.4l-1.04,.51-.29-.39,1.51-.75h.48v4.03h1.23v.44h-3.22Z"/>
                <polygon class="cls-1" points="206.5 114.03 202.28 114.03 202.28 112.58 203.6 112.58 203.6 110.48 202.9 110.82 202.01 109.62 204.17 108.55 205.27 108.55 205.27 112.58 206.5 112.58 206.5 114.03"/>
              </g>
              <g>
                <path class="cls-1" d="M210.76,113.58c-.66,0-1.16-.2-1.5-.59-.34-.39-.51-.96-.51-1.71s.17-1.32,.51-1.71c.34-.39,.84-.58,1.5-.58s1.17,.19,1.51,.58,.51,.96,.51,1.7-.17,1.32-.52,1.71c-.35,.39-.85,.59-1.5,.59Zm0-.45c.46,0,.8-.15,1.02-.45,.22-.3,.33-.77,.33-1.4s-.11-1.1-.33-1.39c-.22-.29-.56-.44-1.02-.44s-.8,.15-1.02,.44c-.22,.3-.33,.76-.33,1.39s.11,1.1,.33,1.4c.22,.3,.56,.45,1.02,.45Z"/>
                <path class="cls-1" d="M210.76,114.08c-.81,0-1.44-.26-1.88-.76-.42-.49-.64-1.17-.64-2.04s.21-1.56,.64-2.04c.44-.5,1.07-.75,1.88-.75s1.45,.25,1.88,.75c.42,.48,.64,1.16,.64,2.03s-.22,1.56-.64,2.04c-.44,.5-1.07,.76-1.88,.76Zm0-4.14c-.39,0-.54,.14-.62,.24-.11,.14-.23,.45-.23,1.09s.13,.96,.23,1.11c.08,.11,.23,.25,.61,.25s.54-.14,.61-.25c.11-.15,.23-.46,.23-1.11s-.12-.96-.23-1.1c-.08-.1-.22-.24-.62-.24Z"/>
              </g>
              <g>
                <path class="cls-1" d="M191.14,126.81c-.66,0-1.16-.2-1.5-.59-.34-.39-.51-.96-.51-1.71s.17-1.32,.51-1.71c.34-.39,.84-.58,1.5-.58s1.17,.19,1.51,.58,.51,.96,.51,1.7-.17,1.32-.52,1.71c-.35,.39-.85,.59-1.5,.59Zm0-.45c.46,0,.8-.15,1.02-.45,.22-.3,.33-.77,.33-1.4s-.11-1.1-.33-1.39c-.22-.29-.56-.44-1.02-.44s-.8,.15-1.02,.44c-.22,.3-.33,.76-.33,1.39s.11,1.1,.33,1.4c.22,.3,.56,.45,1.02,.45Z"/>
                <path class="cls-1" d="M191.14,127.31c-.81,0-1.44-.26-1.88-.76-.42-.49-.64-1.17-.64-2.04s.21-1.56,.64-2.04c.44-.5,1.07-.75,1.88-.75s1.45,.25,1.88,.75c.42,.48,.64,1.17,.64,2.04s-.22,1.56-.64,2.04c-.44,.5-1.07,.76-1.88,.76Zm0-4.14c-.39,0-.54,.14-.62,.24-.11,.14-.23,.45-.23,1.09s.13,.96,.23,1.11c.08,.11,.23,.25,.61,.25s.54-.14,.61-.25c.11-.15,.23-.46,.23-1.11s-.12-.96-.23-1.1c-.08-.1-.22-.24-.62-.24Z"/>
              </g>
              <g>
                <path class="cls-1" d="M196.24,126.75v-.44h1.32v-3.4l-1.04,.51-.29-.39,1.51-.75h.48v4.03h1.23v.44h-3.22Z"/>
                <polygon class="cls-1" points="199.96 127.25 195.74 127.25 195.74 125.81 197.06 125.81 197.06 123.71 196.36 124.05 195.47 122.84 197.63 121.78 198.73 121.78 198.73 125.81 199.96 125.81 199.96 127.25"/>
              </g>
              <g>
                <path class="cls-1" d="M204.22,126.81c-.66,0-1.16-.2-1.5-.59-.34-.39-.51-.96-.51-1.71s.17-1.32,.51-1.71c.34-.39,.84-.58,1.5-.58s1.17,.19,1.51,.58,.51,.96,.51,1.7-.17,1.32-.52,1.71c-.35,.39-.85,.59-1.5,.59Zm0-.45c.46,0,.8-.15,1.02-.45,.22-.3,.33-.77,.33-1.4s-.11-1.1-.33-1.39c-.22-.29-.56-.44-1.02-.44s-.8,.15-1.02,.44c-.22,.3-.33,.76-.33,1.39s.11,1.1,.33,1.4c.22,.3,.56,.45,1.02,.45Z"/>
                <path class="cls-1" d="M204.22,127.31c-.81,0-1.44-.26-1.88-.76-.42-.49-.64-1.17-.64-2.04s.22-1.56,.64-2.04c.44-.5,1.07-.75,1.88-.75s1.45,.25,1.88,.75c.42,.48,.64,1.16,.64,2.04s-.22,1.56-.64,2.04c-.44,.5-1.07,.76-1.88,.76Zm0-4.14c-.39,0-.54,.14-.62,.24-.11,.14-.23,.45-.23,1.09s.13,.96,.23,1.11c.08,.11,.23,.25,.61,.25s.54-.14,.61-.25c.11-.15,.23-.46,.23-1.11s-.12-.96-.23-1.1c-.08-.1-.22-.24-.62-.24Z"/>
              </g>
              <g>
                <path class="cls-1" d="M209.32,126.75v-.44h1.32v-3.4l-1.04,.51-.29-.39,1.51-.75h.48v4.03h1.23v.44h-3.22Z"/>
                <polygon class="cls-1" points="213.04 127.25 208.82 127.25 208.82 125.81 210.13 125.81 210.13 123.71 209.44 124.05 208.55 122.84 210.71 121.78 211.8 121.78 211.8 125.81 213.04 125.81 213.04 127.25"/>
              </g>
              <g>
                <path class="cls-2" d="M191.14,140.04c-.66,0-1.16-.2-1.5-.59-.34-.39-.51-.96-.51-1.71s.17-1.32,.51-1.71c.34-.39,.84-.58,1.5-.58s1.17,.19,1.51,.58,.51,.96,.51,1.7-.17,1.32-.52,1.71-.85,.59-1.5,.59Zm0-.45c.46,0,.8-.15,1.02-.45s.33-.77,.33-1.4-.11-1.1-.33-1.39c-.22-.29-.56-.44-1.02-.44s-.8,.15-1.02,.44c-.22,.3-.33,.76-.33,1.39s.11,1.1,.33,1.4,.56,.45,1.02,.45Z"/>
                <path class="cls-1" d="M191.14,140.54c-.81,0-1.44-.26-1.88-.76-.42-.49-.64-1.17-.64-2.04s.22-1.56,.64-2.04c.44-.5,1.07-.75,1.88-.75s1.45,.25,1.88,.75c.42,.48,.64,1.16,.64,2.03s-.22,1.56-.64,2.04c-.44,.5-1.07,.76-1.88,.76Zm0-4.14c-.39,0-.54,.14-.62,.24-.11,.14-.23,.45-.23,1.09s.13,.96,.23,1.11c.08,.11,.23,.25,.61,.25s.54-.14,.61-.25c.11-.15,.23-.46,.23-1.11s-.12-.96-.23-1.1c-.08-.1-.22-.24-.62-.24Z"/>
              </g>
              <g>
                <path class="cls-1" d="M197.68,140.04c-.66,0-1.16-.2-1.5-.59-.34-.39-.51-.96-.51-1.71s.17-1.32,.51-1.71c.34-.39,.84-.58,1.5-.58s1.17,.19,1.51,.58,.51,.96,.51,1.7-.17,1.32-.52,1.71-.85,.59-1.5,.59Zm0-.45c.46,0,.8-.15,1.02-.45s.33-.77,.33-1.4-.11-1.1-.33-1.39c-.22-.29-.56-.44-1.02-.44s-.8,.15-1.02,.44c-.22,.3-.33,.76-.33,1.39s.11,1.1,.33,1.4,.56,.45,1.02,.45Z"/>
                <path class="cls-1" d="M197.68,140.54c-.81,0-1.44-.26-1.88-.76-.42-.49-.64-1.17-.64-2.04s.22-1.56,.64-2.04c.44-.5,1.07-.75,1.88-.75s1.45,.25,1.88,.75c.42,.48,.64,1.16,.64,2.03s-.22,1.56-.64,2.04c-.44,.5-1.07,.76-1.88,.76Zm0-4.14c-.39,0-.54,.14-.62,.24-.11,.14-.23,.45-.23,1.09s.13,.96,.23,1.11c.08,.11,.23,.25,.62,.25s.54-.14,.61-.25c.11-.15,.23-.46,.23-1.11s-.12-.96-.23-1.1c-.08-.1-.22-.24-.62-.24Z"/>
              </g>
              <g>
                <path class="cls-1" d="M204.22,140.04c-.66,0-1.16-.2-1.5-.59-.34-.39-.51-.96-.51-1.71s.17-1.32,.51-1.71c.34-.39,.84-.58,1.5-.58s1.17,.19,1.51,.58,.51,.96,.51,1.7-.17,1.32-.52,1.71-.85,.59-1.5,.59Zm0-.45c.46,0,.8-.15,1.02-.45s.33-.77,.33-1.4-.11-1.1-.33-1.39c-.22-.29-.56-.44-1.02-.44s-.8,.15-1.02,.44c-.22,.3-.33,.76-.33,1.39s.11,1.1,.33,1.4,.56,.45,1.02,.45Z"/>
                <path class="cls-1" d="M204.22,140.54c-.81,0-1.44-.26-1.88-.76-.42-.49-.64-1.17-.64-2.04s.22-1.56,.64-2.04c.44-.5,1.07-.75,1.88-.75s1.45,.25,1.88,.75c.42,.48,.64,1.16,.64,2.03s-.22,1.56-.64,2.04c-.44,.5-1.07,.76-1.88,.76Zm0-4.14c-.39,0-.54,.14-.62,.24-.11,.14-.23,.45-.23,1.09s.13,.96,.23,1.11c.08,.11,.23,.25,.61,.25s.54-.14,.61-.25c.11-.15,.23-.46,.23-1.11s-.12-.96-.23-1.1c-.08-.1-.22-.24-.62-.24Z"/>
              </g>
              <g>
                <path class="cls-1" d="M210.76,140.04c-.66,0-1.16-.2-1.5-.59-.34-.39-.51-.96-.51-1.71s.17-1.32,.51-1.71c.34-.39,.84-.58,1.5-.58s1.17,.19,1.51,.58,.51,.96,.51,1.7-.17,1.32-.52,1.71-.85,.59-1.5,.59Zm0-.45c.46,0,.8-.15,1.02-.45,.22-.3,.33-.77,.33-1.4s-.11-1.1-.33-1.39c-.22-.29-.56-.44-1.02-.44s-.8,.15-1.02,.44c-.22,.3-.33,.76-.33,1.39s.11,1.1,.33,1.4,.56,.45,1.02,.45Z"/>
                <path class="cls-1" d="M210.76,140.54c-.81,0-1.44-.26-1.88-.76-.42-.49-.64-1.17-.64-2.04s.22-1.56,.64-2.04c.44-.5,1.07-.75,1.88-.75s1.45,.25,1.88,.75c.42,.48,.64,1.16,.64,2.03s-.22,1.56-.64,2.04c-.44,.5-1.07,.76-1.88,.76Zm0-4.14c-.39,0-.54,.14-.62,.24-.11,.14-.23,.45-.23,1.09s.13,.96,.23,1.11c.08,.11,.23,.25,.61,.25s.54-.14,.61-.25c.11-.15,.23-.46,.23-1.11s-.12-.96-.23-1.1c-.08-.1-.22-.24-.62-.24Z"/>
              </g>
              <g>
                <path class="cls-1" d="M191.14,153.27c-.66,0-1.16-.2-1.5-.59-.34-.39-.51-.96-.51-1.71s.17-1.32,.51-1.71c.34-.39,.84-.58,1.5-.58s1.17,.19,1.51,.58,.51,.96,.51,1.7-.17,1.32-.52,1.71-.85,.59-1.5,.59Zm0-.45c.46,0,.8-.15,1.02-.45s.33-.77,.33-1.4-.11-1.1-.33-1.39c-.22-.29-.56-.44-1.02-.44s-.8,.15-1.02,.44c-.22,.3-.33,.76-.33,1.39s.11,1.1,.33,1.4,.56,.45,1.02,.45Z"/>
                <path class="cls-1" d="M191.14,153.77c-.81,0-1.44-.26-1.88-.76-.42-.49-.64-1.17-.64-2.04s.21-1.56,.64-2.04c.44-.5,1.07-.75,1.88-.75s1.45,.25,1.88,.75c.42,.48,.64,1.16,.64,2.04s-.22,1.56-.64,2.04c-.44,.5-1.08,.76-1.88,.76Zm0-4.14c-.39,0-.54,.14-.62,.24-.11,.14-.23,.45-.23,1.09s.13,.96,.23,1.11c.08,.11,.23,.25,.61,.25s.54-.14,.61-.25c.11-.15,.23-.46,.23-1.11s-.12-.96-.23-1.1c-.08-.1-.22-.24-.62-.24Z"/>
              </g>
              <g>
                <path class="cls-1" d="M196.24,153.21v-.44h1.32v-3.4l-1.04,.51-.29-.39,1.51-.75h.48v4.03h1.23v.44h-3.22Z"/>
                <polygon class="cls-1" points="199.96 153.71 195.74 153.71 195.74 152.27 197.06 152.27 197.06 150.16 196.36 150.5 195.47 149.3 197.63 148.23 198.73 148.23 198.73 152.27 199.96 152.27 199.96 153.71"/>
              </g>
              <g>
                <path class="cls-1" d="M202.78,153.21v-.44h1.32v-3.4l-1.04,.51-.29-.39,1.51-.75h.48v4.03h1.23v.44h-3.22Z"/>
                <polygon class="cls-1" points="206.5 153.71 202.28 153.71 202.28 152.27 203.6 152.27 203.6 150.16 202.9 150.5 202.01 149.3 204.17 148.23 205.27 148.23 205.27 152.27 206.5 152.27 206.5 153.71"/>
              </g>
              <g>
                <path class="cls-1" d="M210.76,153.27c-.66,0-1.16-.2-1.5-.59-.34-.39-.51-.96-.51-1.71s.17-1.32,.51-1.71c.34-.39,.84-.58,1.5-.58s1.17,.19,1.51,.58,.51,.96,.51,1.7-.17,1.32-.52,1.71-.85,.59-1.5,.59Zm0-.45c.46,0,.8-.15,1.02-.45,.22-.3,.33-.77,.33-1.4s-.11-1.1-.33-1.39c-.22-.29-.56-.44-1.02-.44s-.8,.15-1.02,.44c-.22,.3-.33,.76-.33,1.39s.11,1.1,.33,1.4,.56,.45,1.02,.45Z"/>
                <path class="cls-1" d="M210.76,153.77c-.81,0-1.44-.26-1.88-.76-.42-.49-.64-1.17-.64-2.04s.21-1.56,.64-2.04c.44-.5,1.07-.75,1.88-.75s1.45,.25,1.88,.75c.42,.48,.64,1.16,.64,2.04s-.22,1.56-.64,2.04c-.44,.5-1.08,.76-1.88,.76Zm0-4.14c-.39,0-.54,.14-.62,.24-.11,.14-.23,.45-.23,1.09s.13,.96,.23,1.11c.08,.11,.23,.25,.61,.25s.54-.14,.61-.25c.11-.15,.23-.46,.23-1.11s-.12-.96-.23-1.1c-.08-.1-.22-.24-.62-.24Z"/>
              </g>
            </g>
            <path class="cls-1" d="M160.14,106.05h-5.46c-.55,0-1-.45-1-1s.45-1,1-1h5.46c.55,0,1,.45,1,1s-.45,1-1,1Z"/>
            <g>
              <path class="cls-1" d="M159.93,112.58h-5.46c-.55,0-1-.45-1-1s.45-1,1-1h5.46c.55,0,1,.45,1,1s-.45,1-1,1Z"/>
              <path class="cls-1" d="M164.14,112.58c-.27,0-.52-.1-.71-.29-.18-.18-.29-.44-.29-.71s.11-.52,.29-.7c.05-.05,.1-.09,.15-.13,.06-.03,.12-.06,.18-.09,.06-.02,.12-.04,.18-.06,.33-.06,.67,.04,.91,.28,.18,.18,.29,.44,.29,.7s-.11,.53-.29,.71c-.19,.19-.45,.29-.71,.29Z"/>
              <path class="cls-1" d="M173.67,112.58h-5.46c-.55,0-1-.45-1-1s.45-1,1-1h5.46c.55,0,1,.45,1,1s-.45,1-1,1Z"/>
            </g>
            <g>
              <path class="cls-1" d="M169.77,119.11h-11.41c-.55,0-1-.45-1-1s.45-1,1-1h11.41c.55,0,1,.45,1,1s-.45,1-1,1Z"/>
              <path class="cls-1" d="M173.67,119.11c-.27,0-.52-.1-.71-.29-.19-.18-.29-.44-.29-.71s.1-.52,.29-.7c.37-.37,1.05-.38,1.41,0,.19,.18,.3,.44,.3,.7s-.11,.52-.3,.71c-.18,.19-.44,.29-.7,.29Z"/>
            </g>
            <path class="cls-1" d="M173.92,125.64h-11.41c-.55,0-1-.45-1-1s.45-1,1-1h11.41c.55,0,1,.45,1,1s-.45,1-1,1Z"/>
            <g>
              <path class="cls-1" d="M169.33,132.17h-11.41c-.55,0-1-.45-1-1s.45-1,1-1h11.41c.55,0,1,.45,1,1s-.45,1-1,1Z"/>
              <path class="cls-1" d="M173.23,132.17c-.27,0-.52-.1-.71-.29-.09-.09-.17-.2-.22-.33-.05-.12-.07-.25-.07-.38s.02-.26,.07-.38c.05-.12,.13-.23,.22-.33,.05-.04,.1-.08,.15-.12,.06-.04,.11-.07,.17-.09,.06-.03,.13-.05,.19-.06,.2-.04,.4-.02,.58,.06,.12,.05,.23,.12,.32,.21,.1,.1,.17,.21,.22,.33,.05,.12,.08,.25,.08,.38s-.03,.26-.08,.38c-.05,.13-.12,.24-.22,.33-.09,.09-.2,.17-.32,.22-.12,.05-.25,.07-.38,.07Z"/>
            </g>
            <path class="cls-1" d="M173.92,138.7h-11.41c-.55,0-1-.45-1-1s.45-1,1-1h11.41c.55,0,1,.45,1,1s-.45,1-1,1Z"/>
            <path class="cls-1" d="M160.14,145.23h-5.46c-.55,0-1-.45-1-1s.45-1,1-1h5.46c.55,0,1,.45,1,1s-.45,1-1,1Z"/>
          </g>
          <path class="cls-1" d="M219.97,96.15h-2.53v2.59h2.53c3.2,0,5.8,2.6,5.8,5.8v40.34c0,3.2-2.6,5.8-5.8,5.8h-2.53v2.59h2.53c4.63,0,8.39-3.76,8.39-8.39v-40.34c0-4.63-3.76-8.39-8.39-8.39Z"/>
          <path class="cls-1" d="M151.94,153.07h2.53v-2.59h-2.53c-3.2,0-5.8-2.6-5.8-5.8v-40.34c0-3.2,2.6-5.8,5.8-5.8h2.53v-2.59h-2.53c-4.63,0-8.39,3.76-8.39,8.39v40.34c0,4.63,3.76,8.39,8.39,8.39Z"/>
        </g>
        <rect class="cls-1" x="152.16" y="95.95" width="32.82" height="2.54"/>
        <rect class="cls-1" x="152.16" y="150.53" width="32.82" height="2.54"/>
      </g>
    </g>
    <g>
      <path class="cls-1" d="M96.47,61.15h0c0-2.44-2-4.44-4.44-4.44h-12.02c-2.44,0-4.44,2-4.44,4.44h0c0,.99,.8,1.79,1.79,1.79h17.3c.99,0,1.79-.8,1.79-1.79Z"/>
      <path class="cls-1" d="M94.67,63.73h-17.3c-1.42,0-2.57-1.15-2.57-2.57,0-2.88,2.34-5.22,5.22-5.22h12.02c2.88,0,5.22,2.34,5.22,5.22,0,1.42-1.15,2.57-2.57,2.57Zm-14.66-6.23c-2.02,0-3.66,1.64-3.66,3.66,0,.56,.45,1.01,1.01,1.01h17.3c.56,0,1.01-.45,1.01-1.01,0-2.02-1.64-3.66-3.66-3.66h-12.02Z"/>
    </g>
  </g>
</svg>